<?xml version="1.0" encoding="UTF-8"?>
<svg id="Capa_1" data-name="Capa 1" xmlns="http://www.w3.org/2000/svg" viewBox="0 0 200 200">
  <defs>
    <style>
      .cls-1 {
        fill: #bbc447;
      }

      .cls-2 {
        fill: #eb844c;
      }

      .cls-3 {
        fill: #6e3f6a;
      }

      .cls-4 {
        fill: #40b8b3;
      }
    </style>
  </defs>
  <path class="cls-3" d="M94.06,117.51v27.03h0v55.47H17.56v-121.8h37.18c21.72,0,39.32,17.6,39.32,39.32h0Z"/>
  <path class="cls-4" d="M145.16,78.2h37.24c-2.65,40.46-31.37,66.33-76.56,66.34v-27.03c0-21.72,17.6-39.32,39.32-39.32Z"/>
  <path class="cls-2" d="M54.74,66.4H17.56V0h76.5v27.09c0,21.72-17.6,39.32-39.32,39.32h0Z"/>
  <path class="cls-1" d="M105.85,27.09V0c45.5.11,74.19,25.73,76.59,66.4h-37.28c-21.72,0-39.32-17.6-39.32-39.32h0Z"/>
</svg>