<?xml version="1.0" encoding="UTF-8"?>
<svg id="uuid-eba5a7c4-beda-4321-8a80-4cc16c377d99" xmlns="http://www.w3.org/2000/svg" viewBox="0 0 200 242.59">
  <defs>
    <style>
      .cls-1 {
        fill: #fff;
      }
    </style>
  </defs>
  <path class="cls-1" d="M92.79,142.53v32.78h0v67.28H0V94.85h45.1c26.34,0,47.69,21.35,47.69,47.69h0Z"/>
  <path class="cls-1" d="M154.78,94.85h45.17c-3.21,49.07-38.05,80.46-92.86,80.47v-32.78c0-26.34,21.35-47.69,47.69-47.69Z"/>
  <path class="cls-1" d="M45.1,80.54H0V0h92.79v32.86c0,26.34-21.35,47.69-47.69,47.69h0Z"/>
  <path class="cls-1" d="M107.1,32.86V0c55.19.13,89.99,31.21,92.9,80.54h-45.22c-26.34,0-47.69-21.35-47.69-47.69h.01Z"/>
</svg>