<?xml version="1.0" encoding="UTF-8"?><svg id="uuid-eba5a7c4-beda-4321-8a80-4cc16c377d99" xmlns="http://www.w3.org/2000/svg" viewBox="0 0 200 242.6"><path d="M92.79,142.53v32.78h0v67.28s-92.79,0-92.79,0V94.85s45.1,0,45.1,0c26.34,0,47.69,21.35,47.69,47.69Z" fill="#6e3f6a"/><path d="M154.78,94.85h45.17c-3.21,49.07-38.05,80.46-92.86,80.47v-32.78c0-26.34,21.35-47.69,47.69-47.69Z" fill="#40b8b3"/><path d="M45.1,80.54H0S0,0,0,0h92.79s0,32.86,0,32.86c0,26.34-21.35,47.69-47.69,47.69Z" fill="#eb844c"/><path d="M107.1,32.86V0c55.19.13,89.99,31.21,92.9,80.54h-45.22c-26.34,0-47.69-21.35-47.69-47.69Z" fill="#bbc447"/></svg>