<?xml version="1.0" encoding="UTF-8"?>
<svg id="Capa_1" data-name="Capa 1" xmlns="http://www.w3.org/2000/svg" viewBox="0 0 51.23 56">
  <defs>
    <style>
      .cls-1 {
        fill: #24366c;
        fill-rule: evenodd;
      }
    </style>
  </defs>
  <path class="cls-1" d="M45.57,11.66c.27.32.92.27.98.79-.55.19-.77-.41-1.33-.39.13.36.7.29.75.73-.43.18-.68-.26-1.1-.28-.03.2.63.21.58.62-.27.27-.61-.09-.87-.17-.1.27.46.37.46.73-.45.07-.54-.23-.92-.23-.16.22.3.31.23.62-.21.15-.42-.09-.58-.17.05.11.19.27.06.39-.33.08-.37-.17-.58-.06-.16.22.25.38.06.62-.27.02-.36-.14-.58-.17v.45c-.42-.12-.37.05-.52.28-.23.08-.18-.12-.34-.11-.27.1.05.43-.12.62-.27.02-.32-.17-.52-.22-.1.07-.02.32-.11.39-.37.03-1.13.41-1.15-.23-.01-.27.68-.64.92-.79.98-.6,2.43-1.53,2.6-2.7.07-.53-.16-1.16-.75-1.18-.32-.01-.72.25-.69.56.04.44.64.33.75.79.11.49-.79,1.46-1.21,1.86-.23.21-.49.45-.92.67-.32.16-.79.43-1.15.39-.37-.03-.58-.27-.58-.45,0-.29,1.21-.83,1.39-.96.35-.26,1.06-.82,1.04-1.29-.02-.41-.5-.54-.58-.9-.05-.25-.05-.5.17-.95-1.29-.19-2.39-.78-2.31-2.02.03-.48.46-1.14.75-1.63.32-.52.77-1,1.04-1.35-8.99-1.52-20.93-1.58-29.71.17.28.43,1.05,1.16,1.38,1.91.46,1.04-.15,2.41-1.38,2.64.38.89-.89,1.06-.92,1.8-.03.72.97,1.22,1.56,1.52.74.37,1.48.62,2.19.84-.29.41-.6.8-.98,1.12-1.68-.45-3.35-1.23-4.38-2.36-.11-.12-.55-.66-.52-.95.03-.28.58-.43.58-.73,0-.71-1.16-.34-1.27.06-.19.68.46,1.6.81,1.97.64.67,1.61,1.17,2.54,1.63.28.14.69.25.75.62-.51.56-1.21-.04-1.73-.34-1.54-.87-3.12-1.66-4.96-2.42-.7-.29-1.74-.54-1.79-1.12-.08-.89,1.49-1.36,2.19-1.63-.77-.24-1.77-.26-2.65-.39-.02.37.2.75.12,1.18-.11.53-.7.89-1.04.95-.27-.08-.18-.45-.23-.67-.16-.73-.31-1.61.29-2.08.25-.2.8-.46,1.21-.51.54-.06,1.27.14,1.96.17,2.12.09,4.48.08,5.31-1.12-2.01-.32-4.49.8-6.4.79-.56,0-1.06-.25-1.27-.68-.18-.37-.11-1.06-.29-1.52-.28-.71-1.35-1.27-1.21-2.47.11-.98,1.09-1.13,2.42-1.46C10.98.88,19.85-.34,29.77.08c5.94.25,12.52,1.4,17.77,2.75,1.28.33,3.23.49,2.71,2.25-.14.47-.64.94-.92,1.46-.35.65-.5,1.22-.52,1.85-.38.29-.87.26-1.33.22-1.94-.13-4.03-.78-6.23-.39.57,1.23,3.1,1.1,5.14,1.01.99-.04,2.06-.26,2.77-.17,1.22.15,1.97,1.33,1.27,2.7-.06.17.12.57-.12.56-.22.19-.45-.26-.63-.56-.29-.48-.66-1.13-.17-1.63-.95-.04-1.69.12-2.54.17.11.19.42.23.69.39.51.3,1.37.98,1.73,1.46.35.46.51,1.47-.29,1.63-.2.04-.44-.08-.63-.06-.61.09-1.34.56-1.96.9-1.22.67-2.29,1.44-3.58,2.02-.64.29-1.41.63-2.19.39-.17-.54.39-.58.75-.68,1.86-.51,2.75-1.72,4.38-2.7.5-.3,1.52-.74,1.56-1.24.04-.51-.61-1.04-1.21-1.12-.04.32.86.22.75.79-.53.12-.91-.34-1.38-.45M48.92,6.55c.35-.69,1.22-1.24,1.09-2.14-.1-.73-1.52-1.06-2.42-1.29-3.04-.79-6.36-1.45-9.46-1.91-4.41-.66-9.4-1.07-14.42-.84-2.18.1-4.23.15-6.29.34-5.05.45-9.7,1.3-14.19,2.42-.88.22-2.16.47-2.31,1.01-.32,1.18.98,1.98,1.21,2.64.17.5.05.9.23,1.4.43.03.79-.24,1.16-.39,1.21-.48,2.44-.88,3.75-1.23,10.14-2.76,25.77-2.8,36.17-.28,1.82.44,3.47,1.06,5.08,1.57.17-.42.17-.82.4-1.29M39.06,8.74l.06-.05c1.48-1,3.94-.97,6.23-.67,1.09.14,2.18.48,3.11.22-2.35-.94-5.01-1.57-7.67-2.19-.76.69-1.39,1.79-1.73,2.7M10.38,6.27c-2.21.3-4.09.94-5.88,1.57-.6.21-1.28.29-1.73.73,2.32.16,4.61-.92,7.04-.73.82.06,1.53.29,2.13.67-.33-.93-.89-1.64-1.56-2.25M10.04,8.23c-.58,1.3-3.07,1.49-5.02,1.41-1.44-.06-3.04-.44-3.69.39-.42.54-.08,1.19,0,1.97.91-.13.49-1.62.35-2.08,1.19-.07,2.54.49,3.92.45.83-.03,1.64-.26,2.48-.23.39.02.82.07,1.21.11.42.04.87.2,1.21.17.76-.07,1.41-.83,1.44-1.52-.78-.08-1.22-.49-1.9-.67M41.13,10.59c.27-.04.56-.32.81-.39.88-.27,1.96-.28,3-.23.39.02.82.17,1.27.17,1.2,0,3.09-.62,4.04-.11-.28-.31-.69-.49-1.09-.67-2.2.13-5.6.52-7.38-.17-.44-.17-.59-.61-.92-.84-.59.34-1.22.64-1.85.96.13.71,1.19,1.44,2.13,1.29M50.3,10.42c-.15.14-.42-.08-.69,0-.16.62.26,1.12.52,1.52.03-.53.39-1.05.17-1.63v.11Z"/>
  <path class="cls-1" d="M27.17.7h.17c.19.16.19.47.23.73.12.71.29,1.66.29,2.36-.26-.12-.17-.58-.23-.9-.11-.1-.38-.04-.58-.06-.14.26-.04.74-.23.95-.24-.14-.03-.47,0-.67.1-.68.2-1.55.35-2.25M27.11,2.5h.4c-.02-.49-.13-.88-.17-1.35,0-.06-.03-.14-.06-.06,0,.52-.17.88-.17,1.4"/>
  <path class="cls-1" d="M23.59.76h.18c.19.16.19.48.23.73.12.71.29,1.66.29,2.36-.26-.12-.17-.58-.23-.9-.11-.1-.38-.04-.58-.06-.14.26-.04.74-.23.95-.24-.14-.03-.48,0-.67.1-.68.2-1.55.34-2.25M23.54,2.56h.4c-.02-.49-.13-.88-.17-1.35,0-.06-.03-.14-.06-.06,0,.52-.17.88-.17,1.41"/>
  <path class="cls-1" d="M24.52.76h.17v2.7c.06.19.61-.1.58.17.09.41-.5.15-.75.22"/>
  <path class="cls-1" d="M28.04.81h.17c.12.89-.28,2.3.29,2.75.47-.14.32-.74.34-1.23.03-.54.05-1.11.12-1.52.26.22.08.93.06,1.29-.03.65.15,1.82-.52,1.8-.79-.03-.34-2.23-.46-3.09"/>
  <path class="cls-1" d="M30.29.81v.39c-.19.03-.27-.04-.4-.06-.12.84,0,1.91-.17,2.7-.26-.18-.07-.53-.06-.84.03-.6-.05-1.26.06-1.8-.04-.13-.32-.02-.46-.06-.09-.54.64-.28,1.04-.34"/>
  <path class="cls-1" d="M21.11.87c.32.31.47.8.52,1.52.04.55.04,1.6-.4,1.63-.65.05-.82-2.48-.4-2.98.02-.07.1-.09.12-.17M21.17,1.26c-.07,0-.08-.07-.17-.06-.41.4-.31,2.4.23,2.47.42-.49.27-1.96-.06-2.42"/>
  <path class="cls-1" d="M21.98.87h.17c.17.73.4,1.4.52,2.19.17-.6-.06-1.59.11-2.19.22.14.11.47.12.73.01.7.04,1.69-.06,2.36-.25-.17-.32-.68-.4-1.01-.1-.39-.18-.79-.23-1.18-.17.6.06,1.59-.12,2.19-.22-.12-.11-.45-.12-.67-.01-.67.01-1.53,0-2.25"/>
  <path class="cls-1" d="M30.86,4.07c-.68-.57-.39-2.31-.11-3.09.05-.05.16-.03.17-.11.09-.02.1.05.17.06.37.77.38,2.64-.23,3.15M30.86,3.68c.46-.37.54-2.06.06-2.47-.37.48-.55,2-.06,2.47"/>
  <path class="cls-1" d="M19.96,1.04h.17c-.02,1.03.15,2.18.06,3.09-.16-.1-.16-.53-.17-.79-.04-.67.01-1.48-.06-2.13"/>
  <path class="cls-1" d="M33.52,4.24c-.53-.69-.31-2.47.11-3.09.01-.06.11-.04.12-.11.05.03.09.06.17.06.34.87.33,2.66-.4,3.15M33.52,3.91c.6-.31.53-1.76.34-2.47-.67.26-.61,1.83-.34,2.47"/>
  <path class="cls-1" d="M17.83,1.09h.17c.23.97.61,2.11.75,2.98-.37-.07-.22-.65-.4-.9-.19,0-.29.09-.52.06,0,.36-.01.7-.12.96-.26-.08-.07-.39-.06-.56.04-.77.1-1.5.11-2.36.07,0,.05-.1.06-.17M17.83,2.89h.4c.02-.33-.15-.93-.29-1.29-.08.39-.01.93-.12,1.29"/>
  <path class="cls-1" d="M34.61,1.26h.29c-.02.92.14,1.66.11,2.59.23-.57.3-1.27.46-1.97.04-.18.04-.46.23-.56.27.17.07.48.06.73-.04.75-.06,1.66-.17,2.36-.29-.6.09-1.48,0-2.25-.11.33-.21.74-.29,1.12-.09.39-.05.86-.35,1.07-.1-.8-.16-1.64-.17-2.53-.2.72-.05,1.78-.29,2.47-.19-.07-.02-.77,0-1.07.04-.56.04-1.2.11-1.8M35.65,2.05c.02-.08-.04-.22-.06-.11-.02.08.04.22.06.11"/>
  <path class="cls-1" d="M14.02,1.43c.58.56.69,2.09.4,2.98-.09.13-.4.06-.52.17-.26-.89-.2-2.09-.41-3.04.11-.09.36-.06.52-.11M13.96,4.19c.57.02.5-.7.46-1.18-.04-.49-.18-.99-.35-1.18-.12.03-.38-.07-.4.06.16.71.14,1.59.29,2.31"/>
  <path class="cls-1" d="M36.98,1.49h.17c.06.98.1,2.26.06,3.15-.34-.04-.1-.65-.17-.96-.09-.11-.42,0-.52-.11-.15.27-.12.71-.35.9-.16-.06-.02-.41.06-.68.2-.65.53-1.45.69-2.13.03-.04.06-.09.06-.17M36.63,3.29c.15,0,.33-.02.4.05-.04-.47.08-1.08-.06-1.46-.04.54-.29.88-.35,1.41"/>
  <path class="cls-1" d="M12.58,1.66h.17c.26,1,.71,2.12.87,3.03-.35-.09-.25-.62-.4-.9-.25-.03-.38.04-.58.06-.04.3.08.75-.06.96-.26-.19-.07-.74-.06-1.01.03-.63-.04-1.39.06-1.97M12.69,3.51c.18.03.2-.1.4-.06-.13-.45-.24-.93-.4-1.35v1.4Z"/>
  <path class="cls-1" d="M11.71,1.99c.43.64.73,2.08.35,2.98-.16.04-.36.02-.46.11-.25-.89-.32-1.97-.46-2.98.07-.16.35-.1.58-.11M11.37,2.39c-.08.69.23,1.51.23,2.3.14,0,.17-.1.35-.06.3-.63.06-1.75-.23-2.3-.14-.01-.28-.01-.35.05"/>
  <path class="cls-1" d="M10.5,2.11h.17c.15.96.37,2.15.4,3.04-.22.01-.2-.36-.23-.56-.12-.73-.18-1.61-.29-2.31-.03-.04-.06-.09-.06-.17"/>
  <path class="cls-1" d="M10.21,3.06c-.2-.09-.1-.47-.35-.51-.53.27-.03,1.04.4,1.07.24.33.51,1.36.06,1.68-.43-.05-.58-.66-.52-1.01.15.21.16.56.4.67.13-.02.13-.17.23-.22.2-.7-.51-.75-.75-1.12-.24-.37-.28-1.29.06-1.46.35.08.52.61.46.9"/>
  <path class="cls-1" d="M43.56,2.56c.29.04.55.1.81.17-.07.07-.06.2-.06.34-.23-.02-.4-.1-.63-.11-.11.23-.1.57-.17.84.12.13.34.15.58.17.05.19-.08.22-.06.39-.15-.06-.3-.12-.52-.11-.21.19-.17.62-.23.96.14.13.42.12.64.17.03.18-.11.2-.06.39-.25-.07-.48-.17-.81-.17.17-1.02.36-2.01.52-3.03"/>
  <path class="cls-1" d="M6.52,2.67c.07-.01.1.01.12.06.01,1.04.22,2.19.17,3.09-.19-.16-.27-.44-.35-.67-.23-.68-.46-1.5-.69-2.25.25.06.22.37.29.56.18.52.43,1.2.58,1.85.11-.76-.18-1.92-.12-2.64"/>
  <path class="cls-1" d="M44.65,2.78c.34.1.1.76.17,1.12.35-.17.29-.73.64-.9.19.02-.03.24-.06.28-.12.24-.45.69-.52,1.01-.11.56.2,1.11,0,1.69-.23-.1-.1-.47-.12-.73-.02-.21-.1-.39-.06-.56-.22.31-.38.97-.63,1.07-.2-.04.03-.27.06-.34.14-.29.51-.76.58-1.12.09-.47-.15-.94-.06-1.52"/>
  <path class="cls-1" d="M5.13,3.06h.17c.16,1.02.58,2.09.69,2.98-.27-.09-.23-.47-.29-.68-.18-.68-.39-1.45-.58-2.13"/>
  <path class="cls-1" d="M45.92,3.12h.17c-.26.98-.43,2.05-.75,2.98-.18-.04-.05-.44,0-.68.14-.66.43-1.44.52-2.13.03-.04.06-.09.06-.17"/>
  <path class="cls-1" d="M5.13,5.48c0-.68-.57-1.58-.52-2.31.41.9.62,1.98.92,2.98-.4-.15-.55-.63-.75-.96-.22-.36-.43-.72-.69-1.01.17.72.54,1.53.58,2.19-.27-.12-.21-.48-.29-.73-.2-.67-.56-1.55-.64-2.19.22-.08.3.24.4.39.31.46.7,1.1.98,1.63"/>
  <path class="cls-1" d="M47.02,4.41c-.1-.14.1-.58-.11-.73-.7.32-.86,1.44-.75,2.36.4.02.46-.3.52-.62.31.15-.13.96-.4.96-.36,0-.37-.41-.35-.84.04-.74.48-1.98.87-2.19.16-.05.15.08.29.06.1.32.17.77-.06,1.01"/>
  <path class="cls-1" d="M3.23,3.68c.09-.02.1.05.17.05.16.55.27.95.46,1.63.11.37.53,1.37-.12,1.46-.53.08-.72-.83-.87-1.29-.2-.63-.39-1.16-.46-1.57.29-.06.22.36.29.56.21.63.42,1.62.92,1.97.5-.28.12-.9,0-1.29-.14-.47-.25-.99-.41-1.35-.07-.07-.02-.09,0-.17"/>
  <path class="cls-1" d="M48.29,3.74c.25.52.05,1.21-.11,1.74-.15.49-.33,1.18-.87,1.24-.29-1.13.2-2.41.81-3.03.09-.02.1.05.17.05M47.94,5.7c.18-.46.35-1,.29-1.63-.07,0-.08-.07-.17-.06-.49.51-.76,1.48-.69,2.36.4.06.47-.4.58-.67"/>
  <path class="cls-1" d="M31.21,5.09c.46.32.95.61,1.38.96.34-.14.46-.49.81-.62.43.74.74,1.58,1.73,1.91.32.11.65.06,1.04.11,1.25.18,2.3,1.1,1.39,2.3-.51.09-.41-.42-.63-.62-.27-.12-.71-.15-1.04-.06.88.16.64,1.02-.29,1.07-.57.03-1.31-.44-1.73-.17-.36.37-.54,1.93-.34,2.81.21.95,1.36,1.33,2.36.9,0,.16.13.21.23.28-.32.39-.82,1.09-1.79.9-.5-.1-.61-.55-1.04-.45-.25.06-.33.52-.69.56-.76.09-.93-.9-1.27-1.18-.7.51-1.66,1.41-2.83,1.35-.98-.05-1.49-.74-1.9-1.52,1.62.21,3-.3,3.69-1.18-.98.58-3.47.85-3.52-.9,1.41.21,2.51-.36,3.29-.95-1.13.23-2.16-.35-2.48-.9-.02-.17.13-.17.12-.34.77.06,1.5.04,2.19-.11-.96-.11-1.67-.46-1.79-1.41.73-.19,1.98.13,2.54-.22-.44-.62-.34-1.63-.06-2.36.29.26.46.64.75.9,0-.39-.14-.65-.12-1.07M31.96,7.05c-.18.03-.3.12-.46.17-.17-.36-.43-.63-.69-.9-.14.78.44,1.14.58,1.46-.59.46-1.66.44-2.65.51.39.58,1.55.46,2.37.34-.27,1.03-1.44,1.18-2.65,1.29.99.6,2.37-.03,2.89-.51-.14-.95.42-1.52,1.15-1.8-.1-.28-.07-.78,0-1.07-.17-.18-.52-.47-.69-.45.11.26.1.65.17.95M33.86,6.94c-.24-.21-.43-.48-.58-.79-.17,0-.21.13-.29.23.16.27.51.66.86.56M32.94,7.5c.26.07.61.2.75-.06-.36-.06-.59-.25-.81-.45-.02.2.01.37.06.51M32.77,7.95c-.38.29-.95.39-.98,1.01.39-.05.57-.3.98-.34.02.17.03.34.17.39.3-.47,1.12-1.11,1.27-1.35-.3.33-.89.5-1.44.28M33.58,8.96c-.11.11-.11.25,0,.06.12-.07.22-.16.29-.28.16-.13.38-.31.58-.5.14-.13.58-.49.35-.56-.37.47-.76.9-1.21,1.29M35.42,7.89c-.31.39-.87.83-1.21,1.18-.1.1-.43.37-.23.39.75-.12,1.35.34,1.85.11-.28-.12-.68-.12-1.1-.11.04-.21-.1-.24-.06-.45.68-.39,2.15-.73,2.77-.06-.04-.97-.99-1.06-2.02-1.07M32.77,9.47c-.31-.34-.57-.12-.98,0-.09.19-.05.51-.06.79.23-.02.39-.11.58-.17.11.23.13.54.4.62h.23c.06-.44.46-.92.23-1.29-.13.02-.22.09-.4.06M27.46,12.11c.68.56,1.97.38,2.71-.17.19-.13.41-.41.64-.67.37-.43.59-.66.4-1.12-.86,1.03-2.06,1.74-3.75,1.97M31.85,10.7c-.18.2-.38.44-.58.67-.18.22-.47.43-.46.67.81.19,1.35-.66,1.21-1.41-.01.07-.09.06-.17.06M32.77,12.62c.44-.13.25-.88.29-1.41-.18.01-.24-.1-.46-.06.07.48-.01,1.1.17,1.46M31.61,12.39c.09.34-.24.83.06,1.01.51.01.7-.84.46-1.46-.14.18-.35.3-.52.45M30.75,12.56c-.63.94-1.68,1.47-3.17,1.57.77,1.18,2.83.01,3.52-.73v-.84h-.35ZM31.96,13.96c.24.14.26.5.58.56.28-.25.57-.84.35-1.24-.56-.02-.68.39-.92.68M34.9,14.3c-.4.11-.63-.25-.86-.11.19.09.64.41.86.11"/>
  <path class="cls-1" d="M19.39,10.93c-.19,0-.06-.32-.17-.39-.17.13.11.3.06.5.26-.13.33-.42.64-.5.1.09.23.15.23.34.12-.12-.13-.36-.23-.45.21-.14.36-.36.58-.5.33.11.45.45.4.67-.04.2-.32.21-.58.51-.13.16-.32.55-.57.56.07.14.29-.22.4-.06.09.19,0,.57.12.73-.19.18-.55.17-.75.34-.21-.51.35-1.31-.23-1.57.1.93.27,2.34-.63,2.36-1.06.03-.46-1.24-.69-2.08-.12-.43-.5-.41-.64-.73-.02-.61.3-.93.23-1.41-.07-.54-.82-1.22-.92-1.91-.04-.3-.03-.65.12-1.07.39-.04.59.07.92-.06.25-.09.34-.39.52-.45.64-.22,1.05.26,1.56.56v.45c.24.54.93.92.75,1.68.79.02.63.45.11,1.07-.15.18-.51.76-.63.79l-.12-.06c-.19.19-.35.55-.46.67M18.35,6.21c-.27.07-.21.47-.52.51h-.75c-.18,1.07.79,1.66.92,2.36.09.48-.13.85-.17,1.46.17.29.46.25.58.67.14.54-.24,1.37.17,1.74.53-.18.25-.83.23-1.18-.01-.22.03-.5,0-.73-.04-.25-.26-.5-.23-.79.09-.85,1.41-1.24,1.44-2.02.03-.69-.87-.87-.75-1.69-.26-.16-.46-.38-.92-.34M20.48,9.02c.22.05.22-.12.29-.22-.22-.05-.22.12-.29.22M19.96,9.69c.18.02.33-.24.12-.28-.03.11-.13.14-.12.28M19.33,10.31c.22.04.2-.15.29-.23-.19-.01-.28.07-.29.23M20.48,10.65c.13-.11.11-.26-.06-.34-.16.13-.07.22.06.34M19.85,11.27c.08-.07.1-.34-.06-.34-.14.11-.11.26.06.34M19.85,12.22s.15-.22,0-.22c-.02.03-.14.22,0,.22"/>
  <path class="cls-1" d="M16.67,10.48c-.78-.1-1.67-.1-2.31-.34v-.45c.63-.08,1.14-.27,1.44-.67-.27-.22-.77-.06-1.15-.06-.1-1.3.6-1.81,1.56-2.08.16,1.28,2.01,2.64.46,3.6M15.92,7.5c-.5.09-.69.49-.81.95.66-.02,1.1.09,1.16.51.07.5-.51.65-.81.96.42-.02.76.04,1.1.11.75-.88-.54-1.6-.64-2.53"/>
  <path class="cls-1" d="M18.06,7.45c.73-.21.59.77.12.79-.33,0-.71-.62-.12-.79"/>
  <path class="cls-1" d="M14.42,7.61c.13.3.02.84.06,1.24-.12.24-.48.24-.57.5-.07.35-.02.5-.23.73-.61-.12-.86-.62-.81-1.13.07-.78.96-1.14,1.56-1.35M13.91,8.29c-.27.21-.8.64-.46,1.07-.04-.45.93-.67.46-1.07"/>
  <path class="cls-1" d="M21.75,9.86c-.18.28-.48.43-.69.67-.13-.27-.12-.67-.46-.73.18-.24.39-.45.58-.67.34.09.45.42.58.73M21.06,9.81c.13-.02.06.16.17.17.13-.08.17-.37,0-.45-.02.13-.2.11-.17.28"/>
  <path class="cls-1" d="M21.46,11.72c.19-.06.34-.15.58-.17.19.25.05.55.12.79.23.87,1.02,1.62,1.27,2.53-.32.1-.52.31-.92.34-.27-.83-.71-1.48-.98-2.3.22-.12.44-.25.58-.45-.24.09-.53.12-.81.17-.04-.65,0-1.38-.34-1.74.24-.14.34-.42.63-.51.6.24.3,1.16-.12,1.35M21.52,11.27c.07-.07.11-.44,0-.51-.19.06-.07.37,0,.51M21.58,12.05c.07,0,.06.09.06.17h.23c-.03-.1.07-.33-.06-.34-.01.12-.26.01-.23.17M21.87,13.07c.15.26.33.55.46.84.15.31.18.7.46.9.07,0,.08-.07.17-.06-.13-.57-.57-1.32-.92-1.85.02.13-.17.06-.17.17"/>
  <path class="cls-1" d="M20.25,12.28c-.05-.4.13-.67-.06-.9.21-.13.38-.3.58-.45.43.04.29.78.17,1.07-.26.07-.43.22-.69.28M20.6,11.77c.19.07.14-.38.06-.39-.08.07-.06.24-.06.39"/>
  <path class="cls-1" d="M21.29,13.01c-.34.06-.59.21-.86.34-.17-.15,0-.49,0-.62l-.12-.17c.1-.28.44-.22.58-.51.4.06.32.59.4.96M20.71,12.84c.11.01.13-.06.23-.05-.03-.11.08-.34-.12-.28-.05.11-.1.21-.12.34"/>
  <path class="cls-1" d="M16.67,15.09c-.36-.15-1-.04-1.27-.28,0-.26.29-.44.46-.56.56-.4,1.25-.75,1.79-1.24.11.07.05.29.11.39.19-.01.25.1.46.05-.52.55-1.05,1.08-1.56,1.63M17.42,13.51c-.44.44-1.04.71-1.5,1.13.18.07.46.04.64.11.28-.42.97-.77,1.04-1.18-.07,0-.08-.07-.17-.06"/>
  <path class="cls-1" d="M2.77,15.71c-.15-.31.11-.57.06-.96-.25.11-.15.57-.4.67-.43-.1-.11-.63-.11-.95-.34.17-.11.91-.58.95-.49-.18-.24-1.36.12-1.68.53-.47,1.45-.15,1.61.51.14.55-.08,1.56-.69,1.46"/>
  <path class="cls-1" d="M19.04,13.79c-.25.45-.44.96-.69,1.41-.46-.01-.88-.08-1.27-.17.39-.51.81-.98,1.16-1.52.27.09.64.09.81.28M17.65,14.81c.14.05.31.07.52.06.14-.31.33-.58.4-.96-.1,0-.18-.01-.23-.06-.2.35-.48.62-.69.95"/>
  <path class="cls-1" d="M50.07,13.96c.12.78.07,2.2,0,3.15-.41.69-1.57.54-1.85-.39-.06-.21-.19-1.67-.11-2.02.05-.24.23-.55.52-.45.07.58.13,1.48.17,2.25.15.1.3.19.58.17.26-.67-.32-3.03.69-2.7"/>
  <path class="cls-1" d="M31.67,14.92c-.38.13-1.02.02-1.5.06.23-.33.69-.45.92-.79.3.14.34.53.58.73"/>
  <path class="cls-1" d="M47.77,14.3c.35.2.14,1.06.12,1.46-.02.46.08.96,0,1.29-.23.89-1.46.81-1.73,0-.09-.27-.03-.7-.06-1.07-.02-.36-.2-.82.11-.95.12-.02.15.04.23.06.22.1.15.44.17.67.03.28.08.53.06.79.18.11.34.12.58.06.16-.78-.08-1.95.52-2.3"/>
  <path class="cls-1" d="M48.98,14.36h.12c.21.05.11.4.12.62,0,.39.1,1.03-.06,1.24-.38-.2-.08-1.17-.17-1.69"/>
  <path class="cls-1" d="M4.85,16.49c-.18-.23,0-.5,0-.84-.2.1-.08.53-.35.56-.33-.07-.09-.52-.12-.79-.18.2-.09.67-.35.79-.75-.57-.1-1.93.81-1.68.71.19.83,1.73,0,1.97"/>
  <path class="cls-1" d="M46.73,14.98h.11c.25.15.21.88.12,1.18-.32-.02-.19-.66-.23-1.01"/>
  <path class="cls-1" d="M41.19,20.48c0-.13-.15.07-.29,0,.11-.51-.21-1.11.06-1.41.36.1.09.81.17,1.18.2-.28-.11-1.05.17-1.24.37.1.25.78.23,1.12-.03.48-.05.88-.46.9-.66.03-.49-.85-.58-1.52-.15,2.91-.92,5.2-1.67,7.64-.23.74-.73,1.55-.35,2.36.44.17.61-.16.98-.11.53.06.86.59.87,1.07,0,1.9-3.24,1.35-3.12-.51-.18,2.06-1.07,3.95-1.9,5.51-2.26,4.22-5.88,7.22-10.21,9.27-2.94-1.01-5.26-2.63-7.15-4.67.14,1.39-1.98,1.31-2.31.56-.09-.2,0-.48,0-.79,0-.53-.11-.97.29-1.01.86-.09.09,1.42.75,1.52.73.12.09-.85.81-.84-1.27-1.65-2.4-3.78-3.12-6.18-.23-.78-.54-1.61-.64-2.42-.14-1.24,0-2.56,0-3.88v-11.58h23.42v13.26c.52-3.02,2.56-5.49,2.31-9.1-.05-.72-.23-1.27-.46-1.91-.09.31-.49.15-.75.22-.29.08-.45.31-.63.23v-1.52c.26-.07.44.23.63.39.22.18.46.34.63.51-.17-.92-1.77-1.22-1.21-2.3,1.62.65,2.59,1.93,2.71,4.05.13.17.05-.32.35-.17.28.3-.18,1.59.46,1.35M35.94,33.41c.35-.86.81-1.8.92-2.75.14-1.15,0-2.43,0-3.71v-11.13H14.02v11.24c0,1.25-.14,2.58,0,3.77.09.79.4,1.62.64,2.41,1.66,5.57,5.12,9.31,10.44,11.18,1.22-.61,2.43-1.23,3.46-2.02-.54-.15-.96-.64-1.44-.84-.21-.09-.41-.03-.58-.17.2-.19.53-.52.75-.51.12.18-.2.34.11.45.29.05.68-.22.69-.45.03-.42-.34-.05-.46-.34.25-.08.56-.56.75-.34.16.16-.21.08-.12.34.16.57.34,1.38.4,1.86,2.37-1.72,4.47-3.7,5.94-6.29-.72-.11-1.67-.26-2.25-.17.15-.24.29-.75.52-.73.2.12-.12.29.23.34.36-.03.53-.45.46-.73-.23-.3-.21.08-.52-.06.15-.21.24-.72.52-.62.13.64.72,1.28,1.21,1.74.4-.71.79-1.57,1.15-2.47M33.58,35.6c.22-.07.51.1.58,0-.14-.11-.19-.3-.35-.39-.06.15-.18.24-.23.39M27.81,41.55c.18.05.24.21.46.23-.04-.19-.04-.41-.17-.51-.04.15-.26.12-.29.28"/>
  <path class="cls-1" d="M45.81,15.59c.24.44.06,1.29.12,1.91-.83.89-1.7-.19-1.27-1.46h.4c.05.34-.12.9.12,1.07.5-.23-.25-1.66.63-1.52"/>
  <path class="cls-1" d="M8.25,17.22c-.27-.19.08-.4-.06-.62-.24.05-.07.5-.29.56-.31-.05-.08-.31-.12-.56-.29-.01-.09.44-.23.56-.29,0-.32-.25-.35-.39-.21-1.29,1.74-1.37,1.39.28-.14.03-.12.22-.35.17"/>
  <path class="cls-1" d="M1.67,21.44c.43-.08.47-.63.52-1.01.06-.43.07-.91.12-1.35.09-.95.03-1.96.4-2.59.54.2.33,1.05.29,1.8-.04.69-.09,1.47-.11,2.08-.04.79,0,1.38-.52,1.74-.69.49-1.6,0-1.73-.78-.07-.46.06-1.43.12-2.31.07-1.17.04-2.3.35-2.98.59-.58.63.43.58,1.07-.05.57-.08,1.1-.12,1.52-.11,1.23-.37,2.31.12,2.81"/>
  <path class="cls-1" d="M13.44,16.04c.05.8-.57,1-.87,1.46-1.12,1.73-.69,4.93-.12,7.19.35,1.35.89,2.58.98,3.71.1,1.2-.13,2.2-.81,2.64-.78.5-2.1.33-2.31-.56-.17-.73.25-1.24.69-1.35.4-.1.46.09.98.11.31-1.14-.11-2.45-.35-3.48-.37-1.62-.68-3.65-.58-5.56.1-1.85.63-3.16,1.79-4.27.12-.11.43-.04.58.11"/>
  <path class="cls-1" d="M27.52,15.99c.32,0,.75.14,1.04,0,.49.46.97.93,1.38,1.46.63-.36.95-1.02,1.5-1.46.28.16.83-.05,1.04.06.11.33-.25.2-.46.22v1.46c.03.18.52-.09.46.17-.1.21-.5.11-.81.11-.29,0-.63.04-.81-.06-.08-.29.29-.13.46-.17v-1.13c-.47.26-.9,1.03-1.44,1.41-.5-.45-.97-.93-1.38-1.46-.13.26-.02.77-.06,1.12.04.16.47-.05.52.11.04.28-.43.16-.69.17-.27,0-.72.08-.75-.11-.03-.25.45,0,.52-.17v-1.4c-.06-.13-.36-.02-.52-.06"/>
  <path class="cls-1" d="M32.59,15.99c.49.12,1.28,0,1.67.06.11.35-.3.19-.52.22v1.4c-.02.26.55-.05.52.22-.11.21-.5.11-.81.11-.31,0-.68.04-.86-.06-.09-.33.44-.06.52-.23v-1.4c-.06-.13-.36-.02-.52-.06"/>
  <path class="cls-1" d="M17.88,16.94c-.13.17-.02.58-.06.84,0,.17.43-.08.35.17-.16.22-.95.12-1.21.06-.08-.25.19-.15.35-.17v-1.52c0-.17-.43.08-.35-.17.12-.2.53-.11.87-.11.7,0,1.73,0,1.33.79-.12.24-.64.39-1.21.34-.05-.05-.06-.13-.06-.22M17.83,16.32v.56c.35.09.91.12.86-.34-.13-.28-.53-.29-.86-.22"/>
  <path class="cls-1" d="M19.21,16.72c.26-.95,3.05-1.06,2.83.45-.19,1.27-3.31,1.26-2.83-.45M21.29,17.67c1.02-.83-.9-2.08-1.55-1.01-.29,1.1,1,1.47,1.55,1.01"/>
  <path class="cls-1" d="M23.65,17.06c.21.39.6.61.92.9-.08.2-.45.12-.52.11-.45-.09-.7-.84-1.09-.95v.67c0,.17.43-.08.35.17-.16.22-.95.12-1.21.06-.08-.25.19-.15.35-.17v-1.46c.04-.22-.4.01-.35-.22,0-.06.01-.1.06-.11.76.04,2.08-.2,2.13.45.02.26-.23.52-.63.56M22.96,16.32v.56c.39.01.8.03.75-.39-.11-.23-.48-.24-.75-.17"/>
  <path class="cls-1" d="M2.19,16.38c.19.58,0,1.49-.06,2.19-.02.26-.04.55-.06.79-.04.55.07,1.19-.23,1.52-.39-.21-.15-.8-.12-1.24.06-.88.1-2.3.23-3.09-.02-.09.05-.1.06-.17"/>
  <path class="cls-1" d="M44.36,16.44v1.29c-.66.63-1.15-.22-1.04-1.01.03-.1.27,0,.29-.11.2.07.03.5.23.56.31-.23-.08-.79.52-.73"/>
  <path class="cls-1" d="M11.13,17.73c-.35.06-.55-.09-.98,0-.27-.33-.15-1.01.23-1.12.57-.17,1.12.5.75,1.12"/>
  <path class="cls-1" d="M3.81,16.88c.34.58.07,1.38,0,2.14-.07.77-.2,1.6,0,2.25.61-.25.51-1.19.58-1.91.07-.79.06-1.63.23-2.25.57.34.32,1.35.23,2.42-.06.75-.02,1.53-.12,1.86-.2.69-1.38,1.08-1.61.17-.1-.39.09-1.21.17-2.13.09-1.08,0-2.07.35-2.53"/>
  <path class="cls-1" d="M42.98,16.88c.13.31.03.84.06,1.24-.58.63-1.49-.02-1.1-.96.1,0,.12-.07.23-.06.25,0,.14.36.23.5.24-.2.01-.85.58-.73"/>
  <path class="cls-1" d="M4.33,17.05c.15.38.05.88,0,1.46-.02.22-.04.44-.06.67-.05.59-.03,1.25-.29,1.63-.41-.18-.15-.77-.11-1.18.06-.76.11-1.59.17-2.42.03-.05.06-.09.06-.17"/>
  <path class="cls-1" d="M13.27,17.22c.25.26.05.96.12,1.4-.23-.17-.54-.26-.92-.28.16-.48.65-.65.81-1.12"/>
  <path class="cls-1" d="M41.71,17.33v1.01c-.24.26-.84.18-1.09,0,.04-.32-.1-.47-.06-.79.13-.02.22-.09.4-.06.06.11.07.27.12.39.21-.19.15-.82.63-.56"/>
  <path class="cls-1" d="M6,17.67c-.02.96-.13,1.82-.17,2.75-.12.12-.26.01-.35-.06.04.21-.07.27-.06.45.62.13.47-.63.52-1.12.04-.38.07-.85.12-1.24.04-.39.05-.91.46-.9.24.17.14.97.06,1.74-.1,1.01,0,2.79-1.21,2.47-.17-.05-.22-.24-.4-.39.12-1.33-.04-2.93.35-3.99.26-.05.32.1.35.28.06.09.17-.14.35,0M5.66,18.4c-.01-.11.04-.55-.06-.39.01.11-.04.56.06.39M5.6,19.25c0-.09.03-.51-.06-.34,0,.09-.03.51.06.34M5.54,20.09c0-.08.02-.46-.06-.28,0,.08-.02.46.06.28"/>
  <path class="cls-1" d="M10.62,20.2c.32-.25-.12-1.23.29-1.41.48.09.04,1.37,0,1.8-.93.63-1.03-.77-.92-1.68-.25.87.02,2.4-1.1,2.13-.76-.18-.46-1.49-.52-2.47-.32.87.1,3.13-1.39,2.7-.14-.04-.15-.19-.35-.28-.05-.25.04-.52.06-.79.06-.87-.08-1.86.35-2.36.2-.01.3.08.29.28.07-.06.1-.16.29-.11.09.68-.05,1.6-.17,2.25-.19.05-.22-.05-.29-.11.05.21-.1.3,0,.39.22.03.27-.11.4-.17-.02-.4.12-.87.17-1.29.05-.43-.06-.97.35-1.12.26.03.31.26.29.56.07-.14.21-.21.46-.17.29.47-.02,1.52.17,2.08.21.02.32-.06.46-.11.05-.65-.11-1.49.23-1.85.26-.05.23.19.29.34.09-.07.23-.18.35-.06.04.47-.08,1.09.06,1.46.11-.25-.24-1.38.23-1.46.09.37.09,1.1,0,1.46M7.33,18.63c0-.07,0-.41-.06-.23,0,.07,0,.41.06.23M7.27,19.3s-.02-.33-.06-.17c-.05.21.03.28.06.17M7.21,19.92c.02-.08-.03-.22-.06-.11-.02.08.04.22.06.11"/>
  <path class="cls-1" d="M48.86,20.76c.2-.64-.12-1.81.17-2.36.39.15.23.78.23,1.24v1.41c.05.27-.38-.01-.35.11-.04.41.55.18.63.05.07-1.06-.14-2.38.12-3.26.09,0,.24-.21.29-.06.45.12.32.73.34,1.35.04.83.15,1.77.12,2.53-.36.94-2.03.93-2.31-.06-.05-.16.01-.58,0-.84-.03-.7-.37-2.79.23-2.81.45-.02.38.94.4,1.24.05.62.13.93.12,1.46"/>
  <path class="cls-1" d="M14.31,18.07h.11c.51.42,1.23.64,1.96.84.05.47-.53.45-.81.56-.34.13-.62.31-.92.39-.18-.03-.02.28-.23.22-.22-.05-.12-.7-.06-.84.19-.06.19.08.17.22.4-.15.79-.31,1.21-.45-.35-.18-.75-.32-1.15-.45-.15-.02.05.32-.17.22-.25-.04-.05-.51-.11-.73"/>
  <path class="cls-1" d="M34.5,18.07h.12c.17-.06.1.12.12.22h1.44c.22.05.07-.27.29-.22.21,0,.11.37.12.56,0,.35-.01.68-.12.9-.33.31-.85.08-.98-.28-.36.16-.61.42-.87.67-.23.02-.06-.35-.12-.5.35-.2.62-.48.98-.67-.12-.13-.48-.02-.69-.06-.17,0,.07.37-.17.28-.25-.09-.05-.63-.12-.9M36.17,19.25c.14-.09.13-.33.12-.56h-.64c-.02.38.1.61.52.56"/>
  <path class="cls-1" d="M46.61,18.12c.45.38.14,1.52.23,2.25.21-.14.11-.65.11-1.01v-1.07c.34.21.14.9.17,1.4.01.2.11.35.06.51.43-.36-.1-1.67.35-2.02.61-.04.32,1.04.29,1.8-.05.98.06,2.03-.81,2.02-.37,0-.46-.26-.75-.45.01-.96-.29-2.86.17-3.43"/>
  <path class="cls-1" d="M9.17,18.35s.09.06.17.06c-.02.25.02.6,0,.9-.02.27.09.68-.23.67-.21-.09-.11-.47-.12-.73,0-.28,0-.56,0-.79.05-.05.16-.03.18-.11"/>
  <path class="cls-1" d="M16.79,18.35h17.25v6.35c0,2.13.18,4.3,0,6.35-.12,1.32-.69,2.58-1.27,3.65-1.7,3.16-4.55,5.28-7.67,7.08-3.4-1.43-5.94-3.68-7.33-7.19-.45-1.14-.93-2.42-1.04-3.77-.17-2,0-4.1,0-6.18v-6.13c0-.08,0-.16.06-.17M20.31,19.47c.39.32.19.64.23,1.12.08.84.82,1.19,1.44.73.31-.23.32-.66.92-.51.16.39-.11.59,0,.95-.18.13-.28.33-.29.62.22-.07.71-.1.92,0,.11.39.04.85.4,1.01.22.09.5-.05.86,0,.28-.03.15.34.46.28.97-.51,2.1.21,3.17.28.53.59,1.35.89,1.96,1.41-.02.38.06.65.23.84.9.04,1.28.5,1.85.9.75.54,1.18.94.75,1.97-.07.17-.32.34-.4.62-.18.57.07,1.26-.17,1.74-.26.52-.86.38-1.33.56-.63.26-.9,1.08-1.21,1.57-1.05.21-1.38,1.13-2.08,1.69-.19-.02-.33-.09-.58-.06-.18.15.22.19.17.4-.24.15-.59.38-.75.73-.07.14,0,.35-.06.51-.16.39-.61.6-.69.9-.22.79.17,1.67-.58,2.08-1.15-.35-1.5-2.67-.81-3.77-.08-.76-.07-1.56.17-2.14.11-.26.34-.41.4-.67.05-.22-.02-.46,0-.67.04-.62.29-1.18.34-1.85-.34-.28-.55-.35-.69-.56-.36-.53-.26-1.16-.52-1.68-.17-.33-.48-.48-.58-.79-.44-1.48,1.11-1.9,1.04-3.09-.03-.48-.76-.62-1.21-.62-.41-.56-.96-.98-1.91-1.01-.24-.18-.27-.56-.58-.68-.77.26-1.51-.01-2.08-.28-.61-.79-.87-1.93-1.33-2.87-.05.38.13.68.23,1.01.1.31.31.68.12.96-.46-.04-.5-.48-.75-.73.3-.44-.07-.86-.35-1.07v5.84c0,1.96-.18,3.96,0,5.84.14,1.49.68,2.98,1.27,4.21,1.43,3,3.69,4.94,6.75,6.24,2.05-1.19,3.91-2.48,5.48-4.21,1.41-1.56,2.98-3.84,3.17-6.46.15-1.97,0-4.02,0-6.07v-6.07c-5.02.04-10.19-.07-15.11.06.5.5,1.21.4,1.67.79"/>
  <path class="cls-1" d="M44.25,18.46c.35.08.23.69.23,1.18,0,.9.12,1.88-.63,1.91-.34.01-.43-.17-.63-.39-.02-.36.02-.79,0-1.24-.03-.61-.31-1.45.46-1.41.15.51-.05,1.36.17,1.8.14-.08.09-.43.12-.73.02-.33.09-.65.06-.96.02-.07.1-.09.12-.17"/>
  <path class="cls-1" d="M42.57,20.48c.17-.45-.06-1.29.12-1.74.43-.17.49,1.43.35,1.91-.14.49-.89.74-1.15.17-.08-.18-.08-.7-.12-1.07-.04-.36-.14-.81.12-.9.43.21.22,1.06.29,1.63.13.03.29.11.4,0"/>
  <path class="cls-1" d="M42.52,20.48h-.12c-.28-.03-.17-.53-.17-.84s-.08-.74.12-.84c.29.02.15.39.17.62.04.34.14.81,0,1.07"/>
  <path class="cls-1" d="M38.48,19.98c.39-.08-.02-.92.35-1.01.44-.1.37.39.4.79.05.52.06,1.03-.4,1.12.49.11.31,1.32.17,1.69h-.35c-.19-.32-.19-1.31,0-1.63-.23.09-.7.09-.86-.06-.16-.44-.16-1.34-.06-1.85,0-.22.26-.16.4-.11.29.18.11.83.35,1.07"/>
  <path class="cls-1" d="M13.33,19.25v.39c-.2.09-.73.09-.92,0-.21-.61.61-.48.92-.39"/>
  <path class="cls-1" d="M13.21,19.98c.09.08.05.29.06.45-.22.12-.66.03-.98.06-.4-.62.52-.67.92-.51"/>
  <path class="cls-1" d="M14.31,20.59c.09.14.5-.03.58.11.07.22-.14.17-.29.17v.34c.39.13,1.02.02,1.5.06.16.01-.07-.37.17-.28.22.09.12.78.06.96-.27.08-.11-.26-.29-.28h-1.44v.28c-.04.22.34.04.29.28,0,.23-.4.06-.58.11"/>
  <path class="cls-1" d="M27.17,22.06c.06.21-.14.16-.11.34-.41.14-.81-.03-1.27,0-.08-.29.17-.24.23-.39-.68-.3-1.58-.37-2.19-.73.12-.5,1.01-.26,1.56-.34l.06.06c.42.09.6.53.92.73.26.16.57.1.81.34"/>
  <path class="cls-1" d="M13.38,21.21c.12.44.03,1.1.06,1.63-.13-.05-.25.2-.29.06-.44-.06.06-.92-.23-1.01-.41.11.06,1.07-.41,1.13-.51-.17-.26-1.35-.23-1.85.27-.1.9-.1,1.1.06"/>
  <path class="cls-1" d="M38.19,21.16c.16.36.25,1.43-.11,1.63-.61.09-.68-1.87.11-1.63"/>
  <path class="cls-1" d="M9.98,21.33c.24.27.28.74.29,1.23.18-.41-.23-1.15.35-1.23.46.14.29.78.29,1.18,0,.48-.02,1.02,0,1.46.04.92.38,1.8.11,2.47-.85-.31-.92-1.53-1.09-2.7-.12-.8-.29-1.59-.23-2.25-.03-.12.11-.08.11-.17"/>
  <path class="cls-1" d="M34.5,21.38h.12c.48.5,1.34.64,1.96,1.01-.08.32-.54.39-.81.5-.32.14-.64.26-.92.39-.18-.03-.02.28-.23.22-.22-.05-.13-.7-.06-.84.19-.06.19.08.17.22.13-.06.29-.09.4-.17-.02-.24.05-.58-.06-.73-.08,0-.16,0-.17-.06-.25-.08-.07.27-.29.22-.25-.06-.05-.55-.12-.79M35.48,22.62c.09-.13.4-.06.4-.28-.22.01-.3-.12-.46-.17.04.13-.07.41.06.45"/>
  <path class="cls-1" d="M9.4,21.55c.29.46.23,1.16.29,1.86.11,1.32.25,2.6.58,3.71.16.55.43,1.1.4,1.69-1.02-.27-1.45-1.42-1.73-2.53-.3-1.16-.4-2.54-.52-3.71-.03-.3-.2-.53,0-.79.93.03.46,1.66.69,2.47.28-.81-.35-2.18.17-2.7"/>
  <path class="cls-1" d="M7.85,21.83c.49.37.39,1.07.46,1.63.16,1.35.51,2.64.63,3.99.08.8.06,1.66.23,2.36.1.4.52.8.23,1.24-.48-.15-.86-.6-1.15-1.01-1.01-1.44-1.16-3.56-1.27-5.95-.03-.7-.24-1.58.06-2.13.75.17.42,1.3.46,2.13.04.94.28,1.93.35,2.7.19-.63,0-1.49-.06-2.36-.06-.84-.23-1.76-.11-2.36.02-.11,0-.16.06-.23"/>
  <path class="cls-1" d="M40.15,28.8c-.21-.91.47-1.77.81-2.47.38-.78.37-1.77.46-3.03.03-.39.04-.94.4-1.12.31.87-.02,1.94.11,2.81.39-.84.1-2.24.52-2.92.62.11.47.91.4,1.57-.15,1.57-.77,3.2-1.62,4.33-.29.39-.6.86-1.09.84"/>
  <path class="cls-1" d="M6.23,22.17c.6.31.31,1.23.35,2.02.04.84.23,1.71.29,2.53.02.25-.03.49,0,.73.07.65.35,1.28.4,1.97.07.89.13,1.72.12,2.53-.86-.03-1.13-.97-1.38-1.69-.65-1.81-.81-4.19-.87-6.63,0-.42-.11-.94.23-1.24.56.13.38.82.4,1.29.05,1.02.14,2.3.17,3.26.26-1.13-.28-3.27-.06-4.38.03-.13.14-.31.29-.39M6.06,27.34s-.02-.33-.06-.17c-.05.21.03.28.06.17"/>
  <path class="cls-1" d="M29.13,22.73c-.26.2-1.07.26-1.38.05.15-.68,1.21-.78,1.38-.05"/>
  <path class="cls-1" d="M43.27,22.22c.31.19.17.67.17,1.01,0,.71-.06,1.52-.11,2.31.31-.53.61-1.36.58-2.19-.02-.42-.27-.92.11-1.18.67.18.42.96.35,1.8-.2,2.3-.81,3.93-1.62,5.56-.32.65-.65,1.43-1.33,1.57,0-1.15.76-2.09,1.04-3.31.29-1.25.37-2.82.52-4.16.06-.5-.03-1.03.29-1.4"/>
  <path class="cls-1" d="M45.81,22.28c.49.6.28,1.46.23,2.19-.1,1.59-.28,3.01-.69,4.38-.21.7-.35,1.43-.58,1.97-.15.35-.48.71-.69,1.01-.23.31-.45.79-.87.73-.14-.69.34-1.27.58-1.91.51-1.35.39-2.98.52-4.89.04-.59.16-1.26.23-1.85.07-.56.06-1.27.52-1.57.35.55.13,1.22.06,1.85-.12,1.11-.22,2.29-.12,3.54.41-1.55.65-3.48.52-5.23-.04-.15.12-.11.12-.23"/>
  <path class="cls-1" d="M4.62,31.44c-.12-2.03-.4-4.39-.4-6.91,0-.61-.19-2.12.52-1.97.43.09.23,1.44.23,2.25,0,.65-.13,1.9-.06,2.47.07.52.61,1.17.58,1.91-.02.43-.26.9-.23,1.41.03.53.23.85.46,1.24-.18.87.15,2.24-.35,2.81-.5-.13-.56-.71-.75-1.12-.92-2.05-1.49-4.54-1.56-7.53-.03-1.14-.14-2.27.06-3.31.4-.15.75.14.92.39-.19,2.95.04,5.95.58,8.37"/>
  <path class="cls-1" d="M26.6,22.73c-.11.12-.26.19-.46.22-.04-.13-.25-.09-.17-.34.25-.07.46-.02.63.11"/>
  <path class="cls-1" d="M30.23,22.9c-.18.11-.64.09-.69-.11.08-.32.73-.28.69.11"/>
  <path class="cls-1" d="M41.02,22.56c.07,0,.1.01.12.06.35.97,0,2.32-.4,3.09-.16.3-.27.72-.63.67-.11-.49.28-.81.35-1.35.05-.41-.11-1.07-.06-1.63.02-.19-.03-.69.23-.51.07-.25.14.36.17.51.2-.16.13-.59.23-.84"/>
  <path class="cls-1" d="M46.84,22.62c.19.53.06,1.14.06,1.74,0,1.81-.09,3.73-.06,5.56.32-1.58.32-3.85.4-5.68.02-.51-.14-1.25.35-1.52.58.15.46.79.46,1.24,0,2.58-.26,5.31-.69,7.64-.18.98-.35,2.01-.63,2.7-.15.37-.46.89-.87.96-.29-.68.05-1.41.11-2.19.09-1.1-.02-2.32.06-3.54.07-1.1.23-2.22.29-3.26.08-1.33-.28-2.84.35-3.71.09-.02.1.05.17.06"/>
  <path class="cls-1" d="M38.71,22.73c.37.52-.26.81-.63.95-.18.03-.15-.15-.29-.17,0-.56.44-.7.92-.79"/>
  <path class="cls-1" d="M2.08,33.24c-.04-1.44-.21-3.06-.29-4.77-.08-1.67-.08-3.38,0-5.06.33-.17.54-.45,1.1-.39-.15,3.42-.08,7.02.46,9.95.08.25-.35,0-.35.17.35.89.34,2.28.52,3.54.12.82.49,1.69,0,2.3-.68-.16-.79-.93-.98-1.46-1.42-4-2.26-8.97-2.14-14.44v-.17c1.28,0,.92,1.74.92,3.15,0,2.61.16,5.37.75,7.19"/>
  <path class="cls-1" d="M14.37,23.01h.11c.19-.06.09.17.12.28h1.5c.15-.03-.06-.39.23-.28.15.01.02.86.06.96-.24.07-.26-.08-.23-.28h-1.5c-.16,0,.07.37-.17.28-.26-.11-.05-.66-.11-.96"/>
  <path class="cls-1" d="M13.44,24.02c.07.52-.01,1.28-.17,1.74-.35-.34-.62-1.03-.46-1.69.2-.06.41-.18.64-.06"/>
  <path class="cls-1" d="M38.19,24.13c.26.48.04,1.31-.29,1.57-.08-.43-.47-1.8.29-1.57"/>
  <path class="cls-1" d="M16.21,24.25c.23-.02.06.35.11.51-.37.18-.62.48-.98.67.12.13.48.02.69.06.16,0-.07-.37.17-.28.22.07.12.74.06.9-.19.06-.19-.08-.17-.22h-1.5c-.18-.03-.02.28-.23.22-.21-.03-.11-.34-.12-.56-.01-.41.02-.84.23-1.01.36-.11.76.03.81.39.42-.12.64-.42.92-.67M14.54,25.48h.58c.11-.27-.02-.65-.46-.56-.14.09-.13.33-.12.56"/>
  <path class="cls-1" d="M34.56,24.64c.7.31,1.17.85,1.79,1.24v-.73c-.03-.16-.47.08-.35-.23.06-.23.42.04.63-.11v1.63c-.75-.24-1.14-.83-1.79-1.18v.84c.01.18.38,0,.35.23,0,.24-.44.06-.64.11"/>
  <path class="cls-1" d="M30.69,25.59c.23.07.43.18.41.51-.4.16-.52-.16-.41-.51"/>
  <path class="cls-1" d="M14.31,26.78h.11c.21-.05.06.24.17.28h1.5c.16,0-.07-.37.17-.28.22.09.12.78.06.96-.23.07-.17-.13-.17-.28h-1.5c-.21-.03,0,.34-.23.28-.25-.11-.05-.67-.11-.96"/>
  <path class="cls-1" d="M34.56,27.62h.12c.19-.01.14.2.23.28.31.1.61.26.92.39.27.12.67.17.81.45-.38.35-1.05.47-1.56.73-.25.02-.18.35-.52.28.04-.27-.08-.67.06-.84.19-.04.21.09.23.22.13-.06.29-.09.4-.17v-.56c-.02-.17-.3-.08-.35-.23-.09.1-.08.3-.35.23M35.48,28.85c.24-.01.38-.12.52-.23-.21-.02-.32-.14-.52-.17v.39Z"/>
  <path class="cls-1" d="M15.4,29.02h.69c.16,0-.07-.37.17-.28.22.09.12.78.06.95-.23.07-.17-.13-.17-.28h-1.5c-.21-.03,0,.34-.23.28-.21-.03-.11-.4-.11-.62,0-.34,0-.59.06-.84.46-.56,1.4.05,1.04.79M14.6,29.02h.58c.03-.13.08-.26.06-.45-.28-.28-.83-.08-.64.45"/>
  <path class="cls-1" d="M16.5,31.67c-.14-.18-.48.09-.58-.06-.07-.24.09-.25.29-.23.12-.33.1-.89-.41-.78-.26.14-.1.68-.23.95-.14.16-.41.2-.75.17-.37-.19-.49-.76-.35-1.29.07-.02.53-.06.58.11.05.22-.3.04-.35.17-.04.37,0,.67.35.67.5-.38-.05-1.36.92-1.18.48.09.68.77.52,1.46"/>
  <path class="cls-1" d="M36.11,32.73s-.13-.06-.23-.06c.08-.03,0-.22.11-.22-.12-.15-.37-.16-.52-.28-.2.22-.24.59-.4.84.1.13.31.14.46.22.15.02.19-.08.17-.22.05.04.13.06.23.06-.16.3-.16.98-.58.84.08-.03,0-.22.11-.22-.42-.27-.96-.41-1.44-.62-.13.02-.03.26-.23.22l-.12-.06c.12-.3.24-.59.34-.9.05.03.09.06.17.06.08.07.04.17-.06.22.12.2.45.19.64.34.2-.21.23-.6.4-.85-.16-.14-.44-.18-.64-.28-.08.04-.11.12-.11.22-.05-.04-.13-.06-.23-.06.1-.31.24-.59.35-.9.05.03.09.06.17.06.08.08.04.17-.06.22.39.29.95.43,1.44.62.08-.04.11-.12.12-.22.05.04.13.06.23.06-.08.33-.25.58-.35.9"/>
  <path class="cls-1" d="M12.75,31.83c.19.06-.08.25-.11.28-.68.63-1.7,1.34-2.42,1.97.71,1.54.07,3.92-1.73,3.48.11-.71.65-.77.63-1.52-.02-.85-.87-1.27-1.79-1.29-.36-.01-.75.21-1.04-.11-.02-.73.77-.67,1.21-.95-.22-.32-.85.11-1.15-.11-.06-1.19,2.24-1.04,2.83-.34.71-.38,1.2-.96,1.84-1.4"/>
  <path class="cls-1" d="M41.83,33.69c.8-.51,2.75-.54,2.77.67-.32.24-.62-.22-.86-.06-.02.38,1.04,1.05.34,1.57-.48-.22-.68-.79-1.56-.62-.67.13-.96,1-.69,1.8.12.36.4.39.46.9-.6.32-.89.02-1.21-.23-.55-.42-.76-.9-.69-2.02.01-.22.11-.41.06-.62-.07-.28-.87-1.05-1.1-1.29-.44-.47-.77-.75-1.15-1.18.02.51.19.97.12,1.41-.34.29-.95.31-1.5.39-.2-.25-.47-.9-.17-1.12.26-.18.25.29.63.17.4-.26.14-1.17.52-1.46.25-.06.17.21.35.23.52.09.94-.13,1.33-.06.27.05.92.54,1.21.73.42.27.77.58,1.15.79"/>
  <path class="cls-1" d="M16.79,32.45c.11.5.4,1.1.41,1.52-.5-.35-1.11.14-1.67.23-.13.02,0,.3-.11.34-.37-.3-.42-1-.58-1.52.21.02.52-.21.58,0,.06.19-.08.18-.23.17,0,.27.11.42.17.62.19-.03.31-.11.52-.11.04-.21-.07-.27-.06-.45-.1-.09-.27.08-.35-.11.11-.18.66-.37.81-.17.05.18-.19.08-.23.17.03.16.09.29.12.45.24-.03.37-.16.63-.17-.03-.23-.16-.36-.17-.62-.24.03-.43,0-.46-.17.14-.13.42-.12.63-.17"/>
  <path class="cls-1" d="M12.75,32.56c.91-.04,1.12.84.98,1.63-.9.02-1.06-.69-.98-1.63"/>
  <path class="cls-1" d="M12.58,34.93c.23-.04.24-.29.52-.28.35.02.47.25.63.45.28-.14.55.01.81.06v.9c-1.21.22-2.17-.28-2.94-.67v-.96c.34-.34,1.14-.14.98.51"/>
  <path class="cls-1" d="M38.71,34.59c0,.29-.3.42-.58.28,0-.06-.01-.1-.06-.11-.11-.48.55-.49.63-.17"/>
  <path class="cls-1" d="M36.29,35.15c-.69-.44.45-.94.4-.28-.01.19-.13.25-.4.28"/>
  <path class="cls-1" d="M37.67,34.75c.03.39-.55.44-.63.11-.05-.41.57-.43.63-.11"/>
  <path class="cls-1" d="M37.5,35.37c.47-.02,1.04-.23,1.1.34.05.49-.61.52-1.21.56-.58.04-1.64.23-1.73-.28-.12-.71,1.12-.59,1.85-.62"/>
  <path class="cls-1" d="M11.71,36.27c.12-.72,1.07-.3,1.96-.11.41.09,1.24.22,1.21.56-.04.55-1.21.07-1.56,0-.71-.14-1.26-.11-1.62-.45"/>
  <path class="cls-1" d="M18,35.99c.38.34.62.82.92,1.24-.54.09-1.06.54-1.56.84.09.24.12.25-.06.39-.17-.28-.41-.5-.52-.84.2-.1.19.04.35.11.42-.27.89-.48,1.21-.84-.06-.22-.25-.32-.35-.51-.18,0-.33.13-.46,0,0-.27.39-.18.46-.39"/>
  <path class="cls-1" d="M32.02,38.18c-.64.15-.95-.33-.81-.9.07-.31.58-.53.58-.79.33.52.91.79,1.38,1.18.14-.08.13-.23.35-.11-.24.52-1.11,1.72-1.5.62M32.31,37.51c-.21-.15-.44-.28-.63-.45-.54.53.38,1.13.63.45M32.48,38.24c.29.04.36-.13.46-.28-.23-.02-.24-.25-.46-.28-.15.16-.24.45,0,.56"/>
  <path class="cls-1" d="M36.75,38.24c-.16.06-.24.06-.4,0-.12-.16-.1-.23-.06-.45-.17.1-.15.38-.4.39.02-.14-.11-.12-.06-.28-.11.18-.04.52-.29.56-.53-.22-.57-.89-.46-1.29.22-.78,1.58-.9,1.79-.22.11.34-.13.95-.11,1.29"/>
  <path class="cls-1" d="M39,37.85c-.09.12-.21.2-.46.17-.08-.09-.15-.19-.12-.39-.1.14-.25.24-.34.39-.09-.1-.17-.2-.17-.39-.21.21-.05.78-.46.79-.4-.17-.36-.78-.35-1.35.58-1.11,1.82-.3,1.9.79"/>
  <path class="cls-1" d="M11.42,36.84c.45-.09.4.59,0,.56-.31-.02-.41-.48,0-.56"/>
  <path class="cls-1" d="M13.15,37c.15.28,0,.58-.4.51-.34-.23-.03-.75.4-.51"/>
  <path class="cls-1" d="M14.02,37.73c-.43-.12-.19-.86.29-.56.14.27.01.56-.29.56"/>
  <path class="cls-1" d="M15.23,37.68c.02-.51.63-.38.63-.06,0,.28-.47.44-.63.06"/>
  <path class="cls-1" d="M17.54,39.02c.16-.11.38-.39.58-.28.14.13-.09.15-.12.28.06.21.25.28.35.45.21-.06.32-.21.46-.34-.04-.17-.19-.23-.29-.34-.2.05-.19.16-.35,0,.17-.18.41-.56.64-.51.12.12,0,.18-.06.28.04.15.16.21.23.33.23-.07.36-.24.52-.39-.13-.18-.28-.32-.46-.45-.18,0-.26.2-.4.05.04-.28.32-.32.52-.45.26.46.72.73.98,1.18-.24.16-.23-.12-.52.11-.29.23-.63.61-.92.79-.06.21.14.16.12.33-.1-.02-.11.05-.12.11-.42-.36-.72-.84-1.15-1.18"/>
  <path class="cls-1" d="M11.13,37.96c.58.41-.17,1.87.58,1.91.68.04.2-1.15.58-1.52.71-.47.92,1.04.64,1.74-.31.77-1.86.85-2.37,0,.15-.75-.43-2.21.58-2.13"/>
  <path class="cls-1" d="M30.17,38.24c.19.02.15.27.23.4.31.36.68.65.98,1.01.13-.04.19-.26.35-.11-.14.31-.5.66-.75.67-.14-.13.09-.15.11-.28-.35-.35-.64-.76-1.04-1.07-.28.05-.32.32-.52.45.07.18.25.31.06.45-.21-.1-.32-.29-.4-.51.34-.32.73-.6.98-1.01"/>
  <path class="cls-1" d="M13.67,38.46c.44.47-.16,1.75.52,1.8.57.04.39-.85.52-1.4.18,0,.19-.15.4-.11.34.25.31,1.26.17,1.63-.25.67-1.74.8-2.07.11-.28-.58.08-1.05-.06-1.85.13-.1.23-.22.52-.17"/>
  <path class="cls-1" d="M11.65,38.63h.23c.16.17.22.98-.06,1.07-.38-.01-.23-.81-.17-1.07"/>
  <path class="cls-1" d="M34.5,38.97c.08.58.12,1.2.12,1.86-.45.48-.9.9-1.79.67-.7-.17-1.02-1.59-.06-1.52.23.06.2.37.34.51.16-.07-.06-.51.17-.51.36-.11.14.35.29.45.4-.15-.07-.85.06-1.23.11-.34.46-.46.87-.23"/>
  <path class="cls-1" d="M35.19,39.02c.79-.14.59.7.75,1.18.14.04.4.11.52,0,.13-.53-.06-1.24.46-1.24.6,0,.33,1.27.35,1.91-.42.65-1.86.62-2.08-.17-.13-.47-.26-1.28,0-1.69"/>
  <path class="cls-1" d="M14.19,39.02h.23c.07.22.15.89-.06,1.01-.42.04-.21-.79-.17-1.01"/>
  <path class="cls-1" d="M36.29,39.02c.07.22.15.89-.06,1.01-.37.05-.38-1.13.06-1.01"/>
  <path class="cls-1" d="M16.96,39.25c.06.23.14.81-.06.95h-.23c-.1-.29-.17-1.21.29-.95"/>
  <path class="cls-1" d="M21.75,40.2c.26.1.65.38.69.51,0,.24-.13.13-.23.06-.15.02-.05.29-.17.34.11.21.39.25.52.45.12-.05.23-.11.35-.17-.02-.2-.16-.14-.06-.33.16.01.74.28.63.56-.78-.03-1.37.57-1.96.9-.3-.18-.08-.64,0-.96.09-.34.19-.7.29-.96,0-.16-.22-.24-.06-.39M21.92,41.95c.11-.12.31-.15.4-.28-.13-.06-.19-.19-.34-.22,0,.16-.2.4-.06.51"/>
  <path class="cls-1" d="M24.23,41.72c.24-.04.3.09.52.06.13.4.36.7.52,1.07.09-.17.11-.41.12-.67-.1-.09-.31-.08-.23-.34.29.09.68.09.98.17-.06.16-.08.28-.29.17-.1.48-.21.95-.23,1.52-.02.15.32-.05.23.17-.35.18-1.24-.01-1.56-.23-.08-.17-.08-.45,0-.62.16-.08.27-.23.52-.23-.19-.36-.43-.67-.58-1.07M25.15,43.63c.05-.19.08-.41.12-.62-.75-.21-.82.73-.12.62"/>
  <path class="cls-1" d="M48.46,41.83c0,.17-.05.29-.17.34-.16.04-.11-.11-.23-.11-.07-.33.26-.41.4-.22"/>
  <path class="cls-1" d="M49.44,42.28c-.26.03-.38-.08-.35-.34.26-.27.62.09.35.34"/>
  <path class="cls-1" d="M47.54,42.45c.08.02.09.1.17.11-.02.21-.14.32-.35.34-.15-.18.05-.37.17-.45"/>
  <path class="cls-1" d="M3.29,42.79c0,.13.1.17.06.34-.1.15-.48.15-.58,0-.09-.39.27-.45.52-.34"/>
  <path class="cls-1" d="M48.63,43.07c.02.21-.05.33-.23.34-.09-.18.03-.29.23-.34"/>
  <path class="cls-1" d="M2.37,43.46c.03.18-.08.22-.12.34-.2.04-.24-.06-.35-.11-.09-.35.32-.42.46-.23"/>
  <path class="cls-1" d="M7.5,43.52c.02.38.15.85-.17,1.01-.71.08-.46-1.59.17-1.01"/>
  <path class="cls-1" d="M8.25,44.37c-.08,0-.16-.01-.17.05-.17-.21-.5-.39-.46-.67.03-.24.36-.41.58-.22.19.17.17.57.06.84"/>
  <path class="cls-1" d="M36.29,43.41c.18-.03.23.07.29.17-.01.16-.1.24-.29.23-.08-.08-.08-.32,0-.39"/>
  <path class="cls-1" d="M40.79,44.42c-.06-.66.72-.53.69-.11-.02.28-.45.39-.69.11"/>
  <path class="cls-1" d="M42.4,44.7c-.17.05-.18.05-.35,0-.38-.69.73-.68.35,0"/>
  <path class="cls-1" d="M10.21,44.37c0,.5-.36.66-.69.84-.4-.35.06-.98.69-.84"/>
  <path class="cls-1" d="M3.87,44.48c.13.14.16.43-.06.51-.42.08-.38-.64.06-.51"/>
  <path class="cls-1" d="M11.02,44.59c-.04.33-.21.94-.64.84-.08.71.25,1.82-.52,1.85-.13-.29,0-.76.35-.79v-1.46c.12-.02.11.08.12.17.23-.2.24-.63.69-.62"/>
  <path class="cls-1" d="M11.83,44.87c-.05.47-.23.82-.63.95-.15-.24.17-.84.4-1.07.16-.04.12.11.23.11"/>
  <path class="cls-1" d="M2.71,44.87c.12.18.12.38,0,.56-.4.09-.4-.65,0-.56"/>
  <path class="cls-1" d="M41.19,45.43c-.25-.35.3-.75.46-.39-.01.27-.13.44-.46.39"/>
  <path class="cls-1" d="M12.46,44.93h.23c0,.43.51,1.12-.17,1.12-.17-.24-.13-.8-.06-1.12"/>
  <path class="cls-1" d="M14.71,44.93c.16.27.24.63.29,1.01-.09-.02-.1.05-.17.06-.3-.16-.29-.61-.52-.84.07-.13.12-.29.4-.22"/>
  <path class="cls-1" d="M33.98,45.15c-.04.18-.25.39-.46.23-.04-.32.35-.52.46-.23"/>
  <path class="cls-1" d="M13.62,45.04c.19.25.28.59.29,1.01-.07,0-.1.01-.12.06-.44,0-.26-.61-.58-.73-.05-.29.1-.39.4-.34"/>
  <path class="cls-1" d="M42.63,45.09c.31-.02.37.2.34.51-.07-.01-.1,0-.11.05-.29.03-.36-.36-.23-.56"/>
  <path class="cls-1" d="M18.92,45.21c.34.08.61.48.52.79-.36-.05-.53-.56-.52-.79"/>
  <path class="cls-1" d="M19.85,45.21c.5-.02.59.36.69.73h-.23c-.22-.18-.39-.4-.46-.73"/>
  <path class="cls-1" d="M39.63,45.49c0,.31-.11.5-.46.45-.14-.27.15-.62.46-.45"/>
  <path class="cls-1" d="M8.48,45.71c-.04.28-.24.41-.46.51-.13-.25.09-.57.46-.51"/>
  <path class="cls-1" d="M34.33,46.27c-.07,0-.1.01-.12.06-.17,0-.21-.13-.29-.22-.04-.58.73-.27.4.17"/>
  <path class="cls-1" d="M3.98,46.33c-.03-.08-.08-.14-.12-.22.13-.72.89.25.12.22"/>
  <path class="cls-1" d="M5.37,46.39c-.07.06-.2.06-.35.06-.31-.42.48-.67.35-.06"/>
  <path class="cls-1" d="M9.46,46.16c-.18.2-.23.52-.58.56l-.12-.11c.12-.22.47-.69.69-.45"/>
  <path class="cls-1" d="M41.94,46.11c-.04.18-.09.36-.34.34-.18-.19.12-.54.34-.34"/>
  <path class="cls-1" d="M40.33,46.33c.01.31-.06.54-.4.51-.26-.22.1-.85.4-.51"/>
  <path class="cls-1" d="M18.06,47.68c-.71,0-.72-.68-1.21-.9v-.23c.68-.23.84.53,1.27.73,0,.15.02.32-.06.39"/>
  <path class="cls-1" d="M12.52,48.07c-.14,0-.17-.1-.34-.06-.02-.56-.01-.9-.06-1.35.8-.32.73,1.06.4,1.4"/>
  <path class="cls-1" d="M11.48,46.72c.04.39-.03.68-.11.95-.14-.03-.26-.08-.46-.06.18-.51-.18-1.12.58-.9"/>
  <path class="cls-1" d="M16.79,47.4c.03.18-.04.26-.06.39-.36.03-.75-.15-.92-.34-.17-.18-.28-.66.12-.73.34-.06.62.6.87.67"/>
  <path class="cls-1" d="M15.17,48.02c-.55-.07-.74-.48-.69-1.12.23.04.23-.15.46-.11.17.28.53.85.23,1.23"/>
  <path class="cls-1" d="M13.79,46.89c.25.25.41.87.11,1.18-.53-.02-.55-.55-.58-1.07.13-.06.24-.14.46-.11"/>
  <path class="cls-1" d="M22.1,46.95c.36.09.62.3.69.67-.46,0-.56-.35-.69-.67"/>
  <path class="cls-1" d="M35.25,47.12c.05.4-.47.31-.58.11-.02-.29.5-.4.58-.11"/>
  <path class="cls-1" d="M33.4,47.68c-.72-.23.08-1.03.23-.45.06.24-.07.31-.23.45"/>
  <path class="cls-1" d="M21.17,47.12c.39.04.68.39.63.67-.4-.04-.53-.34-.63-.67"/>
  <path class="cls-1" d="M32.36,47.29c.33.48-.46.7-.58.28-.03-.32.32-.4.58-.28"/>
  <path class="cls-1" d="M39.29,47.34c.03.26-.05.41-.23.45-.1,0-.12-.07-.23-.06-.25-.35.21-.7.46-.39"/>
  <path class="cls-1" d="M27.69,47.46c.35.03.47.29.52.62-.32-.06-.37-.39-.52-.62"/>
  <path class="cls-1" d="M26.94,47.74c.37.04.51.52.46.79-.36-.04-.45-.6-.46-.79"/>
  <path class="cls-1" d="M29.94,48.97c-.63.03-.52-.65-.92-.84v-.17c.51-.15.6.57.98.73-.05.06-.08.15-.06.28"/>
  <path class="cls-1" d="M26.42,48.92c-.5-.04-.5-.56-.69-.9.41-.11.75.55.69.9"/>
  <path class="cls-1" d="M33.86,48.02c0,.25-.05.44-.35.39-.16-.21.08-.58.35-.39"/>
  <path class="cls-1" d="M17.42,48.19h.23c.18.25.45.84.23,1.12-.42-.02-.22-.65-.58-.73.04-.13.05-.29.12-.39"/>
  <path class="cls-1" d="M24.63,48.19h.12c.41.1.64.38.75.79-.47.13-.67-.46-.87-.79"/>
  <path class="cls-1" d="M11.54,48.52h.23c.21.32-.01.79-.06,1.18-.16-.05-.15.08-.29.06-.27-.36.04-.87.12-1.24"/>
  <path class="cls-1" d="M8.14,49.25c-.24-.03-.32-.21-.29-.51.35-.46.74.32.29.51"/>
  <path class="cls-1" d="M23.83,48.75c.38.05.66.4.64.67-.39-.04-.65-.42-.64-.67"/>
  <path class="cls-1" d="M28.44,48.86c.52.01.86.56.69.9h-.17c-.25-.15-.28-.52-.52-.68"/>
  <path class="cls-1" d="M31.84,48.97c.13.06.12.26.12.45-.21.02-.23.22-.52.17-.18-.38.15-.63.4-.62"/>
  <path class="cls-1" d="M44.02,49.25c.26-.05.35.07.58.06v.39c-.19,0-.29.09-.52.06-.1-.09-.05-.33-.06-.51"/>
  <path class="cls-1" d="M27.69,49.37c.31.03.45.23.52.51-.32-.03-.45-.24-.52-.51"/>
  <path class="cls-1" d="M6.58,50.15c-.37-.19-.25-.71.06-.73.38-.03.52.69-.06.73"/>
  <path class="cls-1" d="M5.13,49.53c.03.25-.03.42-.06.62.08.3.34.42.23.9-.1,0-.15.04-.17.11-.97.19-.95-2,0-1.63"/>
  <path class="cls-1" d="M41.71,50.04c0,.27-.37.44-.63.28-.07-.35.41-.4.63-.28"/>
  <path class="cls-1" d="M45.4,50.1c.46-.05.25.62-.06.62-.34,0-.36-.57.06-.62"/>
  <path class="cls-1" d="M36.81,50.88c-.34-.65.71-.92.63-.34-.03.22-.29.31-.63.34"/>
  <path class="cls-1" d="M42.98,50.32c.16.31-.14.65-.52.62v-.45c.09-.13.4-.06.52-.17"/>
  <path class="cls-1" d="M13.73,50.99c-.26-.02-.33-.12-.35-.28-.05-.64,1.04-.12.35.28"/>
  <path class="cls-1" d="M10.27,51.22c-.51.07-.75-.43-.81-.62.49-.19,1.07.06.81.62"/>
  <path class="cls-1" d="M35.54,50.6c.06.47-.3.53-.64.62-.09-.08-.05-.29-.06-.45.19-.09.37-.2.69-.17"/>
  <path class="cls-1" d="M44.36,51.11c-.17.08-.42.08-.46-.11,0-.37.58-.35.46.11"/>
  <path class="cls-1" d="M28.27,50.99c-.08.38-.42.72-.87.56-.19-.42.54-.98.87-.56"/>
  <path class="cls-1" d="M6.23,50.88c.15.14.38.19.35.51-.09.1-.17.21-.4.17-.2-.21-.09-.51.06-.67"/>
  <path class="cls-1" d="M8.19,51.56c-.07.44-.69.15-.69-.11,0-.37.54-.37.69.11"/>
  <path class="cls-1" d="M17.65,51.39c.13.27-.15.44-.29.62-.32,0-.47-.18-.52-.45.36.03.44-.21.81-.17"/>
  <path class="cls-1" d="M46.27,51.39c.25,0,.54-.04.58.17-.15.19-.31.37-.64.4-.06-.23-.08-.41.06-.57"/>
  <path class="cls-1" d="M15.92,51.78c.03.48-.74.25-.98.17v-.34c.16-.09.35-.15.58-.17-.04.29.3.19.4.34"/>
  <path class="cls-1" d="M35.71,51.78c.08.17.09.46-.06.56-.76.17-.55-.91.06-.56"/>
  <path class="cls-1" d="M38.13,51.84c.1.7-.78.79-.75.28.01-.22.39-.45.75-.28"/>
  <path class="cls-1" d="M28.33,52.51c-.13-.63.59-.64.69-.28.1.36-.38.63-.69.28"/>
  <path class="cls-1" d="M13.38,52.62c.05-.5.75-.41.75-.05,0,.31-.56.4-.75.05"/>
  <path class="cls-1" d="M16.04,52.91v.34c-.47.12-.5-.18-.81-.22.1-.38.5-.14.81-.11"/>
  <path class="cls-1" d="M36.4,52.96v.34c-.15.13-.37.13-.52,0-.14-.43.32-.57.52-.34"/>
  <path class="cls-1" d="M32.65,1.04c.03-.08.05,0,.12,0,.2.04.06.31.06.45-.02.78-.05,1.83-.17,2.59-.24-.23-.32-.74-.4-1.13-.09-.41-.16-.88-.23-1.29-.16.7-.01,1.71-.23,2.36-.19-.05-.06-.32-.06-.45.02-.78.05-1.83.17-2.58.27.03.19.39.23.56.12.51.34,1.21.4,1.85.09-.7.17-1.7.11-2.36"/>
  <path class="cls-1" d="M19.5,3.12c.32,0,.12,1.02-.17,1.12-.35-.21-.44-.91-.46-1.52-.03-.63,0-1.5.46-1.69.16.22.43.74.17,1.01-.02-.12,0-.58-.23-.68-.43.52-.35,1.92,0,2.47.27-.02.33-.54.23-.73"/>
  <path class="cls-1" d="M39.11,1.83c.25.02.47.07.69.11.42.87.14,2.38-.4,2.98-.19.08-.56-.07-.69,0,.03-.91.29-2.07.4-3.09M39.34,3.34c0,.26-.3.23-.35.45,0,.27-.16.61-.06.79h.46c.36-.48.5-1.45.35-2.25-.15-.06-.28-.14-.52-.11-.09.48-.15.82.11,1.12"/>
  <path class="cls-1" d="M8.08,2.5c.18,0,.46-.18.58-.06.34.22.5,1.22.17,1.57.17.4.51.92.46,1.35-.39-.28-.21-1.11-.75-1.24-.21.4.28,1.12,0,1.4-.14-.81-.29-2.08-.46-3.03M8.25,2.78c.09.31.08.7.17,1.01.18,0,.28-.07.4-.11.03-.54.03-1.14-.58-.9"/>
  <path class="cls-1" d="M7.04,2.67c.15-.15.43-.18.69-.23,0,.13.1.17.06.34-.15.06-.3.12-.52.11-.03.39.15.57.11.96.23,0,.35-.11.58-.11.03.08-.07.29.06.28-.1.13-.33.13-.52.17.03.36.09.7.18,1.01.24.01.37-.09.58-.11-.03.17.1.2.06.39-.27.02-.5.07-.69.17-.18-.78-.34-2.06-.58-2.98"/>
  <path class="cls-1" d="M20.83,13.46c.22-.08.41-.2.58-.34.38.62.63,1.37.92,2.08-.72.05-1.37.16-2.19.11v-1.8c.16-.03.46.07.52-.06.29.56.52,1.18.75,1.8.01-.58-.43-1.19-.58-1.8M21.81,14.92c.04-.39-.36-.84-.46-1.29-.01-.04-.05-.06-.11-.06.17.48.25,1.04.58,1.35M20.48,14.98h.46c-.14-.43-.26-.87-.52-1.18-.01.42.1.73.06,1.18"/>
  <path class="cls-1" d="M50.25,22.62c.09,4.67-.39,9.08-1.44,12.76-.33,1.16-.65,1.99-1.21,2.92-.24.4-.46.97-.98,1.07-.24-.9.43-1.73.63-2.53.35-1.37.16-2.87.29-4.44.06-.65.2-1.3.29-1.97.31-2.47.38-5.02.29-7.53.44-.06.43.33.69.45-.03.62.02,1.29.06,1.86.14,2.02-.25,3.95-.23,5.73.44-.33.46-.97.52-1.57.17-1.74.16-4.12,0-5.9l-.06.11c.06-.33.77-.82,1.15-.95"/>
  <path class="cls-1" d="M30.46,55.83c-1.02.32-2.07-.1-2.71-.51.15.31-.1.55-.12.67-1.26-.12-1.22-1.51-2.42-1.69-.04.35-.07.49-.18.84-1.16-.05-1.91-.5-2.6-1.01-.22.42-.42.86-.4,1.52-.28.06-.37,0-.29.22-.39-.13-.67-.35-.75-.78-.2-.03-.49.29-.75.39-.4,0-.84-.03-1.15.06-.21.05-.02.5-.35.45-.57-.19-.19-.98.06-1.29.32-.4,1.35-.95.63-1.68-.53.2-.91.54-1.44.73-.13,0,.08.14,0,.28-.69-.09-1.01.18-1.56.22-.1.11-.07.34-.23.39-.36.08-.35-.18-.52-.28-.27.16-.53-.05-.87,0-.43.06-.88.53-1.04-.17-1.04-.22-1.65-.87-2.02-1.74-.73.02-1.34.16-2.02.22-.12.11-.03.42-.23.45-.29.06-.21-.24-.34-.34-.65.12-1.49.05-1.91.39-.24.05-.23-.15-.34-.22-.66.01-1.25-.05-1.73-.22-.11.02-.05.22-.23.17-.29-.12-.34-.49-.75-.51-.12.58-.35,1.05-1.21.9-.23.16-.13.42-.35.67-.3-.1-.48-.32-.81-.39.02-.34.28-.44.52-.56.11-.39-.34-.63-.29-1.01.07-.45.61-.51,1.04-.73-.07-.31-.24-.52-.46-.67.15-.42.22-.91.4-1.29-.15-.12-.32-.31-.17-.56.15-.06.39-.1.46.05.32-.23.53-.57.98-.67-.25-.54-.62-.97-1.5-.9-.08-.07-.06-.24-.06-.39-.36-.25-.63-.58-1.21-.62-.01-.55-.43-.71-.58-1.12-.14,0-.28,0-.35-.06.04-.49,0-.74,0-1.29-.13-.15-.31-.26-.23-.62.37-.05.42-.42.58-.67-.21-.34-.79-.42-.87-.84-.08-.42.34-.54.29-.95-.1-.16-.39-.14-.4-.4.14-.32.47-.45.75-.62.05.12.2.14.29.23-.05.21-.21.47,0,.62.06.08.4-.06.58-.06.31.17.44.51.4,1.01.35.09.82.06,1.1.23.1-.49-.01-1.17.46-1.29-.6-.15-.49.38-.87.45-.37-.09-.34-.59-.29-.84.11-.54.81-.88,1.44-.84.3-.08.33-.43.81-.34.16.57-.28.99-.92.96-.13.08-.02.39-.06.56.69-.14,1.21-1.27,1.9-.56v.62c.45.02.72-.12,1.15-.11.21-.43.77-.62,1.38-.5.2.25.35.55.29,1.07-.72.2-.42-.6-1.04-.51.16.12.2.36.46.39-.02.42.18.61.11,1.07.35.24.61.57.92.84-.02.6.35.82.63,1.12.53-.27.88-.71,1.33-1.07.2-.47.53-.98,1.04-1.01.59-.03.9.56,1.21.95,1.17.22,1.57,1.21,2.19,1.97.44-.31.72-.76,1.04-1.18.77.07,1.34-.27,1.96-.28.26,0,.84-.02,1.04.05.88.34,1.29,1.38,2.02,2.14.7.73,2.13,1.35,3.29,1.46.46.04,1.48.1,2.08-.11.54-.2.63-.65,1.38-.56,1.04.12,1.4,1.33,2.71,1.46.95-1.55,1.61-3.67,4.1-3.54.34-.39.53-.78.64-1.29.21-.12.32.02.52.06.16-.06.08-.37.29-.39.2.01.25.17.29.33.49.11.62.38.98.51-.08.53-.29.92-.29,1.51-.41.13-.78.3-.98.62.2.8-.15,1.53-.12,2.19-.07.05-.15.07-.29.06-.39.72-.89,1.3-1.62,1.69-.32.17-.66.19-1.04.34-.61.23-1.11.69-1.38,1.24.36.03.56-.09.86-.11.1-.06.06-.24.11-.33.55-.14.99.03,1.5-.28-.04-.13-.11-.34,0-.45.23-.09.81-.09,1.04,0,.09-.08.05-.29.06-.45.84.07,1.45-.09,2.02-.28-.16-1.85.53-3.37,1.56-4.44.96-1,2.58-2.19,4.5-1.52.32.11.67.53,1.33.39.14-.03.46-.26.63-.39l.52-.45c.01-.25-.82-.51-.86-.9-.03-.25.07-.25.23-.62-.14-.25-.32-.24-.46-.56.22-.12.37-.32.63-.4.27.23.22.3.23.62.41,0,.56.06.92,0,.18.2.33.43.29.84.61-.12.95-.99,1.85-1.01.23-.35.09-1.07.52-1.24.25,0,.42.07.58.17.25-.28.41-.43.11-.73.13-.04.17-.17.23-.28.35.11.56.36.92.45,0,.49-.54.44-.69.79.22.24.55.28.58.56.05.47-.59.66-.98.84,1,1.76-.79,3.6-2.77,3.82-.77.08-1.65-.01-2.54.06-.66,2.5-4.13,2.27-5.54,4.04.19.14.4.24.58.4,1.56-.03,2.82-.76,4.27-.9,1.02-.1,1.96.33,3,.28,0,.2.09.33.12.51.47.32.58,1,1.15,1.24.06.3-.08.41-.23.5.05.6-.29.8-.29,1.35-.41.05-.61.31-.87.51-.63.06-1.28.1-1.62.45-.36-.23-.85-.39-1.21-.22-.52.24-.7-.32-1.1-.56-.25.04-.34.23-.69.17-.14-.14.04-.24,0-.45-.2-.26-.61-.3-1.04-.34-.05-.38-.55-.33-.92-.4-.1.12-.05.4-.11.56-1.14,1.44-2.18,2.31-4.73,2.14-.52-.04-1.03-.16-1.5-.28-.44-.12-.83-.38-1.27-.45-.59-.1-1.49-.11-1.9,0-.63.17-.83,1.1-1.56,1.12.29.33.77.48,1.15.73-.15.2-.18.38-.06.45M49.38,40.54c.21.03.34.16.52.22.15-.24.55-.22.69-.45-.28-.23-.6-.43-1.04-.51-.08.22-.08.52-.17.73M4.04,40.88c.13-.02.22.01.29.06.06-.2-.28-.22-.29-.06M7.5,41.78c-.18-.17-.04-.48-.17-.68h-.17v-.17c-.1-.07-.33-.03-.4-.17-.43.07-.86.14-1.33.17-.1.2-.26.35-.29.62.97-.45,2.59-.07,1.79,1.12.39.01.31-.44.34-.79.1-.12.18-.05.23-.11M.87,40.99c-.03.23-.29.24-.23.56.17.16.36.28.52.45.49-.13.46-.53.35-1.07-.24,0-.36.1-.64.06M4.1,41.78c.31.07.12-.33.17-.51.18.03.18-.12.17-.28-.32.06-.12.63-.34.79M49.27,43.63c.84-.77,1.09-2.8-.69-2.58-.56.39-1.14.86-1.85,1.46-.66.56-1.29,1.53-2.54,1.35v.62c1.41.12,4.02.12,5.08-.84M45.63,41.67c.21.19.39.41.69.5.1-.05.17-.13.29-.17.03-.32-.02-.57-.06-.84-.57-.09-.91.05-.92.51M4.44,42.28c-.07.39.21.67.35.9.17.28.28.56.52.79.4-.7.99-1.2,1.27-1.97-.72-.36-1.56.32-2.13.28M4.85,44.42c-.55-.99-1.15-2.01-2.25-2.3-.74-.2-1.06.36-1.21.85-.35,1.13,0,1.94.58,2.53.63.64,1.62,1.02,2.31,1.57.39.31.74.77.64,1.4-.94.26-1.73,1.19-1.39,2.3.35,1.15,1.9,1.63,3.52,1.63s3.35-.52,4.56-.5c0-.43-.03-.89.11-1.18-1.29-.06-1.59-1.12-2.36-1.74-.42-.34-1.03-.69-1.73-.68-.61.02-1.05.42-1.56.45.04-1.7-.59-3.2-1.21-4.33M18.4,46.78c-.2-.14-.45-.33-.69-.51-.25-.18-.52-.45-.75-.51-.42-.1-.83.08-1.33,0-.01-.04-.05-.07-.12-.06-.2-.36-.51-.78-.81-1.18-.48-.65-.9-1.32-1.73-1.46-.39-.15-.57-.9-1.04-.9-.32,0-.58.37-.69.79-1.51,1.32-3.14,2.52-4.85,3.65.1.41.22.8.23,1.29.78.09.63-.74,1.15-.9.36,0,.23.51.12.68.38.03.68.12.98.22.05-.18.05-.4.35-.34.14.15-.09.29-.06.51.32.16.47.48.81.62.13-.16.17-.4.46-.4.15.29-.19.4-.23.68.37.37.68,1.06,1.33,1.13.48.05.86-.26,1.1-.39.16-.09.4-.09.46-.28-.04-.38-.35-.56-.06-.84.48-.05.3.54.46.79.26-.21.73-.22,1.1-.34,0-.2-.04-.45.17-.45.26-.03.13.32.23.45.27-.14.61.11.87-.06-.2-.1,0-.39.06-.56.1-.11.15.05.35,0,.1.91,1.08.97,1.73,1.35.09-1.18.76-1.81,1.85-2.02-.39-.4-.92-.6-1.44-.95M7.79,42.79c.33-.07.27.22.52.23-.02-.34-.38-.34-.46-.62.03.18-.1.2-.06.39M5.54,44.59c.33.45.49,1.06.75,1.57.9-.75,1.91-1.4,2.77-2.19-.28-.16-.46-.42-.52-.79-.72-.04-1.38.16-1.96-.05-.07.12-.16.22-.23.34.23-.02.4.02.4.23-.05.31-.15.57-.4.68-.04.19.07.52-.06.62.04-.29-.05-.6-.06-.56-.04.12.08.28-.06.51.04-.48-.19-.92-.06-1.18-.18.3-.42.53-.58.84M35.42,44.08c-.02.22.27.15.29.34-.21.05-.16.26-.23.34-.02.03-.1-.07-.17,0-.05.05.04.23-.12.17h-.35c.04-.21-.1-.24-.06-.45-.7-.04-1.19.12-1.56.39-.42.3-.9.93-1.27,1.52-.8,1.3-1.01,2.77-1.73,4.05.12.29.27.57.52.73.22-.11.44-.21.69-.28.31-.84.94-1.41,1.73-1.69.2-.07.42-.04.63-.11.83-.3,1.84-1.43,2.08-2.47.12-.5-.1-.94,0-1.35.11-.42.59-.59.98-.84.04-.36.17-.73.06-1.07-.66-.58-1.22.26-1.5.73M37.96,48.86c.3,0,.65-.04.86.05,1.05-1.97,4.51-1.59,5.36-3.76-.58-.22-.73-.86-.52-1.57-3.13-1.09-5.85,1.96-5.71,5.28M22.79,46.72c-.33-.23-.72-.35-1.04-.56-1.04-.7-1.47-1.73-2.42-2.53h-1.62c-.22.22-.63.25-1.1.22-.26.41-1.04.82-.81,1.35.18.13.6.02.87.06-.04-.31-.18-.42.17-.51.19.06.27.22.23.51.18.02.29.16.46.28.1.07.31.37.35.17.03-.4-.3-.8.11-.96.46.12.24.86.23,1.29,2.29,1.57,5.12,2.62,6.69,4.78.1.14.16.35.35.45,1.24-.48,2.74-1.64,4.44-.96.4-.68.59-1.56.92-2.3-1.14-.08-1.68-1.29-2.6-1.41-.6-.08-.65.29-1.04.45-.88.36-1.89.2-3,.06-.08.13-.06.35-.29.34-.45-.03-.61-.51-.92-.73M20.36,48.13c-.36-.1-1.24.25-1.56.67-.27.36-.29.84-.35,1.18.23-.07.43.17.58,0-.34-1.32,1.32-1.81,1.73-.67.14-.52-.06-1.09-.4-1.18M20.71,49.82c-.47-.02-.37-.67-.92-.68-.28.14-.33.61-.23.96.64.14,1.35.37,2.14.39.37.01.75-.13,1.09-.11.54.03.98.35,1.39.39-.9-.79-1.91-1.77-2.94-2.25.27.61.02,1.32-.52,1.29M41.02,51.16c1.35.26,2.37,1.28,3.64,1.46.94.13,2.45-.12,2.83-.67.62-.92-.07-1.99-.58-2.36-2.04-1.5-5.1.28-7.21.34-.17.25-.37.46-.29.95.54.28,1.08.18,1.62.28M37.56,49.42c-1.6.29-3.13,1.3-4.44,1.74.27.01.32.24.29.56-.2.05-.34.16-.63.11-.12-.14-.24-.34-.11-.56-1.24-.13-2.31.51-1.9,1.74h1.73c.08-.36.43-.73.86-.56.15.48-.34.34-.35.68,1.05.37,2.36.77,3.69.67,1.25-.09,2.21-.67,2.83-1.35.22-.25.42-.59.35-.9-1.27.05-1.15-1.41-.58-2.02-.45-.2-1.16-.22-1.73-.11M13.04,50.04c-1.1.64-1.14,2.64-.06,3.37.44.3,1.16.45,1.73.51,1.75.16,3.34-.59,4.38-1.29-.57-.59-.88-1.42-1.15-2.3-1.5-.45-3.36-1.18-4.9-.28M19.9,52.62c0,.35.3.54.29.96-.01.7-.66,1.14-.92,1.46.74-.08,1.37-.05,1.56-.68.09-.3-.13-.73.12-1.07.15.12.33-.1.4,0,.33.6-.22,1.39.23,1.85.09-.74.43-1.23.58-1.91-1.08-.88-2.87-1.34-3.46-2.58-.07-.15.17-.14-.11-.17.09.64.64,1.83,1.33,2.14M22.1,52.51c.33.25.46.62.81.84.14-.09.26-.2.4-.28.07-1.32-1.36-1.19-2.31-1.52v-.45c1.56,0,3.79,1.04,2.6,2.42-.15.18-.55.24-.52.51.14.13.29.03.46-.06.52-.28.65-.8.98-1.18.28-.12.78-.03,1.15-.06-.06-.3-.47-.25-.69-.39-.19-.37-.45-.69-.75-.96-.72-.04-1.58-.33-2.42-.39-.47-.04-.92.04-1.33,0-.51-.05-.8-.31-1.21-.34.65.93,1.94,1.17,2.83,1.85M28.96,50.6c-1.24-.13-2.7.88-3.64,1.18.19.34.7.37.92.67.03.19-.02.31-.06.45.28.07.51.18.75.28,0-.2.17-.25.4-.22.19.07.29.29.17.51.52.26.97.59,1.5.84.54-.21,1.01-.48,1.27-.96-.25-.47-.09-1.36.05-1.8-.3-.53-.71-.88-1.38-.95M2.54,52.12c.24.1.21.47.35.67.35,0,.4.05.69,0,.05-.25.14-.46.17-.73-.23-.6-.86-.25-1.21.06M25.33,53.75c.89.15,1.33,1.07,1.85,1.4-.17-.2-.18-.72.12-.79.65.34,1.24,1.04,2.13.95-1.14-.51-2.33-1.85-3.75-2.02-.3-.04-1.08-.16-.98.39.2.21.42.02.63.06M24.69,54.59c-.08-.48-.54-.51-.86-.22.22.11.67.28.86.22"/>
  <path class="cls-1" d="M16.9,1.15h.17c.07.68.17,1.78.23,2.58,0,.11.16.41-.06.45-.19.03-.18-.32-.23-.45-.18-.49-.48-1.13-.63-1.68-.16.66.21,1.59.06,2.25-.17-.13-.16-.46-.17-.67-.05-.76-.19-1.7-.12-2.42.24.23.38.7.52,1.07.15.4.27.79.4,1.18.05-.65-.1-1.58-.17-2.3"/>
  <path class="cls-1" d="M41.88,2.28h.11c.22.09.11.41.12.62.01.6,0,1.37,0,2.02.3-.7.49-1.89.81-2.47.33.05.08.48.06.67-.08.7-.18,1.68-.35,2.36-.25-.07-.07-.35-.06-.51.05-.53.19-1.19.23-1.74-.26.5-.32,1.17-.52,1.74-.05.14-.1.43-.29.45v-2.64c-.2.68-.2,1.97-.46,2.53-.17-.06-.03-.42,0-.67.09-.65.2-1.55.35-2.19"/>
  <path class="cls-1" d="M20.02,12.5c.19.16.18.5.17.84-.29.02-.43.18-.69.22.06.13.36.02.52.06-.07.53-.11,1.09-.11,1.68-.48,0-.86-.1-1.33-.11.27-.54.47-1.16.87-1.57-.14-.27.04-.51,0-.84.16-.12.43-.14.58-.28M19.04,14.92c.2.02.33.09.58.06-.01-.37,0-.71.06-1.01h-.17c-.11.36-.32.63-.46.95"/>
  <path class="cls-1" d="M6.87,16.83c-.24.02-.36-.06-.35-.28-.08.07-.09.22-.17.28-.2.03-.17-.17-.29-.23-.11.02-.05.22-.23.17-.67-.3-.25-1.7.4-1.74.61-.04,1,.56.87,1.57-.1.05-.1.21-.23.23M6.12,16.38c0-.07,0-.41-.06-.22,0,.07,0,.41.06.22"/>
  <path class="cls-1" d="M9.87,17.33c-.47.25-.74-.15-1.1-.06-.45-1.24,1.56-1.17,1.1.06"/>
  <path class="cls-1" d="M45.81,18.35c.43.06.29.75.29,1.29,0,1.01.12,2.09-.69,2.14-.41.03-.57-.25-.81-.51-.02-.4.02-.92,0-1.4-.03-.66-.31-1.51.52-1.46.29.48-.01,1.23.06,1.86.78.14.06-1.66.63-1.91"/>
  <path class="cls-1" d="M38.31,40.2c.05.12.14.2.34.17.76-.2-.51-1.81.69-1.69.22.21.18.58.23.9.05.31.19.65.11.96-.17.67-1.37.97-1.9.45-.24-.24-.49-1.13-.4-1.46.1-.39.65-.61,1.21-.51-.2.38.2.86,0,1.24-.13.02-.22,0-.29-.06M38.25,39.87c-.08-.14.04-.49-.17-.51.06.13.09.58.17.51"/>
</svg>