<?xml version="1.0" encoding="utf-8"?>
<!-- Generator: Adobe Illustrator 22.1.0, SVG Export Plug-In . SVG Version: 6.00 Build 0)  -->
<svg version="1.1" id="Capa_1" xmlns="http://www.w3.org/2000/svg" xmlns:xlink="http://www.w3.org/1999/xlink" x="0px" y="0px"
	 viewBox="0 0 449.8 86.9" style="enable-background:new 0 0 449.8 86.9;" xml:space="preserve">
<style type="text/css">
	.st0{opacity:0.6;fill:none;stroke:#000000;stroke-width:1.3051;stroke-miterlimit:10;enable-background:new    ;}
	.st1{opacity:0.3;fill:#F97C00;enable-background:new    ;}
	.st2{opacity:0.7;fill:#F97C00;enable-background:new    ;}
	.st3{opacity:0.5;fill:#F97C00;enable-background:new    ;}
	.st4{fill:#C2CA5A;}
	.st5{opacity:0.7;fill:#C2CA5A;enable-background:new    ;}
	.st6{opacity:0.4;fill:#C2CA5A;enable-background:new    ;}
	.st7{opacity:0.8;fill:#4FC2BD;enable-background:new    ;}
	.st8{fill:#4FC2BD;}
	.st9{opacity:0.5;fill:#4FC2BD;enable-background:new    ;}
</style>
<g>
	<g>
		<g>
			<path d="M92.6,12.7h11.7c2,0,3.8,0.1,5.3,0.4c1.5,0.2,2.9,0.6,4,1.1s2.1,1,2.8,1.6c0.7,0.6,1.3,1.3,1.8,2.1
				c0.4,0.8,0.8,1.6,1,2.4c0.2,0.9,0.3,1.8,0.3,2.7c0,0.8-0.1,1.6-0.3,2.3c-0.2,0.8-0.5,1.5-0.9,2.2s-1,1.4-1.7,2s-1.6,1.1-2.6,1.6
				s-2.2,0.8-3.6,1.1s-3,0.4-4.8,0.4c-0.3,0-0.6,0-1,0s-0.8,0-1.1-0.1l-1.3-0.1v10.4h-9.6C92.6,42.8,92.6,12.7,92.6,12.7z
				 M102.2,27.9h2.2c1,0,1.9-0.1,2.6-0.4c0.7-0.2,1.3-0.6,1.7-1c0.4-0.4,0.7-0.9,0.9-1.5c0.2-0.6,0.3-1.2,0.3-1.9
				c0-1.1-0.1-2-0.4-2.6c-0.3-0.7-0.7-1.3-1.1-1.7c-0.5-0.4-1.1-0.7-1.7-0.9c-0.7-0.2-1.4-0.3-2.2-0.3h-2.2v10.3H102.2z"/>
			<path d="M131.7,43.6c-1.7,0-3.2-0.2-4.5-0.5s-2.5-0.7-3.4-1.3c-1-0.6-1.8-1.2-2.5-2s-1.3-1.6-1.7-2.5c-0.4-0.9-0.7-1.8-0.9-2.8
				c-0.2-1-0.3-2-0.3-3c0-1,0.1-2,0.3-3c0.2-1,0.5-1.9,0.9-2.8s1-1.7,1.7-2.5s1.5-1.4,2.5-2s2.1-1,3.4-1.3s2.8-0.5,4.5-0.5
				s3.2,0.2,4.5,0.5s2.5,0.8,3.4,1.3c1,0.6,1.8,1.2,2.5,2s1.2,1.6,1.7,2.5c0.4,0.9,0.7,1.9,0.9,2.8c0.2,1,0.3,2,0.3,3
				c0,1-0.1,2-0.3,3s-0.5,1.9-0.9,2.8c-0.4,0.9-1,1.7-1.7,2.5s-1.5,1.4-2.5,2s-2.1,1-3.4,1.3C134.9,43.4,133.4,43.6,131.7,43.6z
				 M127.6,31.5c0,0.8,0.1,1.5,0.2,2.3c0.1,0.7,0.4,1.4,0.7,2s0.7,1,1.3,1.4c0.5,0.3,1.2,0.5,1.9,0.5c0.8,0,1.4-0.2,1.9-0.5
				s0.9-0.8,1.3-1.4c0.3-0.6,0.5-1.2,0.7-2c0.1-0.7,0.2-1.5,0.2-2.3c0-0.8-0.1-1.5-0.2-2.3c-0.1-0.7-0.4-1.4-0.7-2s-0.7-1-1.3-1.4
				c-0.5-0.4-1.2-0.5-1.9-0.5c-0.8,0-1.4,0.2-1.9,0.5c-0.5,0.4-0.9,0.8-1.3,1.4c-0.3,0.6-0.6,1.2-0.7,2
				C127.7,29.9,127.6,30.7,127.6,31.5z"/>
			<path d="M145.7,19.9h8.8c0,0.4,0,0.8-0.1,1.2c0,0.4,0,0.9,0,1.4s0,1,0,1.5s0,1,0,1.4c0.3-0.7,0.7-1.4,1.1-2.1
				c0.5-0.7,1-1.4,1.6-2s1.3-1.1,2.1-1.4c0.8-0.4,1.7-0.6,2.7-0.6c0.2,0,0.4,0,0.6,0c0.2,0,0.4,0.1,0.6,0.1c0.2,0,0.4,0.1,0.6,0.2
				c0.2,0.1,0.4,0.1,0.5,0.2l-0.7,8.8c-0.6-0.2-1.3-0.4-2-0.5s-1.3-0.2-1.9-0.2c-0.7,0-1.4,0.1-1.9,0.3c-0.5,0.2-1,0.4-1.4,0.7
				c-0.4,0.3-0.7,0.6-0.9,0.9s-0.4,0.7-0.5,1v12.1h-9.2L145.7,19.9L145.7,19.9z"/>
			<path d="M175.2,43.6c-1.3,0-2.6-0.2-3.8-0.5s-2.3-0.9-3.2-1.6c-0.9-0.8-1.7-1.8-2.2-3c-0.5-1.3-0.8-2.8-0.8-4.7v-8.5H161v-1.4
				l10-11h3.4v7h6.8c-0.2,0.9-0.3,1.7-0.5,2.6c-0.1,0.9-0.2,1.8-0.2,2.7h-6.2v8.4c0,0.5,0,1,0.1,1.5s0.2,0.9,0.5,1.3
				c0.2,0.4,0.6,0.7,1,0.9c0.5,0.2,1.1,0.3,1.8,0.3c0.5,0,1,0,1.6-0.1s1.2-0.3,2-0.5l0.5,5.5c-0.9,0.3-1.9,0.6-3.1,0.8
				C177.8,43.5,176.5,43.6,175.2,43.6z"/>
			<path d="M187.4,43.6c-0.9,0-1.8-0.1-2.6-0.4c-0.8-0.3-1.6-0.6-2.2-1.2c-0.6-0.5-1.1-1.2-1.5-2s-0.6-1.8-0.6-2.9
				c0-1.1,0.2-2,0.5-2.7c0.3-0.8,0.8-1.4,1.4-2c0.6-0.6,1.3-1,2-1.4c0.8-0.4,1.6-0.6,2.5-0.9c0.9-0.2,1.8-0.3,2.7-0.4
				s1.8-0.1,2.7-0.1c0.6,0,1.2,0,1.7,0c0.6,0,1.1,0.1,1.6,0.1c0-0.9-0.2-1.6-0.5-2.2s-0.7-1.1-1.2-1.4s-1.1-0.6-1.8-0.7
				s-1.4-0.2-2.2-0.2c-0.7,0-1.4,0-2.1,0.1c-0.7,0.1-1.4,0.2-2.1,0.3c-0.7,0.1-1.4,0.3-2,0.4c-0.6,0.2-1.2,0.3-1.7,0.4v-6
				c0.7-0.2,1.4-0.3,2.3-0.5c0.8-0.1,1.6-0.3,2.5-0.4s1.8-0.2,2.7-0.3c0.9-0.1,1.8-0.1,2.7-0.1c1.1,0,2.2,0.1,3.2,0.2
				c1.1,0.1,2.1,0.4,3,0.7c0.9,0.3,1.8,0.7,2.6,1.3c0.8,0.5,1.5,1.2,2.1,2s1,1.7,1.4,2.7c0.3,1.1,0.5,2.3,0.5,3.7v13.1h-9V39
				c-0.3,0.7-0.8,1.3-1.4,1.9c-0.6,0.5-1.3,1-2.1,1.4s-1.6,0.7-2.5,0.9C189.1,43.5,188.3,43.6,187.4,43.6z M191,38.5
				c0.4,0,0.9-0.1,1.4-0.3s1-0.6,1.5-1c0.5-0.5,0.9-1,1.2-1.7s0.5-1.5,0.5-2.5h-0.7c-0.7,0-1.4,0.1-2.1,0.2c-0.7,0.1-1.4,0.4-2,0.6
				c-0.6,0.3-1.1,0.6-1.5,1s-0.6,0.9-0.6,1.4c0,0.4,0.1,0.8,0.2,1.1c0.1,0.3,0.3,0.5,0.5,0.7s0.5,0.3,0.7,0.4
				C190.5,38.5,190.8,38.5,191,38.5z"/>
			<path d="M206.6,10.1h9.2v32.8h-9.2V10.1z"/>
			<path d="M20.6,76.4H4.9L1.3,86H0l12-32.2h1.5l12,32.2h-1.3L20.6,76.4z M5.3,75.3h14.8l-6.7-18.1l-0.6-1.8h-0.1l-0.6,1.8L5.3,75.3
				z"/>
			<path d="M38.2,85.3c2,0,3.8-0.6,5.3-1.7s2.3-2.8,2.3-5h1v0.1c0.1,2.3-0.8,4.2-2.6,5.6s-3.8,2.1-6.1,2.1c-3.1,0-5.4-1.1-7.2-3.3
				c-1.7-2.2-2.6-5.1-2.6-8.7v-0.9c0-3.6,0.9-6.4,2.6-8.6c1.7-2.2,4.1-3.3,7.1-3.3c2.5,0,4.6,0.7,6.3,2.2s2.5,3.5,2.5,6.1V70h-1
				c0-2.3-0.8-4.1-2.3-5.4c-1.5-1.2-3.3-1.9-5.5-1.9c-2.8,0-4.9,1-6.4,3c-1.4,2-2.2,4.6-2.2,7.7v0.9c0,3.2,0.7,5.8,2.2,7.8
				C33.2,84.3,35.3,85.3,38.2,85.3z"/>
			<path d="M68,81.6c-0.8,1.4-2.1,2.6-3.7,3.5s-3.6,1.4-5.9,1.4c-2.2,0-4-0.6-5.2-1.8c-1.3-1.2-1.9-2.9-1.9-4.9s0.9-3.7,2.8-5
				c1.9-1.4,4.3-2,7.1-2H68v-3.5c0-2-0.6-3.5-1.9-4.6S63,63,60.7,63c-2.2,0-3.9,0.5-5.2,1.6c-1.3,1-2,2.4-2,4h-1v-0.1
				c-0.1-1.9,0.6-3.4,2.2-4.7c1.5-1.3,3.6-1.9,6.1-1.9c2.6,0,4.6,0.6,6.2,1.9c1.5,1.3,2.3,3.2,2.3,5.6v12c0,0.8,0,1.7,0.1,2.5
				s0.3,1.6,0.5,2.4h-1.3c-0.2-1-0.3-1.8-0.4-2.4C68,83.2,68,82.6,68,82V81.6z M58.4,85.3c2.4,0,4.4-0.5,6-1.6
				c1.6-1,2.8-2.5,3.6-4.5v-5.4h-6.8c-2.5,0-4.6,0.6-6.3,1.7s-2.6,2.6-2.6,4.2s0.5,2.9,1.6,3.9C55.1,84.8,56.6,85.3,58.4,85.3z"/>
			<path d="M75.8,74.1c0-3.8,0.8-6.8,2.4-9c1.6-2.2,3.8-3.3,6.6-3.3c1.9,0,3.5,0.4,4.8,1.3c1.4,0.8,2.4,2,3.3,3.4V51.6h1.2v34.5H93
				v-3.7c-0.8,1.3-1.9,2.3-3.3,3c-1.4,0.8-3,1.1-4.9,1.1c-2.8,0-5-1.1-6.6-3.2s-2.4-5.1-2.4-8.7V74.1z M77,74.5c0,3.3,0.6,5.9,2,7.9
				c1.3,1.9,3.2,2.9,5.8,2.9c2.1,0,3.8-0.5,5.2-1.4c1.4-0.9,2.4-2.2,3-3.8V68.9c-0.6-1.7-1.5-3.1-2.8-4.3c-1.3-1.2-3.1-1.7-5.3-1.7
				c-2.5,0-4.5,1-5.8,3.1c-1.3,2.1-2,4.8-2,8.1L77,74.5L77,74.5z"/>
			<path d="M109.8,86.5c-2.7,0-5.1-1.1-7.1-3.3c-2-2.2-3-4.9-3-8.2v-1.4c0-3.4,1-6.3,2.9-8.5c1.9-2.2,4.3-3.4,7.1-3.4
				c2.7,0,4.9,0.9,6.6,2.7c1.7,1.8,2.6,4.1,2.6,7.1v1.8H101v0.3V75c0,2.9,0.8,5.3,2.5,7.3s3.8,3,6.3,3c1.8,0,3.3-0.2,4.5-0.7
				s2.2-1.2,3.1-2.2l0.6,0.9c-0.9,1-2.1,1.8-3.4,2.4C113.2,86.2,111.6,86.5,109.8,86.5z M109.7,62.9c-2.4,0-4.3,0.9-5.9,2.6
				s-2.5,3.9-2.7,6.5l0.1,0.1h16.5v-0.7c0-2.4-0.7-4.5-2.2-6.1C114,63.7,112.1,62.9,109.7,62.9z M114,52.9h1.7V53l-5.1,5.8h-1.5
				v-0.1L114,52.9z"/>
			<path d="M125.2,62.2l0.2,4.9c0.7-1.7,1.8-3,3.1-4c1.4-0.9,3-1.4,4.9-1.4c2.1,0,3.7,0.5,5,1.6s2.2,2.7,2.7,4.9
				c0.6-2,1.7-3.6,3.1-4.8c1.4-1.1,3.2-1.7,5.4-1.7c2.6,0,4.6,0.9,6,2.6s2.1,4.4,2.1,8.1V86h-1.2V72.4c0-3.5-0.6-5.9-1.9-7.3
				c-1.2-1.4-2.9-2.1-4.9-2.1c-2.5,0-4.4,0.8-5.7,2.3c-1.3,1.5-2.1,3.5-2.4,5.9c0,0.3,0,0.5,0,0.8c0,0.2,0,0.4,0,0.6v13.6h-1.2V72.4
				c0-3.5-0.6-5.9-1.9-7.3c-1.2-1.4-2.9-2.1-5-2.1c-2.5,0-4.4,0.7-5.6,2.2c-1.3,1.5-2.1,3.3-2.5,5.6v15.3h-1.2V62.2H125.2z"/>
			<path d="M166.5,54.6h-1.2v-3h1.2V54.6z M166.5,86.1h-1.2V62.2h1.2V86.1z"/>
			<path d="M182.4,85.3c2,0,3.8-0.6,5.3-1.7s2.3-2.8,2.3-5h1v0.1c0.1,2.3-0.8,4.2-2.6,5.6s-3.8,2.1-6.2,2.1c-3,0-5.4-1.1-7.2-3.3
				c-1.7-2.2-2.6-5.1-2.6-8.7v-0.9c0-3.6,0.9-6.4,2.6-8.6c1.7-2.2,4.1-3.3,7.1-3.3c2.5,0,4.6,0.7,6.3,2.2s2.5,3.5,2.5,6.1V70h-1
				c0-2.3-0.7-4.1-2.3-5.4c-1.5-1.2-3.3-1.9-5.5-1.9c-2.8,0-4.9,1-6.4,3c-1.4,2-2.2,4.6-2.2,7.7v0.9c0,3.2,0.7,5.8,2.2,7.8
				C177.5,84.3,179.6,85.3,182.4,85.3z"/>
			<path d="M195.4,73.6c0-3.5,1-6.4,2.9-8.6c1.9-2.2,4.5-3.3,7.5-3.3c3.1,0,5.6,1.1,7.6,3.3c1.9,2.2,2.9,5.1,2.9,8.6v0.9
				c0,3.5-1,6.4-2.9,8.6s-4.4,3.3-7.5,3.3s-5.6-1.1-7.6-3.3c-1.9-2.2-2.9-5.1-2.9-8.6V73.6z M196.6,74.6c0,3,0.8,5.5,2.5,7.6
				s3.9,3.1,6.8,3.1c2.8,0,5-1,6.7-3.1s2.5-4.6,2.5-7.6v-0.9c0-2.9-0.8-5.5-2.5-7.6s-3.9-3.2-6.7-3.2s-5.1,1.1-6.7,3.2
				c-1.7,2.1-2.5,4.6-2.5,7.6v0.9H196.6z"/>
		</g>
		<line class="st0" x1="226.2" y1="0" x2="226.2" y2="85.6"/>
	</g>
	<g>
		<rect x="390.3" y="10.8" class="st1" width="13.3" height="64.9"/>
		<rect x="390.5" y="24.2" class="st2" width="59.3" height="30.4"/>
		<rect x="436.7" y="10.8" class="st3" width="13.3" height="64.9"/>
	</g>
	<g>
		<path class="st4" d="M261.4,43c0-8.4,6.5-15.2,14.8-15.7L265.6,10c-0.1-0.1-0.2-0.2-0.2-0.2c-15,3.7-26.1,17.3-26.1,33.4
			c0,16.4,11.5,30.2,26.9,33.6l10.7-18C268.3,58.6,261.4,51.6,261.4,43z"/>
		<path class="st5" d="M277.1,27.2c6,0,11.1,3.3,13.8,8.2l9.3-15.5c-6.3-7-15.4-11.5-25.6-11.5c-3.2,0-6.3,0.5-9.2,1.3l0.1,0.2
			c0.9,1.4,5.8,9.4,10.5,17.3C276.5,27.2,276.8,27.2,277.1,27.2z"/>
		<path class="st6" d="M277.1,58.7H277l-11,18.5c2.5,0.6,5,0.9,7.6,0.9c10.7,0,20.3-4.9,26.6-12.6l-9.5-14.6
			C288,55.5,282.9,58.7,277.1,58.7z"/>
	</g>
	<g>
		<path class="st7" d="M336.8,43c0-8.2,6.3-15,14.3-15.7L340.5,9.9c-15,3.7-26.1,17.3-26.1,33.4c0,16.4,11.5,30.2,26.9,33.6
			l10.8-18.3C343.6,58.5,336.8,51.6,336.8,43z"/>
		<path class="st8" d="M351.2,27.3c0.4,0,0.9-0.1,1.3-0.1c5.9,0,11,3.2,13.7,8l9.1-15.1c-6.3-7-15.4-11.5-25.6-11.5
			c-3.2,0-6.3,0.5-9.2,1.3l0,0c0,0,0,0,0.1,0C340.6,9.9,346,18.7,351.2,27.3z"/>
		<path class="st9" d="M366,51c-2.8,4.6-7.8,7.7-13.5,7.7c-0.1,0-0.2,0-0.3,0L341.3,77c2.4,0.6,5,0.9,7.6,0.9
			c10.7,0,20.3-4.9,26.6-12.6L366,51z"/>
	</g>
</g>
</svg>
