<?xml version="1.0" encoding="UTF-8"?>
<svg id="Layer_1" data-name="Layer 1" xmlns="http://www.w3.org/2000/svg" viewBox="0 0 124.4 139.01">
  <defs>
    <style>
      .cls-1 {
        fill: #24366c;
      }
    </style>
  </defs>
  <path class="cls-1" d="M89.4,67.4v-29.1c0-.1-.1-.2-.2-.2h-56.1c-.1,0-.2.1-.2.2v29.2c.2,10.2,3.1,19.7,8.3,27.5,5.1,7.6,12.1,13,19.9,15.2h.1c7.7-2.1,14.8-7.5,19.8-15.2,5.3-7.9,8.2-17.4,8.4-27.6h0M88.3,67.2q0,.07,0,0c-.5,20.1-11.6,37.2-27.1,41.7-15.5-4.5-26.7-21.5-27.1-41.6v-28.1h54.2v28Z"/>
  <path class="cls-1" d="M61.1,102.1h0c12.1-4.5,20.8-18.8,21.2-34.9v-21.5c0-.1-.1-.2-.2-.2h-41.9c-.1,0-.2.1-.2.2v21.4c.4,16.1,9.1,30.5,21.1,35M61.2,100.8c-11.4-4.5-19.6-18.3-20-33.7v-19.9c.1.3.2.5.4.7.3.5,1,1.8,1,1.8,0,0,.1.6-.2.7-.2.1.3.4.5.7.2.2.6,1,.9,1,.3.1.4-.3.2-.7l-.7-1.4s-.1-.6-.4-1.1c-.2-.6-.5-1.3-.5-1.3,0,0,1.3.3,1.5,1.1.1.3.5,2.2.9,3.3.2.6.6,1.1,1,1.7.4.6,1.4,1.5,2.5,1.8s2.4-.4,3,0,1.6,1.4,2.3,1.7c.7.2,2.7.6,3,1.4.4.8,1.4.9,1.8,1,.5.1,2.1.7,2.1,2.2l-1.3,2.7s-1,1-1.1,2c-.2,1-.6,1.5.3,3,1,1.4,1.6,3.2,1.7,4.5.1,1.3,1.3,1.4,2.1,2s0,1.1-.5,2.3c-.5,1.2-.2,3.7-.7,5.3-.5,1.6-1,2.2-1,3.4,0,1.3.1,2.7-.4,3.8-.5,1.1-.2,2.2-.2,3.4-.1,1.2.2,2.7,1,3.7s2.7,1.5,2.4-.1c-.2-1.6.1-3.7,1-4.7l1-1s-.2-1.5.8-2.2,1.6-1.1,1-1.4c-.6-.2,0-.8.6-.8s.8.2,2.1-1.3c1.3-1.5,1.7-1.8,3-2.6,1.3-.7,1.8-2.2,2.6-3,.8-.8,2.2-1.5,3.1-1.7s1.4-1,1.4-2.1-.3-1.8.4-2.9c.7-1.1.3-1.3.9-1.9-1.7,13.2-9.4,24.6-19.5,28.6M81.1,66.8v.3c0,.6-.1,1.3-.1,1.9-.6-.6-1.5-1-2.1-1.6-.6-.7-1.5-1.2-1.8-1.4-.3-.2-.5-.5-1.4-.3s-1.6,0-1.8-.9c-.2-.9-.1-1.8-1-2.2-.9-.5-1.4-1-2.1-1.5-.6-.5-1.3-1.4-1.5-1.4-.2-.1-1.9.1-1.9.1,0,0-1-.9-2.4-.6,0,0-.9-1.4-1.8-.6-1,.7-1.8,1.2-2.3.5-.6-.7-1.5-.4-2.2-.3-.6.1-1.2-1-1.4-1.5s0-1.2-.2-1.2-1.2.3-1.8-.2-.3-1-.1-1.4.6-2,.4-2.3l-.7-.1s-.9-.2-1,.5c-.2.6-1.3,1.3-2.2,1-.9-.2-1.5-.8-1.9-1.7-.3-.9-.2-1.4-.1-1.9.2-.5-.6-1.4-.8-1.6-.2-.2-.3.1-.7-.6-.3-.4-.6-.8-.9-1h33.8s0,20,0,20Z"/>
  <path class="cls-1" d="M45.6,15c-1.1-.5-2.3-.3-2.7.3-.3.3-.4.4-.5.5-.3,0-1.8-.1-2.5.8-.3.5-.4,1.1-.1,1.8,1,2.6,1.1,3.1,1.1,3.1v.1s1.7,1.7,1,3.2c-.8,1.7-.6,2.1.3,2.6.7.4,1.1.9,1.1,2.5v.1c0,1.2,0,2.2.6,2.8.3.3.7.4,1.2.4.4,0,.7-.2.9-.5.8-1,.5-3.2.3-4.2-.2-.9-.7-3,0-3.5.8-.6,1.1-.7,1.5-.3,0,0,.1.1.1,0,.3,0,1-.3,1-1,0-.3-.1-.5-.2-.7h0c.1,0,.2,0,.3.1.5.1.9,0,1.2-.4.3-.3.3-.8.1-1.2-.4-.8-1.5-2.7-2.4-3.5l-.3-.2c-.33-.33-.5-.63-.5-.9.2-.7-.4-1.4-1.5-1.9M47.8,23.4c0,.07.03.13.1.2-.9-.4-1.7.3-2.2.6-1.1.8-.8,2.8-.4,4.5.3,1.2.3,2.9-.1,3.4,0,.1-.1.1-.2.1-.2,0-.4,0-.5-.1-.3-.3-.3-1.2-.3-2.1v-.1c0-1.9-.4-2.8-1.6-3.4-.13-.07-.23-.13-.3-.2,0-.1.1-.4.4-1.2.9-1.9-.6-3.6-1-4.2-.1-.4-.4-1.2-1-3-.2-.4-.2-.7,0-.9.3-.4,1.2-.4,1.7-.4h.2c.2-.1.6-.2,1.1-.8.1-.2.8-.4,1.5,0,.9.4,1.1.8,1,1-.1.9.1,1.1.8,1.7l.3.2c.7.7,1.8,2.5,2.1,3.2v.1h-.2c-.4-.1-.9-.2-1.3.2-.3.6-.2,1.1-.1,1.2"/>
  <path class="cls-1" d="M43.6,18.7c-.5,0-.9.4-.9.9s.4.9.9.9.9-.4.9-.9c0-.6-.4-.9-.9-.9"/>
  <path class="cls-1" d="M34.6,19.1c-.2,0-3.8,1-3.8,3.4s2.4,2.6,2.4,2.6c.07,0,.13-.03.2-.1v-.2c-.3-.4-.5-.8-.4-1.1.1-.3.4-.5.8-.8.4-.3.9-.6.9-1.1-.2-1.1.3-2.6.3-2.6v-.2c-.2.1-.3.1-.4.1M32,23.4c-.1-.2-.2-.5-.2-.9,0-.9.9-1.5,1.8-2-.1.5-.1,1,0,1.4-.1.1-.3.2-.4.2-.4.3-1,.6-1.2,1.3"/>
  <path class="cls-1" d="M36.6,23.3c-1.5.8-2.5,1.4-2.5,1.5-.1,0-.1.1-.1.2s.1.1.1.1c.5.1,4.7,1,5.5.9.4-.1,1.3-.4,1.7-1.3.3-.8.1-1.7-.6-2.8-1.2-2.4-2-4.2-2-4.2,0-.1-.1-.1-.2-.1,0,0-4,.9-3.4,4.7,0,.1.1.1.2.1h1.4c.2.1.5.2.5.3s0,.3-.6.6M38.2,22.6c-.1-.8-1-1.1-1.3-1.2h-.8c.1-1.6,1.2-2.3,2-2.7.3.7.9,2,1.7,3.6v.1c.4.6.8,1.3.5,1.9-.2.5-.7.7-.9.7-.3,0-1.4-.1-3-.5.2-.1.4-.2.7-.4.3-.1,1.2-.6,1.1-1.5"/>
  <path class="cls-1" d="M43.4,33.4c0-.1-.1-.2-.3-.3l-.9-.5h0s-.5-.1-1,.4l-4.2,3.1c-.1.1-.5.4-.4.7,0,.1.1.2.4.3.6.1,2.5.3,2.6.3,0,0,.9,0,1.3-.4.3-.4,2.3-2.6,2.3-2.7s.3-.5.2-.9M40.1,36.3s-.3.1-.6.1l-1.2-.1,3.4-2.4.1-.1c0-.1.1-.1.1-.1l.3.2c-.6.7-1.8,2.1-2.1,2.4"/>
  <path class="cls-1" d="M41.7,37.5c.7.1,1.6.2,1.7.2s.7.1,1.1-.8l1.1-2.1c0-.1.2-.4.1-.6,0-.1-.2-.3-.4-.3-.6-.2-.8-.2-.8-.2,0,0-.7-.2-1,.3-.3.4-2.1,2.6-2.1,2.6,0,.1-.3.4-.2.7.1.1.2.2.5.2M43.4,36.7c-.1,0-.4,0-.9-.1.5-.6,1.3-1.6,1.6-2,0,0,.1,0,.3.1-.3.5-.9,1.8-.9,1.8,0,.1,0,.2-.1.2"/>
  <path class="cls-1" d="M45.9,37.7h1.3c.3,0,.9-.2.9-1v-2.4s-.3-.4-.8-.4h-.8s-.5,0-.7.5c-.1.4-.9,2.1-.9,2.1,0,0-.2.4,0,.8.2.3.5.4,1,.4M47.1,36.7h-1.2c.2-.4.6-1.3.8-1.8h.5l-.1,1.8h0Z"/>
  <path class="cls-1" d="M52.1,37.5l1.2-.1c.1,0,.2,0,.3-.2s.1-.4,0-.7c-.3-.7-1.7-3.6-1.8-3.7h0s-.3-.4-.6-.3h0l-.8.5c-.2.1-.4.3-.3.8.2.6,1,3.1,1,3.2h0c.1.2.3.6,1,.5M51.2,33.7c.3.7,1,2.1,1.3,2.8h-.5c-.1-.5-.6-2-.8-2.8h0Z"/>
  <path class="cls-1" d="M48.9,37.7c.4,0,1.7-.1,1.7-.1,0,0,.3,0,.4-.2.1-.2.1-.3,0-.6l-1-3h0c-.1-.2-.3-.5-.7-.3-.3.1-.8.2-.8.3h0c-.1,0-.2.1-.2.6,0,.3.1,2.6.1,2.7-.1.2.1.7.5.6M49.3,36.7c0-.8-.1-1.7-.1-2.1h0l.7,2.1h-.6Z"/>
  <path class="cls-1" d="M54.6,37.3c.5-.1,1.2-.2,1.3-.2s.4,0,.6-.3c.1-.2.1-.6-.1-1-.6-1.1-2.6-4.3-2.7-4.5,0,0-.1-.2-.4-.3-.2,0-.3,0-.5.2l-.8.7c-.2.1-.4.5-.2,1,.3.6,1.9,3.9,1.9,4h0c.2.1.4.5.9.4M52.8,32.5l.3-.3c.6.9,1.9,3.1,2.4,3.9-.2,0-.6.1-.9.1-.2-.4-1.5-3-1.8-3.7"/>
  <path class="cls-1" d="M29,72.2c-2.1-1-4.1-.2-4.1,1.7,0,4.4,9,3.7,7.5-3.8-.8-4.3-3.5-9.9-4.1-18-.7-8.1,3.7-10.8,3.7-10.8v-2.1c-6.9,3.4-5.5,18.1-3.5,25,2.1,6.9.5,8,.5,8"/>
  <path class="cls-1" d="M97.5,73.9c0-1.9-2-2.7-4.1-1.7,0,0-1.5-1.1.5-8,2.1-6.9,3.4-21.7-3.5-25v2.1s4.4,2.7,3.7,10.8c-.7,8.1-3.3,13.7-4.1,18-1.4,7.5,7.5,8.1,7.5,3.8"/>
  <path class="cls-1" d="M26.3,78.3l-4.2,3.5c-4.9-3.8-7,.7-7,.7,1.8-.3,3.3.2,3.3.2-3.8,1-2.8,3.4-2.8,3.4,0,0,3.9-2.3,5.5.3,2.1,3.4-.5,6.1-.5,6.1,6.4,0,4.3-8.6,4.3-8.6l5.7-5.6h-4.3Z"/>
  <path class="cls-1" d="M106.5,82.5s-2.1-4.5-7-.7l-4.3-3.5h-4.1l5.7,5.6s-2.1,8.6,4.3,8.6c0,0-2.6-2.7-.5-6.1,1.6-2.7,5.5-.3,5.5-.3,0,0,.9-2.4-2.8-3.4-.1-.1,1.4-.6,3.2-.2"/>
  <path class="cls-1" d="M31.8,46.1l.1-3.4c-.1.7-.7,1.2-1.3,1.5-.6.4-.3.8-.3.8,1.3,0,1.5,1.1,1.5,1.1"/>
  <path class="cls-1" d="M31.1,55c.2,2.3.9,1.5.9,1.5,0,0-.2-3.8-.2-4.6-.1-.7-2.3-.4-2.4.4,0,.8.4,4.1.4,4.1l.7-.1-.1-2.9c-.1,0,.5-.7.7,1.6"/>
  <path class="cls-1" d="M31.6,63c.6.8.7-3.1.5-3.8,0,0-1.7-.5-1.5.4.1.9.3,2.4,1,3.4"/>
  <path class="cls-1" d="M29.4,48.2c0,.8,2.3.5,2.3.5v-1.2c0-.1-2.3-.4-2.3.7"/>
  <path class="cls-1" d="M31.7,50.5v-1.2s-2.3-.4-2.3.8c0,.7,2.3.4,2.3.4"/>
  <path class="cls-1" d="M38,92.6c0-.4-.3-.7-.7-.7s-.7.3-.7.7.3.7.7.7.7-.3.7-.7"/>
  <path class="cls-1" d="M92.4,84.9c-.4,0-.7.3-.7.7s.3.7.7.7.7-.3.7-.7-.3-.7-.7-.7"/>
  <path class="cls-1" d="M90.7,85.9c0-.4-.3-.7-.7-.7s-.7.3-.7.7.3.7.7.7.7-.3.7-.7"/>
  <path class="cls-1" d="M88.5,86.3c0-.4-.3-.7-.7-.7s-.7.3-.7.7.3.7.7.7.7-.4.7-.7"/>
  <path class="cls-1" d="M30.7,98.8l.4-4.3s-.4-.8-1.6-.2l-.2,3.2s-.7,1.2-2.3-.2l.2-3.3s-.5-.7-1.5-.2l-.3,4.4s2.1,2.8,5.3.6"/>
  <path class="cls-1" d="M28.2,97c.3,0,.5-.2.5-.4l.1-1.4c0-.3-.2-.5-.4-.5s-.5.2-.5.4l-.1,1.4c0,.3.2.5.4.5"/>
  <path class="cls-1" d="M36.7,99.7l.3-4.1s-.3-.8-1.5-.2l-.2,3.1s-.7,1.2-2.2-.1l.2-3.2s-.5-.7-1.4-.2l-.2,4.2c0-.1,1.9,2.6,5,.5"/>
  <path class="cls-1" d="M34.3,98c.2,0,.4-.2.5-.4l.1-1.3c0-.2-.2-.4-.4-.4s-.4.2-.4.4l-.1,1.3c-.1.2.1.4.3.4"/>
  <path class="cls-1" d="M42.1,100.1l.1-2.1s-.2-1.1-1.2-.3l-.1,1s-.6.8-.5-.6l.1-1.3s-.3-.4-.7.2v1.7s-.3.3-.8,0l.2-2.4s-.3-1-1.3-.2l-.2,3.7c-.1-.2,1.4,2.4,4.4.3"/>
  <path class="cls-1" d="M28.3,91.1c0-.4-.3-.7-.7-.7s-.7.3-.7.7.3.7.7.7c.3,0,.7-.3.7-.7"/>
  <path class="cls-1" d="M31.8,91.6c0-.4-.3-.7-.7-.7s-.7.3-.7.7.3.7.7.7c.3,0,.7-.3.7-.7"/>
  <path class="cls-1" d="M34.5,92c0-.4-.3-.7-.7-.7s-.7.3-.7.7.3.7.7.7c.4.1.7-.3.7-.7"/>
  <path class="cls-1" d="M31.1,79.8v2.5l1.6,1.4c0-.1.9-3.2-1.6-3.9"/>
  <path class="cls-1" d="M33.5,86.3c-.2.2-.5.7-.7-.1-.2-.9-.9-.8-1.3-.8s-.9,1.6-1.2.5c-.3-1.1-.5-1.6-1.8-1.4v2.6l6.6,1.5s0-1.8-.3-2c-.4-.4-1.2-.6-1.3-.3"/>
  <path class="cls-1" d="M35.2,89.6s-4.5-1.4-6.7-1.5v1l6.9,1.6c-.1.1.2-.2-.2-1.1"/>
  <path class="cls-1" d="M96.5,98.2l-.3-4.4c-1-.5-1.5.2-1.5.2l.2,3.3c-1.5,1.4-2.3.2-2.3.2l-.2-3.2c-1.3-.6-1.6.2-1.6.2l.4,4.3c3.2,2.2,5.3-.6,5.3-.6"/>
  <path class="cls-1" d="M93.2,96.6c0,.2.2.4.5.4.2,0,.4-.2.4-.5l-.1-1.4c0-.2-.2-.4-.5-.4-.2,0-.4.2-.4.5l.1,1.4Z"/>
  <path class="cls-1" d="M90.3,99.1l-.2-4.2c-1-.5-1.4.2-1.4.2l.2,3.2c-1.5,1.3-2.2.1-2.2.1l-.2-3.1c-1.2-.6-1.5.2-1.5.2l.4,4.1c2.9,2.2,4.9-.5,4.9-.5"/>
  <path class="cls-1" d="M87.5,95.8c-.2,0-.4.2-.4.4l.1,1.3c0,.2.2.4.4.4s.4-.2.4-.4l-.1-1.3c0-.2-.2-.4-.4-.4"/>
  <path class="cls-1" d="M81.1,98.6l-.1-1c-1-.8-1.2.3-1.2.3l.1,2.1c3,2.1,4.4-.5,4.4-.5l-.2-3.7c-1-.8-1.3.2-1.3.2l.2,2.4c-.5.3-.8,0-.8,0v-1.7c-.3-.6-.7-.2-.7-.2l.1,1.3c0,1.5-.5.8-.5.8"/>
  <path class="cls-1" d="M9.1,15.9c.5-.2.9-.6.7-1.3l-2.1-5.4-.6.2,2.1,5.2c.2.4.1.6-.2.8-.3.1-.5,0-.7-.4l-2.1-5.2-.6.2,2.1,5.4c.4.7,1,.7,1.4.5"/>
  <polygon class="cls-1" points="11.6 15 9.9 9.2 9.9 9.2 12.4 14.8 13.2 14.5 11.3 8.1 10.8 8.2 12.4 13.7 12.4 13.7 10.1 8.4 9.2 8.7 11.1 15.1 11.6 15"/>
  <polygon class="cls-1" points="14.9 14.1 13.2 7.6 12.6 7.7 14.3 14.2 14.9 14.1"/>
  <polygon class="cls-1" points="17.2 13.5 16.5 6.8 15.9 6.9 16.7 13 16.7 13 14.7 7.2 14.1 7.3 16.4 13.7 17.2 13.5"/>
  <polygon class="cls-1" points="20.3 12.9 20.2 12.4 19.2 12.6 18.7 9.9 19.7 9.7 19.6 9.2 18.6 9.4 18.1 7 19.1 6.8 19 6.3 17.4 6.6 18.7 13.2 20.3 12.9"/>
  <path class="cls-1" d="M21.9,12.6l-.6-3.2.4-.1c.3-.1.5,0,.5.3l.5,2.8.6-.1-.5-2.8c-.1-.5-.4-.5-.8-.5h0c.5-.1.6-.3.5-.8l-.3-1.7c-.1-.7-.5-.7-1.1-.6l-1.1.2,1.2,6.6s.7-.1.7-.1ZM20.8,6.5l.3-.1c.3,0,.5,0,.6.4l.3,1.5c.1.4-.1.5-.4.6l-.4.1s-.4-2.5-.4-2.5Z"/>
  <path class="cls-1" d="M23.7,7.3c.1.3.2.6.4.8l1.1,1.4c.2.2.2.4.3.6l.1.9c0,.3,0,.5-.3.6-.3,0-.4-.1-.5-.4l-.1-.9-.6.1.1.9c.1.7.5.9,1.1.8.6-.1.9-.5.8-1.1l-.2-1c0-.3-.2-.6-.3-.8l-1.2-1.5c-.1-.2-.2-.4-.2-.6l-.1-.7c0-.3,0-.5.3-.5.3-.1.4.1.4.4l.1.8.6-.1-.1-.8c-.1-.6-.4-.9-1.1-.8-.6.1-.9.5-.8,1.1,0,0,.2.8.2.8Z"/>
  <polygon class="cls-1" points="28 11.7 27 5 26.4 5.1 27.3 11.7 28 11.7"/>
  <path class="cls-1" d="M30.2,11.4c.8-.1,1-.6.9-1.2l-.6-4.5c-.1-.7-.3-1.1-1.2-1l-1,.1.8,6.7s1.1-.1,1.1-.1ZM29.3,5.2c.4,0,.5.1.6.5l.6,4.6c.1.4-.1.5-.5.6h-.3l-.7-5.6.3-.1Z"/>
  <path class="cls-1" d="M32.7,9.2l1.1-.1.5,1.8.6-.1-1.8-6.5h-.9l-.2,6.8.6-.1s.1-1.8.1-1.8ZM32.7,4.8h0l.9,3.8-.9.1v-3.9Z"/>
  <path class="cls-1" d="M36.7,10.7c.8-.1,1-.5.9-1.2l-.4-4.5c-.1-.7-.3-1.1-1.1-1l-1,.1.6,6.7s1-.1,1-.1ZM36,4.5c.4,0,.5.1.6.5l.4,4.6c0,.4-.1.5-.5.6h-.3l-.5-5.7s.3,0,.3,0Z"/>
  <polygon class="cls-1" points="41 10.3 40.5 4.3 40.5 4.3 41.7 10.2 42.6 10.2 42.1 3.5 41.6 3.5 42 9.2 42 9.2 40.8 3.6 39.9 3.6 40.4 10.3 41 10.3"/>
  <path class="cls-1" d="M44.2,8.2l1.1-.1.4,1.8h.6l-1.5-6.6h-.8l-.6,6.8h.6s.2-1.9.2-1.9ZM44.5,3.8h0l.7,3.8-.9.1s.2-3.9.2-3.9Z"/>
  <path class="cls-1" d="M48,9.9c.6,0,.9-.4.9-1v-1h-.6v.9c0,.3-.1.4-.3.4-.3,0-.4-.1-.4-.4l-.2-4.9c0-.3.1-.4.3-.4s.3.1.4.4v.9h.6v-.9c0-.6-.4-.9-1-.9s-.9.4-.9,1l.2,5c0,.6.3.9,1,.9"/>
  <rect class="cls-1" x="49.7" y="3" width=".6" height="6.7" transform="translate(-.22 2.02) rotate(-2.31)"/>
  <path class="cls-1" d="M52.7,9.7c.8,0,1.1-.5,1-1.2l-.1-4.6c0-.7-.3-1.1-1.1-1.1s-1.1.5-1,1.2l.1,4.6c0,.7.2,1.1,1.1,1.1M52.5,3.4c.4,0,.5.2.5.6l.1,4.5c0,.4-.1.6-.4.6-.4,0-.5-.2-.5-.6l-.1-4.5c-.1-.3,0-.6.4-.6"/>
  <polygon class="cls-1" points="55.4 9.6 55.3 3.6 55.3 3.6 56.2 9.6 57.1 9.6 57 2.8 56.4 2.8 56.6 8.6 56.5 8.6 55.7 2.9 54.8 2.9 54.9 9.6 55.4 9.6"/>
  <path class="cls-1" d="M58.8,7.7h1.1l.3,1.9h.6l-1-6.7h-.8l-.9,6.7h.6s.1-1.9.1-1.9ZM59.3,3.3h0l.5,3.9h-1s.5-3.9.5-3.9Z"/>
  <polygon class="cls-1" points="63.2 9 62.2 9 62.2 2.8 61.6 2.8 61.6 9.5 63.2 9.5 63.2 9"/>
  <path class="cls-1" d="M66.1,7.7h1.1l.2,1.9h.6l-.9-6.7h-.8l-1.1,6.7h.6s.3-1.9.3-1.9ZM66.7,3.3h0l.4,3.9h-1s.6-3.9.6-3.9Z"/>
  <path class="cls-1" d="M69.8,9.7c.5,0,1.1-.2,1.1-.9l.2-5.8h-.6l-.2,5.6c0,.5-.2.6-.5.6s-.5-.2-.4-.6l.2-5.6h-.6l-.2,5.8c-.1.7.5.9,1,.9"/>
  <polygon class="cls-1" points="72.5 9.8 73.1 9.8 73.4 3.6 74.1 3.6 74.1 3.1 72.1 3 72.1 3.5 72.8 3.6 72.5 9.8"/>
  <path class="cls-1" d="M75.8,10c.8.1,1.1-.4,1.1-1.1l.3-4.6c0-.7-.2-1.1-1-1.2-.8,0-1.1.4-1.1,1.1l-.3,4.6c-.1.7.1,1.1,1,1.2M75.4,8.8l.2-4.5c0-.4.1-.6.5-.6s.4.3.4.7l-.3,4.5c0,.4-.1.6-.5.6-.3-.1-.4-.3-.3-.7"/>
  <polygon class="cls-1" points="78.9 4.1 78.9 4.1 79.3 10.1 80.2 10.2 80.6 3.5 80.1 3.5 79.7 9.2 79.7 9.2 79.3 3.4 78.4 3.3 78 10.1 78.5 10.1 78.9 4.1"/>
  <path class="cls-1" d="M82.4,10.4c.8.1,1.1-.4,1.2-1l.4-4.6c0-.7-.2-1.2-1-1.2-.8-.1-1.1.4-1.2,1l-.4,4.6c-.1.7.1,1.2,1,1.2M82,9.2l.4-4.5c0-.4.1-.6.5-.6s.4.3.4.7l-.4,4.5c0,.4-.1.6-.5.6s-.4-.3-.4-.7"/>
  <polygon class="cls-1" points="85.7 4.4 85.7 4.4 85.8 10.7 86.6 10.8 87.9 4.7 87.9 4.7 87.3 10.8 87.8 10.9 88.5 4.2 87.6 4.1 86.3 10 86.3 10 86.2 4 85.2 3.9 84.6 10.6 85.1 10.6 85.7 4.4"/>
  <path class="cls-1" d="M89.7,9.2l1.1.1v1.9l.6.1-.2-6.8-.8-.1-1.8,6.6.6.1s.5-1.9.5-1.9ZM90.7,4.9h0v3.9l-.9-.1s.9-3.8.9-3.8Z"/>
  <polygon class="cls-1" points="100 6.3 100 6.3 99.7 12.5 100.4 12.6 102.2 6.6 102.2 6.6 101.1 12.8 101.7 12.8 102.8 6.2 101.9 6.1 100.2 11.9 100.1 11.9 100.5 5.8 99.6 5.7 98.4 12.3 98.9 12.4 100 6.3"/>
  <polygon class="cls-1" points="104.3 13.4 104.4 12.9 103.4 12.7 104 10 104.9 10.2 105 9.7 104.1 9.5 104.6 7.1 105.6 7.3 105.7 6.8 104.1 6.5 102.7 13.1 104.3 13.4"/>
  <polygon class="cls-1" points="104.9 13.5 105.5 13.6 106.7 11 106.7 11 106.7 13.9 107.3 14.1 107.2 10.6 108.7 7.5 108.1 7.3 107 9.9 107 9.9 107.1 7.1 106.5 7 106.5 10.4 104.9 13.5"/>
  <polygon class="cls-1" points="108.6 14.4 110.3 7.9 109.7 7.7 108 14.2 108.6 14.4"/>
  <path class="cls-1" d="M110.6,15c.6.2,1-.1,1.2-.6l.3-.9-.6-.2-.3.9c-.1.3-.2.4-.5.3-.2-.1-.3-.2-.2-.5l1.5-4.7c.1-.3.2-.4.5-.3.2.1.3.2.2.5l-.3.8.6.2.3-.9c.2-.5,0-1-.6-1.2s-1,.1-1.2.6l-1.5,4.8c-.2.6,0,1.1.6,1.2"/>
  <path class="cls-1" d="M113.3,16c.8.3,1.2,0,1.4-.6l1.7-4.2c.3-.6.2-1.1-.6-1.5-.8-.3-1.2,0-1.4.6l-1.7,4.2c-.3.6-.2,1.2.6,1.5M113.3,14.7l1.7-4.2c.1-.4.3-.6.7-.4.4.1.3.4.2.8l-1.7,4.2c-.1.3-.3.6-.7.4-.4-.1-.4-.4-.2-.8"/>
  <path class="cls-1" d="M2.6,14.2c1.2,1.7,1.5,2.1,1.5,3.4v.4c0,1,0,2.2.8,3,.7.7,1.7,1,3.3,1,1.2,0,2.8-.3,4.7-.7,2.9-.6,6.5-1.2,9.8-1-.8.8-3.2,2.7-8.3,2.2-5-.5-10.4-.7-12.3,1.9-1,1.4-.8,3.6.5,6.4,0,.1.1.1.2.1,0,0,3.9-1.4,3-5.6,1.5.1,3,.6,4.5,1.1.3.1.7.2,1,.3-3.1.9-5.7,2.2-5.7,3.6,0,.9,1,1.2,3.2,2.2,2.4,1.1,4.6,1.9,6.7,2.9,5.8,2.9,10,5.4,10.7,4.8.8-.8-13.1-6.3-9.8-11.1,1.8-2.7,4.9.9,2.4,1.4-2.5.6,3.6,6.8,10.8,8.9,0,0,1.3-1.3,2.3-1.8,0,0,1.1-.8-.5-1.2-1.6-.4-11.4-3.4-7.4-7.2,1.2-1.1,1.3-1.9.8-2.4,1.4-.5,2.6-1.2,3.4-2.1.8-.8,1.3-1.8,1.3-2.7,0-2.6-3.2-6.1-4.4-7.3,9.4-1.5,21.7-2.5,36.1-2.5s27.5,1.1,37,2.7c-1.2,1.2-4.5,4.8-4.5,7.4,0,.9.4,1.8,1.3,2.7.6.6,1.3,1.1,2.2,1.5-1,.6-1.6,1.3-1.6,1.8,0,2.2,2,2.9,2,2.9.3,2.5-5.8,5.3-7.5,6,.4.2,1.2.5,2.1,1.1,5.8-1.7,7.3-4.7,8.5-6.2,1.3-1.7-2-.8-2-2.5s5-2.9,4,1.7c-.9,4.2-6.9,6.8-9.5,7.7.3.3.7.6,1,1,.1.2.5.8.7.7.3-.1.1-1,.6-.9s.9.3,1.1-.2.2-1,.6-.7.5.5.9.4c.4-.2-.3-1.3.6-1s1-.2.8-.7.4-.2,1,.2.7-.4.3-.8c-.3-.5.1-.8.6-.3s1.5.4.8-.4c-.7-.7.1-1.4.9-.8.8.6.7.2.2-.5-.4-.7-.1-1,.9-.4s1.6.4.6-.4c-1-.8-.6-1.4.5-.8,1.1.6,2.4.9,1.2-.1-1.2-1.1-1.6-1.8-.1-1.1,1.4.7,2.5.6.4-.7-2.2-1.3,1.1-.1,1.9.5.8.6.9-.4-.6-1.2s-.6-1.1,1.4-.1c1.9,1,1.9.1.3-.5s-2.3-1.8-.3-.8,4,1.1,2,.1c-.9-.5-1.6-.8-1.8-1.1.6-.2,1.3,0,2.7.9,2.6,1.8.1,3.8-2.2,4.7-3.3,1.3-4.7,2.6-8.2,5.1-2.1,1.5-4.9,2-6.8,2.1.2.4.4.8.5,1.2,3.1-.1,6.6-1.1,8.8-2.5,2.9-1.7,7.8-4.5,11.3-5.4,2.8-.7,5.4-2.1,1.2-5.1-1.5-1-2.9-1.9-4.3-2.5.1,0,.2-.1.2-.1,1.6-.5,3-1,4.5-1.1-.8,4.3,3,5.6,3,5.6.1,0,.2,0,.2-.1,1.3-2.8,1.5-4.9.5-6.3-1.9-2.6-7.2-2.4-12.3-1.9-5.7.6-8.1-1.9-8.5-2.4.6-.1,1.4-.1,2.1,0,1.6.1,3.4.4,5.1.7,4.1.7,8.4,1.4,10.3-.1.6-.5,1-1.1,1-2,.2-1.8,1.1-3.4,1.9-4.7.9-1.4,1.6-2.7,1.2-3.8-.2-.7-1-1.4-2.2-1.9-5.5-2.4-14-4.6-23.8-6.1-10.8-1.8-23-2.7-35.2-2.7C37.3,0,15.6,3,3.9,7.7c-.1,0-2.3.8-2.9,2.4-.3.8-.1,1.6.5,2.5.5.6.8,1.2,1.1,1.6M4.3,8.6h0C15.9,3.9,37.5.9,60.8.9c28.5,0,49.4,4.6,58.6,8.6.9.4,1.5.9,1.7,1.3.2.7-.4,1.7-1.1,3-.9,1.5-1.8,3.1-2.1,5.1-.1.6-.3,1-.7,1.3h-.1c-.1-.3-.3-.6-.6-1-3.9-3.9-27.6-8.2-55.4-8.2-14.2,0-28.3,1.1-39.5,3.1-5,.9-9.1,1.9-12,3-2.4.9-3.9,1.8-4.3,2.7-.2-.5-.2-1.2-.2-1.8v-.4c0-1.7-.4-2.2-1.6-4-.3-.4-.7-1-1.1-1.7-.4-.6-.5-1.1-.3-1.6.2-.8,1.7-1.5,2.2-1.7M107.6,20.1c-1.8-.3-3.6-.6-5.2-.7-4-.3-6.4,1.2-7.7,2.4.3-2,3-5.1,4.7-6.8,9,1.6,14.8,3.5,16.4,5.1.2.2.3.4.3.5s0,.1-.1.2c-1.9.4-5.3-.2-8.4-.7M99.1,20.8l.4.2c.5.6,3.2,3.4,9.4,2.7,2.6-.3,8.2-.9,10.6.8-2.5-.4-4.7.4-7,1.1-.4.1-.9.3-1.3.4-5.4-2.1-10.1-1.5-12.9-.3-1.2-.5-2-1.1-2.6-1.7-.4-.4-.6-.7-.8-1.1.6-.8,1.9-1.9,4.1-2.4,0,.13.03.23.1.3M118.3,25.4c.7,0,1.4.1,2.2.3.4,1,.2,2.4-.5,4.1-1-.5-2.3-1.8-1.7-4.4M28.2,21.1c-4.6-2.7-10.9-1.5-15.6-.7-1.8.3-3.4.6-4.5.6-.8,0-1.5-.1-2-.3v-.2c0-.1.1-.2.3-.5,1.6-1.6,7.8-3.6,17.3-5.2,1.5,1.6,3.9,4.3,4.5,6.3M23.6,26.1c-2-.6-5.4-.5-7.4-.3-1,.1-2,.3-3,.5-.9-.2-1.7-.5-2.6-.8-2.3-.8-4.5-1.5-7.1-1.1,2.4-1.7,8.1-1.1,10.6-.8,6.1.7,8.9-2.1,9.4-2.7l.4-.2h0c1.6.3,3.1.8,4.3,1.8-.1,1.3-1.8,2.7-4.6,3.6M3.1,29.7c-.7-1.7-.9-3.1-.5-4.1.8-.2,1.5-.3,2.2-.4.6,2.6-.7,3.9-1.7,4.5"/>
  <path class="cls-1" d="M64.6,34h0c-.1.1.2,3.3,3.8,3.3,3.2,0,6.1-2.6,6.8-3.2.4.7,2.2,3.3,3.7,3.1.6-.1,1.2-.6,1.5-1.6.5.5,1.8,1.7,3.4,1.6,1.3-.1,2.6-1,3.6-2.8v-.2s-.1-.1-.2,0c0,0-3.1.9-5-.5-1-.8-1.5-2-1.5-3.8,0-2.7.2-4.3.5-5.3.9.5,1.9.8,3.1.9,3.4.1,4.1-2,4.1-2.1v-.2l-.1-.1c-1.1.2-2,.1-2.4-.1,1.6-.5,2.7-.5,3.3,0,.6.5.4,1.5.4,1.5,0,.07.03.13.1.2h.2c1.2-1.3,1.7-2.4,1.3-3.4-.5-1.6-3.1-2.3-5.6-2.8-3.5-.7-4.8-4.5-4.8-4.6,0,0,0-.1-.1-.1h-.1c-.9.5-1.5,1-2,1.6l-2.3-2.6-.1-.1s-.1,0-.1.1-1,1.2-.4,3.1c-.5-.5-1.1-1.3-1.1-2.2,0-.07-.03-.1-.1-.1h-.2s-2.4,2.2-.1,5.6c-.5.2-2.4.7-6-.3h-.1l-.1.1c0,.1-.3,1.3.5,2.3.7.9,2,1.4,3.7,1.5-.6.4-2.2,1.2-5.5.3h-.1c-.1,0-.1.1-.1.2,0,0,1,4,6,3.3-1,.9-3.8,3-7.5,1.9h-.1l-.1.1c0,.1.1,2.3,1.8,3.2,1.4.8,3.6.4,6.4-1.3-.5,1.3-2.2,4.1-8.4,3.5M73.2,23.3c.2-.2.2-.6.1-.9s-.4-.5-.7-.5c-1.6,0-2.8-.4-3.4-1.1-.2-.2-.3-.4-.3-.6,4,.9,5.7,0,5.9-.1.2-.1.3-.3.4-.6.1-.2,0-.5-.1-.7-1-1.3-1.1-2.3-.9-3.1.6.9,1.3,1.5,1.3,1.5.3.2.7.2,1,0s.4-.6.2-1c-.3-.6-.4-1.2-.3-1.7l1.6,1.8c-.1.2-.1.3-.2.5-.3,1.1.1,2,.3,2.3-2.7,1.8-2.8,3.4-2.7,4.2-.3.5-1.4,1.9-3.4,2.3-2,.2-3.2-.5-3.9-1.2,3.6.7,5-1,5.1-1.1M80.2,15.4c.3.5.7,1.2,1.2,1.8l-1.3.1-.9-1c.2-.3.6-.6,1-.9M90,22.7c-.1-.1-.2-.3-.3-.4-1-.8-2.5-.8-4.7,0-.3.1-.5.4-.5.7s.2.6.5.8c.1,0,.5.2,1.3.3-.5.2-1.1.3-1.9.3-1,0-1.9-.4-2.7-.8.3-.5.7-.8,1.2-1.1.1-.1.3-.2.4-.3.8-.6,1.4-1.8,1.9-2.8.1,0,.2.1.3.1,1.3.3,4.5.9,4.8,2.1,0,.4-.1.7-.3,1.1M85.2,35.6c-.5.4-1,.7-1.6.7-1.5.1-2.8-1.4-2.8-1.4-.1-.1-.3-.2-.4-.3-.2-.5-.5-1.2-.7-2h.3c.3.9.8,1.6,1.5,2.1,1.3.7,2.7.9,3.7.9M78.8,17.3l.6.7c.2.2.4.3.6.3,0,0,.5,0,1.1-.1-.1.4-.3.6-.5.8-.4.3-1,.2-1.5,0,0-.07-.03-.13-.1-.2,0,.1-.4-.6-.2-1.5M82.6,21.5c-.1.1-.3.2-.4.3-.6.4-1.1.8-1.4,1.4-.1-.1-.3-.2-.4-.3.4-.6,1.1-1.2,1.9-1.6,1.1-.5,1.2-1.7,1.1-2.4.2.1.5.2.7.4-.4.8-.9,1.8-1.5,2.2M76.1,33.7c-.2-.1-.6-.5-.5-2.4.7-.4,1.2-1,1.5-1.4-.1.9.1,1.6.6,2.1.1.1.2.2.4.3-.6.7-1.5,1.6-2,1.4M76,27.4h0c.1,0,1-.3,1.6-1,0,.2,0,.5.1.9-1.4,2.3-2.6,3.3-3.3,3.3,0-.4.7-1.8,1.6-3.2M79.8,31.4c-.5.1-.9,0-1.1-.2-.6-.6-.3-2.2,0-3.3.3-.1.7-.2,1-.3,0,.7-.1,1.5-.1,2.4.1.5.1.9.2,1.4M78.8,20c.6.2,1.4.3,2.1-.1.4-.2,1-.7,1.2-1.8h.2l.1.2v.1s.3,1.5-.6,1.9c-1,.5-1.7,1.1-2.2,1.9-.3-.3-.4-.5-.5-.5-.2-.3-.6-.4-.9-.2-.3.1-.4.3-.5.6,0,.1-.3.3-1.3.6.1-.5.6-1.5,2.4-2.7h0M78.9,33.1c.2.6.4,1.3.7,1.8,0,.1-.1.1-.1.2-.2.7-.5,1.2-.8,1.2-.5.1-1.3-.7-2.1-1.7.9-.3,1.7-.7,2.3-1.5M78.7,26.7c-.1-.4-.4-1.6-.2-2.6,0-.07-.03-.13-.1-.2h-.2s-1,1-1.8,1.6c-.1-.2-.3-.7-.3-1.7,0,0,0-.1.1-.1,1.6-.4,2.1-.9,2.3-1.2.3.3.9.9,1.8,1.5-.2.5-.3,1.2-.4,2.1-.3.3-.6.5-1.2.6M73.5,27.1c.1-.2.2-.4.2-.6.3-.1.9-.4,1.4-1,.1.3.1.6.3.9-.7,1.4-1.7,2.6-2.3,3.2-.1,0-.2.1-.3.1-2.7,1.6-4.7,2.1-5.8,1.5-.5-.3-.8-.8-1-1.3,4.4.6,7.4-2.7,7.5-2.8M73.6,31.4c.3.1.6.2.9.2,0,.3.1,1,.3,1.6-.1,0-.2.1-.3.2,0,0-3.1,3.1-6.2,3.1-1.6,0-2.3-.7-2.7-1.4,5.5.2,7.4-2.3,8-3.7"/>
  <path class="cls-1" d="M10.9,96c.1-.5.1-1-.2-1.1s-.6.2-.7.4h0s-.4.9-1.8.8c-.9,0-1.8.4-2.3,1.1-.3.5-.4,1-.2,1.4.4.8,1,1.3,1.3,1.2.1,0,.3-.1.2-.5v-.2c0-.2-.1-.4-.1-.5,0,0,.1,0,.3.1.5.3,1,.3,1.2.1.1-.1.3-.3.2-.7-.1-.2-.1-.4-.2-.5v-.3s.1-.1.6-.1c1.2-.2,1.6-.2,1.7-1.2M7.5,97.5h-.2c.1,0,.1-.1.2,0q0-.07,0,0"/>
  <path class="cls-1" d="M123,94.8c-.3-.1-.5-.2-.7-.4-.3-.3-.6-.5-1.5-.5-.4,0-.7.1-.8.4-.3.4-.2,1.1.4,2.2.1.3.2.4.2.6-.6-.2-1.1-.3-1.7-.6-.4-.2-.7-.2-1,0-.6.4-.7,1.8-.7,3.2-1.5.1-2.8,1.2-3.7,2,0-.6-.1-1.2-.4-1.6-.2-.2-.6-.3-1.1-.3s-1.1.2-1.8.6c0-.3,0-.7-.1-.9-.1-.2-.3-.4-.6-.5-.4-.1-1.1-.1-1.6.4-.2.2-.3.5-.2.8.1.5.7,1.1,1.3,1.3-.1.1-.1.2-.2.3-.3.4-.4.8-.3,1.2.2.7,1.2,1.2,2.3,1.6-1.3,1.3-2.9,2.4-4.6,1.9-.3-.3-2-2.1-5.4-1.3l-.4.1c-3.3.8-6,1.4-7.3,4.7-.4,1-.8,1.5-1.1,1.9-.8,1-1.4,1.8-2,8-.5.2-3,1-4.6,1.9-.3.1-.7.2-1.1.2-.8.1-1.8.1-3,1.5-.7.5-1.1.5-1.5.4s-.9-.2-1.6.4c-.5.3-.9.3-1.2.3.2-.5.9-2,2.2-2.3,1.3-.3,4.5-1.3,5.8-3h0c.5-1,1.2-1.5,1.7-1.9.7-.5,1.3-1,.9-2-.3-.7,0-1.5.3-2.3s.5-1.5.1-2c.6-.2,1.8-.6,2.1-1.2.1-.2.1-.4.1-.6-.1-.3,0-.8.1-1.3.2-.8.4-1.7,0-2.2-.2-.2-.5-.4-.9-.4-.1-.2-.4-.8-1-.9-.5-.1-1,.1-1.5.6-.3-.1-1-.3-1.5,0-.3.2-.5.6-.5,1.2l-1,1.6c-.4-.1-1.6-.2-3.7,1.2l-.9.5c-2.1,1.3-3.8,2.4-4.4,4.9-.3,1.3-.5,2-.6,2.3-.1-.1-.3-.2-.5-.3-.5-.3-1.1-.5-1.6-.8-1-.4-1.8-.8-2.3-1.5-1.1-1.5-2.7-1.6-4.6-.3-2.3,1.4-4,1.2-6.4.2-.4-.2-.9-.3-1.4-.5-2.6-1-6.1-2.3-7.4-4.1-.2-.3-.5-.7-.7-1-1.1-1.7-2-3-4.3-3.1-.2-.1-1.7-.7-3.4.6h0s-.1.1-.2.1-.2,0-.3-.2c-.6-.6-1-.7-2.2.1-.1.1-2,1.5-2.7,2.9-.1-.1-.2-.1-.2-.2-.9-2-1.8-3.2-2.8-3.5-.8-.2-1.5-1-2.2-1.8-.4-.5-.8-1-1.3-1.4-.4-.4-.8-.5-1.2-.5-.7.1-1.3.8-1.9,1.6l-.2.2c-.7.8-1.8,1.7-2.8,2.5-.4.3-.8.6-1.1.9,0,0-.1,0-.1.1-.5-.3-.8-.6-.9-.9-.5-1.4-1.7-3-2.3-3.8.2-.9.1-1.8-.5-2.5.7,0,1.2-.4,1.7-1.3.2-.4.2-.8.1-1-.3-.5-1-.7-2.3-.8-1,0-2,.8-2.5,1.4-.6,0-1.3.1-2.2.4.1-.5,0-.9-.4-1.2-1.5-1.2-3.8,1-4.9,2.1-.8.8-.9,1.7-.8,2.2h0c-.07,0-.13.03-.2.1-.1.1-.2,0-.3-.1-.3-.1-.8-.2-1.3-.2-.2-.9-.8-2.6-2.1-2.5-.2,0-.3,0-.5.1v-.4c0-.4-.2-.8-.5-1.1-.3-.3-.7-.4-1.1-.4-.9,0-1.5.7-1.5,1.5,0,.4.2.8.5,1.1.1.1.2.2.3.2-.3.2-.6.5-.7.8s-.1.8.4,1.3c.4.4,1,.9,1.6,1.4-.2.4-.3.9-.4,1.5v.1c-.3.1-.8.4-.8.9,0,.4.4.8.7,1,0,.7,0,1.5.1,2.2-.2.3-.4.7-.1.9.1.1.3.2.5.3.1.1.2.2.2.3.3.3.6.7.9,1,.1.1.1.2.2.2-.1.5-.2,1.2.3,1.3.3.1.7.1,1.1,0,.3.2.6.4.9.6.4.2.8.5,1.2.8,0,.5,0,1.2.5,1.1.3-.1.6-.1.8-.1,1.1.9,2,1.7,2,1.9-.4.5-1.8,2-2.4,2-.3,0-.5.1-.6.4-.3.5-.3,1.2,0,2.1-.3.3-1.2,1.1-.9,1.8.1.2.3.4.5.6s.5.5.5.7c0,.1-.2.2-.4.3-.8.3-1.8.8-2,1.7-.2.7.1,1.4.8,2.2,0,0,0,.1.1.1l-.4.5s-1.4.3-.9,1.4c.5,1.1,2.2,1.1,1.9-.5l.4-.4c.8.5,1.6.7,2.3.5.7-.3,1.2-.9,1.3-1.9.8.3,3.5,1.4,6.2,1.2.3.3.8.6,1.3.4.4-.1.6-.4.7-.7.6,0,2,.1,3.2,0,.2.2.5.5,1,.5s.6-.4.6-.7c.3-.1.5-.2.7-.3.5-.3,1.8-.5,3.8-.5.1.1.1.2.2.3.6,1,1,1.4,1.1,1.6.07.07.1.17.1.3-.1.3-.1.6.1.9.2.2.5.4,1.1.5h0c1.1.1,1.8.2,2.3,1l.1.1c.3.4.4.7.8.8.3.1.7-.1,1.4-.5,1.2-.7,2.3-.1,2.5.1.1.2.7,1,1.3,1,.4,0,.7-.4.9-1.1.3-.2.7-.2,1-.2.6,0,1.3,0,2.5-.7,0,0,2.5-1.6,4-2.4.2.4.3.8.4,1.3.2,1.3-5.2,3.8-3.1,7.1.3.4.5.3.5.3,0,0-.4-1.1.3-1.9.6-.6,3.5.2,5-1.6.5,1.9,2.5,2.1,2.5,2.1.1,0,.2-.1.2-.1l.7-4.9c.3.6.7,1.1,1.1,1.4.6.3,1.2.3,1.4.2,1.5,2.4,3.5,1.8,3.8,1.7.9,0,1.4-.2,1.5-.5,0-.1.2-.6-1.4-1.5-.2-.1-.2-.2-.2-.2,0-.1.1-.1.3-.2.6-.1,1.9.3,3,2.4,1.5,2.9,4.5,2,4.6,2s.1-.1.1-.1c0-.07-.03-.13-.1-.2-.7-.2-.9-1-1-1.5,1.8,1.4,3.4,2,4.9,1.8,1.7-.2,2.5-1.3,2.5-1.4v-.2c0-.1-.1-.1-.2-.1-1.9.5-2.7-.2-3.6-1.3.8-.1,2.1-.8,3.8-2.9.4-.1,2.8-.8,5.3,0,.2.1.5.2.8.3,3,1,9.3,3.1,13.5-.2,2.8-2.2,3.5-3.6,3.6-4.4v-.5c.2.1.6.1.6.1h.1c.9.2,2.2.4,3.2.8.2.1.5.2.8.3-.2.3-.7,1.1-.1,1.4.8.4,2.8-.8,2.8.3s1,1,2.6.3c0,0,.8-.2.9.3.1.4.5.9,1.1.8.3,0,.7-.5,1.2-1,.6,0,1.1-.1,1.6-.2.6.4,1,.5,1.4.2.2-.2.3-.5.4-.8.7-.4,1.3-.9,1.6-1.6.5-.9.4-1.9.3-2.5.2-.2.5-.6.6-1.2.1-.8-.7-.7-1.3-1.5-.2-.4-.5-.8-.9-1.2-.1-.2-.2-.5-.3-1-.1-1.2-1.3-1.6-1.5-.3-3-1.4-7-1.3-9.7-.6-.8.2-1.6.4-2.3.6-2.4.7-4.6,1.4-5.7.3.1-.4.8-2.1,4.1-3.3,2.4-.9,8.1-3.2,9.1-6.7,1.1.1,9.3.4,11.3-2.4,1.8-2.5,3.3-4.7,1.6-6.8.8-.6,1.4-1.3,1.9-2,.3-.5.4-.9.3-1.2-.1-.4-.5-.6-.9-.8.1-.2.5-.5,1.3-.7.7-.2.8-.5.8-.7-.1-.5-.8-1.1-1.4-1.3M18.4,97.9c.8,0,1.2.1,1.3.2-.4.8-.6.9-1.4.5-.3-.1-.5-.2-.8-.4.3-.2.6-.4.9-.3M109.2,100.3l-.3-.3c.1,0,.2-.1.3-.1v.4M114.7,125.1c0,.1,0,.3.1.4,0,0,.4,1.2-.1,2.2-.3.6-1,1.1-2,1.4-3.3,1-7.6-.8-9.9-1.7-.3-.1-.6-.3-.9-.4-2.1-.8-4.7-1-4.8-1h-.3c-1.6-.4-1.8-.8-1.8-2,0-.9.6-1.3,1.1-1.5,1.4.1,3.1-.4,4.8-.9.7-.2,1.5-.4,2.2-.6,2.7-.6,6.8-.8,9.5.8,2.2,1.3,2.1,3.2,2.1,3.3M96.1,127.4c0,.1,0,1.3-3.1,3.7-3.7,2.9-9.4,1-12.5,0h-.1c-.3-.1-.6-.2-.8-.3-2.6-.8-5.1-.2-5.8-.1,0-.7.1-1.9-.1-2.6-.2-.8.6-1.5,1.1-1.9,1-.1,1.7-.3,2.2-.5.3,0,1,0,1.7-.3-.2.5-.7,1.4-.2,1.5.6.2,2.1.5,1.6-1.8.5.1,1.2,0,2.1-.6.1,0,.1-.1.2-.1.9-1.1,1.5-1.1,2.2-1.2.4,0,.9-.1,1.5-.3h.1c1.7-1,4.4-1.8,4.4-1.8h.1c.7.4,2.1,1,3.4.4h0c.2.2.5.4.7.6-.5.5-.8,1.1-.9,2-.1.6.1,1.2.5,1.7s1,.8,1.7,1.1c-.1.1-.1.3,0,.5M65.9,134.7c-.3.2-.5.5-.5.9,0,.3.1.7.2,1-.7-.2-1.2-.7-1.6-1.4-1.3-2.4-3-3.1-4.2-2.9-.2,0-.4.1-.6.2.2-.3.3-.6.3-1.1.5.1,2.2.2,3-.6.1.1.2.1.3.2.1,0,.2.1.3.1,1,.5,4,2.2,5.2,3.4.3.3.5.6.8.8.4.5.8.9,1.3,1.3-1.1-.1-2.2-.7-3.5-1.8-.2-.2-.6-.2-1-.1M49.2,134.9h0M49.3,134.6q.07,0,0,0t0,0M51,135c0-.1-.1-.3-.1-.4.2-.9.6-2.5.5-3.3,0-.4-.2-.6-.4-.7-.4-.2-.7.2-.7.2,0,0,.6,3.9-1.8,4.7-.7.3-1.6.3-2.3.4-.5.1-1.1.4-1.1.4.3-1.9,3.5-2.5,3.5-4.6,0-1.7-1.6-3.2-1.9-3.5-.1-.1-2.1-2.2-2.5-4.4l.1-.1c0-.2-.1-.4-.1-.5,0-.2,0-.5.1-.7.5-2.2,2.1-4.6,4.9-4,.1.1.9.2,1.4.8.3.4.5.9.5,1.1.1,1.1-1.4,1.4-1.5,1.4,0,0,0-2.2-1.2-2.2-1,0-2.1,1-2.3,2-.3,1.2.3,2.1,1.6,2.6.4.2.8.3,1.2.5.6.3,1.2.5,1.7.7h-.2c-.07,0-.13.03-.2.1-.1.1-.1.3.1.5.3.4.8.6,1.8.8,1.9.3,3.9.8,3.9,2.7,0,1.5-.8,2.2-1.2,2.4-.2-.7-1-2.8-3.7-3.8-3.3-1.2-4.5-2.3-5-4.6,0-.07-.03-.1-.1-.1-.1,0-.6-.3-.9,0-.2.2-.3.4-.2.8,0,.1.6,2.6,3,3.7.4.2.9.4,1.3.6,1.6.7,3.2,1.4,3.9,2.7-.3.1-.5.4-.5.7l-.6,4.5c-.7-.5-.9-.9-1-1.4M38.3,133.3c0-.1-.1-.1-.1-.2-.1-.1-.2-.2-.3-.3s-1.9-1.3-3.8-.1c-.2.2-.4.3-.5.3,0-.1-.1-.1-.1-.2l-.1-.1c-.8-1.2-2-1.4-3.1-1.6h-.2c.1-.5.1-.8-.3-1.3-.1-.1-.4-.5-1-1.4-.9-1.5.5-3.9,1-4.7.4-.7,3.2-2.4,5.7-2.4,2.1,0,5.7,1.3,7.3,1.9.2,2.8,2.7,5.4,2.8,5.6,0,0,.2.2.5.5-1.4.8-3.6,2.2-3.9,2.4-1,.5-1.5.5-2,.5s-1,0-1.6.4c-.1.2-.2.4-.3.7h0M17.8,128.7c-3,.9-7.2-1-7.3-1-.3-.1-.6-.1-.9.1-.3.2-.4.5-.5.8,0,.3-.1.9-.5,1.1-.5.2-1.3-.1-2.1-1.1-.4-.5-.6-1-.6-1.2.1-.2.3-.5,1.4-.9.6-.2,1-.6,1.1-1.1.2-.8-.4-1.3-.7-1.7-.1-.1-.1-.2-.2-.2.1-.2.3-.4.6-.6.3-.3.4-.7.3-1.1-.2-.5-.2-.8-.2-1,1.4-.3,3.1-2.4,3.1-2.4.2-.3.2-.6.2-.9-.3-1.5-5-4.4-5-4.4-1-.6-1.6-1.3-2.2-2-.3-.4-.6-.7-1-1.1s-.6-2.7-.3-4.8c.1-1.1.5-1.8,1.1-2.2.9-.6,2.3-.3,2.9-.1.3.1.5.1.8.1.1,0,.2,0,.3-.1.2-.1.3-.1.4-.1h0c.2.3.2.4.3.6s.1.4.4.8c.2.5.9,1.3,1.6,2.3.5.7,1.1,1.4,1.4,1.9.5.8,1.5,2.6,2.7,5.3.2.4,0,2-.3,3.4v.5c-.2.6-.4,1.5-.1,1.6.4.3.9.1,1.4-1.1.2-.1.3-.2.4-.3h0s.3-.3,2.6.2h.1c.9.2,2.4.8,2.9,1.3.2.2.6.6,1,1,1,1,2.4,2.4,3.3,3.1.7.5,1.5.8,2.1,1-.5.9-.9,2.1-.8,3.3-2.1.1-3.5.3-4.2.7-.6.4-3.1.5-5.1.4-.2-.1-.3-.1-.4-.1M4.6,101.3c-.5.1-.9.2-1.3.5-.2.1-.4.3-.6.5-.5-.5-1-.9-1.4-1.3l-.1-.1c.2-.4,1.5-1,2.5-1.1.3.1.7.7.9,1.5M9.2,100.1c2.3-2.2,3.1-2.2,3.4-2,.1.1,0,.5-.8,1.7-.4.7-.8,1.4-.8,2.1-.6.2-1.1.4-1.4.6-.1-.2-.2-.3-.4-.6-.1-.2-.3-.3-.5-.4,0-.3,0-.8.5-1.4M27.5,104.3l.2-.2c.3-.5.9-1.2,1.2-1.2,0,0,.2.1.3.2.4.4.8.8,1.2,1.3.8.9,1.6,1.9,2.7,2.2.2,0,1,.4,2.1,2.8.2.4.5.8,1,.9,0,.3.2.6.5.8,1.2,1,2.3,1.1,3.3,1.2.7.1,1.4.2,1.9.7,1.4,1.4,2.7,2.3,3.9,2.8.5.2,1.2.7,1.9,1.3-2.2.2-4,2.1-4.7,5v.1c-.8-.3-1.9-.7-3.1-1,.1-.2-.1-.6-.3-1.1-.3-.9-1.6-1.9-1.3-1,0,0,.1.5.1,1,0,.2,0,.5.1.7-.9-.2-1.7-.4-2.5-.4,0-.2-.1-.4-.3-.7-.5-.7-.6-.5-.7-.2,0,0-.2.5,0,.9-1.1.1-2.2.4-3.2.9.1-.3,0-.8-.1-1.2-.1-.6-.2-1.2-.5-.8,0,0-.5.6-.5,1.3.1.5.2.8.4.9-1.2.6-2.1,1.3-2.4,1.8,0,0,0,.1-.1.1-.5-.1-1.3-.3-2-.9-.7-.5-1.6-1.4-2.4-2.2.1-.5.3-1.5.1-1.8-.3-.3-.7.1-1,.8-.4-.4-.8-.8-1-.9-.1-.1-.3-.3-.5-.4,0-.4,0-1.1-.2-1.2-.3-.1-.5.4-.6.8-.7-.3-1.5-.6-2.1-.7h-.1c-.1,0-.2,0-.3-.1.2-.5.3-1.1.1-1.1-.3,0-.7.5-1.1.9-.8-.1-1.6-.1-2.1.2.1-.7.4-2,.3-2.9l.1-.1c1.5-1.2,6.5-5,7.5-5.9.3-.3.7-.5,1.1-.8,1.2-.9,2.4-1.8,3.1-2.8M37.5,109.7h0l.1-.2c.4-.8,1.4-1.7,2.2-2.3.3-.2.5-.3.6-.3l.1.1c.5.5.9.5,1.2.5s.6-.2.8-.4c1.2-.8,2.2-.4,2.2-.4.1,0,.3.1.4.1,1.8,0,2.4.9,3.4,2.6.2.3.4.7.7,1,1.1,1.6,3.7,2.8,6,3.8l-.1.1s-.4.3,0,.8,1.5,1.9,1.6,1.6c.2-.3-.2-1.5-.4-2,.2.1.5.2.7.3.5.2,1,.4,1.4.5,2.7,1.1,4.8,1.4,7.4-.3,1.9-1.2,2.7-.7,3.2,0,.7.9,1.7,1.3,2.7,1.8.5.2,1,.4,1.5.7.5.3.6.5.6.6h0v.1s-.5,1.8-1.2,4.2c-.4,1.3-1.2,1.4-1.5,1.4-4.2-1.7-6.9.3-8.6,1.7-.7.5-1.3,1-1.7,1s-.6-.1-.9-.3c-.1-.1-.1-.2-.2-.3-.1-.2-.3-.4-.5-.6l-.3-.6c-.3-.6-.6-1.3-1.1-1.9-1.1-1.6-4.8-3.6-6.8-4.7-.4-.4-.9-.8-1.5-1-.8-.7-2.2-2-3.3-2.5-1-.4-2.2-1.3-3.5-2.6-.5-.4-1-.7-1.5-.8-.1-.6-.3-1.6-.6-1.6-.4,0-.7.9-.8,1.4-.7-.1-1.5-.3-2.3-.9-.07-.07-.1-.13-.1-.2-.1-.2,0-.3.1-.4h0ZM83.6,109.1h0c.07,0,.13.03.2.1-.1.3-.3.9.4.9.9,0,1.6-.6.8-1.6.3-.5.9-1.5.9-1.5.1-.2.2-.4.1-.6v-.3c.1,0,.3,0,.5.1.4.1.8.1,1-.2.3-.3.5-.4.6-.4,0,0,.2.2.3.4.1.4.5.6.9.6h.1c0,.1,0,.5-.2,1.2-.1.5-.2,1.1-.2,1.6-.2.2-.9.5-1.7.7-.4.1-.7.4-.7.8-.1.4.1.7.4.9,0,.2-.2.7-.3.9-.3.9-.7,2-.3,3.1.07.13-.1.33-.5.6-.6.4-1.4,1.1-2,2.2-.8,1-2.7,1.9-5.1,2.6-2.2.6-3,3.2-3.1,3.3-.1.2-.1.4,0,.6-.9.3-3.1.8-3.6-.5.5-.3,1.1-.9,1.4-1.9.6-2.3,1.1-4,1.2-4.1,0-.1.1-.3.1-.6.3-.5.6-1.3,1-3.2.4-2.1,1.8-2.9,3.9-4.2l.9-.6c2.1-1.1,3-.9,3-.9M51.8,120.1v-.2c1.9,1.1,4.4,2.6,5.1,3.7h0c-.6-.2-1.4-.2-2.4.1-2.9.9-3.9.5-5.6-.2-.4-.1-.8-.3-1.2-.5-.7-.3-1-.7-.9-1.3.2-.7.9-1.2,1.1-1.2,0,0,.7.3.4,1.6-.1.5,1.7.5,2.5,0,.7-.3,1.1-1,1-2M12.9,107.6c-.4-.5-.9-1.3-1.4-2-.6-.8-1.2-1.6-1.5-2,2.2-1,4.4-1.5,5-1.2h0c.7.4,1.2.7,1.3,1.1,0,.4-.2,1.6-3.3,4.3,0-.1,0-.2-.1-.2M54.9,124.8c1.8-.5,2.6.1,3.4,1.2.2.4.5.8.8,1.1.6.9,1.3,1.7,2.5,1.9.6.1.8.2.9.2,0,0,0,.1-.1.3v.3c-.6.4-2,.9-4,.2h-.1s-.4.3-.2,1.2c.1.2.1.4,0,.5-.1.2-.6.3-1.1.3-.2,0-.4,0-.6.1.5-.6.8-1.4.8-2.7,0-2.7-1.7-3.7-4.4-4,.4-.1,1.2-.3,2.1-.6M15.5,112.6c-.6-1.3-1.3-2.8-1.9-3.9,1.3-1.1,2.2-2.1,2.9-3,.5,0,1.7,0,2.3-1.2.1-.2.2-.5.3-.8.6.8,1.3,1.8,1.6,2.8.2.5.5.9,1,1.3-1.7,1.4-4.9,3.9-6.2,4.8M17.8,104.1c-.1.3-.4.5-.6.5.2-.5.3-.9.2-1.2-.1-1-1.1-1.6-1.8-2h0c-.8-.4-2.1-.2-3.3.2.1-.3.4-.7.6-1.1.1-.2.2-.3.3-.5.2-.1.3-.1.5-.2,2.7-1,3.3-.4,4.5.7.5.6.4,1.7-.4,3.6M58.6,133.1c0,.1-.1.1-.1.2,0,.2-.1.9.7,1.4h.1c-.3.1-1.4.3-2.4-1.3.5.1,1.1.1,1.7-.3M69.7,133.8h0s-.1,0,0,0c-.1,0-.3-.1-.6-.1-.7-.7-1.9-1.5-3-2.2,0-.3.1-.7-.1-1-.2-.4-1,0-1.4.1-.6-.3-1.1-.6-1.2-.7v-.2c.1-.3.2-.8,0-1.2-.3-.4-.8-.6-1.7-.8-.2,0-.3-.1-.5-.1.6-.2,1.3-.6,2-1.2,1.8-1.4,3.9-3.1,7.6-1.5h.5c.2.5.7,1.2,2,1.4-.6.7-.7,1.3-.6,2.3.1.7.1,2,.1,2.7-1.9,2.7-3.1,2.5-3.1,2.5M93.8,120.3c-.6.1-1.8.2-2.7-.3.5-5.8,1.1-6.5,1.7-7.4.4-.5.8-1,1.3-2.2,1.1-2.7,3.3-3.3,6.5-4l.4-.1c2.3-.5,3.5.3,4,.7-.3.6-.8,1.6-.5,2.6.3.7.9,1.3,2,1.6-1.1,1.8-4,3.7-8,5.1-3.4,1.4-4.4,3.3-4.7,4M107.1,110.3c-.8-.2-1.3-.5-1.4-1-.2-.6.2-1.3.4-1.6,3,.7,5.5-2.2,7.2-4.1.4-.4.7-.8.9-1,1.7-1.6,3.2-2.7,5.2-1.1s1.4,2.9-.9,6.2c-1.2,1.7-6.8,2.1-10.4,1.9-.5,0-.9.3-1,.7M109.7,102.4c1-1.4,2.3-1.6,2.7-1.6.1.3.1.9,0,1.5v.5c-.2.3-.5.5-.7.8-1.6-.5-2-.9-2.1-1l.1-.2M120.1,100.7c-.6-.5-1.1-.8-1.7-.9,0-1.1,0-1.9.2-2.3.6.2,1.1.4,1.7.6.4.1,1.5.5,1.7.7,0,0-.1.1-.1.2-.4.6-1,1.1-1.8,1.7h0M121.4,95.9c-.2-.5-.3-.8-.4-1,.3,0,.4.1.6.3.2.2.5.5,1.1.6h.1c-.5.1-.8.3-1.1.6-.1-.2-.2-.4-.3-.5M1.4,98.2c.1-.1.2-.1.3-.1s.2,0,.3.1.1.2.1.3c0,.2-.2.4-.4.4-.1,0-.2,0-.3-.1s-.1-.2-.1-.3c-.1-.1,0-.2.1-.3"/>
  <path class="cls-1" d="M23.7,108.8c-.6.2-1.7,1.7-.9,1.8,0,0,1.5-.8,1.7-1.3.3-.4-.2-.6-.8-.5"/>
  <path class="cls-1" d="M24.9,111.1c.6.2,1-.3,1.3-.9.4-.6,0-1.4-.5-.8,0,0-1.4,1.5-.8,1.7"/>
  <path class="cls-1" d="M27.5,112c.4-.6.8-1.4.6-2-.1-.6-.5-.3-.5-.3,0,0-1.2,1.3-1.1,1.8.2.5.6,1.1,1,.5"/>
  <path class="cls-1" d="M30.5,112.6c.6-.2.4-.9.2-1.6-.2-.7-.3-1.2-.6-.9,0,0-.4.5-.4,1.2s.2,1.5.8,1.3"/>
  <path class="cls-1" d="M47.1,26.3s-.7.2-.6,1.1c.1.8.3,1.4,1.4,1.2,1.1-.1.3-2.1.1-2.3-.2-.3-.9,0-.9,0M47.4,27.8s-.1-.2-.1-.6v-.2h.2c.1.3.2.6.2.8h-.3"/>
  <path class="cls-1" d="M47,29s-.4.3-.3.9c.1.6,0,1.2.9,1.2s1-.7.9-1.4c-.1-.7-1-1-1.5-.7M47.7,30.3h-.3v-.6h.1c.1,0,.1.1.1.1.2.4.1.5.1.5"/>
  <path class="cls-1" d="M47,31.6s-1,1.2-.3,1.5c.7.4,1.3.5,1.6-.5.4-1-.4-1.7-1.3-1M47.6,32.4c0,.1-.1.2-.1.2,0,0-.1,0-.1-.1.1-.1.1-.2.2-.3h0v.2"/>
  <path class="cls-1" d="M48.7,25.1s-.6.1-.5.8c.2.7.5,1.7,1.4,1.4.9-.3.7-1,.4-1.9-.3-.8-.8-.5-1.3-.3M49.4,26.6h0c-.1,0-.2-.2-.3-.8l.1-.1h.1c0,.3.2.7.1.9.1,0,0,0,0,0"/>
  <path class="cls-1" d="M48.8,28.5s-.3,1.6.5,1.6,1.4-.2,1.3-1.3c0-1.5-1.6-1.7-1.8-.3M49.8,29.2h-.3v-.7c0-.2.1-.2.1-.2h.1s.1.1.1.4c.1.4,0,.5,0,.5"/>
  <path class="cls-1" d="M49.6,30.4s-.7.2-.7.8-.4,1.7.5,1.6,1.7-.4,1.5-1.6c-.2-1.3-.7-1-1.3-.8M50.1,31.7c-.1.1-.3.1-.5.2v-.7s.1-.1.2-.1.2,0,.2-.1v.2c.1.3.1.5.1.5"/>
  <path class="cls-1" d="M50.6,23.2s-.7.5-.4,1.6,1,1.2,1.4.9c.4-.2.7-.5.4-1.6s-.9-1.5-1.4-.9M51,23.9h0M51.3,24.9s-.1,0-.2.1h0s-.1-.2-.2-.4c-.1-.4,0-.6.1-.7.1.1.1.2.2.4.1.4.1.6.1.6"/>
  <path class="cls-1" d="M50.8,27.2c.2.8,0,1.8.9,1.3,1-.5,1-.8.8-1.8-.2-1.4-1.9-.3-1.7.5M51.8,27.5l-.1.1c0-.2,0-.4-.1-.5,0-.1.1-.1.1-.1.2.3.2.4.1.5"/>
  <path class="cls-1" d="M51.2,29.8c0,1,.1,1.8.9,1.6.8-.2,1.1-.7,1-1.9-.3-1.4-2-.6-1.9.3M52,30.6c0-.2,0-.6-.1-.8,0,0,0-.1.1-.1.07-.07.13-.1.2-.1v.1c.1.7.1.8-.2.9"/>
  <path class="cls-1" d="M75.1,34.7c-.2,0-.5.2-.9.6l-.3.3c-.5.5-1.8,1.8-2.1,1.9-.1,0-.1.1-.1.2s.1.2.2.2h5.2c.07,0,.1-.03.1-.1v-.2c-.4-.6-1.5-2.1-1.7-2.5-.1-.2-.2-.4-.4-.4M74.5,36.6c.2-.2.3-.3.3-.3l.1-.1c.1.1.2.3.3.4,0,0-.7,0-.7,0Z"/>
  <path class="cls-1" d="M4.2,85.4c3.1,10.3,5.4,12.2,4.6,6.3-.8-5.9-1.8-10.4-1.2-11.4.6-.9.2-2.4-.1-3.9s.6-1.8-.6-5.5.2-2.8.1-4.6c-.1-1.9-.7-1.8-.5-4.1.2-2.3.3-5.6.3-5.6,0,0-2-.1-2.2,1.3-.2,1.3-.2,16.9.8,22.4s-1.8.2-2.2-6.6c-.4-6.8-.2-14.5-.2-14.5,0,0,.3-1.8-1.9-2.3,0-.2,0,18.2,3.1,28.5"/>
  <path class="cls-1" d="M13.2,80.8c0-3.8-1.4-5.5-.8-7.8.6-2.3,1-3.2-.2-5-1.2-1.9-.7-1.7-.4-4.1s-.3-5.8-.1-7.7c0,0-1.1-.9-1.3.1s.3,13.9,1,19c.7,5.1-.6,3-1.1-1.3-.3-3-1.1-17.2-1.1-17.2,0,0-1.4-1.1-1.7-.1,0,0-.3,17.2,2.9,23.7,3.4,6.6,2.8,4.2,2.8.4"/>
  <path class="cls-1" d="M17.6,76.7c-.6-2-.6-2.4-.4-4.3.2-1.8-.6-3.2-.9-5.7-.3-2.4-.6-8.4-.5-11.6,0,0-.5-.6-1.3.1,0,0,.1,8.6.5,11.8.4,3.1-1.3-.2-1.3-5.7-.1-5.4,0-6.5-1-5.5,0,0-.3,16.6,4.3,21.9-.1,0,1.2,1.1.6-1"/>
  <path class="cls-1" d="M16.8,54.1s-.5,15.3,3.6,19.5c4.2,4.2,1,.2,1-4.7,0-5.7-1.2-4.4-1.3-5.8,0,0-.2-5.8-.5-7.5-.2-1.7-1.5-2.5-1.1.2.4,2.8,1.2,10,.2,10.1s-.9-4.6-.9-7.3.4-4.4-1-4.5"/>
  <path class="cls-1" d="M22.8,53.5s-.7-.6-.5,2c.2,2.7.8,5.3-.2,5.2-.9-.1-.6-3.4-.7-4.7-.2-1.3-.4-3-.9-2,0,0,.1,10.3,3,14.6,2.8,4.3,2.8,1,1.5-1.5s-1.6-5.7-1.6-8-.6-5.6-.6-5.6"/>
  <path class="cls-1" d="M25.5,63.6c1.8,2.5,1.3.4.9-2.2-.4-2.6-.4-6.6-.3-8.6,0,0-.5-.5-1,0,0,0,.5,4.7.1,4.6-.5-.1-.6-1.7-.8-3.4-.2-1.7-.3-1.2-.8-.9-.1,0,.1,8,1.9,10.5"/>
  <path class="cls-1" d="M2.3,40.7s-.5,3.3-.7,8.1.1,5.6,2,5.7c2.4.1,2.9-1.5,3.3-5.4.4-4.2.5-6.3.5-6.9.1-.7-1.3-2.3-1.6.3-.3,2.6-.1,10.6-1.7,10.2-1.6-.3-1.2-4.3-.9-7.1s1.2-6,.1-6.3c-1-.2-1,1.4-1,1.4"/>
  <path class="cls-1" d="M8.2,42.3s-2,11.7.1,11.8c3.2.1,2.7-3.2,3-6.9s.7-4.7-.1-4.7-1,3.5-1.1,5.4,0,4.4-.9,4.3c-.9-.1-.8-2.8-.5-5.1.6-5.2.3-5.9-.5-4.8"/>
  <path class="cls-1" d="M13.1,43.6s-.3-.5-.7-.5c0,0-.4,4.1-.5,6.5s.3,3.5,1.9,3.5,1.4-2.8,1.5-5.1.7-4.3,0-4.5-.7,1.5-.8,3-.2,4.8-.9,4.8c-.6,0-1-.8-.9-3.2.2-2.3.4-4.5.4-4.5"/>
  <path class="cls-1" d="M58.7,53.4c.6-.1.5-.5.9,0,.5.5.5.6,1.1.4.6-.1,1.3.2,1.6.5s.8.3.7.6-.6.7.7.9,1.7.4,2.1,0c.3-.5.9-.5-.1-1-1-.6-1.4-.5-2.2-1.4-.8-.8-.7-.8-1.3-1s-1.2-.5-2.1-.3c-.8.3-1.9.3-1.9.3,0,0-.4.3-.1.6.2.3.1.5.6.4"/>
  <path class="cls-1" d="M64.3,56.6c-.4,0-.7-.3-1-.3,0,0-.6-.1-.3.5s.7.6,1,.5c.4-.2.7-.7.3-.7"/>
  <path class="cls-1" d="M67.3,57s.8,0,1.3-.3c.4-.2.8.1,1.2.2.4.1.7.1,1-.4s-.1-.8-.4-1.1c-.3-.4-.9-.3-1.3-.1s-.3.4-.7.4c-.5,0-1.7,1.1-1.1,1.3"/>
  <path class="cls-1" d="M72.3,57.3c.2,0,.7.1.9.1s.6,0,.2-.6c-.3-.6-.2-.7-.9-.6-.7.1-.6.3-.6.3,0,0,.2.8.4.8"/>
  <path class="cls-1" d="M74.8,64.9c.1.1.4.4.5-.1.1-.4.1-1.1-.8-.8,0,0-.3.2-.1.5.2.1.3.3.4.4"/>
  <path class="cls-1" d="M24,46.1c-1,7.1,1.8,4.6,1.8,4.6.1-1.8.4-4.2.4-4.2-.3-.4-.6-.2-.6.7-.1.9-.1,3-.8,2.8-.7-.2-.1-3.9-.4-4-.3-.2-.4.1-.4.1"/>
  <path class="cls-1" d="M20.6,45.2s-.5,3.5-.5,4.6.6,1.9,2,1.8c1.4-.1,1.1-2,1.2-3.5s.3-2.4.3-2.4c-.7-.3-.6-.1-.9,1.9s-.2,2.8-1.1,2.9c-1,.1-.4-3.7-.3-4.6,0-.9-.7-.7-.7-.7"/>
  <path class="cls-1" d="M16.7,44.3s-.6,3.4-.6,6.1,3,1.9,3.2-.1c.1-2,.7-5.5.7-5.5-1-.8-1.1,1.3-1.3,3.1-.2,1.8-.3,2.9-1.2,2.7-1-.2-.3-5-.3-5.9.1-.7-.5-.4-.5-.4"/>
  <path class="cls-1" d="M15.3,107.5c-.5.9-.2,1.1.3,1.2s.7-1.5.7-1.5c-.2-.6-.6-.6-1,.3"/>
  <path class="cls-1" d="M17.3,107s-.7-.1-.6,1,.7,1.2,1,1,.2-1.2.2-1.4-.2-.9-.6-.6"/>
  <path class="cls-1" d="M18.8,106.8s-.1.9.3,1.4c.4.6,1.1.9.9-.3-.3-1.2-.5-1.5-1.2-1.1"/>
  <path class="cls-1" d="M7.6,104.9c-.3-.1-.5-.2-.7.2,0,0-.2.7.4.7.7-.1.5-.8.3-.9"/>
  <path class="cls-1" d="M4.8,106.5h0c0,.1,0,.6.3.6.4,0,.4-.2.4-.4.1-.3-.5-.6-.7-.2"/>
  <path class="cls-1" d="M5.7,110.1s-.4.4.1.8c.5.3.6.2.5-.4-.1-.7-.3-.6-.6-.4"/>
  <path class="cls-1" d="M8.9,110s.4.2.5.1c.1-.2-.1-.4-.1-.4,0,0-.7-.2-.4.3"/>
  <path class="cls-1" d="M9.4,112.7s-.2.6.3.7.6-.5.4-.7c-.2-.2-.7-.1-.7,0"/>
  <path class="cls-1" d="M12.1,113.5s.5.1.5,0,.1-.3-.1-.5c-.2-.1-.6.1-.4.5"/>
  <path class="cls-1" d="M11.6,123.3s1-2.3-.4-1.9c0,0-.7.5-.5,1.6,0,0-.7-.3-.2.7.5.9.8,1.8,1.7.9.9-.8-.6-1.3-.6-1.3"/>
  <path class="cls-1" d="M15,124.9s-.8.6-.6.9,1.3.4,1.4,0c.1-.3-.4-1.2-.8-.9"/>
  <path class="cls-1" d="M18.5,125.5s-.9.3-.5.7c.4.5,1.3.5,1.3.4.1,0,.5-1.3-.8-1.1"/>
  <path class="cls-1" d="M15.8,121.5s-1,.6-.6,1,1.1-.3,1.1-.3c0,0,.2-.8-.5-.7"/>
  <path class="cls-1" d="M19,120.5c.7.3,1-.3,1-.3,0,0-.5-1.3-1.1-.8,0,0-.6.8.1,1.1"/>
  <path class="cls-1" d="M23.2,125c.7.3,1.1,0,1.1,0,0,0,.5-.7-1.4-1.1,0,0-.4.8.3,1.1"/>
  <path class="cls-1" d="M33.2,124.6c0-.7-.8-.4-.8-.4,0,0-.5.1-.5.4s.6.4.6.4c0,0,.7.3.7-.4"/>
  <path class="cls-1" d="M33.3,128.7c-.4-.2-.8.3-.8.3,0,0-.3.9.6.9s.8-.6.8-.6c0,0,.2-.2-.6-.6"/>
  <path class="cls-1" d="M38,127.3c0-.5-.6-.8-1-.8,0,0-.9.1-1,.8-.2.7,1.2.7,1.2.7,0,0,.8-.2.8-.7"/>
  <path class="cls-1" d="M36.9,130.1s0,.7.8.7.7-.5.7-.5c0,0-1.3-.8-1.5-.2"/>
  <path class="cls-1" d="M41.6,127.5c.9,0,.6-.7.6-.7,0,0-.3-.4-.8-.3-.6,0-.7,0-.7.5,0-.1,0,.5.9.5"/>
  <path class="cls-1" d="M33.1,112.9c.5-.1.1-1.7.1-1.7,0,0-.4-1-.6-.9,0,0-.8,0-.5,1.2.3,1.4.5,1.5,1,1.4"/>
  <path class="cls-1" d="M35,112.2c.3.5.6.5,1,.3.4-.3-.8-2.1-.8-2.1,0,0-1.2-.6-1,0,0,.1.4,1.3.8,1.8"/>
  <path class="cls-1" d="M20,111.8c-.4,0-1.7.9-1.2,1.1,0,0,.7.2,1.1-.3.5-.5.4-.7.1-.8"/>
  <path class="cls-1" d="M22,112.8s-1.5,1.5-.9,1.8,1.1-.5,1.3-1.1c.2-.7-.1-1-.4-.7"/>
  <path class="cls-1" d="M23.5,115.1c.2.5.6,1.1,1-.1s.2-1.3-.1-.9c0,0-1.1.6-.9,1"/>
  <path class="cls-1" d="M27.2,115.6c.3-1.4,0-1.3-.3-.9,0,0-1,.8-.7,1.2.2.3.8,1.1,1-.3"/>
  <path class="cls-1" d="M29.9,117.6c.8.1.5-1.1.3-2-.2-.8-.4-.9-.6-.9,0,0-.4-.1-.4.9,0,1.1,0,1.9.7,2"/>
  <path class="cls-1" d="M32.6,115.3s-.8,1.6.3,2.3c1,.6.6-.5.4-1.3-.2-.8-.5-1.5-.7-1"/>
  <path class="cls-1" d="M35.6,115s-.6-.1-.4.8c.2.9.5,1.7,1.3,1.5.9-.2-.4-2-.9-2.3"/>
  <path class="cls-1" d="M40.2,117.1c.5-.9-1.8-2.6-2.2-2.3,0,0-.7.3,0,1.1.7.7,1.8,2.1,2.2,1.2"/>
  <path class="cls-1" d="M43,116.6c.5-.3-.8-1.6-.8-1.6,0,0-1-1.1-1.2-.8,0,0-.6.6.2,1.4.7.8,1.2,1.4,1.8,1"/>
  <path class="cls-1" d="M27.7,119.1s-1.5,2-.6,2.4,1-1.5,1-2.2c0-.8-.4-.2-.4-.2"/>
  <path class="cls-1" d="M41.2,118.6s.5,1,.6,1.5c.1.4.5,1.1,1,.5.4-.7.2-.9-.3-1.5-.4-.7-1.6-1.1-1.3-.5"/>
  <path class="cls-1" d="M11,36.3s-1.5-.3-2,1.3c-.6,1.6-.2,2.3.2,2.2.3-.1.5-1.6.9-1.5.4.2-.5,1.5.1,1.7s.8-1.5,1.2-1.4c.4.2-.4,1.5.2,1.7.6.2,1.5-3.4-.6-4"/>
  <path class="cls-1" d="M15.3,37.7s-1.3-.3-1.8,1.2-.1,2.1.2,2,.4-1.5.8-1.4c.4.1-.4,1.4.2,1.5.5.1.6-1.4,1-1.3.4.1-.3,1.4.2,1.5.6.3,1.3-3-.6-3.5"/>
  <path class="cls-1" d="M6.9,38.5c.8.3,2.3-3.9-.4-4.8,0,0-1.9-.5-2.7,1.3-.8,1.9-.4,2.7,0,2.6.4-.1.8-1.9,1.3-1.7s-.7,1.8,0,2,1.1-1.8,1.7-1.5c.5.3-.7,1.9.1,2.1"/>
  <path class="cls-1" d="M19.1,39.2s-1.2-.3-1.6,1-.1,1.8.1,1.7c.3-.1.4-1.3.7-1.2.3.1-.4,1.2.1,1.3.4.1.6-1.2,1-1.1.3.1-.3,1.2.2,1.4s1.2-2.6-.5-3.1"/>
  <path class="cls-1" d="M22.9,43c.4.1,1-2.2-.4-2.6,0,0-1-.2-1.3.8-.4,1.1-.1,1.5.1,1.4s.3-1.1.6-1c.3.1-.3,1,.1,1.1s.5-1,.8-.9c.3.2-.3,1.1.1,1.2"/>
  <path class="cls-1" d="M26.2,43.8c.4.1.7-2.3-.7-2.5,0,0-1-.1-1.2,1s.1,1.5.3,1.4c.2-.1.2-1.1.5-1s-.2,1,.2,1.1c.4.1.4-1.1.7-1,.3,0-.2,1,.2,1"/>
  <path class="cls-1" d="M4.6,41.6c-.2,1.4-1.3,9.4-.6,9.5.7.1.6-3.5.8-5.3.2-1.9.5-4.7.5-4.7,0,0-.5-.9-.7.5"/>
  <path class="cls-1" d="M9.6,43.3c-.2,1.1-1,7.4-.5,7.5s.5-2.8.6-4.2c.1-1.5.4-3.7.4-3.7,0,0-.3-.7-.5.4"/>
  <path class="cls-1" d="M13.7,44.4c-.1.9-.7,5.9-.1,6,.5.1.3-2.2.4-3.4.1-1.2.2-2.9.2-2.9,0,0-.4-.6-.5.3"/>
  <path class="cls-1" d="M17.9,44.9c-.1.7-.7,4.5-.2,4.5s.4-1.7.5-2.5c.1-.9.3-2.2.3-2.2,0,0-.5-.5-.6.2"/>
  <path class="cls-1" d="M22.3,45.6s-.4-.3-.5.2-.5,3.5,0,3.5.3-1.3.3-2c.1-.6.2-1.7.2-1.7"/>
  <path class="cls-1" d="M25.5,46.1s-.3-.3-.4.2c-.1.4-.4,3,0,3s.2-1.1.3-1.7c0-.6.1-1.5.1-1.5"/>
  <path class="cls-1" d="M90.6,42.8v2.5s1.3-.1,1.3-.4.5.2.5.2c0,0-.2-1.4-1.8-2.3"/>
  <path class="cls-1" d="M92.5,49.9c-.5,0-.9.2-.8-1.1.1-1.2.2-2.1-.9-1.7v3.9s1.7,1.2,2.7,0c0,0,.4-2.4-.3-4,0,0-.2-.2-.6.3,0,0,.4,2.6-.1,2.6"/>
  <path class="cls-1" d="M90.7,52.8s-.2,2.9,0,2.9,1.1,0,1.1-1.8c-.1-1.8-.7-1.6-1.1-1.1"/>
  <path class="cls-1" d="M92.9,52.4s-.4-.1-.4,1.2c0,1.2-.3,2.1.1,2.1s.7-1.1.9-2.1c.2-1.2-.1-1.5-.6-1.2"/>
  <path class="cls-1" d="M91,58.3c.7,0,1.7,0,1.8-1.2.2-1.2-1.2-.8-2.2.1.1.1-.3,1.1.4,1.1"/>
  <path class="cls-1" d="M90.7,59.7s-.2,3.3,0,3.2c.2-.2,1.2-2.2,1.5-3s-1.2-.7-1.5-.2"/>
  <path class="cls-1" d="M90.2,81c.5,1.9.1,1.8-.3,1.8-.5,0-.9-2.7-1.6-.9-.4,1-1,2.6.2,2.5,1.3-.1,4.4.1,3.4-2.4s-2.2-3-1.7-1"/>
  <path class="cls-1" d="M93,88.9s.4-.4.2-1.1c-.2-.7-2.2-.2-2.2-.2l-4.7.2s-.6,1-.4,1.2c.1.1,6.8.2,7.1-.1"/>
  <path class="cls-1" d="M88.8,92.9c0-1.8-.4-3.4-1.8-3.3,0,0-2-.1-2,1.2-.1,1.3-.2,3.2.4,3.2s.1-2.3.6-2.4c.5,0,.5.9.5,1.6s.9.9.8-.1-.5-1.8,0-1.6c.5.1.7.2.6,1.2-.2,1,.9,2.1.9.2"/>
  <path class="cls-1" d="M90.7,91.5c.4,0,.5.9.5,1.5s.8.9.7-.1c-.1-.9-.5-1.6,0-1.5s.6.2.5,1.1.9,1.8.9.2c0-1.7-.4-3.1-1.7-3,0,0-1.8-.1-1.9,1.1s-.2,3,.4,3c.6-.1.2-2.3.6-2.3"/>
  <path class="cls-1" d="M43.4,112.5c.7,0,.4-3.5-.5-2.9,0,0-.4.3-.4,1.1,0,.9.2,1.8.9,1.8"/>
  <path class="cls-1" d="M46.3,112.2c-.2-1.4-.8-2-.9-1.5,0,0-.2.8,0,1.7.2.9,1.1,1.1.9-.2"/>
  <path class="cls-1" d="M49.2,112.5c.2-.2-.9-2.3-1.4-1.7,0,0-.5.2.1,1.1.7.8,1.1.8,1.3.6"/>
  <path class="cls-1" d="M52.2,116.7c-.1-.3-.6-.7-.8-.7,0,0-.6.3-.1.8.4.5.9.2.9-.1"/>
  <path class="cls-1" d="M54.7,116.8c.7-.3-.7-1.5-1.5-1.5,0,0-.5,0,0,.7.4.7.8,1.2,1.5.8"/>
  <path class="cls-1" d="M57.7,120.9c.8.7,1.4.7.9-.2-.4-.8-.8-1.4-1.1-1,0,0-.6.6.2,1.2"/>
  <path class="cls-1" d="M61.4,120.2c.2-.5-1.1-2.3-1.6-2.3,0,0-.7.1-.1,1.2.6,1.2,1.5,1.7,1.7,1.1"/>
  <path class="cls-1" d="M63.4,119.6c0-.5-1-2.5-1.1-1.9,0,0-.4,1.3.2,2,.6.7.9.4.9-.1"/>
  <path class="cls-1" d="M66,118.8c-.1-.8-.8-2-1.1-1.7,0,0-.6.3-.1,1.2.6.9,1.4,1.3,1.2.5"/>
  <path class="cls-1" d="M67.9,117.8c1.3,0-.3-1-.4-1.2s-.7-.3-.7,0c0,0-.2,1.2,1.1,1.2"/>
  <path class="cls-1" d="M67.9,122c-.1-.4-.4-.7-.7-.7,0,0-.9-.1-.3.6.5.7,1.1.6,1,.1"/>
  <path class="cls-1" d="M70.2,121.7c-.5-1.2-.9-1.8-1.3-1.5,0,0-.4.5.2,1.3s1.6,1.4,1.1.2"/>
  <path class="cls-1" d="M71.8,120c-.2-1-1.8-3.4-1.8-2.5,0,0-.2.8.4,1.6.6.8,1.6,1.9,1.4.9"/>
  <path class="cls-1" d="M66.5,125.3c-.2.4-.6,1.6.2,1.2,0,0,1.2-.7,1-1.1-.2-.3-.9-.5-1.2-.1"/>
  <path class="cls-1" d="M68.9,127.8c-.7.2-1.3.8-.9,1.2,0,0,.4.7,1.2,0,.8-.7.3-1.3-.3-1.2"/>
  <path class="cls-1" d="M79.4,129.1s-1.5,1.2-.2,1.3c1.2.1,1.4-.3,1.1-.9-.33-.47-.63-.6-.9-.4"/>
  <path class="cls-1" d="M87.4,130.1c-.3,0-1.5.7-1,1.2,0,0,1,.4,1.5-.3.4-.7-.2-.9-.5-.9"/>
  <path class="cls-1" d="M90.5,127.7c-.6.2-.9.7,0,1.1,0,0,.6.1,1-.5s-.4-.8-1-.6"/>
  <path class="cls-1" d="M85.3,127.2s-1.2,1.6,0,1.6c1.3.1.6-1.1.6-1.1,0,0-.4-.9-.6-.5"/>
  <path class="cls-1" d="M85.3,124.6c-.6-.5-.9-.3-1.2.1,0,0-.8,1.4.2,1.4s1.7-1,1-1.5"/>
  <path class="cls-1" d="M90,124.3c-.2-.5-.3-.7-.8-.5,0,0-1,.7-.4,1,.7.2,1.4,0,1.2-.5"/>
  <path class="cls-1" d="M75.8,120.9s-.3.7.4.7c.7.1.8-.4.7-.7,0-.1-.7-.4-1.1,0"/>
  <path class="cls-1" d="M76.9,116.2s-.2.9.6,1.2c.8.2.5-.5.5-.7-.1-.3-1.1-1-1.1-.5"/>
  <path class="cls-1" d="M81,118.1s-.7.7-.2.9c.4.2,1.3-.6.2-.9"/>
  <path class="cls-1" d="M83.9,116.1c.7.1,1.1-.7.2-.9,0,.1-.9.8-.2.9"/>
  <path class="cls-1" d="M80.3,115.9s-.9.1-.4.6.7.5.9-.1c.2-.7,0-.7-.5-.5"/>
  <path class="cls-1" d="M81.8,112.7s-.2.6.3.9.5,0,.6-.3-.9-1.1-.9-.6"/>
  <path class="cls-1" d="M80.8,111.3s.4.2.8-.1c.4-.3-.9-.6-.8.1"/>
  <path class="cls-1" d="M88.2,107.6c.4-.4-.5-.8-.7-.3-.1,0,.3.7.7.3"/>
  <path class="cls-1" d="M111.9,127.9c1-.3,1.6-1.9-.1-1.5,0,0-.8.8-.8,1,.1.2,0,.8.9.5"/>
  <path class="cls-1" d="M105.8,125.3s-.3,1,.1.9,1.2-.3.7-.8c-.5-.4-.7-.4-.8-.1"/>
  <path class="cls-1" d="M102.9,124s-.8.3-.9.6c0,.3,0,1,.8.4.8-.5,1.3-1.5.1-1"/>
  <path class="cls-1" d="M99.7,122.9s-1,.3-.7.7c.3.4,1.1,1.1,1.3.3.2-.8,0-1.4-.6-1"/>
  <path class="cls-1" d="M106.7,121.5s-.8.3-.7.6c.1.3.6.7,1,.2.5-.3.5-1.1-.3-.8"/>
  <path class="cls-1" d="M109.2,124.8c.6-.2,1.5-1.7.2-1.5,0,0-.5.2-.7.7-.3.5-.1,1,.5.8"/>
  <path class="cls-1" d="M94.5,112s0,1,.7.8.4-.8.4-.8c0,0-1.4-.8-1.1,0"/>
  <path class="cls-1" d="M94.4,116.7c-.6-.3-.6-.4-.8-.2,0,0-.5,1,.1,1,.5,0,1.3-.5.7-.8"/>
  <path class="cls-1" d="M97.2,113.7c.1-.4-2.1.5-1.2.9,0,0,.7.4,1.1.2.3-.2,0-.7.1-1.1"/>
  <path class="cls-1" d="M99.3,109.4c.6,0,.6-.6.4-.9s-1.2-.4-1.1.3c-.1,0,.1.7.7.6"/>
  <path class="cls-1" d="M99.5,111.3c1.3.7.8-1.3.2-.9.1-.1-.7.5-.2.9"/>
  <path class="cls-1" d="M101.5,109.7c1.4,0,.6-1.4.1-1.1,0,0-.6.5-.7.6,0,.2-.5.5.6.5"/>
  <path class="cls-1" d="M100,113.5c0,.3.3.5.9.3s.6-.9-.1-.8c-.1.1-.8.2-.8.5"/>
  <path class="cls-1" d="M103,112.7c.3-.1.2-.7.2-1.1s-.2-.6-.7-.3c0,0-.3.1-.3.5.1.4.5,1,.8.9"/>
  <path class="cls-1" d="M114.5,105.7c.5-.4.8-1.2-.1-1.3,0,0-.6,0-.6.6.1.7.2,1.2.7.7"/>
  <path class="cls-1" d="M115.9,106.3s.6.3,1,.2c.4-.1.2-.7-.1-.8-.3-.1-1.4.6-.9.6"/>
  <path class="cls-1" d="M118.2,103.8c1,.2,1.2-1,.8-.9-.1,0-1.8.7-.8.9"/>
  <path class="cls-1" d="M116.1,103.5c.5,0,.9-.2.6-.5s-.8-.8-.8-.5c-.1.1-.3,1,.2,1"/>
  <path class="cls-1" d="M112.5,38.6c-.1-1.1-.3-1.3-.4-1.2,0,0-.2,2.9,0,3,.3.1.5-.7.4-1.8"/>
  <path class="cls-1" d="M98.2,45.2c-.6.1-.8-.8-.8-1.4s-.6-.9-.8-.2c0,0,.1,2.5,1.3,2.4,1.5-.1,1.9-.9,1.3-2.8,0,0-.3-.6-.8-.2-.5.4.4,2.2-.2,2.2"/>
  <path class="cls-1" d="M100,42.5s-.2,2.7.9,2.8c1.5.1,2-.7,1.7-2.9,0,0-.2-.6-.8-.3-.5.4.1,2.4-.5,2.4s-.7-1-.6-1.6c.2-.7-.3-1.1-.7-.4"/>
  <path class="cls-1" d="M103.6,41.7s-.3,2.8.8,2.8c1.4,0,1.8-.8,1.6-3,0,0-.2-.7-.7-.3s.1,2.4-.5,2.5c-.6,0-.6-1-.5-1.7,0-.6-.4-1.1-.7-.3"/>
  <path class="cls-1" d="M106.9,40.2v2.4s-.2,1.6,1.5,1.7c1.7,0,1.3-2.2,1.3-3.2,0-.9-.1-2.4-.6-2.3-.4.1-.6.6-.5,1.6,0,1,.2,2.3-.3,2.2-.5,0-.5-.8-.5-1.8s-.8-1.8-.9-.6"/>
  <path class="cls-1" d="M111.6,37.8s-1-.9-1,.5-.4,5.3,1.9,5.5c2.3.1,1.9-2.8,1.9-4.7s.4-3.8-.4-3.3c-.7.5-.8,1.1-.9,2.4-.1,1.3.3,3.5-.4,3.6-.7.1-1.1-.1-1-2.1,0-1.6-.1-1.9-.1-1.9"/>
  <path class="cls-1" d="M116.6,39.2c-.1-2.2,0-3.8-.4-3.8,0,0-.8-.1-.8,1s-.5,5.5,1,6.1c1.5.7,3.5.3,3.5-1.3v-6.2c0-.9-.9-1.4-1.1-.1-.2,1.3.6,6.6-.6,6.5-1.3,0-1.5,0-1.6-2.2"/>
  <path class="cls-1" d="M117.5,35.8s-.4,3.9.1,4.1c.6.2.3-2.6.3-3.5.1-.9-.3-1.3-.4-.6"/>
  <path class="cls-1" d="M111.8,96.8c1,.1,3.9-6.6,4.6-10.9s1-5.3,1.8-7.3,2-9.8,2-13.8.2-7.6,0-8.2c-.2-.6-.4-.8-1.1-.3s-1.5.2-1.4,2,.2,12.9-.4,14.7c-.6,1.8-1.2,4.5-1.7,6.4-.5,1.8-1.1,3.9-.7.1s1.2-3.9,1.2-6.2c.1-2.3.6-5,.5-8.3-.1-3.3.2-7.5.2-7.5,0,0-1.7-2.2-1.7-.2s.1,12.4,0,13.8c-.2,1.4-.6,3.5-.5,4.9.2,1.4-.5,1.9-.6,4.1-.1,2.3-.7,11-1.9,13.3-1.1,2.3-1.2,3.3-.3,3.4"/>
  <path class="cls-1" d="M110.3,86.3c.7-.5,3.6-7.2,3.7-17.5.2-10.3.6-11.4.1-12.2-.4-.8-1.4-1-1.2,1.1.2,2.1-.4,16.9-1.1,17-.6.5.5-12.7.2-17.8v-.1s-.9-2.4-1-.6c-.1,1.9-.1,10-.3,10.6-.2.6-1.1,4.1-.8,6.5.3,2.5.5,8.7.2,10.4-.4,1.7-.5,3.1.2,2.6"/>
  <path class="cls-1" d="M109.6,63.1c.2-2.2.7-6.5.6-7.6,0,0-1.2-.4-1.3.9-.1.8-.1,4.2-.3,5.4-.2,1.2-.2,6.3-.9,6.2-.7-.1-.3-2.5-.1-4.7.2-2.2,1-4.4.4-7.5,0,0-1-1.1-1.1-.1s.1,3.7-.2,4.1c-.3.4-.6,1.9-.6,3.5.1,1.6.3,4.3-.3,5.3-.6,1-.4,2.3-.6,3.6-.2,1.3-.6,4.4-1.7,6.3-1.2,1.9,1.3,2.4,3.9-4.8,2.6-7.1,2.1-8.4,2.2-10.6"/>
  <path class="cls-1" d="M102.9,55.8c0,1.1-.1,8.3-.7,9.6-.6,1.2-.7,3.7-1.1,4.4-.3.7-1.6,3.9-2.2,4.9s-.5,2.2.6,1.4c1.1-.8,4.6-5.3,5.1-9.2.5-3.9,1.1-6.4,1.3-7.5.2-1.1.5-3.9.1-4.1-.3-.2-1-.4-1,.6,0,1.1-.3,4.7-.9,6.5-.6,1.8-.6,2.5-.7.2-.1-2.2.4-6.6.1-7.7.2,0-.6-.2-.6.9"/>
  <path class="cls-1" d="M99.2,54.6s-.1,1-.1,4.1c0,3.9-2,7.8-3.1,10.3s.4,1.8,1.3,1,2.6-3.7,3.4-5.5c.8-1.7,1.6-9.8,1.6-9.8-.1-.3-.9-.5-1.2-.1-.3.4-.6.6-.8.1-.2-.4-1.1-.1-1.1-.1"/>
  <path class="cls-1" d="M97.8,62.3c.5-1.3.7-7.3.7-7.3,0-.9-.4-1.6-.6.1-.1,1.7-.6.9-.9-.5-.3-1.5-.8,2.8-.6,4.3.2,1.4-1.2,5.4-1.8,7.9-.6,2.4,2.7-3.2,3.2-4.5"/>
  <path class="cls-1" d="M98.5,47.9c-.2,1.9.1,2.7-.5,2.5s0-3.1-.5-3.1-.4,1.1-.5,1.9c-.1.8-.2,3.1,1,3.1,2,0,1.5-3.8,1.5-4.5-.1-.7-.8-1.8-1,.1"/>
  <path class="cls-1" d="M102.5,46.7c-.5,0-.7.1-.7,1.2.1,1.1.2,2.2-.4,2-.5-.1-.4-1.4-.3-2.4,0-1-.4-1-.4-1,0,0-.5-.1-.5.9,0,1.1-.2,4.6.9,4.6,1.1.1,1.7-.9,1.8-3.2.07-1.4-.07-2.1-.4-2.1"/>
  <path class="cls-1" d="M104.7,53c1.9.2,1.5-3.1,1.6-4,0-.8.2-2.7-.2-2.8-.5,0-.4.5-.4,1.4s-.1,3-.6,3.1c-.5,0-.7-1-.5-2.6.1-1.5.1-1.8-.1-1.8,0,0-.7,0-.7,1.2-.1,1.3-.9,5.3.9,5.5"/>
  <path class="cls-1" d="M110,45.9c-.5-.1-.9,0-.9,1.1s.1,4.5-.5,4.5-.8-1-.8-2.7.5-2.7.1-2.8c0,0-.9-.5-1,1.2s-.3,6.2,1,6.5c1.4.2,2.2-1.5,2.1-3.6,0-2.2.6-4.1,0-4.2"/>
  <path class="cls-1" d="M111.8,45.5s-.7-.1-.8,1.3c-.1,1.4.1,3.9.1,5.1s.1,2.3,1.3,2.5c1.2.1,2-1.8,2-3.8s.5-5.2-.3-5.4c-.8-.1-.6.6-.5,1.4,0,.8,0,5.8-.9,5.7s-1-2.3-.8-4.5c.4-2.7-.1-2.3-.1-2.3"/>
  <path class="cls-1" d="M112.8,46.3s-.3-.2-.3,1.1-.3,3.5.2,3.5c.5.1.1-1.2.3-2.4.1-1.1.1-2.2-.2-2.2"/>
  <path class="cls-1" d="M120.1,44.5c-.7-.1-1-.2-1,1.2,0,1.5-.1,5.8-.1,5.8,0,0,.1,1.7-1,1.7-1.2,0-1.2-.7-1.2-2.3s.4-5.8-.6-6c0,0-.8,0-.8,1.4,0,1.5.1,5.6.1,6.3s.3,2.5,2.3,2.7c2,.3,2.5-2.6,2.6-5.3-.1-2.6.4-5.4-.3-5.5"/>
  <path class="cls-1" d="M117.9,46s-.5-.2-.5,1-.3,5,.2,5c.4,0,.5-.2.5-1.3-.1-2.9.3-4.6-.2-4.7"/>
  <path class="cls-1" d="M96,10.8l.6-4.5c.1-.7-.1-1.1-.9-1.2l-1.1-.1-.9,6.7,1,.1c.9,0,1.2-.3,1.3-1M94.4,11.2l.3-2.5.6.1.1-.6-.6-.1.4-2.5h.3c.4.1.5.2.5.6l-.6,4.6c-.1.4-.2.5-.6.4,0,0-.4,0-.4,0Z"/>
  <path class="cls-1" d="M42.8,44.2s-.9.1-.9-.8v-.9h1.8c.7,0,1.3-.5,1.3-1.2s-.6-1.2-1.3-1.2h-3.4v.6s.5-.1.5.5v2.6s-.1.4-.6.4v.5h2.5s.1-.5.1-.5ZM43.1,40.5c.3,0,.6.3.6.6,0,.4-.3.6-.6.6h-1.2v-1.3h1.2v.1Z"/>
  <path class="cls-1" d="M35.8,72.2h2.6s.4.1.4.6h.5v-2.5h-.4s.1.9-.8.9h-.8v-1.8c0-.7-.6-1.3-1.2-1.3-.7,0-1.2.6-1.2,1.3v3.4h.6c-.2-.1-.3-.6.3-.6M35.2,70c0-.4.3-.6.6-.6.4,0,.6.3.6.6v1.2h-1.3v-1.2h.1Z"/>
  <path class="cls-1" d="M79.9,92.4s-.2.5-.7.2c-.5-.4-2.1-1.5-2.1-1.5,0,0-.3-.4,0-.8l-.4-.3-1.6,2.3-.6.8c-.5.7-.4,1.5.2,2,.4.3.9.3,1.4,0,0,.3.2.7.5.9.6.4,1.4.2,1.8-.4l1-1.4.2-.2.3-.4.6-.8s-.6-.4-.6-.4ZM75.7,94c-.3-.2-.4-.6-.1-1l.7-1c.2,0,.3,0,.5.2.2.1.4.3.7.5l-.8,1.1c-.3.3-.7.4-1,.2M78.4,94.8c-.2.3-.6.4-.9.1-.3-.2-.4-.6-.1-.9l.7-.9c.4.3.8.6,1,.8l-.7.9Z"/>
  <path class="cls-1" d="M49.1,40c-1.4,0-2.6,1.1-2.6,2.4s1.2,2.4,2.6,2.4,2.6-1.1,2.6-2.4c0-1.4-1.1-2.4-2.6-2.4M49.1,44c-.4,0-1.1-.8-1.1-1.7s.6-1.7,1.1-1.7c.4,0,1.1.8,1.1,1.7s-.6,1.7-1.1,1.7"/>
  <path class="cls-1" d="M56.2,44.2s-.9.1-.9-.8v-.9h.8l1.3,2.1s.9.2,1.5-.6l-.2-.3s-.6.4-.8-.1c-.2-.3-.5-.9-.7-1.2.7,0,1.3-.6,1.3-1.2,0-.7-.6-1.2-1.3-1.2h-3.4v.6s.5-.1.5.5v2.6s-.1.4-.6.4v.5h2.4s.1-.4.1-.4ZM56.4,40.5c.3,0,.6.3.6.6,0,.4-.3.6-.6.6h-1.2v-1.3h1.2v.1Z"/>
  <path class="cls-1" d="M35.8,63.2h2.6s.4.1.4.6h.5v-2.5h-.4s.1.9-.8.9h-1v-.8l2.1-1.3s.2-.9-.6-1.5l-.3.2s.4.6-.1.8c-.4.2-.9.5-1.2.7,0-.7-.6-1.3-1.2-1.3-.7,0-1.2.6-1.2,1.3v3.4h.6c.1,0-.1-.5.6-.5M35.1,61c0-.4.3-.6.6-.6.4,0,.6.3.6.6v1.2h-1.2s0-1.2,0-1.2Z"/>
  <path class="cls-1" d="M59.9,103.2s.9.2.7,1.1c-.1.2-.1.5-.2.8l-.8-.2-.7-2.4s-.8-.4-1.6.1l.1.4s.7-.2.8.3c.1.4.3,1,.3,1.3-.7-.2-1.4.2-1.6.8-.2.7.2,1.3.9,1.5l2.4.7.8.2.2-.6s-.5,0-.3-.6.7-2.5.7-2.5c0,0,.2-.4.7-.3l.1-.5-2.4-.7s-.1.6-.1.6ZM58.2,105.9c.1-.3.4-.5.8-.4l1.2.3c-.1.5-.3.9-.4,1.2l-1.2-.3c-.4-.2-.5-.5-.4-.8"/>
  <path class="cls-1" d="M87.1,45.6s.1.5-.5.5h-2.6s-.4-.1-.4-.6h-.5v2.5h.4s-.1-.9.8-.9h.9v.8l-2.1,1.3s-.2.9.6,1.5l.3-.2s-.4-.6.1-.8c.3-.2.9-.5,1.2-.7,0,.7.6,1.3,1.2,1.3.7,0,1.2-.6,1.2-1.3v-3.4s-.6,0-.6,0ZM87.2,48.3c0,.4-.3.6-.6.6-.4,0-.6-.3-.6-.6v-1.2h1.3v1.2h-.1Z"/>
  <polygon class="cls-1" points="68.5 44.2 67.9 44.2 69.6 41.7 72.1 44.6 74.3 42.3 75.6 44.2 74.8 44.2 74.8 44.6 78 44.6 78 44.2 77.5 44.2 75.4 41.1 75.4 41 75.4 40.1 74.4 40.1 74.4 40.8 72.7 42.6 70.6 40.1 68.3 40.1 68.3 40.8 68.9 40.8 68.9 40.9 66.7 44.2 66.2 44.2 66.2 44.6 68.5 44.6 68.5 44.2"/>
  <polygon class="cls-1" points="82 43.9 81.6 43.9 81.6 40.8 82 40.8 82 40.1 79.8 40.1 79.8 40.8 80.2 40.8 80.2 43.9 79.8 43.9 79.8 44.6 82 44.6 82 43.9"/>
  <polygon class="cls-1" points="35.4 57.3 38.5 57.3 38.5 57.6 39.2 57.6 39.2 55.5 38.5 55.5 38.5 55.8 35.4 55.8 35.4 55.5 34.7 55.5 34.7 57.6 35.4 57.6 35.4 57.3"/>
  <polygon class="cls-1" points="35.4 48.6 39.3 46.1 35.4 43 35.4 42.2 34.7 42.2 34.7 44.4 35.4 44.4 35.4 43.8 37.6 45.5 35.4 46.9 35.4 46.7 34.7 46.7 34.7 49.3 35.4 49.3 35.4 48.6"/>
  <polygon class="cls-1" points="35.1 54.5 36.1 54.5 36.1 54.1 35.6 54.1 35.6 52.8 38.5 52.8 38.5 53.6 39.2 53.6 39.2 50.5 38.5 50.5 38.5 51.3 35.6 51.3 35.6 50.1 36.1 50.1 36.1 49.7 35.6 49.7 34.7 49.7 34.7 54.5 35.1 54.5"/>
  <polygon class="cls-1" points="35.4 67.1 38.5 67.1 38.5 67.5 39.2 67.5 39.2 65.3 38.5 65.3 38.5 65.7 35.4 65.7 35.4 65.3 34.7 65.3 34.7 67.5 35.4 67.5 35.4 67.1"/>
  <path class="cls-1" d="M75.4,98c-.1,0-.2-.1-.3-.2l-1.9-2c-.07-.07-.1-.13-.1-.2,0-.1.1-.2.4-.4l-.4-.4-3.4,3.2.6,1.2.4-.4c-.1-.2,0-.7,0-.7,0-.1,0-.2.1-.2l1.4-1.3,2,2.1c.1.1.2.3.2.3l-.8.8.4.4,2.2-2-.4-.4c-.3.1-.4.2-.4.2"/>
  <path class="cls-1" d="M43.3,92.5l2.3-1.5c.1-.1.2-.1.2,0,0,0,.1.2.3.4l.5-.3-2.5-4-1.2.3.3.5c.2-.1.7.1.7.1.1,0,.2.1.2.2l1,1.6-2.4,1.6c-.1.1-.3.2-.3.2,0,0-.4-.6-.6-.9l-.5.3,1.6,2.5.5-.3c-.2-.2-.2-.4-.3-.5-.1,0,.1-.1.2-.2"/>
  <path class="cls-1" d="M45.7,92.4l.4.5c.2-.1.3-.2.4-.2s.2-.1.2-.1c.1,0,.3.3.4.3l.8,1.1-1.2.9-1.1-1.4-.5.4,1.1,1.4-.9.7-1-1.2v-.3s0-.1.1-.1l.2-.3-.4-.5-.8,1,2.5,3.1.4-.3c-.1-.1-.2-.2-.2-.3-.07-.07-.1-.13-.1-.2q0-.1.1-.1l2.4-1.9c.07-.07.13-.1.2-.1.1,0,.1.1.3.4l.4-.3-2.6-3.3s-1.1.8-1.1.8Z"/>
  <path class="cls-1" d="M38.3,83.3l2.9-1h.2l.2.4.5-.2-1.3-4-1.3.1.2.6h.6c.1,0,.2.4.2.5l.4,1.3-1.4.5-.6-1.7-.6.2.6,1.7-1.1.4-.5-1.4v-.1s0-.1.1-.1l.1-.1.3-.2-.2-.6-1.1.7,1.3,3.8.5-.2c-.1-.2-.1-.3-.1-.3v-.2c0-.07.03-.1.1-.1"/>
  <path class="cls-1" d="M36.9,78.5c.5,0,.9-.6,1.2-1.5.1-.3.1-.6.2-.9.1-.4.2-.7.3-.8.1-.1.3-.2.4-.2s.2.1.3.2.1.3.2.6c0,.3,0,.8-.1,1s-.5.5-.9.7l.3.8c.5-.2.9-.4,1.3-.5.1-.8.2-1.1.1-1.8-.1-1-.3-1.4-.7-1.9-.3-.4-.7-.6-1.1-.6-.3,0-.6.2-.8.5-.2.2-.3.8-.4,1.2,0,.1-.1.3-.2.9-.1.4-.2.7-.3.8,0,.1-.1.1-.2.1-.2,0-.4-.2-.5-.6,0-.3-.1-1.5,0-1.6s.5-.3.8-.5l-.2-.7c-.5.2-.9.4-1.3.4-.1.7-.2,1-.1,1.7.1.8.3,1.5.5,1.9.4.6.8.8,1.2.8"/>
  <path class="cls-1" d="M86.4,59.6c.2.1.1.1,0,0,.2.2.3.2.3.2,0,0,.1.1.1.3v1.7l-3.3-2.9s-.5-.6-.5.4v4.5l1.2.4v-.9c-.3-.1-.2-.2-.3-.3s-.1-.2-.1-.4v-1.4l3.3,2.8s.5.3.5-.4v-4.5l-1.3-.3v.8s.1,0,.1,0Z"/>
  <path class="cls-1" d="M83.9,51.6v-.4h-.8v1.9h.8v-.4h0l.8.4v2c-.6.4-.8.4-.8.4v-.8h-.8v3h.8v-.4c0-.1.1-.1.2-.2l3.6-2.1v-1.3l-3.7-2-.1-.1M85.3,53.6l1,.5-1,.6v-1.1Z"/>
  <path class="cls-1" d="M83.9,65.3v-.4h-.8v1.9h.8v-.5h0l.8.4v2c-.6.4-.8.4-.8.4v-.8h-.8v3.1h.8v-.4c0-.1.1-.1.2-.2l3.6-2.1v-1.4l-3.8-2h0M85.3,67.2l1,.5-1,.6v-1.1Z"/>
  <path class="cls-1" d="M69.2,99.6l-.4-.7-1.6,1,.4.7c.2-.1.3-.2.3-.2h0l.1.9-1.7,1.1c-.6-.3-.8-.4-.8-.4l.7-.4-.4-.7-2.6,1.6.4.7c.2-.1.3-.2.4-.2s.1,0,.3.1l3.7,1.9,1.1-.7-.3-4.1v-.2c.1-.2.2-.3.4-.4M67,102.7l.9-.6.1,1.1-1-.5Z"/>
  <path class="cls-1" d="M55.7,100.4l-.5.6c.2.1.3.2.3.2h0l-.8.4-1.6-1.2c.1-.7.1-.9.1-.9,0,0,.6.5.7.5l.4-.6-2.5-1.8-.4.6c.2.1.3.2.3.3v.3l-.3,4.2,1.1.8,3.7-1.8h.2s.2.1.3.2l.5-.6-1.5-1.2ZM53,102.4l.1-1.2.9.6-1,.6Z"/>
  <path class="cls-1" d="M80.7,83.9s.1-.2.1-.4l-.7-.3-.8,1.7.7.3c.1-.2.1-.3.2-.3h0l.5.7-.7,1.7c-.7.1-.9.1-.9.1l.3-.7-.7-.3-1.2,2.8.7.3c.1-.2.2-.3.2-.4,0,0,.1-.1.3-.1l4.1-.5.5-1.2-2.5-3.3c-.1,0-.1-.1-.1-.1M81.9,87.1l-1.1.1.4-1,.7.9Z"/>
  <path class="cls-1" d="M86,77.4c0,.1-.1.1-.1.2,0,0-.2,0-.3-.1l-2.7-.7c-.1,0-.2-.1-.2-.1,0,0,0-.2.1-.5l-.6-.1-.6,2.2.6.1c0-.2.1-.2.1-.3s.1-.1.1-.1h.2l1.1.3-.5,2-1.1-.3c-.1,0-.1-.1-.2-.1,0,0,0-.2.1-.4l-.6-.2-.6,2.3.5.1c.1-.2.1-.3.1-.3,0-.1.1-.1.1-.2h.2l2.7.7c.1,0,.3.1.3.1,0,0,0,.2-.1.5l.6.2.6-2.3-.6-.2c0,.2-.1.2-.1.3s-.1.1-.1.1c0,0-.2,0-.3-.1l-.9-.2.5-2,.9.2c.1,0,.3.1.3.1,0,0,0,.2-.1.4l.6.2.6-2.3-.5.2c-.1.2-.1.3-.1.3"/>
</svg>