<?xml version="1.0" encoding="UTF-8"?>
<svg id="Capa_1" data-name="Capa 1" xmlns="http://www.w3.org/2000/svg" viewBox="0 0 226.85 226.8">
  <defs>
    <style>
      .cls-1 {
        fill: #24366c;
      }
    </style>
  </defs>
  <g>
    <path class="cls-1" d="M8.35,97.8l1.1-2.3c1.2.6,2.1,1.3,2.7,2.3.5.9.6,2.1.4,3.4-.2,1.6-1,2.8-2.2,3.7-1.2.9-2.7,1.2-4.8.9-1.9-.3-3.4-1.1-4.4-2.3-.9-1.2-1.3-2.7-1.1-4.4.3-1.5.9-2.7,1.9-3.4.6-.5,1.4-.9,2.4-.9l.3,2.5c-.6.1-1.2.2-1.7.6-.4.4-.6,1-.8,1.6-.1.9.1,1.7.6,2.4.6.6,1.5,1.1,3,1.4,1.4.2,2.6.1,3.3-.4s1.2-1.2,1.3-2.1c.1-.6,0-1.2-.4-1.7-.2-.5-.8-1-1.6-1.3Z"/>
    <path class="cls-1" d="M11.95,71.1c.6.1,1.3.3,1.9.5,1.9.6,3.2,1.7,3.8,3.1.7,1.4.7,3,.2,4.6-.7,1.7-1.7,2.9-3,3.6-.9.4-1.9.6-3,.4v-2.6c.8.1,1.5.1,2.1-.2.9-.3,1.6-.9,1.9-1.9.4-1,.3-1.8-.2-2.7-.4-.9-1.3-1.6-2.7-2-.4-.1-.8-.2-1.1-.3v-2.5h.1ZM10.15,82.9c.6.2,1.3.4,1.9.4v-2.6c-.4,0-.7-.2-1.2-.3-1.3-.5-2.2-1.2-2.6-1.9-.5-.9-.5-1.8-.2-2.7.4-.9.9-1.6,1.8-2,.6-.2,1.3-.2,2.2-.1v-2.6c-1.1-.1-2.1,0-3,.4-1.4.6-2.4,1.8-3,3.5-.3,1-.4,1.9-.4,2.7.1.6.2,1.2.4,1.9.4.6.7,1.2,1.2,1.7.7.6,1.7,1.1,2.9,1.6Z"/>
    <polygon class="cls-1" points="25.05 63.1 15.05 56.3 16.35 54.3 24.75 59.9 28.15 54.8 29.85 55.9 25.05 63.1"/>
    <polygon class="cls-1" points="36.95 46.9 28.15 38.3 34.55 31.7 35.95 33.2 31.25 37.9 33.35 39.9 37.55 35.5 38.95 36.9 34.75 41.3 37.15 43.6 41.85 38.8 43.35 40.2 36.95 46.9"/>
    <path class="cls-1" d="M54.65,25.6l-1.2-1.8,4.4-3,2.7,4c-.1.7-.5,1.5-1.1,2.4-.5.9-1.3,1.7-2.1,2.2-1.1.7-2.2,1.2-3.2,1.2-1.2.1-2.2-.1-3.1-.6-.9-.6-1.7-1.4-2.4-2.4-.7-1.1-1.2-2.1-1.3-3.3-.1-1.2.1-2.2.6-3.2.4-.9,1-1.5,2-2.2,1.2-.9,2.4-1.4,3.5-1.3,1.1,0,1.9.4,2.7,1.3l-1.7,1.7c-.5-.4-1.1-.6-1.7-.6s-1.2.1-1.7.6c-.9.6-1.4,1.4-1.5,2.3-.2.9.1,2,.9,3.1.8,1.2,1.7,1.9,2.7,2.1.9.3,1.8.1,2.7-.4.4-.4.7-.7,1.1-1.2.3-.4.6-.9.7-1.4l-.8-1.1-2.2,1.6Z"/>
    <polygon class="cls-1" points="72.05 21.2 67.25 9.9 69.55 8.8 74.35 20.2 72.05 21.2"/>
    <path class="cls-1" d="M89.65,2.4c1.2,0,2.2.2,3.2.9,1.3.9,2.2,2.2,2.6,4.2.4,1.9.2,3.5-.6,4.9-.8,1.4-2.1,2.2-3.8,2.7-.5.1-.9.1-1.4.1v-2.2c.2,0,.6-.1.9-.1,1-.3,1.7-.8,2.2-1.7s.6-1.9.2-3.3c-.3-1.4-.8-2.3-1.5-2.9-.6-.4-1.2-.6-1.7-.6l-.1-2h0ZM83.75,10.2c.5,1.9,1.4,3.3,2.7,4.1.9.6,1.9.9,3.2.9v-2.2c-.6-.1-1.2-.2-1.7-.6-.7-.6-1.3-1.5-1.5-2.9-.4-1.4-.3-2.5.1-3.4.5-.8,1.2-1.3,2.2-1.5.4-.1.6-.1.9-.1v-2.1c-.5,0-.9.1-1.4.1-1,.2-1.8.6-2.4,1.1-.5.3-1,.8-1.4,1.4-.3.6-.6,1.3-.7,1.9-.2.9-.2,2,0,3.3Z"/>
    <path class="cls-1" d="M118.15.2c.9.1,1.5.1,2,.3.6.3,1.3.6,1.8,1.2s.8,1.3,1.1,2.1c.2.7.3,1.7.2,2.9,0,1-.1,1.9-.5,2.7-.3.9-.7,1.6-1.4,2.1-.4.4-1,.7-1.7.9-.4.1-.9.1-1.5.2v-2.2c.3,0,.4,0,.6-.1.4-.1.6-.2.9-.4s.5-.6.6-1.2c.2-.6.4-1.3.4-2.2.1-1,0-1.7-.1-2.2s-.4-.9-.6-1.2c-.3-.4-.6-.5-1-.6-.1,0-.4-.1-.8-.1V.2h0ZM113.45,0l-.6,12.4,4.7.1c.2,0,.4.1.6.1v-2.2h-.9l-1.9-.1.4-8.2,1.1.1c.4,0,.9.1,1.2.1V.2h-.2l-4.4-.2Z"/>
    <polygon class="cls-1" points="134.65 14.8 137.45 2.7 146.25 4.9 145.75 6.9 139.45 5.4 138.75 8.1 144.65 9.4 144.15 11.5 138.25 10 137.45 13.3 144.15 14.9 143.65 17 134.65 14.8"/>
    <path class="cls-1" d="M167.75,23.5l1.7,1.9c-1,1-2,1.5-3.1,1.7-1.1.1-2.2-.1-3.3-.8-1.4-.9-2.2-2-2.6-3.5-.3-1.5,0-3.1,1-4.8.9-1.7,2.3-2.8,3.7-3.3,1.4-.4,3-.3,4.4.6,1.2.7,2,1.7,2.4,3,.1.8.1,1.7-.1,2.7l-2.4-.7c.1-.6.1-1.2,0-1.7-.2-.6-.6-1.1-1.2-1.4-.7-.4-1.5-.5-2.4-.2-.8.2-1.5,1.1-2.2,2.3-.9,1.3-1.2,2.4-1,3.3.1.8.6,1.5,1.4,2,.6.3,1.2.4,1.8.3.7-.3,1.4-.7,1.9-1.4Z"/>
    <polygon class="cls-1" points="177.05 35.6 185.05 26.3 186.85 28 178.85 37.3 177.05 35.6"/>
    <polygon class="cls-1" points="187.55 45.6 196.85 37.5 202.65 44.5 201.15 45.9 196.85 40.8 194.75 42.5 198.75 47.3 197.15 48.6 193.25 44 190.65 46.1 195.15 51.3 193.55 52.8 187.55 45.6"/>
    <polygon class="cls-1" points="200.35 62.3 211.25 56.9 212.25 59 207.35 67.2 214.55 63.6 215.55 65.6 204.65 71.1 203.55 68.9 208.45 60.9 201.45 64.4 200.35 62.3"/>
    <path class="cls-1" d="M215.55,89.2l-.1,2.5c-1.3,0-2.4-.4-3.2-.9-.9-.6-1.5-1.7-1.9-2.9-.4-1.6-.3-3.1.6-4.4.7-1.4,2.1-2.2,3.9-2.7,1.9-.6,3.6-.5,5,.2,1.4.6,2.3,1.9,2.7,3.6.4,1.4.4,2.7-.2,3.9-.3.6-1,1.3-1.8,1.8l-1.2-2.2c.6-.2.9-.7,1.2-1.2.2-.6.2-1.2.1-1.9-.2-.8-.7-1.4-1.4-1.8-.9-.4-1.9-.4-3.3,0-1.4.4-2.5,1-2.9,1.7-.5.7-.6,1.5-.4,2.4.1.6.6,1.2,1.1,1.4.2.4.8.5,1.8.5Z"/>
    <polygon class="cls-1" points="213.45 104.5 225.65 103.7 225.75 106.2 213.55 106.9 213.45 104.5"/>
    <path class="cls-1" d="M220.25,121l5.3,2.6-.3,2.6-5,1.6v-2.4l2.4-.7-2.4-1v-2.7h0ZM212.85,130.2l7.4-2.4v-2.4l-2.3.6.3-3.3,2,.9v-2.6l-6.6-3.2-.1,2.7,2.7,1.2-.4,4.9-2.9.9-.1,2.7Z"/>
    <path class="cls-1" d="M214.15,141.5l-.6,2.4c-.8-.1-1.4,0-1.9.3-.5.4-.9.8-1.1,1.6-.2.7-.3,1.4-.1,1.8.2.5.6.9.9,1,.3.1.5.1.8,0,.2-.1.6-.4.8-.6.1-.3.6-.9,1.2-1.7.7-1.2,1.4-1.9,1.9-2.4.9-.5,1.8-.6,2.7-.2.6.1,1.1.5,1.5,1.1.4.5.6,1.1.7,1.8.1.8-.1,1.6-.3,2.5-.5,1.4-1.2,2.4-2.2,3-.8.5-1.8.6-2.9.3l.6-2.4c.7.1,1.2.1,1.5-.1.4-.3.6-.7.9-1.4.3-.6.3-1.2.1-1.7-.1-.3-.2-.5-.5-.6s-.6-.1-.9.1c-.3.3-.8.9-1.4,1.9-.6,1.1-1.2,1.8-1.7,2.3-.4.4-1,.7-1.6.8-.5.2-1.3.2-2-.1-.6-.2-1.2-.6-1.7-1.2-.4-.6-.7-1.2-.8-2,0-.7.1-1.7.5-2.7.5-1.4,1.2-2.4,2.1-3,1-1,2.1-1,3.5-.8Z"/>
    <polygon class="cls-1" points="198.15 167.5 202.45 170.3 210.75 170.3 209.15 172.8 203.65 172.6 206.15 177.7 204.55 180.1 201.15 172.4 196.85 169.6 198.15 167.5"/>
    <polygon class="cls-1" points="183.85 185.1 192.25 194 190.45 195.6 187.15 192.2 183.65 195.5 186.95 199.1 185.25 200.8 176.75 191.9 178.55 190.1 182.25 194 185.75 190.6 182.05 186.8 183.85 185.1"/>
    <path class="cls-1" d="M172.85,209.7l-2.1,1.2-3.2-5.8c-.5-.9-.9-1.4-1.1-1.7-.4-.4-.7-.6-1.2-.6-.5-.1-1.1.1-1.7.4-.6.3-.9.7-1.2,1.2-.1.4-.2.8-.1,1.2.1.4.5,1,1,1.9l3.2,5.8-2.1,1.3-3.2-5.7c-.6-1.2-1.1-2.2-1.3-2.8-.1-.6-.2-1.2-.1-1.7.1-.5.4-1.1.8-1.6.4-.5,1-1,1.8-1.4,1.1-.6,1.9-.9,2.5-1,.6,0,1.2,0,1.7.2.6.1,1,.5,1.3.9.5.5,1.1,1.4,1.7,2.5l3.3,5.7Z"/>
    <polygon class="cls-1" points="147.35 208.6 150.55 220.6 146.95 221.6 142.65 214 142.75 222.8 139.25 223.8 135.95 211.9 138.25 211.3 140.75 220.7 140.45 210.7 142.75 209.9 147.65 218.7 145.15 209.3 147.35 208.6"/>
    <path class="cls-1" d="M119.55,217l2.2-.1.8-2.9,2.6-.2-3.7,12.7-1.9.2v-3.8l.4.8,1.3-4.7-1.7.1v-2.1h0ZM113.05,214.8l5.8,12,.6-.1v-3.8l-1.7-3.7,1.7-.1v-2.1l-2.5.3-1.3-2.7-2.6.2Z"/>
    <polygon class="cls-1" points="102.25 214.1 100.65 226.4 98.25 226.1 94.45 217.2 93.35 225.4 91.05 225.1 92.65 212.9 95.05 213.2 98.85 221.8 99.95 213.8 102.25 214.1"/>
    <polygon class="cls-1" points="80.95 209.4 77.05 221.1 74.75 220.3 78.55 208.6 80.95 209.4"/>
    <path class="cls-1" d="M61.55,214.8l-.9-.5v-3l3.7-6.6-1.5-.9c-.6-.3-1.1-.6-1.4-.6-.3-.1-.5-.1-.8-.1v-2.2c.3,0,.5.1.9.1.6.1,1.2.4,2,.9l4,2.3-6,10.6h0ZM60.55,214.3v-3l-.2.5-1-.6c-.9-.5-1.4-.9-1.7-1.1-.4-.4-.6-.6-.6-1.1-.2-.4-.2-.9-.1-1.4.2-.5.4-1.2.9-2.1.4-.8.9-1.4,1.3-1.8.4-.4.7-.6,1.2-.7h.3v-2.2c-.4,0-.8,0-1.1.1-.9.2-1.6.6-2.2,1.3-.6.5-1.2,1.2-1.7,2.1-.6,1-.9,1.9-1,2.7-.2.9-.2,1.6.1,2.3.1.8.4,1.4,1,1.9.4.4,1,.8,1.9,1.3l2.9,1.8Z"/>
    <path class="cls-1" d="M41.55,185.5l1.2,1.2-.9,2.8,3.7,3.2,2.5-1.5,1.9,1.7-8.5,4.8v-2.7l2.1-1.2-2.1-1.8.1-6.5h0ZM40.75,184.8l-4.2,12.6,1.9,1.7,3-1.6v-2.7l-2.1,1.2,1.6-4.6.5.4v-6.4l-.7-.6Z"/>
    <path class="cls-1" d="M26.15,170.2c.5-.1.9-.1,1.3,0,.6.1,1.2.4,1.8.9.5.3,1,.8,1.6,1.6l2.7,3.8-7.3,5.5v-3.2l4.2-3.2-1.1-1.4c-.4-.6-.7-1-.9-1.2-.4-.2-.6-.4-1-.4-.3-.1-.7-.1-1.2.1l-.1-2.5h0ZM23.75,183.8l2.4-1.8v-3.2l-2.2,1.7-.6-.9c-.6-.8-.9-1.4-1.1-1.7-.2-.4-.3-.8-.2-1.2,0-.4.2-.9.5-1.3.4-.4.8-.9,1.7-1.5.7-.6,1.4-1,1.9-1.2.1,0,.1-.1.1-.1v-2.4c-.4,0-.8.1-1.2.3-.7.2-1.4.6-2.3,1.2-.9.6-1.6,1.4-2,2.1-.5.6-.8,1.4-.9,2.2-.1.7-.1,1.4.2,2.2.2.4.6,1.2,1.2,2l2.5,3.6Z"/>
    <polygon class="cls-1" points="21.75 157.7 10.75 162.9 7.05 154.6 8.85 153.6 11.55 159.7 14.05 158.6 11.45 153 13.35 152.1 15.85 157.7 18.95 156.3 16.05 150.1 17.95 149.2 21.75 157.7"/>
    <path class="cls-1" d="M10.95,139.3l-.8-2.2c.7-.3,1.3-.8,1.5-1.3.3-.5.3-1.2.1-1.9-.1-.7-.4-1.3-.9-1.7-.4-.2-.8-.4-1.3-.2-.3,0-.5.1-.6.4-.1.1-.3.4-.3.9-.1.3-.1,1-.1,2.1,0,1.4-.1,2.4-.5,3-.4.9-1.2,1.4-2.1,1.7-.6.1-1.2.1-1.8-.2-.6-.1-1.2-.6-1.6-1.2-.4-.6-.8-1.3-.9-2.3-.4-1.5-.4-2.7.1-3.5.4-1,1.2-1.6,2.3-1.9l.6,2.4c-.6.2-.9.6-1.2.9-.1.4-.1,1,0,1.7s.4,1.3.8,1.6.6.3,1,.3c.2-.1.5-.3.6-.5.1-.4.2-1.3.2-2.5s.1-2.2.3-2.8c.1-.6.4-1.2.9-1.6.4-.5,1-.7,1.7-1,.7-.1,1.4-.1,2,.2.7.1,1.3.6,1.7,1.2.5.6.8,1.5,1.1,2.6.4,1.4.3,2.7-.2,3.7-.4,1-1.3,1.7-2.6,2.1Z"/>
    <polygon class="cls-1" points="36.15 133.3 63.35 188.6 144.05 188.4 189.25 130 117.25 38.5 103.75 55.9 179.95 126.9 145.25 186.2 171.35 125 81.05 49.5 81.45 74.4 162.35 124.9 144.75 185.6 153.45 124.5 53.15 70.5 53.15 96.5 144.05 125.8 144.05 185.4 135.25 127.2 37.55 101.2 49.75 123.9 126.15 130.2 144.05 187.8 117.35 133.3 36.15 133.3"/>
  </g>
  <path class="cls-1" d="M218.95,209.4c1.3,0,2.6.4,3.9,1,1.2.7,2.2,1.7,2.9,3s1.1,2.6,1.1,4-.4,2.7-1,4c-.7,1.3-1.7,2.3-3,3-1.2.7-2.5,1.1-3.9,1.1s-2.7-.4-3.9-1.1c-1.2-.6-2.2-1.7-2.9-3-.7-1.2-1.1-2.6-1.1-4s.4-2.7,1.1-4c.6-1.3,1.7-2.2,3-3,1.2-.7,2.5-1,3.8-1h0ZM218.95,210.7c-1.1,0-2.2.3-3.2.9-1,.6-1.8,1.4-2.4,2.4-.6,1.1-.9,2.2-.9,3.3,0,1.2.3,2.3.9,3.3.6,1.1,1.4,1.9,2.4,2.4,1,.6,2.1.9,3.2.9,1.2,0,2.2-.4,3.2-.9,1.1-.6,1.9-1.4,2.4-2.4.6-1,.9-2.2.9-3.3,0-1.2-.3-2.2-.9-3.3-.6-1.1-1.4-1.9-2.4-2.4-1.1-.6-2.2-.9-3.2-.9h0ZM215.45,221.7v-8.5h3c.9,0,1.7.1,2.1.2.5.1.9.4,1.1.8.3.4.4.9.4,1.3,0,.6-.2,1.2-.6,1.6-.5.5-1.1.8-1.8.8.3.1.6.3.7.5.4.3.8.9,1.2,1.7l1.1,1.7h-1.7l-.8-1.3c-.6-1.1-1-1.7-1.4-2-.2-.2-.6-.3-1.1-.3h-.8v3.6h-1.4v-.1ZM216.85,216.9h1.7c.8,0,1.4-.1,1.7-.4.3-.3.4-.6.4-1,0-.2-.1-.4-.2-.6-.1-.2-.4-.4-.6-.4-.3-.1-.7-.1-1.4-.1h-1.6v2.5Z"/>
</svg>