<?xml version="1.0" encoding="utf-8"?>
<!-- Generator: Adobe Illustrator 22.1.0, SVG Export Plug-In . SVG Version: 6.00 Build 0)  -->
<svg version="1.1" id="Layer_1" xmlns="http://www.w3.org/2000/svg" xmlns:xlink="http://www.w3.org/1999/xlink" x="0px" y="0px"
	 viewBox="0 0 126.5 141.3" style="enable-background:new 0 0 126.5 141.3;" xml:space="preserve">
<g>
	<path d="M90.3,69.1V40c0-0.1-0.1-0.2-0.2-0.2H34c-0.1,0-0.2,0.1-0.2,0.2v29.1v0.1c0.2,10.2,3.1,19.7,8.3,27.5
		c5.1,7.6,12.1,13,19.9,15.2h0.1c7.7-2.1,14.8-7.5,19.8-15.2C87.2,88.8,90.1,79.3,90.3,69.1L90.3,69.1 M89.2,68.9
		C89.2,69,89.2,69,89.2,68.9c-0.5,20.1-11.6,37.2-27.1,41.7C46.6,106.1,35.4,89.1,35,69v-0.1v-28h54.2V68.9z"/>
	<path d="M62,103.8L62,103.8C74.1,99.3,82.8,85,83.2,68.9c0-0.1,0-0.2,0-0.3V47.4c0-0.1-0.1-0.2-0.2-0.2H41.1
		c-0.1,0-0.2,0.1-0.2,0.2v21.1c0,0.1,0,0.2,0,0.3C41.3,84.9,50,99.3,62,103.8 M62.1,102.5c-11.4-4.5-19.6-18.3-20-33.7
		c0-0.1,0-0.3,0-0.3s0-16.2,0-19.6c0.1,0.3,0.2,0.5,0.4,0.7c0.3,0.5,1,1.8,1,1.8s0.1,0.6-0.2,0.7c-0.2,0.1,0.3,0.4,0.5,0.7
		c0.2,0.2,0.6,1,0.9,1c0.3,0.1,0.4-0.3,0.2-0.7s-0.7-1.4-0.7-1.4s-0.1-0.6-0.4-1.1c-0.2-0.6-0.5-1.3-0.5-1.3s1.3,0.3,1.5,1.1
		c0.1,0.3,0.5,2.2,0.9,3.3c0.2,0.6,0.6,1.1,1,1.7c0.4,0.6,1.4,1.5,2.5,1.8s2.4-0.4,3,0s1.6,1.4,2.3,1.7c0.7,0.2,2.7,0.6,3,1.4
		c0.4,0.8,1.4,0.9,1.8,1c0.5,0.1,2.1,0.7,2.1,2.2l-1.3,2.7c0,0-1,1-1.1,2c-0.2,1-0.6,1.5,0.3,3c1,1.4,1.6,3.2,1.7,4.5
		c0.1,1.3,1.3,1.4,2.1,2s0,1.1-0.5,2.3c-0.5,1.2-0.2,3.7-0.7,5.3c-0.5,1.6-1,2.2-1,3.4c0,1.3,0.1,2.7-0.4,3.8
		c-0.5,1.1-0.2,2.2-0.2,3.4c-0.1,1.2,0.2,2.7,1,3.7s2.7,1.5,2.4-0.1c-0.2-1.6,0.1-3.7,1-4.7l1-1c0,0-0.2-1.5,0.8-2.2s1.6-1.1,1-1.4
		c-0.6-0.2,0-0.8,0.6-0.8s0.8,0.2,2.1-1.3c1.3-1.5,1.7-1.8,3-2.6c1.3-0.7,1.8-2.2,2.6-3c0.8-0.8,2.2-1.5,3.1-1.7s1.4-1,1.4-2.1
		s-0.3-1.8,0.4-2.9c0.7-1.1,0.3-1.3,0.9-1.9C79.9,87.1,72.2,98.5,62.1,102.5 M82,68.5c0,0.1,0,0.2,0,0.3c0,0.6-0.1,1.3-0.1,1.9
		c-0.6-0.6-1.5-1-2.1-1.6c-0.6-0.7-1.5-1.2-1.8-1.4c-0.3-0.2-0.5-0.5-1.4-0.3s-1.6,0-1.8-0.9c-0.2-0.9-0.1-1.8-1-2.2
		c-0.9-0.5-1.4-1-2.1-1.5c-0.6-0.5-1.3-1.4-1.5-1.4c-0.2-0.1-1.9,0.1-1.9,0.1s-1-0.9-2.4-0.6c0,0-0.9-1.4-1.8-0.6
		c-1,0.7-1.8,1.2-2.3,0.5c-0.6-0.7-1.5-0.4-2.2-0.3c-0.6,0.1-1.2-1-1.4-1.5s0-1.2-0.2-1.2s-1.2,0.3-1.8-0.2s-0.3-1-0.1-1.4
		s0.6-2,0.4-2.3l-0.7-0.1c0,0-0.9-0.2-1,0.5c-0.2,0.6-1.3,1.3-2.2,1c-0.9-0.2-1.5-0.8-1.9-1.7c-0.3-0.9-0.2-1.4-0.1-1.9
		c0.2-0.5-0.6-1.4-0.8-1.6c-0.2-0.2-0.3,0.1-0.7-0.6c-0.3-0.4-0.6-0.8-0.9-1H82V68.5z"/>
	<path d="M46.5,16.7c-1.1-0.5-2.3-0.3-2.7,0.3c-0.3,0.3-0.4,0.4-0.5,0.5c-0.3,0-1.8-0.1-2.5,0.8c-0.3,0.5-0.4,1.1-0.1,1.8
		c1,2.6,1.1,3.1,1.1,3.1v0.1c0,0,1.7,1.7,1,3.2c-0.8,1.7-0.6,2.1,0.3,2.6c0.7,0.4,1.1,0.9,1.1,2.5v0.1c0,1.2,0,2.2,0.6,2.8
		c0.3,0.3,0.7,0.4,1.2,0.4c0.4,0,0.7-0.2,0.9-0.5c0.8-1,0.5-3.2,0.3-4.2c-0.2-0.9-0.7-3,0-3.5c0.8-0.6,1.1-0.7,1.5-0.3
		c0,0,0.1,0.1,0.1,0c0.3,0,1-0.3,1-1c0-0.3-0.1-0.5-0.2-0.7l0,0c0.1,0,0.2,0,0.3,0.1c0.5,0.1,0.9,0,1.2-0.4c0.3-0.3,0.3-0.8,0.1-1.2
		c-0.4-0.8-1.5-2.7-2.4-3.5l-0.3-0.2C48,19,48,19,48,18.6C48.2,17.9,47.6,17.2,46.5,16.7 M48.7,25.1c0,0.1,0,0.1,0.1,0.2
		c-0.9-0.4-1.7,0.3-2.2,0.6c-1.1,0.8-0.8,2.8-0.4,4.5c0.3,1.2,0.3,2.9-0.1,3.4c0,0.1-0.1,0.1-0.2,0.1c-0.2,0-0.4,0-0.5-0.1
		c-0.3-0.3-0.3-1.2-0.3-2.1v-0.1c0-1.9-0.4-2.8-1.6-3.4c-0.2-0.1-0.2-0.1-0.3-0.2c0-0.1,0.1-0.4,0.4-1.2c0.9-1.9-0.6-3.6-1-4.2
		c-0.1-0.4-0.4-1.2-1-3c-0.2-0.4-0.2-0.7,0-0.9c0.3-0.4,1.2-0.4,1.7-0.4c0.1,0,0.2,0,0.2,0c0.2-0.1,0.6-0.2,1.1-0.8
		c0.1-0.2,0.8-0.4,1.5,0c0.9,0.4,1.1,0.8,1,1c-0.1,0.9,0.1,1.1,0.8,1.7l0.3,0.2c0.7,0.7,1.8,2.5,2.1,3.2c0,0.1,0,0.1,0,0.1
		s-0.1,0-0.2,0c-0.4-0.1-0.9-0.2-1.3,0.2C48.5,24.5,48.6,25,48.7,25.1"/>
	<path d="M44.5,20.4c-0.5,0-0.9,0.4-0.9,0.9s0.4,0.9,0.9,0.9s0.9-0.4,0.9-0.9C45.4,20.7,45,20.4,44.5,20.4"/>
	<path d="M35.5,20.8c-0.2,0-3.8,1-3.8,3.4c0,2.5,2.4,2.6,2.4,2.6c0.1,0,0.1,0,0.2-0.1c0-0.1,0-0.1,0-0.2c-0.3-0.4-0.5-0.8-0.4-1.1
		c0.1-0.3,0.4-0.5,0.8-0.8c0.4-0.3,0.9-0.6,0.9-1.1c-0.2-1.1,0.3-2.6,0.3-2.6c0-0.1,0-0.1,0-0.2C35.7,20.8,35.6,20.8,35.5,20.8
		 M32.9,25.1c-0.1-0.2-0.2-0.5-0.2-0.9c0-0.9,0.9-1.5,1.8-2c-0.1,0.5-0.1,1,0,1.4c-0.1,0.1-0.3,0.2-0.4,0.2
		C33.7,24.1,33.1,24.4,32.9,25.1"/>
	<path d="M37.5,25C36,25.8,35,26.4,35,26.5c-0.1,0-0.1,0.1-0.1,0.2s0.1,0.1,0.1,0.1c0.5,0.1,4.7,1,5.5,0.9c0.4-0.1,1.3-0.4,1.7-1.3
		c0.3-0.8,0.1-1.7-0.6-2.8c-1.2-2.4-2-4.2-2-4.2c0-0.1-0.1-0.1-0.2-0.1c0,0-4,0.9-3.4,4.7c0,0.1,0.1,0.1,0.2,0.1h1.4
		c0.2,0.1,0.5,0.2,0.5,0.3C38.1,24.5,38.1,24.7,37.5,25 M39.1,24.3c-0.1-0.8-1-1.1-1.3-1.2c-0.1,0-0.1,0-0.2,0H37
		c0.1-1.6,1.2-2.3,2-2.7c0.3,0.7,0.9,2,1.7,3.6v0.1c0.4,0.6,0.8,1.3,0.5,1.9c-0.2,0.5-0.7,0.7-0.9,0.7c-0.3,0-1.4-0.1-3-0.5
		c0.2-0.1,0.4-0.2,0.7-0.4C38.3,25.7,39.2,25.2,39.1,24.3"/>
	<path d="M44.3,35.1c0-0.1-0.1-0.2-0.3-0.3l-0.9-0.5l0,0c0,0-0.5-0.1-1,0.4l-4.2,3.1c-0.1,0.1-0.5,0.4-0.4,0.7
		c0,0.1,0.1,0.2,0.4,0.3c0.6,0.1,2.5,0.3,2.6,0.3c0,0,0.9,0,1.3-0.4c0.3-0.4,2.3-2.6,2.3-2.7C44.1,35.9,44.4,35.5,44.3,35.1 M41,38
		c0,0-0.3,0.1-0.6,0.1L39.2,38l3.4-2.4l0.1-0.1c0-0.1,0.1-0.1,0.1-0.1l0.3,0.2C42.5,36.3,41.3,37.7,41,38"/>
	<path d="M42.6,39.2c0.7,0.1,1.6,0.2,1.7,0.2c0.1,0,0.7,0.1,1.1-0.8l1.1-2.1c0-0.1,0.2-0.4,0.1-0.6c0-0.1-0.2-0.3-0.4-0.3
		c-0.6-0.2-0.8-0.2-0.8-0.2s-0.7-0.2-1,0.3c-0.3,0.4-2.1,2.6-2.1,2.6c0,0.1-0.3,0.4-0.2,0.7C42.2,39.1,42.3,39.2,42.6,39.2
		 M44.3,38.4c-0.1,0-0.4,0-0.9-0.1c0.5-0.6,1.3-1.6,1.6-2c0,0,0.1,0,0.3,0.1c-0.3,0.5-0.9,1.8-0.9,1.8
		C44.4,38.3,44.4,38.4,44.3,38.4"/>
	<path d="M46.8,39.4h1.3c0.3,0,0.9-0.2,0.9-1v-2.3V36c0,0-0.3-0.4-0.8-0.4s-0.8,0-0.8,0s-0.5,0-0.7,0.5c-0.1,0.4-0.9,2.1-0.9,2.1
		s-0.2,0.4,0,0.8C46,39.3,46.3,39.4,46.8,39.4 M48,38.4L48,38.4h-1.2l0,0c0.2-0.4,0.6-1.3,0.8-1.8c0.1,0,0.3,0,0.5,0L48,38.4
		L48,38.4z"/>
	<path d="M53,39.2l1.2-0.1c0.1,0,0.2,0,0.3-0.2s0.1-0.4,0-0.7c-0.3-0.7-1.7-3.6-1.8-3.7l0,0c0,0-0.3-0.4-0.6-0.3l0,0l-0.8,0.5
		c-0.2,0.1-0.4,0.3-0.3,0.8c0.2,0.6,1,3.1,1,3.2l0,0C52.1,38.9,52.3,39.3,53,39.2 M52.1,35.4c0.3,0.7,1,2.1,1.3,2.8
		c-0.2,0-0.5,0-0.5,0l0,0C52.8,37.7,52.3,36.2,52.1,35.4L52.1,35.4z"/>
	<path d="M49.8,39.4c0.4,0,1.7-0.1,1.7-0.1s0.3,0,0.4-0.2c0.1-0.2,0.1-0.3,0-0.6l-1-3l0,0c-0.1-0.2-0.3-0.5-0.7-0.3
		c-0.3,0.1-0.8,0.2-0.8,0.3l0,0c-0.1,0-0.2,0.1-0.2,0.6c0,0.3,0.1,2.6,0.1,2.7C49.2,39,49.4,39.5,49.8,39.4 M50.2,38.4
		c0-0.8-0.1-1.7-0.1-2.1l0,0l0.7,2.1H50.2z"/>
	<path d="M55.5,39c0.5-0.1,1.2-0.2,1.3-0.2s0.4,0,0.6-0.3c0.1-0.2,0.1-0.6-0.1-1c-0.6-1.1-2.6-4.3-2.7-4.5c0,0-0.1-0.2-0.4-0.3
		c-0.2,0-0.3,0-0.5,0.2l-0.8,0.7c-0.2,0.1-0.4,0.5-0.2,1c0.3,0.6,1.9,3.9,1.9,4l0,0C54.8,38.7,55,39.1,55.5,39 M53.7,34.2
		c0.1-0.1,0.2-0.2,0.3-0.3c0.6,0.9,1.9,3.1,2.4,3.9c-0.2,0-0.6,0.1-0.9,0.1C55.3,37.5,54,34.9,53.7,34.2"/>
	<path d="M29.9,73.9c-2.1-1-4.1-0.2-4.1,1.7c0,4.4,9,3.7,7.5-3.8c-0.8-4.3-3.5-9.9-4.1-18C28.5,45.7,32.9,43,32.9,43v-2.1
		c-6.9,3.4-5.5,18.1-3.5,25C31.5,72.8,29.9,73.9,29.9,73.9"/>
	<path d="M98.4,75.6c0-1.9-2-2.7-4.1-1.7c0,0-1.5-1.1,0.5-8c2.1-6.9,3.4-21.7-3.5-25V43c0,0,4.4,2.7,3.7,10.8
		c-0.7,8.1-3.3,13.7-4.1,18C89.5,79.3,98.4,79.9,98.4,75.6"/>
	<path d="M27.2,80L23,83.5c-4.9-3.8-7,0.7-7,0.7c1.8-0.3,3.3,0.2,3.3,0.2c-3.8,1-2.8,3.4-2.8,3.4s3.9-2.3,5.5,0.3
		c2.1,3.4-0.5,6.1-0.5,6.1c6.4,0,4.3-8.6,4.3-8.6l5.7-5.6H27.2z"/>
	<path d="M107.4,84.2c0,0-2.1-4.5-7-0.7L96.1,80H92l5.7,5.6c0,0-2.1,8.6,4.3,8.6c0,0-2.6-2.7-0.5-6.1c1.6-2.7,5.5-0.3,5.5-0.3
		s0.9-2.4-2.8-3.4C104.1,84.3,105.6,83.8,107.4,84.2"/>
	<path d="M32.7,47.8l0.1-3.4c-0.1,0.7-0.7,1.2-1.3,1.5c-0.6,0.4-0.3,0.8-0.3,0.8C32.5,46.7,32.7,47.8,32.7,47.8"/>
	<path d="M32,56.7c0.2,2.3,0.9,1.5,0.9,1.5s-0.2-3.8-0.2-4.6c-0.1-0.7-2.3-0.4-2.4,0.4c0,0.8,0.4,4.1,0.4,4.1l0.7-0.1l-0.1-2.9
		C31.2,55.1,31.8,54.4,32,56.7"/>
	<path d="M32.5,64.7c0.6,0.8,0.7-3.1,0.5-3.8c0,0-1.7-0.5-1.5,0.4C31.6,62.2,31.8,63.7,32.5,64.7"/>
	<path d="M30.3,49.9c0,0.8,2.3,0.5,2.3,0.5v-1.2C32.6,49.1,30.3,48.8,30.3,49.9"/>
	<path d="M32.6,52.2V51c0,0-2.3-0.4-2.3,0.8C30.3,52.5,32.6,52.2,32.6,52.2"/>
	<path d="M38.9,94.3c0-0.4-0.3-0.7-0.7-0.7s-0.7,0.3-0.7,0.7c0,0.4,0.3,0.7,0.7,0.7C38.6,95,38.9,94.7,38.9,94.3"/>
	<path d="M93.3,86.6c-0.4,0-0.7,0.3-0.7,0.7c0,0.4,0.3,0.7,0.7,0.7c0.4,0,0.7-0.3,0.7-0.7S93.7,86.6,93.3,86.6"/>
	<path d="M91.6,87.6c0-0.4-0.3-0.7-0.7-0.7c-0.4,0-0.7,0.3-0.7,0.7c0,0.4,0.3,0.7,0.7,0.7C91.3,88.3,91.6,88,91.6,87.6"/>
	<path d="M89.4,88c0-0.4-0.3-0.7-0.7-0.7c-0.4,0-0.7,0.3-0.7,0.7c0,0.4,0.3,0.7,0.7,0.7S89.4,88.3,89.4,88"/>
	<path d="M31.6,100.5l0.4-4.3c0,0-0.4-0.8-1.6-0.2l-0.2,3.2c0,0-0.7,1.2-2.3-0.2l0.2-3.3c0,0-0.5-0.7-1.5-0.2l-0.3,4.4
		C26.3,99.9,28.4,102.7,31.6,100.5"/>
	<path d="M29.1,98.7c0.3,0,0.5-0.2,0.5-0.4l0.1-1.4c0-0.3-0.2-0.5-0.4-0.5c-0.2,0-0.5,0.2-0.5,0.4l-0.1,1.4
		C28.7,98.5,28.9,98.7,29.1,98.7"/>
	<path d="M37.6,101.4l0.3-4.1c0,0-0.3-0.8-1.5-0.2l-0.2,3.1c0,0-0.7,1.2-2.2-0.1l0.2-3.2c0,0-0.5-0.7-1.4-0.2l-0.2,4.2
		C32.6,100.8,34.5,103.5,37.6,101.4"/>
	<path d="M35.2,99.7c0.2,0,0.4-0.2,0.5-0.4l0.1-1.3c0-0.2-0.2-0.4-0.4-0.4S35,97.8,35,98l-0.1,1.3C34.8,99.5,35,99.7,35.2,99.7"/>
	<path d="M43,101.8l0.1-2.1c0,0-0.2-1.1-1.2-0.3l-0.1,1c0,0-0.6,0.8-0.5-0.6l0.1-1.3c0,0-0.3-0.4-0.7,0.2v1.7c0,0-0.3,0.3-0.8,0
		l0.2-2.4c0,0-0.3-1-1.3-0.2l-0.2,3.7C38.5,101.3,40,103.9,43,101.8"/>
	<path d="M29.2,92.8c0-0.4-0.3-0.7-0.7-0.7c-0.4,0-0.7,0.3-0.7,0.7c0,0.4,0.3,0.7,0.7,0.7C28.8,93.5,29.2,93.2,29.2,92.8"/>
	<path d="M32.7,93.3c0-0.4-0.3-0.7-0.7-0.7c-0.4,0-0.7,0.3-0.7,0.7c0,0.4,0.3,0.7,0.7,0.7C32.3,94,32.7,93.7,32.7,93.3"/>
	<path d="M35.4,93.7c0-0.4-0.3-0.7-0.7-0.7S34,93.3,34,93.7c0,0.4,0.3,0.7,0.7,0.7C35.1,94.5,35.4,94.1,35.4,93.7"/>
	<path d="M32,81.5V84l1.6,1.4C33.6,85.3,34.5,82.2,32,81.5"/>
	<path d="M34.4,88c-0.2,0.2-0.5,0.7-0.7-0.1c-0.2-0.9-0.9-0.8-1.3-0.8c-0.4,0-0.9,1.6-1.2,0.5c-0.3-1.1-0.5-1.6-1.8-1.4v2.6l6.6,1.5
		c0,0,0-1.8-0.3-2C35.3,87.9,34.5,87.7,34.4,88"/>
	<path d="M36.1,91.3c0,0-4.5-1.4-6.7-1.5v1l6.9,1.6C36.2,92.5,36.5,92.2,36.1,91.3"/>
	<path d="M97.4,99.9l-0.3-4.4c-1-0.5-1.5,0.2-1.5,0.2l0.2,3.3c-1.5,1.4-2.3,0.2-2.3,0.2L93.3,96c-1.3-0.6-1.6,0.2-1.6,0.2l0.4,4.3
		C95.3,102.7,97.4,99.9,97.4,99.9"/>
	<path d="M94.1,98.3c0,0.2,0.2,0.4,0.5,0.4c0.2,0,0.4-0.2,0.4-0.5l-0.1-1.4c0-0.2-0.2-0.4-0.5-0.4c-0.2,0-0.4,0.2-0.4,0.5L94.1,98.3
		z"/>
	<path d="M91.2,100.8L91,96.6c-1-0.5-1.4,0.2-1.4,0.2l0.2,3.2c-1.5,1.3-2.2,0.1-2.2,0.1L87.4,97c-1.2-0.6-1.5,0.2-1.5,0.2l0.4,4.1
		C89.2,103.5,91.2,100.8,91.2,100.8"/>
	<path d="M88.4,97.5c-0.2,0-0.4,0.2-0.4,0.4l0.1,1.3c0,0.2,0.2,0.4,0.4,0.4c0.2,0,0.4-0.2,0.4-0.4l-0.1-1.3
		C88.8,97.7,88.6,97.5,88.4,97.5"/>
	<path d="M82,100.3l-0.1-1c-1-0.8-1.2,0.3-1.2,0.3l0.1,2.1c3,2.1,4.4-0.5,4.4-0.5L85,97.5c-1-0.8-1.3,0.2-1.3,0.2l0.2,2.4
		c-0.5,0.3-0.8,0-0.8,0v-1.7c-0.3-0.6-0.7-0.2-0.7-0.2l0.1,1.3C82.5,101,82,100.3,82,100.3"/>
	<path d="M10,17.6c0.5-0.2,0.9-0.6,0.7-1.3l-2.1-5.4L8,11.1l2.1,5.2c0.2,0.4,0.1,0.6-0.2,0.8c-0.3,0.1-0.5,0-0.7-0.4l-2.1-5.2
		l-0.6,0.2l2.1,5.4C9,17.8,9.6,17.8,10,17.6"/>
	<polygon points="12.5,16.7 10.8,10.9 10.8,10.9 13.3,16.5 14.1,16.2 12.2,9.8 11.7,9.9 13.3,15.4 13.3,15.4 11,10.1 10.1,10.4 
		12,16.8 	"/>
	<polygon points="15.8,15.8 14.1,9.3 13.5,9.4 15.2,15.9 	"/>
	<polygon points="18.1,15.2 17.4,8.5 16.8,8.6 17.6,14.7 17.6,14.7 15.6,8.9 15,9 17.3,15.4 	"/>
	<polygon points="21.2,14.6 21.1,14.1 20.1,14.3 19.6,11.6 20.6,11.4 20.5,10.9 19.5,11.1 19,8.7 20,8.5 19.9,8 18.3,8.3 19.6,14.9 
			"/>
	<path d="M22.8,14.3l-0.6-3.2l0.4-0.1c0.3-0.1,0.5,0,0.5,0.3l0.5,2.8l0.6-0.1l-0.5-2.8c-0.1-0.5-0.4-0.5-0.8-0.5l0,0
		c0.5-0.1,0.6-0.3,0.5-0.8l-0.3-1.7C23,7.5,22.6,7.5,22,7.6l-1.1,0.2l1.2,6.6L22.8,14.3z M21.7,8.2L22,8.1c0.3,0,0.5,0,0.6,0.4
		l0.3,1.5c0.1,0.4-0.1,0.5-0.4,0.6l-0.4,0.1L21.7,8.2z"/>
	<path d="M24.6,9c0.1,0.3,0.2,0.6,0.4,0.8l1.1,1.4c0.2,0.2,0.2,0.4,0.3,0.6l0.1,0.9c0,0.3,0,0.5-0.3,0.6c-0.3,0-0.4-0.1-0.5-0.4
		L25.6,12L25,12.1l0.1,0.9c0.1,0.7,0.5,0.9,1.1,0.8c0.6-0.1,0.9-0.5,0.8-1.1l-0.2-1c0-0.3-0.2-0.6-0.3-0.8l-1.2-1.5
		c-0.1-0.2-0.2-0.4-0.2-0.6L25,8.1c0-0.3,0-0.5,0.3-0.5c0.3-0.1,0.4,0.1,0.4,0.4l0.1,0.8l0.6-0.1l-0.1-0.8c-0.1-0.6-0.4-0.9-1.1-0.8
		c-0.6,0.1-0.9,0.5-0.8,1.1L24.6,9z"/>
	<polygon points="28.9,13.4 27.9,6.7 27.3,6.8 28.2,13.4 	"/>
	<path d="M31.1,13.1c0.8-0.1,1-0.6,0.9-1.2l-0.6-4.5c-0.1-0.7-0.3-1.1-1.2-1l-1,0.1l0.8,6.7L31.1,13.1z M30.2,6.9
		c0.4,0,0.5,0.1,0.6,0.5l0.6,4.6c0.1,0.4-0.1,0.5-0.5,0.6h-0.3L29.9,7L30.2,6.9z"/>
	<path d="M33.6,10.9l1.1-0.1l0.5,1.8l0.6-0.1L34,6h-0.9l-0.2,6.8l0.6-0.1L33.6,10.9z M33.6,6.5L33.6,6.5l0.9,3.8l-0.9,0.1V6.5z"/>
	<path d="M37.6,12.4c0.8-0.1,1-0.5,0.9-1.2l-0.4-4.5C38,6,37.8,5.6,37,5.7l-1,0.1l0.6,6.7L37.6,12.4z M36.9,6.2
		c0.4,0,0.5,0.1,0.6,0.5l0.4,4.6c0,0.4-0.1,0.5-0.5,0.6h-0.3l-0.5-5.7H36.9z"/>
	<polygon points="41.9,12 41.4,6 41.4,6 42.6,11.9 43.5,11.9 43,5.2 42.5,5.2 42.9,10.9 42.9,10.9 41.7,5.3 40.8,5.3 41.3,12 	"/>
	<path d="M45.1,9.9l1.1-0.1l0.4,1.8h0.6L45.7,5h-0.8l-0.6,6.8h0.6L45.1,9.9z M45.4,5.5L45.4,5.5l0.7,3.8l-0.9,0.1L45.4,5.5z"/>
	<path d="M48.9,11.6c0.6,0,0.9-0.4,0.9-1v-1h-0.6v0.9c0,0.3-0.1,0.4-0.3,0.4c-0.3,0-0.4-0.1-0.4-0.4l-0.2-4.9c0-0.3,0.1-0.4,0.3-0.4
		s0.3,0.1,0.4,0.4v0.9h0.6V5.6c0-0.6-0.4-0.9-1-0.9s-0.9,0.4-0.9,1l0.2,5C47.9,11.3,48.2,11.6,48.9,11.6"/>
	<rect x="50.6" y="4.7" transform="matrix(0.9992 -4.039381e-02 4.039381e-02 0.9992 -0.2836 2.0626)" width="0.6" height="6.7"/>
	<path d="M53.6,11.4c0.8,0,1.1-0.5,1-1.2l-0.1-4.6c0-0.7-0.3-1.1-1.1-1.1s-1.1,0.5-1,1.2l0.1,4.6C52.5,11,52.7,11.4,53.6,11.4
		 M53.4,5.1c0.4,0,0.5,0.2,0.5,0.6l0.1,4.5c0,0.4-0.1,0.6-0.4,0.6c-0.4,0-0.5-0.2-0.5-0.6L53,5.7C52.9,5.4,53,5.1,53.4,5.1"/>
	<polygon points="56.3,11.3 56.2,5.3 56.2,5.3 57.1,11.3 58,11.3 57.9,4.5 57.3,4.5 57.5,10.3 57.4,10.3 56.6,4.6 55.7,4.6 
		55.8,11.3 	"/>
	<path d="M59.7,9.4h1.1l0.3,1.9h0.6l-1-6.7h-0.8L59,11.3h0.6L59.7,9.4z M60.2,5L60.2,5l0.5,3.9h-1L60.2,5z"/>
	<polygon points="64.1,10.7 63.1,10.7 63.1,4.5 62.5,4.5 62.5,11.2 64.1,11.2 	"/>
	<path d="M67,9.4h1.1l0.2,1.9h0.6L68,4.6h-0.8l-1.1,6.7h0.6L67,9.4z M67.6,5L67.6,5L68,8.9h-1L67.6,5z"/>
	<path d="M70.7,11.4c0.5,0,1.1-0.2,1.1-0.9L72,4.7h-0.6l-0.2,5.6c0,0.5-0.2,0.6-0.5,0.6s-0.5-0.2-0.4-0.6l0.2-5.6h-0.6l-0.2,5.8
		C69.6,11.2,70.2,11.4,70.7,11.4"/>
	<polygon points="73.4,11.5 74,11.5 74.3,5.3 75,5.3 75,4.8 73,4.7 73,5.2 73.7,5.3 	"/>
	<path d="M76.7,11.7c0.8,0.1,1.1-0.4,1.1-1.1L78.1,6c0-0.7-0.2-1.1-1-1.2c-0.8,0-1.1,0.4-1.1,1.1l-0.3,4.6
		C75.6,11.2,75.8,11.6,76.7,11.7 M76.3,10.5L76.5,6c0-0.4,0.1-0.6,0.5-0.6s0.4,0.3,0.4,0.7l-0.3,4.5c0,0.4-0.1,0.6-0.5,0.6
		C76.3,11.1,76.2,10.9,76.3,10.5"/>
	<polygon points="79.8,5.8 79.8,5.8 80.2,11.8 81.1,11.9 81.5,5.2 81,5.2 80.6,10.9 80.6,10.9 80.2,5.1 79.3,5 78.9,11.8 79.4,11.8 
			"/>
	<path d="M83.3,12.1c0.8,0.1,1.1-0.4,1.2-1l0.4-4.6c0-0.7-0.2-1.2-1-1.2c-0.8-0.1-1.1,0.4-1.2,1l-0.4,4.6
		C82.2,11.6,82.4,12.1,83.3,12.1 M82.9,10.9l0.4-4.5c0-0.4,0.1-0.6,0.5-0.6s0.4,0.3,0.4,0.7L83.8,11c0,0.4-0.1,0.6-0.5,0.6
		S82.9,11.3,82.9,10.9"/>
	<polygon points="86.6,6.1 86.6,6.1 86.7,12.4 87.5,12.5 88.8,6.4 88.8,6.4 88.2,12.5 88.7,12.6 89.4,5.9 88.5,5.8 87.2,11.7 
		87.2,11.7 87.1,5.7 86.1,5.6 85.5,12.3 86,12.3 	"/>
	<path d="M90.6,10.9l1.1,0.1v1.9l0.6,0.1l-0.2-6.8l-0.8-0.1l-1.8,6.6l0.6,0.1L90.6,10.9z M91.6,6.6L91.6,6.6v3.9l-0.9-0.1L91.6,6.6z
		"/>
	<polygon points="100.9,8 100.9,8 100.6,14.2 101.3,14.3 103.1,8.3 103.1,8.3 102,14.5 102.6,14.5 103.7,7.9 102.8,7.8 101.1,13.6 
		101,13.6 101.4,7.5 100.5,7.4 99.3,14 99.8,14.1 	"/>
	<polygon points="105.2,15.1 105.3,14.6 104.3,14.4 104.9,11.7 105.8,11.9 105.9,11.4 105,11.2 105.5,8.8 106.5,9 106.6,8.5 
		105,8.2 103.6,14.8 	"/>
	<polygon points="105.8,15.2 106.4,15.3 107.6,12.7 107.6,12.7 107.6,15.6 108.2,15.8 108.1,12.3 109.6,9.2 109,9 107.9,11.6 
		107.9,11.6 108,8.8 107.4,8.7 107.4,12.1 	"/>
	<polygon points="109.5,16.1 111.2,9.6 110.6,9.4 108.9,15.9 	"/>
	<path d="M111.5,16.7c0.6,0.2,1-0.1,1.2-0.6l0.3-0.9l-0.6-0.2l-0.3,0.9c-0.1,0.3-0.2,0.4-0.5,0.3c-0.2-0.1-0.3-0.2-0.2-0.5l1.5-4.7
		c0.1-0.3,0.2-0.4,0.5-0.3c0.2,0.1,0.3,0.2,0.2,0.5l-0.3,0.8l0.6,0.2l0.3-0.9c0.2-0.5,0-1-0.6-1.2s-1,0.1-1.2,0.6l-1.5,4.8
		C110.7,16.1,110.9,16.6,111.5,16.7"/>
	<path d="M114.2,17.7c0.8,0.3,1.2,0,1.4-0.6l1.7-4.2c0.3-0.6,0.2-1.1-0.6-1.5c-0.8-0.3-1.2,0-1.4,0.6l-1.7,4.2
		C113.3,16.8,113.4,17.4,114.2,17.7 M114.2,16.4l1.7-4.2c0.1-0.4,0.3-0.6,0.7-0.4c0.4,0.1,0.3,0.4,0.2,0.8l-1.7,4.2
		c-0.1,0.3-0.3,0.6-0.7,0.4C114,17.1,114,16.8,114.2,16.4"/>
	<path d="M3.5,15.9C4.7,17.6,5,18,5,19.3v0.4c0,1,0,2.2,0.8,3c0.7,0.7,1.7,1,3.3,1c1.2,0,2.8-0.3,4.7-0.7c2.9-0.6,6.5-1.2,9.8-1
		c-0.8,0.8-3.2,2.7-8.3,2.2c-5-0.5-10.4-0.7-12.3,1.9c-1,1.4-0.8,3.6,0.5,6.4c0,0.1,0.1,0.1,0.2,0.1c0,0,3.9-1.4,3-5.6
		c1.5,0.1,3,0.6,4.5,1.1c0.3,0.1,0.7,0.2,1,0.3c-3.1,0.9-5.7,2.2-5.7,3.6c0,0.9,1,1.2,3.2,2.2c2.4,1.1,4.6,1.9,6.7,2.9
		c5.8,2.9,10,5.4,10.7,4.8c0.8-0.8-13.1-6.3-9.8-11.1c1.8-2.7,4.9,0.9,2.4,1.4c-2.5,0.6,3.6,6.8,10.8,8.9c0,0,1.3-1.3,2.3-1.8
		c0,0,1.1-0.8-0.5-1.2c-1.6-0.4-11.4-3.4-7.4-7.2c1.2-1.1,1.3-1.9,0.8-2.4c1.4-0.5,2.6-1.2,3.4-2.1c0.8-0.8,1.3-1.8,1.3-2.7
		c0-2.6-3.2-6.1-4.4-7.3c9.4-1.5,21.7-2.5,36.1-2.5c14.8,0,27.5,1.1,37,2.7c-1.2,1.2-4.5,4.8-4.5,7.4c0,0.9,0.4,1.8,1.3,2.7
		c0.6,0.6,1.3,1.1,2.2,1.5c-1,0.6-1.6,1.3-1.6,1.8c0,2.2,2,2.9,2,2.9c0.3,2.5-5.8,5.3-7.5,6c0.4,0.2,1.2,0.5,2.1,1.1
		c5.8-1.7,7.3-4.7,8.5-6.2c1.3-1.7-2-0.8-2-2.5s5-2.9,4,1.7c-0.9,4.2-6.9,6.8-9.5,7.7c0.3,0.3,0.7,0.6,1,1c0.1,0.2,0.5,0.8,0.7,0.7
		c0.3-0.1,0.1-1,0.6-0.9s0.9,0.3,1.1-0.2s0.2-1,0.6-0.7s0.5,0.5,0.9,0.4c0.4-0.2-0.3-1.3,0.6-1s1-0.2,0.8-0.7s0.4-0.2,1,0.2
		s0.7-0.4,0.3-0.8c-0.3-0.5,0.1-0.8,0.6-0.3s1.5,0.4,0.8-0.4c-0.7-0.7,0.1-1.4,0.9-0.8c0.8,0.6,0.7,0.2,0.2-0.5
		c-0.4-0.7-0.1-1,0.9-0.4s1.6,0.4,0.6-0.4c-1-0.8-0.6-1.4,0.5-0.8c1.1,0.6,2.4,0.9,1.2-0.1c-1.2-1.1-1.6-1.8-0.1-1.1
		c1.4,0.7,2.5,0.6,0.4-0.7c-2.2-1.3,1.1-0.1,1.9,0.5s0.9-0.4-0.6-1.2s-0.6-1.1,1.4-0.1c1.9,1,1.9,0.1,0.3-0.5
		c-1.6-0.6-2.3-1.8-0.3-0.8s4,1.1,2,0.1c-0.9-0.5-1.6-0.8-1.8-1.1c0.6-0.2,1.3,0,2.7,0.9c2.6,1.8,0.1,3.8-2.2,4.7
		c-3.3,1.3-4.7,2.6-8.2,5.1c-2.1,1.5-4.9,2-6.8,2.1c0.2,0.4,0.4,0.8,0.5,1.2c3.1-0.1,6.6-1.1,8.8-2.5c2.9-1.7,7.8-4.5,11.3-5.4
		c2.8-0.7,5.4-2.1,1.2-5.1c-1.5-1-2.9-1.9-4.3-2.5c0.1,0,0.2-0.1,0.2-0.1c1.6-0.5,3-1,4.5-1.1c-0.8,4.3,3,5.6,3,5.6
		c0.1,0,0.2,0,0.2-0.1c1.3-2.8,1.5-4.9,0.5-6.3c-1.9-2.6-7.2-2.4-12.3-1.9c-5.7,0.6-8.1-1.9-8.5-2.4c0.6-0.1,1.4-0.1,2.1,0
		c1.6,0.1,3.4,0.4,5.1,0.7c4.1,0.7,8.4,1.4,10.3-0.1c0.6-0.5,1-1.1,1-2c0.2-1.8,1.1-3.4,1.9-4.7c0.9-1.4,1.6-2.7,1.2-3.8
		c-0.2-0.7-1-1.4-2.2-1.9c-5.5-2.4-14-4.6-23.8-6.1C86,2.6,73.8,1.7,61.6,1.7c-23.4,0-45.1,3-56.8,7.7c-0.1,0-2.3,0.8-2.9,2.4
		c-0.3,0.8-0.1,1.6,0.5,2.5C2.9,14.9,3.2,15.5,3.5,15.9 M5.2,10.3L5.2,10.3c11.6-4.7,33.2-7.7,56.5-7.7c28.5,0,49.4,4.6,58.6,8.6
		c0.9,0.4,1.5,0.9,1.7,1.3c0.2,0.7-0.4,1.7-1.1,3c-0.9,1.5-1.8,3.1-2.1,5.1c-0.1,0.6-0.3,1-0.7,1.3c0,0,0,0-0.1,0
		c-0.1-0.3-0.3-0.6-0.6-1c-3.9-3.9-27.6-8.2-55.4-8.2c-14.2,0-28.3,1.1-39.5,3.1c-5,0.9-9.1,1.9-12,3c-2.4,0.9-3.9,1.8-4.3,2.7
		C6,21,6,20.3,6,19.7v-0.4c0-1.7-0.4-2.2-1.6-4c-0.3-0.4-0.7-1-1.1-1.7C2.9,13,2.8,12.5,3,12C3.2,11.2,4.7,10.5,5.2,10.3
		 M108.5,21.8c-1.8-0.3-3.6-0.6-5.2-0.7c-4-0.3-6.4,1.2-7.7,2.4c0.3-2,3-5.1,4.7-6.8c9,1.6,14.8,3.5,16.4,5.1
		c0.2,0.2,0.3,0.4,0.3,0.5s0,0.1-0.1,0.2C115,22.9,111.6,22.3,108.5,21.8 M100,22.5l0.4,0.2c0.5,0.6,3.2,3.4,9.4,2.7
		c2.6-0.3,8.2-0.9,10.6,0.8c-2.5-0.4-4.7,0.4-7,1.1c-0.4,0.1-0.9,0.3-1.3,0.4c-5.4-2.1-10.1-1.5-12.9-0.3c-1.2-0.5-2-1.1-2.6-1.7
		c-0.4-0.4-0.6-0.7-0.8-1.1c0.6-0.8,1.9-1.9,4.1-2.4C99.9,22.4,99.9,22.4,100,22.5 M119.2,27.1c0.7,0,1.4,0.1,2.2,0.3
		c0.4,1,0.2,2.4-0.5,4.1C119.9,31,118.6,29.7,119.2,27.1 M29.1,22.8c-4.6-2.7-10.9-1.5-15.6-0.7c-1.8,0.3-3.4,0.6-4.5,0.6
		c-0.8,0-1.5-0.1-2-0.3c0,0,0-0.1,0-0.2c0-0.1,0.1-0.2,0.3-0.5c1.6-1.6,7.8-3.6,17.3-5.2C26.1,18.1,28.5,20.8,29.1,22.8 M24.5,27.8
		c-2-0.6-5.4-0.5-7.4-0.3c-1,0.1-2,0.3-3,0.5c-0.9-0.2-1.7-0.5-2.6-0.8c-2.3-0.8-4.5-1.5-7.1-1.1c2.4-1.7,8.1-1.1,10.6-0.8
		c6.1,0.7,8.9-2.1,9.4-2.7l0.4-0.2l0,0c1.6,0.3,3.1,0.8,4.3,1.8C29,25.5,27.3,26.9,24.5,27.8 M4,31.4c-0.7-1.7-0.9-3.1-0.5-4.1
		C4.3,27.1,5,27,5.7,26.9C6.3,29.5,5,30.8,4,31.4"/>
	<path d="M65.5,35.7L65.5,35.7L65.5,35.7c-0.1,0.1,0.2,3.3,3.8,3.3c3.2,0,6.1-2.6,6.8-3.2c0.4,0.7,2.2,3.3,3.7,3.1
		c0.6-0.1,1.2-0.6,1.5-1.6c0.5,0.5,1.8,1.7,3.4,1.6c1.3-0.1,2.6-1,3.6-2.8c0-0.1,0-0.1,0-0.2c0,0-0.1-0.1-0.2,0c0,0-3.1,0.9-5-0.5
		c-1-0.8-1.5-2-1.5-3.8c0-2.7,0.2-4.3,0.5-5.3c0.9,0.5,1.9,0.8,3.1,0.9c3.4,0.1,4.1-2,4.1-2.1c0,0,0-0.1,0-0.2l-0.1-0.1
		c-1.1,0.2-2,0.1-2.4-0.1c1.6-0.5,2.7-0.5,3.3,0c0.6,0.5,0.4,1.5,0.4,1.5c0,0.1,0,0.1,0.1,0.2c0.1,0,0.1,0,0.2,0
		c1.2-1.3,1.7-2.4,1.3-3.4c-0.5-1.6-3.1-2.3-5.6-2.8c-3.5-0.7-4.8-4.5-4.8-4.6c0,0,0-0.1-0.1-0.1h-0.1c-0.9,0.5-1.5,1-2,1.6
		l-2.3-2.6l-0.1-0.1c0,0-0.1,0-0.1,0.1s-1,1.2-0.4,3.1c-0.5-0.5-1.1-1.3-1.1-2.2c0-0.1,0-0.1-0.1-0.1s-0.1,0-0.2,0
		c0,0-2.4,2.2-0.1,5.6c-0.5,0.2-2.4,0.7-6-0.3H69l-0.1,0.1c0,0.1-0.3,1.3,0.5,2.3c0.7,0.9,2,1.4,3.7,1.5c-0.6,0.4-2.2,1.2-5.5,0.3
		c-0.1,0-0.1,0-0.1,0c-0.1,0-0.1,0.1-0.1,0.2c0,0,1,4,6,3.3c-1,0.9-3.8,3-7.5,1.9h-0.1l-0.1,0.1c0,0.1,0.1,2.3,1.8,3.2
		c1.4,0.8,3.6,0.4,6.4-1.3C73.4,33.5,71.7,36.3,65.5,35.7 M74.1,25c0.2-0.2,0.2-0.6,0.1-0.9s-0.4-0.5-0.7-0.5
		c-1.6,0-2.8-0.4-3.4-1.1c-0.2-0.2-0.3-0.4-0.3-0.6c4,0.9,5.7,0,5.9-0.1c0.2-0.1,0.3-0.3,0.4-0.6c0.1-0.2,0-0.5-0.1-0.7
		c-1-1.3-1.1-2.3-0.9-3.1c0.6,0.9,1.3,1.5,1.3,1.5c0.3,0.2,0.7,0.2,1,0s0.4-0.6,0.2-1c-0.3-0.6-0.4-1.2-0.3-1.7l1.6,1.8
		c-0.1,0.2-0.1,0.3-0.2,0.5c-0.3,1.1,0.1,2,0.3,2.3c-2.7,1.8-2.8,3.4-2.7,4.2c-0.3,0.5-1.4,1.9-3.4,2.3c-2,0.2-3.2-0.5-3.9-1.2
		C72.6,26.8,74,25.1,74.1,25 M81.1,17.1c0.3,0.5,0.7,1.2,1.2,1.8L81,19l-0.9-1C80.3,17.7,80.7,17.4,81.1,17.1 M90.9,24.4
		c-0.1-0.1-0.2-0.3-0.3-0.4c-1-0.8-2.5-0.8-4.7,0c-0.3,0.1-0.5,0.4-0.5,0.7c0,0.3,0.2,0.6,0.5,0.8c0.1,0,0.5,0.2,1.3,0.3
		c-0.5,0.2-1.1,0.3-1.9,0.3c-1,0-1.9-0.4-2.7-0.8c0.3-0.5,0.7-0.8,1.2-1.1c0.1-0.1,0.3-0.2,0.4-0.3c0.8-0.6,1.4-1.8,1.9-2.8
		c0.1,0,0.2,0.1,0.3,0.1c1.3,0.3,4.5,0.9,4.8,2.1C91.2,23.7,91.1,24,90.9,24.4 M86.1,37.3c-0.5,0.4-1,0.7-1.6,0.7
		c-1.5,0.1-2.8-1.4-2.8-1.4c-0.1-0.1-0.3-0.2-0.4-0.3c-0.2-0.5-0.5-1.2-0.7-2c0.1,0,0.2,0,0.3,0c0.3,0.9,0.8,1.6,1.5,2.1
		C83.7,37.1,85.1,37.3,86.1,37.3 M79.7,19l0.6,0.7c0.2,0.2,0.4,0.3,0.6,0.3c0,0,0.5,0,1.1-0.1c-0.1,0.4-0.3,0.6-0.5,0.8
		c-0.4,0.3-1,0.2-1.5,0c0-0.1,0-0.1-0.1-0.2C79.9,20.6,79.5,19.9,79.7,19 M83.5,23.2c-0.1,0.1-0.3,0.2-0.4,0.3
		c-0.6,0.4-1.1,0.8-1.4,1.4c-0.1-0.1-0.3-0.2-0.4-0.3c0.4-0.6,1.1-1.2,1.9-1.6c1.1-0.5,1.2-1.7,1.1-2.4c0.2,0.1,0.5,0.2,0.7,0.4
		C84.6,21.8,84.1,22.8,83.5,23.2 M77,35.4c-0.2-0.1-0.6-0.5-0.5-2.4c0.7-0.4,1.2-1,1.5-1.4c-0.1,0.9,0.1,1.6,0.6,2.1
		c0.1,0.1,0.2,0.2,0.4,0.3C78.4,34.7,77.5,35.6,77,35.4 M76.9,29.1L76.9,29.1c0.1,0,1-0.3,1.6-1c0,0.2,0,0.5,0.1,0.9
		c-1.4,2.3-2.6,3.3-3.3,3.3C75.3,31.9,76,30.5,76.9,29.1 M80.7,33.1c-0.5,0.1-0.9,0-1.1-0.2c-0.6-0.6-0.3-2.2,0-3.3
		c0.3-0.1,0.7-0.2,1-0.3c0,0.7-0.1,1.5-0.1,2.4C80.6,32.2,80.6,32.6,80.7,33.1 M79.7,21.7c0.6,0.2,1.4,0.3,2.1-0.1
		c0.4-0.2,1-0.7,1.2-1.8c0.1,0,0.1,0,0.2,0l0.1,0.2v0.1c0,0,0.3,1.5-0.6,1.9c-1,0.5-1.7,1.1-2.2,1.9c-0.3-0.3-0.4-0.5-0.5-0.5
		c-0.2-0.3-0.6-0.4-0.9-0.2c-0.3,0.1-0.4,0.3-0.5,0.6c0,0.1-0.3,0.3-1.3,0.6C77.4,23.9,77.9,22.9,79.7,21.7L79.7,21.7 M79.8,34.8
		c0.2,0.6,0.4,1.3,0.7,1.8c0,0.1-0.1,0.1-0.1,0.2c-0.2,0.7-0.5,1.2-0.8,1.2c-0.5,0.1-1.3-0.7-2.1-1.7C78.4,36,79.2,35.6,79.8,34.8
		 M79.6,28.4c-0.1-0.4-0.4-1.6-0.2-2.6c0-0.1,0-0.1-0.1-0.2c-0.1,0-0.1,0-0.2,0c0,0-1,1-1.8,1.6C77.2,27,77,26.5,77,25.5
		c0,0,0-0.1,0.1-0.1c1.6-0.4,2.1-0.9,2.3-1.2c0.3,0.3,0.9,0.9,1.8,1.5c-0.2,0.5-0.3,1.2-0.4,2.1C80.5,28.1,80.2,28.3,79.6,28.4
		 M74.4,28.8c0.1-0.2,0.2-0.4,0.2-0.6c0.3-0.1,0.9-0.4,1.4-1c0.1,0.3,0.1,0.6,0.3,0.9c-0.7,1.4-1.7,2.6-2.3,3.2
		c-0.1,0-0.2,0.1-0.3,0.1C71,33,69,33.5,67.9,32.9c-0.5-0.3-0.8-0.8-1-1.3C71.3,32.2,74.3,28.9,74.4,28.8 M74.5,33.1
		c0.3,0.1,0.6,0.2,0.9,0.2c0,0.3,0.1,1,0.3,1.6c-0.1,0-0.2,0.1-0.3,0.2c0,0-3.1,3.1-6.2,3.1c-1.6,0-2.3-0.7-2.7-1.4
		C72,37,73.9,34.5,74.5,33.1"/>
	<path d="M11.8,97.7c0.1-0.5,0.1-1-0.2-1.1S11,96.8,10.9,97l0,0l0,0c0,0-0.4,0.9-1.8,0.8c-0.9,0-1.8,0.4-2.3,1.1
		c-0.3,0.5-0.4,1-0.2,1.4c0.4,0.8,1,1.3,1.3,1.2c0.1,0,0.3-0.1,0.2-0.5v-0.2c0-0.2-0.1-0.4-0.1-0.5c0,0,0.1,0,0.3,0.1
		c0.5,0.3,1,0.3,1.2,0.1c0.1-0.1,0.3-0.3,0.2-0.7c-0.1-0.2-0.1-0.4-0.2-0.5c0-0.2,0-0.3,0-0.3s0.1-0.1,0.6-0.1
		C11.3,98.7,11.7,98.7,11.8,97.7 M8.4,99.2c-0.1,0-0.1,0-0.2,0C8.3,99.2,8.3,99.1,8.4,99.2C8.4,99.1,8.4,99.1,8.4,99.2"/>
	<path d="M123.9,96.5c-0.3-0.1-0.5-0.2-0.7-0.4c-0.3-0.3-0.6-0.5-1.5-0.5c-0.4,0-0.7,0.1-0.8,0.4c-0.3,0.4-0.2,1.1,0.4,2.2
		c0.1,0.3,0.2,0.4,0.2,0.6c-0.6-0.2-1.1-0.3-1.7-0.6c-0.4-0.2-0.7-0.2-1,0c-0.6,0.4-0.7,1.8-0.7,3.2c-1.5,0.1-2.8,1.2-3.7,2
		c0-0.6-0.1-1.2-0.4-1.6c-0.2-0.2-0.6-0.3-1.1-0.3s-1.1,0.2-1.8,0.6c0-0.3,0-0.7-0.1-0.9c-0.1-0.2-0.3-0.4-0.6-0.5
		c-0.4-0.1-1.1-0.1-1.6,0.4c-0.2,0.2-0.3,0.5-0.2,0.8c0.1,0.5,0.7,1.1,1.3,1.3c-0.1,0.1-0.1,0.2-0.2,0.3c-0.3,0.4-0.4,0.8-0.3,1.2
		c0.2,0.7,1.2,1.2,2.3,1.6c-1.3,1.3-2.9,2.4-4.6,1.9c-0.3-0.3-2-2.1-5.4-1.3l-0.4,0.1c-3.3,0.8-6,1.4-7.3,4.7
		c-0.4,1-0.8,1.5-1.1,1.9c-0.8,1-1.4,1.8-2,8c-0.5,0.2-3,1-4.6,1.9c-0.3,0.1-0.7,0.2-1.1,0.2c-0.8,0.1-1.8,0.1-3,1.5
		c-0.7,0.5-1.1,0.5-1.5,0.4s-0.9-0.2-1.6,0.4c-0.5,0.3-0.9,0.3-1.2,0.3c0.2-0.5,0.9-2,2.2-2.3c1.3-0.3,4.5-1.3,5.8-3l0,0
		c0.5-1,1.2-1.5,1.7-1.9c0.7-0.5,1.3-1,0.9-2c-0.3-0.7,0-1.5,0.3-2.3s0.5-1.5,0.1-2c0.6-0.2,1.8-0.6,2.1-1.2
		c0.1-0.2,0.1-0.4,0.1-0.6c-0.1-0.3,0-0.8,0.1-1.3c0.2-0.8,0.4-1.7,0-2.2c-0.2-0.2-0.5-0.4-0.9-0.4c-0.1-0.2-0.4-0.8-1-0.9
		c-0.5-0.1-1,0.1-1.5,0.6c-0.3-0.1-1-0.3-1.5,0c-0.3,0.2-0.5,0.6-0.5,1.2l-1,1.6c-0.4-0.1-1.6-0.2-3.7,1.2l-0.9,0.5
		c-2.1,1.3-3.8,2.4-4.4,4.9c-0.3,1.3-0.5,2-0.6,2.3c-0.1-0.1-0.3-0.2-0.5-0.3c-0.5-0.3-1.1-0.5-1.6-0.8c-1-0.4-1.8-0.8-2.3-1.5
		c-1.1-1.5-2.7-1.6-4.6-0.3c-2.3,1.4-4,1.2-6.4,0.2c-0.4-0.2-0.9-0.3-1.4-0.5c-2.6-1-6.1-2.3-7.4-4.1c-0.2-0.3-0.5-0.7-0.7-1
		c-1.1-1.7-2-3-4.3-3.1c-0.2-0.1-1.7-0.7-3.4,0.6l0,0c0,0-0.1,0.1-0.2,0.1c-0.1,0-0.2,0-0.3-0.2c-0.6-0.6-1-0.7-2.2,0.1
		c-0.1,0.1-2,1.5-2.7,2.9c-0.1-0.1-0.2-0.1-0.2-0.2c-0.9-2-1.8-3.2-2.8-3.5c-0.8-0.2-1.5-1-2.2-1.8c-0.4-0.5-0.8-1-1.3-1.4
		c-0.4-0.4-0.8-0.5-1.2-0.5c-0.7,0.1-1.3,0.8-1.9,1.6l-0.2,0.2c-0.7,0.8-1.8,1.7-2.8,2.5c-0.4,0.3-0.8,0.6-1.1,0.9
		c0,0-0.1,0-0.1,0.1c-0.5-0.3-0.8-0.6-0.9-0.9c-0.5-1.4-1.7-3-2.3-3.8c0.2-0.9,0.1-1.8-0.5-2.5c0.7,0,1.2-0.4,1.7-1.3
		c0.2-0.4,0.2-0.8,0.1-1c-0.3-0.5-1-0.7-2.3-0.8c-1,0-2,0.8-2.5,1.4c-0.6,0-1.3,0.1-2.2,0.4c0.1-0.5,0-0.9-0.4-1.2
		c-1.5-1.2-3.8,1-4.9,2.1c-0.8,0.8-0.9,1.7-0.8,2.2l0,0c-0.1,0-0.1,0-0.2,0.1c0,0-0.2,0-0.3-0.1c-0.3-0.1-0.8-0.2-1.3-0.2
		c-0.2-0.9-0.8-2.6-2.1-2.5c-0.2,0-0.3,0-0.5,0.1c0-0.1,0-0.2,0-0.4c0-0.4-0.2-0.8-0.5-1.1c-0.3-0.3-0.7-0.4-1.1-0.4
		c-0.9,0-1.5,0.7-1.5,1.5c0,0.4,0.2,0.8,0.5,1.1c0.1,0.1,0.2,0.2,0.3,0.2c-0.3,0.2-0.6,0.5-0.7,0.8s-0.1,0.8,0.4,1.3
		c0.4,0.4,1,0.9,1.6,1.4c-0.2,0.4-0.3,0.9-0.4,1.5c0,0,0,0,0,0.1c-0.3,0.1-0.8,0.4-0.8,0.9c0,0.4,0.4,0.8,0.7,1c0,0.7,0,1.5,0.1,2.2
		c-0.2,0.3-0.4,0.7-0.1,0.9c0.1,0.1,0.3,0.2,0.5,0.3c0.1,0.1,0.2,0.2,0.2,0.3c0.3,0.3,0.6,0.7,0.9,1c0.1,0.1,0.1,0.2,0.2,0.2
		c-0.1,0.5-0.2,1.2,0.3,1.3c0.3,0.1,0.7,0.1,1.1,0c0.3,0.2,0.6,0.4,0.9,0.6c0.4,0.2,0.8,0.5,1.2,0.8c0,0.5,0,1.2,0.5,1.1
		c0.3-0.1,0.6-0.1,0.8-0.1c1.1,0.9,2,1.7,2,1.9c-0.4,0.5-1.8,2-2.4,2c-0.3,0-0.5,0.1-0.6,0.4c-0.3,0.5-0.3,1.2,0,2.1
		c-0.3,0.3-1.2,1.1-0.9,1.8c0.1,0.2,0.3,0.4,0.5,0.6s0.5,0.5,0.5,0.7c0,0.1-0.2,0.2-0.4,0.3c-0.8,0.3-1.8,0.8-2,1.7
		c-0.2,0.7,0.1,1.4,0.8,2.2c0,0,0,0.1,0.1,0.1l-0.4,0.5c0,0-1.4,0.3-0.9,1.4c0.5,1.1,2.2,1.1,1.9-0.5l0.4-0.4
		c0.8,0.5,1.6,0.7,2.3,0.5c0.7-0.3,1.2-0.9,1.3-1.9c0.8,0.3,3.5,1.4,6.2,1.2c0.3,0.3,0.8,0.6,1.3,0.4c0.4-0.1,0.6-0.4,0.7-0.7
		c0.6,0,2,0.1,3.2,0c0.2,0.2,0.5,0.5,1,0.5s0.6-0.4,0.6-0.7c0.3-0.1,0.5-0.2,0.7-0.3c0.5-0.3,1.8-0.5,3.8-0.5
		c0.1,0.1,0.1,0.2,0.2,0.3c0.6,1,1,1.4,1.1,1.6c0.1,0.1,0.1,0.1,0.1,0.3c-0.1,0.3-0.1,0.6,0.1,0.9c0.2,0.2,0.5,0.4,1.1,0.5l0,0
		c1.1,0.1,1.8,0.2,2.3,1l0.1,0.1c0.3,0.4,0.4,0.7,0.8,0.8c0.3,0.1,0.7-0.1,1.4-0.5c1.2-0.7,2.3-0.1,2.5,0.1c0.1,0.2,0.7,1,1.3,1
		c0.4,0,0.7-0.4,0.9-1.1c0.3-0.2,0.7-0.2,1-0.2c0.6,0,1.3,0,2.5-0.7c0,0,2.5-1.6,4-2.4c0.2,0.4,0.3,0.8,0.4,1.3
		c0.2,1.3-5.2,3.8-3.1,7.1c0.3,0.4,0.5,0.3,0.5,0.3s-0.4-1.1,0.3-1.9c0.6-0.6,3.5,0.2,5-1.6c0.5,1.9,2.5,2.1,2.5,2.1
		c0.1,0,0.2-0.1,0.2-0.1l0.7-4.9c0.3,0.6,0.7,1.1,1.1,1.4c0.6,0.3,1.2,0.3,1.4,0.2c1.5,2.4,3.5,1.8,3.8,1.7c0.9,0,1.4-0.2,1.5-0.5
		c0-0.1,0.2-0.6-1.4-1.5c-0.2-0.1-0.2-0.2-0.2-0.2c0-0.1,0.1-0.1,0.3-0.2c0.6-0.1,1.9,0.3,3,2.4c1.5,2.9,4.5,2,4.6,2
		s0.1-0.1,0.1-0.1c0-0.1,0-0.1-0.1-0.2c-0.7-0.2-0.9-1-1-1.5c1.8,1.4,3.4,2,4.9,1.8c1.7-0.2,2.5-1.3,2.5-1.4c0,0,0-0.1,0-0.2
		c0-0.1-0.1-0.1-0.2-0.1c-1.9,0.5-2.7-0.2-3.6-1.3c0.8-0.1,2.1-0.8,3.8-2.9c0.4-0.1,2.8-0.8,5.3,0c0.2,0.1,0.5,0.2,0.8,0.3
		c3,1,9.3,3.1,13.5-0.2c2.8-2.2,3.5-3.6,3.6-4.4c0-0.2,0-0.3,0-0.5C98.6,129,99,129,99,129h0.1c0.9,0.2,2.2,0.4,3.2,0.8
		c0.2,0.1,0.5,0.2,0.8,0.3c-0.2,0.3-0.7,1.1-0.1,1.4c0.8,0.4,2.8-0.8,2.8,0.3s1,1,2.6,0.3c0,0,0.8-0.2,0.9,0.3
		c0.1,0.4,0.5,0.9,1.1,0.8c0.3,0,0.7-0.5,1.2-1c0.6,0,1.1-0.1,1.6-0.2c0.6,0.4,1,0.5,1.4,0.2c0.2-0.2,0.3-0.5,0.4-0.8
		c0.7-0.4,1.3-0.9,1.6-1.6c0.5-0.9,0.4-1.9,0.3-2.5c0.2-0.2,0.5-0.6,0.6-1.2c0.1-0.8-0.7-0.7-1.3-1.5c-0.2-0.4-0.5-0.8-0.9-1.2
		c-0.1-0.2-0.2-0.5-0.3-1c-0.1-1.2-1.3-1.6-1.5-0.3c-3-1.4-7-1.3-9.7-0.6c-0.8,0.2-1.6,0.4-2.3,0.6c-2.4,0.7-4.6,1.4-5.7,0.3
		c0.1-0.4,0.8-2.1,4.1-3.3c2.4-0.9,8.1-3.2,9.1-6.7c1.1,0.1,9.3,0.4,11.3-2.4c1.8-2.5,3.3-4.7,1.6-6.8c0.8-0.6,1.4-1.3,1.9-2
		c0.3-0.5,0.4-0.9,0.3-1.2c-0.1-0.4-0.5-0.6-0.9-0.8c0.1-0.2,0.5-0.5,1.3-0.7c0.7-0.2,0.8-0.5,0.8-0.7
		C125.2,97.3,124.5,96.7,123.9,96.5 M19.3,99.6c0.8,0,1.2,0.1,1.3,0.2c-0.4,0.8-0.6,0.9-1.4,0.5c-0.3-0.1-0.5-0.2-0.8-0.4
		C18.7,99.7,19,99.5,19.3,99.6 M110.1,102c-0.1-0.1-0.2-0.2-0.3-0.3c0.1,0,0.2-0.1,0.3-0.1C110.1,101.8,110.1,101.9,110.1,102
		 M115.6,126.8c0,0.1,0,0.3,0.1,0.4c0,0,0.4,1.2-0.1,2.2c-0.3,0.6-1,1.1-2,1.4c-3.3,1-7.6-0.8-9.9-1.7c-0.3-0.1-0.6-0.3-0.9-0.4
		c-2.1-0.8-4.7-1-4.8-1c-0.1,0-0.2,0-0.3,0c-1.6-0.4-1.8-0.8-1.8-2c0-0.9,0.6-1.3,1.1-1.5c1.4,0.1,3.1-0.4,4.8-0.9
		c0.7-0.2,1.5-0.4,2.2-0.6c2.7-0.6,6.8-0.8,9.5,0.8C115.7,124.8,115.6,126.7,115.6,126.8 M97,129.1c0,0.1,0,1.3-3.1,3.7
		c-3.7,2.9-9.4,1-12.5,0h-0.1c-0.3-0.1-0.6-0.2-0.8-0.3c-2.6-0.8-5.1-0.2-5.8-0.1c0-0.7,0.1-1.9-0.1-2.6c-0.2-0.8,0.6-1.5,1.1-1.9
		c1-0.1,1.7-0.3,2.2-0.5c0.3,0,1,0,1.7-0.3c-0.2,0.5-0.7,1.4-0.2,1.5c0.6,0.2,2.1,0.5,1.6-1.8c0.5,0.1,1.2,0,2.1-0.6
		c0.1,0,0.1-0.1,0.2-0.1c0.9-1.1,1.5-1.1,2.2-1.2c0.4,0,0.9-0.1,1.5-0.3h0.1c1.7-1,4.4-1.8,4.4-1.8s0,0,0.1,0c0.7,0.4,2.1,1,3.4,0.4
		l0,0c0.2,0.2,0.5,0.4,0.7,0.6c-0.5,0.5-0.8,1.1-0.9,2c-0.1,0.6,0.1,1.2,0.5,1.7s1,0.8,1.7,1.1C96.9,128.7,96.9,128.9,97,129.1
		 M66.8,136.4c-0.3,0.2-0.5,0.5-0.5,0.9c0,0.3,0.1,0.7,0.2,1c-0.7-0.2-1.2-0.7-1.6-1.4c-1.3-2.4-3-3.1-4.2-2.9
		c-0.2,0-0.4,0.1-0.6,0.2c0.2-0.3,0.3-0.6,0.3-1.1c0.5,0.1,2.2,0.2,3-0.6c0.1,0.1,0.2,0.1,0.3,0.2c0.1,0,0.2,0.1,0.3,0.1
		c1,0.5,4,2.2,5.2,3.4c0.3,0.3,0.5,0.6,0.8,0.8c0.4,0.5,0.8,0.9,1.3,1.3c-1.1-0.1-2.2-0.7-3.5-1.8C67.6,136.3,67.2,136.3,66.8,136.4
		 M50.1,136.6L50.1,136.6L50.1,136.6 M50.2,136.3C50.3,136.3,50.3,136.3,50.2,136.3C50.3,136.3,50.3,136.3,50.2,136.3 M51.9,136.7
		c0-0.1-0.1-0.3-0.1-0.4c0.2-0.9,0.6-2.5,0.5-3.3c0-0.4-0.2-0.6-0.4-0.7c-0.4-0.2-0.7,0.2-0.7,0.2s0.6,3.9-1.8,4.7
		c-0.7,0.3-1.6,0.3-2.3,0.4c-0.5,0.1-1.1,0.4-1.1,0.4c0.3-1.9,3.5-2.5,3.5-4.6c0-1.7-1.6-3.2-1.9-3.5c-0.1-0.1-2.1-2.2-2.5-4.4
		l0.1-0.1c0-0.2-0.1-0.4-0.1-0.5c0-0.2,0-0.5,0.1-0.7c0.5-2.2,2.1-4.6,4.9-4c0.1,0.1,0.9,0.2,1.4,0.8c0.3,0.4,0.5,0.9,0.5,1.1
		c0.1,1.1-1.4,1.4-1.5,1.4c0,0,0-2.2-1.2-2.2c-1,0-2.1,1-2.3,2c-0.3,1.2,0.3,2.1,1.6,2.6c0.4,0.2,0.8,0.3,1.2,0.5
		c0.6,0.3,1.2,0.5,1.7,0.7c-0.1,0-0.1,0-0.2,0c-0.1,0-0.1,0-0.2,0.1c0,0-0.1,0.3,0.1,0.5c0.3,0.4,0.8,0.6,1.8,0.8
		c1.9,0.3,3.9,0.8,3.9,2.7c0,1.5-0.8,2.2-1.2,2.4c-0.2-0.7-1-2.8-3.7-3.8c-3.3-1.2-4.5-2.3-5-4.6c0-0.1,0-0.1-0.1-0.1
		s-0.6-0.3-0.9,0c-0.2,0.2-0.3,0.4-0.2,0.8c0,0.1,0.6,2.6,3,3.7c0.4,0.2,0.9,0.4,1.3,0.6c1.6,0.7,3.2,1.4,3.9,2.7
		c-0.3,0.1-0.5,0.4-0.5,0.7l-0.6,4.5C52.2,137.6,52,137.2,51.9,136.7 M39.2,135c0-0.1-0.1-0.1-0.1-0.2c-0.1-0.1-0.2-0.2-0.3-0.3
		s-1.9-1.3-3.8-0.1c-0.2,0.2-0.4,0.3-0.5,0.3c0-0.1-0.1-0.1-0.1-0.2l-0.1-0.1c-0.8-1.2-2-1.4-3.1-1.6l0,0c-0.1,0-0.1,0-0.2,0
		c0.1-0.5,0.1-0.8-0.3-1.3c-0.1-0.1-0.4-0.5-1-1.4c-0.9-1.5,0.5-3.9,1-4.7c0.4-0.7,3.2-2.4,5.7-2.4c2.1,0,5.7,1.3,7.3,1.9
		c0.2,2.8,2.7,5.4,2.8,5.6c0,0,0.2,0.2,0.5,0.5c-1.4,0.8-3.6,2.2-3.9,2.4c-1,0.5-1.5,0.5-2,0.5s-1,0-1.6,0.4
		C39.4,134.5,39.3,134.7,39.2,135L39.2,135 M18.7,130.4c-3,0.9-7.2-1-7.3-1c-0.3-0.1-0.6-0.1-0.9,0.1c-0.3,0.2-0.4,0.5-0.5,0.8
		c0,0.3-0.1,0.9-0.5,1.1c-0.5,0.2-1.3-0.1-2.1-1.1c-0.4-0.5-0.6-1-0.6-1.2c0.1-0.2,0.3-0.5,1.4-0.9c0.6-0.2,1-0.6,1.1-1.1
		c0.2-0.8-0.4-1.3-0.7-1.7c-0.1-0.1-0.1-0.2-0.2-0.2c0.1-0.2,0.3-0.4,0.6-0.6c0.3-0.3,0.4-0.7,0.3-1.1c-0.2-0.5-0.2-0.8-0.2-1
		c1.4-0.3,3.1-2.4,3.1-2.4c0.2-0.3,0.2-0.6,0.2-0.9c-0.3-1.5-5-4.4-5-4.4c-1-0.6-1.6-1.3-2.2-2c-0.3-0.4-0.6-0.7-1-1.1
		s-0.6-2.7-0.3-4.8c0.1-1.1,0.5-1.8,1.1-2.2c0.9-0.6,2.3-0.3,2.9-0.1c0.3,0.1,0.5,0.1,0.8,0.1c0.1,0,0.2,0,0.3-0.1
		c0.2-0.1,0.3-0.1,0.4-0.1l0,0c0.2,0.3,0.2,0.4,0.3,0.6s0.1,0.4,0.4,0.8c0.2,0.5,0.9,1.3,1.6,2.3c0.5,0.7,1.1,1.4,1.4,1.9
		c0.5,0.8,1.5,2.6,2.7,5.3c0.2,0.4,0,2-0.3,3.4c0,0.2,0,0.4,0,0.5c-0.2,0.6-0.4,1.5-0.1,1.6c0.4,0.3,0.9,0.1,1.4-1.1
		c0.2-0.1,0.3-0.2,0.4-0.3l0,0c0,0,0.3-0.3,2.6,0.2h0.1c0.9,0.2,2.4,0.8,2.9,1.3c0.2,0.2,0.6,0.6,1,1c1,1,2.4,2.4,3.3,3.1
		c0.7,0.5,1.5,0.8,2.1,1c-0.5,0.9-0.9,2.1-0.8,3.3c-2.1,0.1-3.5,0.3-4.2,0.7c-0.6,0.4-3.1,0.5-5.1,0.4
		C18.9,130.4,18.8,130.4,18.7,130.4 M5.5,103c-0.5,0.1-0.9,0.2-1.3,0.5c-0.2,0.1-0.4,0.3-0.6,0.5c-0.5-0.5-1-0.9-1.4-1.3l-0.1-0.1
		c0.2-0.4,1.5-1,2.5-1.1C4.9,101.6,5.3,102.2,5.5,103 M10.1,101.8c2.3-2.2,3.1-2.2,3.4-2c0.1,0.1,0,0.5-0.8,1.7
		c-0.4,0.7-0.8,1.4-0.8,2.1c-0.6,0.2-1.1,0.4-1.4,0.6c-0.1-0.2-0.2-0.3-0.4-0.6c-0.1-0.2-0.3-0.3-0.5-0.4
		C9.6,102.9,9.6,102.4,10.1,101.8 M28.4,106l0.2-0.2c0.3-0.5,0.9-1.2,1.2-1.2c0,0,0.2,0.1,0.3,0.2c0.4,0.4,0.8,0.8,1.2,1.3
		c0.8,0.9,1.6,1.9,2.7,2.2c0.2,0,1,0.4,2.1,2.8c0.2,0.4,0.5,0.8,1,0.9c0,0.3,0.2,0.6,0.5,0.8c1.2,1,2.3,1.1,3.3,1.2
		c0.7,0.1,1.4,0.2,1.9,0.7c1.4,1.4,2.7,2.3,3.9,2.8c0.5,0.2,1.2,0.7,1.9,1.3c-2.2,0.2-4,2.1-4.7,5v0.1c-0.8-0.3-1.9-0.7-3.1-1
		c0.1-0.2-0.1-0.6-0.3-1.1c-0.3-0.9-1.6-1.9-1.3-1c0,0,0.1,0.5,0.1,1c0,0.2,0,0.5,0.1,0.7c-0.9-0.2-1.7-0.4-2.5-0.4
		c0-0.2-0.1-0.4-0.3-0.7c-0.5-0.7-0.6-0.5-0.7-0.2c0,0-0.2,0.5,0,0.9c-1.1,0.1-2.2,0.4-3.2,0.9c0.1-0.3,0-0.8-0.1-1.2
		c-0.1-0.6-0.2-1.2-0.5-0.8c0,0-0.5,0.6-0.5,1.3c0.1,0.5,0.2,0.8,0.4,0.9c-1.2,0.6-2.1,1.3-2.4,1.8c0,0,0,0.1-0.1,0.1
		c-0.5-0.1-1.3-0.3-2-0.9c-0.7-0.5-1.6-1.4-2.4-2.2c0.1-0.5,0.3-1.5,0.1-1.8c-0.3-0.3-0.7,0.1-1,0.8c-0.4-0.4-0.8-0.8-1-0.9
		c-0.1-0.1-0.3-0.3-0.5-0.4c0-0.4,0-1.1-0.2-1.2c-0.3-0.1-0.5,0.4-0.6,0.8c-0.7-0.3-1.5-0.6-2.1-0.7h-0.1c-0.1,0-0.2,0-0.3-0.1
		c0.2-0.5,0.3-1.1,0.1-1.1c-0.3,0-0.7,0.5-1.1,0.9c-0.8-0.1-1.6-0.1-2.1,0.2c0.1-0.7,0.4-2,0.3-2.9l0.1-0.1c1.5-1.2,6.5-5,7.5-5.9
		c0.3-0.3,0.7-0.5,1.1-0.8C26.5,107.9,27.7,107,28.4,106 M38.4,111.4L38.4,111.4l0.1-0.2c0.4-0.8,1.4-1.7,2.2-2.3
		c0.3-0.2,0.5-0.3,0.6-0.3l0.1,0.1c0.5,0.5,0.9,0.5,1.2,0.5s0.6-0.2,0.8-0.4c1.2-0.8,2.2-0.4,2.2-0.4c0.1,0,0.3,0.1,0.4,0.1
		c1.8,0,2.4,0.9,3.4,2.6c0.2,0.3,0.4,0.7,0.7,1c1.1,1.6,3.7,2.8,6,3.8c0,0,0,0-0.1,0.1c0,0-0.4,0.3,0,0.8s1.5,1.9,1.6,1.6
		c0.2-0.3-0.2-1.5-0.4-2c0.2,0.1,0.5,0.2,0.7,0.3c0.5,0.2,1,0.4,1.4,0.5c2.7,1.1,4.8,1.4,7.4-0.3c1.9-1.2,2.7-0.7,3.2,0
		c0.7,0.9,1.7,1.3,2.7,1.8c0.5,0.2,1,0.4,1.5,0.7c0.5,0.3,0.6,0.5,0.6,0.6l0,0l0,0v0.1c0,0-0.5,1.8-1.2,4.2
		c-0.4,1.3-1.2,1.4-1.5,1.4c-4.2-1.7-6.9,0.3-8.6,1.7c-0.7,0.5-1.3,1-1.7,1s-0.6-0.1-0.9-0.3c-0.1-0.1-0.1-0.2-0.2-0.3
		c-0.1-0.2-0.3-0.4-0.5-0.6c-0.1-0.2-0.2-0.4-0.3-0.6c-0.3-0.6-0.6-1.3-1.1-1.9c-1.1-1.6-4.8-3.6-6.8-4.7c-0.4-0.4-0.9-0.8-1.5-1
		c-0.8-0.7-2.2-2-3.3-2.5c-1-0.4-2.2-1.3-3.5-2.6c-0.5-0.4-1-0.7-1.5-0.8c-0.1-0.6-0.3-1.6-0.6-1.6c-0.4,0-0.7,0.9-0.8,1.4
		c-0.7-0.1-1.5-0.3-2.3-0.9c-0.1-0.1-0.1-0.1-0.1-0.2C38.2,111.6,38.3,111.5,38.4,111.4L38.4,111.4z M84.5,110.8L84.5,110.8
		c0.1,0,0.1,0,0.2,0.1c-0.1,0.3-0.3,0.9,0.4,0.9c0.9,0,1.6-0.6,0.8-1.6c0.3-0.5,0.9-1.5,0.9-1.5c0.1-0.2,0.2-0.4,0.1-0.6
		c0-0.1,0-0.2,0-0.3c0.1,0,0.3,0,0.5,0.1c0.4,0.1,0.8,0.1,1-0.2c0.3-0.3,0.5-0.4,0.6-0.4c0,0,0.2,0.2,0.3,0.4
		c0.1,0.4,0.5,0.6,0.9,0.6h0.1c0,0.1,0,0.5-0.2,1.2c-0.1,0.5-0.2,1.1-0.2,1.6c-0.2,0.2-0.9,0.5-1.7,0.7c-0.4,0.1-0.7,0.4-0.7,0.8
		c-0.1,0.4,0.1,0.7,0.4,0.9c0,0.2-0.2,0.7-0.3,0.9c-0.3,0.9-0.7,2-0.3,3.1c0.1,0.2,0.1,0.2-0.5,0.6s-1.4,1.1-2,2.2
		c-0.8,1-2.7,1.9-5.1,2.6c-2.2,0.6-3,3.2-3.1,3.3c-0.1,0.2-0.1,0.4,0,0.6c-0.9,0.3-3.1,0.8-3.6-0.5c0.5-0.3,1.1-0.9,1.4-1.9
		c0.6-2.3,1.1-4,1.2-4.1c0-0.1,0.1-0.3,0.1-0.6c0.3-0.5,0.6-1.3,1-3.2c0.4-2.1,1.8-2.9,3.9-4.2l0.9-0.6
		C83.6,110.6,84.5,110.8,84.5,110.8 M52.7,121.8c0-0.1,0-0.1,0-0.2c1.9,1.1,4.4,2.6,5.1,3.7l0,0c-0.6-0.2-1.4-0.2-2.4,0.1
		c-2.9,0.9-3.9,0.5-5.6-0.2c-0.4-0.1-0.8-0.3-1.2-0.5c-0.7-0.3-1-0.7-0.9-1.3c0.2-0.7,0.9-1.2,1.1-1.2c0,0,0.7,0.3,0.4,1.6
		c-0.1,0.5,1.7,0.5,2.5,0C52.4,123.5,52.8,122.8,52.7,121.8 M13.8,109.3c-0.4-0.5-0.9-1.3-1.4-2c-0.6-0.8-1.2-1.6-1.5-2
		c2.2-1,4.4-1.5,5-1.2l0,0c0.7,0.4,1.2,0.7,1.3,1.1c0,0.4-0.2,1.6-3.3,4.3C13.9,109.4,13.9,109.3,13.8,109.3 M55.8,126.5
		c1.8-0.5,2.6,0.1,3.4,1.2c0.2,0.4,0.5,0.8,0.8,1.1c0.6,0.9,1.3,1.7,2.5,1.9c0.6,0.1,0.8,0.2,0.9,0.2c0,0,0,0.1-0.1,0.3
		c0,0.1,0,0.1,0,0.1s0,0.1,0,0.2c-0.6,0.4-2,0.9-4,0.2h-0.1c0,0-0.4,0.3-0.2,1.2c0.1,0.2,0.1,0.4,0,0.5c-0.1,0.2-0.6,0.3-1.1,0.3
		c-0.2,0-0.4,0-0.6,0.1c0.5-0.6,0.8-1.4,0.8-2.7c0-2.7-1.7-3.7-4.4-4C54.1,127,54.9,126.8,55.8,126.5 M16.4,114.3
		c-0.6-1.3-1.3-2.8-1.9-3.9c1.3-1.1,2.2-2.1,2.9-3c0.5,0,1.7,0,2.3-1.2c0.1-0.2,0.2-0.5,0.3-0.8c0.6,0.8,1.3,1.8,1.6,2.8
		c0.2,0.5,0.5,0.9,1,1.3C20.9,110.9,17.7,113.4,16.4,114.3 M18.7,105.8c-0.1,0.3-0.4,0.5-0.6,0.5c0.2-0.5,0.3-0.9,0.2-1.2
		c-0.1-1-1.1-1.6-1.8-2l0,0c-0.8-0.4-2.1-0.2-3.3,0.2c0.1-0.3,0.4-0.7,0.6-1.1c0.1-0.2,0.2-0.3,0.3-0.5c0.2-0.1,0.3-0.1,0.5-0.2
		c2.7-1,3.3-0.4,4.5,0.7C19.6,102.8,19.5,103.9,18.7,105.8 M59.5,134.8c0,0.1-0.1,0.1-0.1,0.2c0,0.2-0.1,0.9,0.7,1.4c0,0,0,0,0.1,0
		c-0.3,0.1-1.4,0.3-2.4-1.3C58.3,135.2,58.9,135.2,59.5,134.8 M70.6,135.5L70.6,135.5C70.6,135.5,70.5,135.5,70.6,135.5
		c-0.1,0-0.3-0.1-0.6-0.1c-0.7-0.7-1.9-1.5-3-2.2c0-0.3,0.1-0.7-0.1-1c-0.2-0.4-1,0-1.4,0.1c-0.6-0.3-1.1-0.6-1.2-0.7c0,0,0,0,0-0.1
		v-0.1c0.1-0.3,0.2-0.8,0-1.2c-0.3-0.4-0.8-0.6-1.7-0.8c-0.2,0-0.3-0.1-0.5-0.1c0.6-0.2,1.3-0.6,2-1.2c1.8-1.4,3.9-3.1,7.6-1.5l0,0
		c0,0,0.2,0,0.5,0c0.2,0.5,0.7,1.2,2,1.4c-0.6,0.7-0.7,1.3-0.6,2.3c0.1,0.7,0.1,2,0.1,2.7C71.8,135.7,70.6,135.5,70.6,135.5
		 M94.7,122c-0.6,0.1-1.8,0.2-2.7-0.3c0.5-5.8,1.1-6.5,1.7-7.4c0.4-0.5,0.8-1,1.3-2.2c1.1-2.7,3.3-3.3,6.5-4l0.4-0.1
		c2.3-0.5,3.5,0.3,4,0.7c-0.3,0.6-0.8,1.6-0.5,2.6c0.3,0.7,0.9,1.3,2,1.6c-1.1,1.8-4,3.7-8,5.1C96,119.4,95,121.3,94.7,122 M108,112
		c-0.8-0.2-1.3-0.5-1.4-1c-0.2-0.6,0.2-1.3,0.4-1.6c3,0.7,5.5-2.2,7.2-4.1c0.4-0.4,0.7-0.8,0.9-1c1.7-1.6,3.2-2.7,5.2-1.1
		s1.4,2.9-0.9,6.2c-1.2,1.7-6.8,2.1-10.4,1.9C108.5,111.3,108.1,111.6,108,112 M110.6,104.1c1-1.4,2.3-1.6,2.7-1.6
		c0.1,0.3,0.1,0.9,0,1.5c0,0.2,0,0.3,0,0.5c-0.2,0.3-0.5,0.5-0.7,0.8c-1.6-0.5-2-0.9-2.1-1C110.5,104.3,110.5,104.3,110.6,104.1
		 M121,102.4c-0.6-0.5-1.1-0.8-1.7-0.9c0-1.1,0-1.9,0.2-2.3c0.6,0.2,1.1,0.4,1.7,0.6c0.4,0.1,1.5,0.5,1.7,0.7c0,0-0.1,0.1-0.1,0.2
		C122.4,101.3,121.8,101.8,121,102.4L121,102.4 M122.3,97.6c-0.2-0.5-0.3-0.8-0.4-1c0.3,0,0.4,0.1,0.6,0.3c0.2,0.2,0.5,0.5,1.1,0.6
		c0,0,0,0,0.1,0c-0.5,0.1-0.8,0.3-1.1,0.6C122.5,97.9,122.4,97.7,122.3,97.6 M2.3,99.9c0.1-0.1,0.2-0.1,0.3-0.1s0.2,0,0.3,0.1
		s0.1,0.2,0.1,0.3c0,0.2-0.2,0.4-0.4,0.4c-0.1,0-0.2,0-0.3-0.1s-0.1-0.2-0.1-0.3C2.1,100.1,2.2,100,2.3,99.9"/>
	<path d="M24.6,110.5c-0.6,0.2-1.7,1.7-0.9,1.8c0,0,1.5-0.8,1.7-1.3C25.7,110.6,25.2,110.4,24.6,110.5"/>
	<path d="M25.8,112.8c0.6,0.2,1-0.3,1.3-0.9c0.4-0.6,0-1.4-0.5-0.8C26.6,111.1,25.2,112.6,25.8,112.8"/>
	<path d="M28.4,113.7c0.4-0.6,0.8-1.4,0.6-2c-0.1-0.6-0.5-0.3-0.5-0.3s-1.2,1.3-1.1,1.8C27.6,113.7,28,114.3,28.4,113.7"/>
	<path d="M31.4,114.3c0.6-0.2,0.4-0.9,0.2-1.6c-0.2-0.7-0.3-1.2-0.6-0.9c0,0-0.4,0.5-0.4,1.2S30.8,114.5,31.4,114.3"/>
	<path d="M48,28c0,0-0.7,0.2-0.6,1.1c0.1,0.8,0.3,1.4,1.4,1.2c1.1-0.1,0.3-2.1,0.1-2.3C48.7,27.7,48,28,48,28 M48.3,29.5
		c0,0-0.1-0.2-0.1-0.6c0-0.2,0-0.2,0-0.2c0.1,0,0.1,0,0.2,0c0.1,0.3,0.2,0.6,0.2,0.8C48.4,29.5,48.3,29.5,48.3,29.5"/>
	<path d="M47.9,30.7c0,0-0.4,0.3-0.3,0.9c0.1,0.6,0,1.2,0.9,1.2s1-0.7,0.9-1.4C49.3,30.7,48.4,30.4,47.9,30.7 M48.6,32
		c0,0-0.1,0-0.2,0h-0.1c0-0.1,0-0.2,0-0.2c0-0.1,0-0.2,0-0.2c0-0.1,0-0.2,0-0.2h0.1c0.1,0,0.1,0.1,0.1,0.1
		C48.7,31.9,48.6,32,48.6,32"/>
	<path d="M47.9,33.3c0,0-1,1.2-0.3,1.5c0.7,0.4,1.3,0.5,1.6-0.5C49.6,33.3,48.8,32.6,47.9,33.3 M48.5,34.1c0,0.1-0.1,0.2-0.1,0.2
		s-0.1,0-0.1-0.1c0.1-0.1,0.1-0.2,0.2-0.3l0,0C48.5,33.9,48.5,34,48.5,34.1"/>
	<path d="M49.6,26.8c0,0-0.6,0.1-0.5,0.8c0.2,0.7,0.5,1.7,1.4,1.4c0.9-0.3,0.7-1,0.4-1.9C50.6,26.3,50.1,26.6,49.6,26.8 M50.3,28.3
		L50.3,28.3c-0.1,0-0.2-0.2-0.3-0.8l0.1-0.1h0.1l0,0C50.2,27.7,50.4,28.1,50.3,28.3C50.4,28.3,50.3,28.3,50.3,28.3"/>
	<path d="M49.7,30.2c0,0-0.3,1.6,0.5,1.6s1.4-0.2,1.3-1.3C51.5,29,49.9,28.8,49.7,30.2 M50.7,30.9c0,0-0.1,0-0.3,0
		c0-0.2,0-0.4,0-0.6c0,0,0,0,0-0.1c0-0.2,0.1-0.2,0.1-0.2s0,0,0.1,0c0,0,0.1,0.1,0.1,0.4C50.8,30.8,50.7,30.9,50.7,30.9"/>
	<path d="M50.5,32.1c0,0-0.7,0.2-0.7,0.8s-0.4,1.7,0.5,1.6c0.9-0.1,1.7-0.4,1.5-1.6C51.6,31.6,51.1,31.9,50.5,32.1 M51,33.4
		c-0.1,0.1-0.3,0.1-0.5,0.2c0-0.1,0-0.1,0-0.2c0-0.2,0-0.3,0-0.5c0,0,0.1-0.1,0.2-0.1c0.1,0,0.2,0,0.2-0.1c0,0,0,0.1,0,0.2
		C51,33.2,51,33.4,51,33.4"/>
	<path d="M51.5,24.9c0,0-0.7,0.5-0.4,1.6s1,1.2,1.4,0.9c0.4-0.2,0.7-0.5,0.4-1.6C52.6,24.7,52,24.3,51.5,24.9 M51.9,25.6L51.9,25.6
		L51.9,25.6L51.9,25.6 M52.2,26.6c0,0-0.1,0-0.2,0.1l0,0c0,0-0.1-0.2-0.2-0.4c-0.1-0.4,0-0.6,0.1-0.7c0.1,0.1,0.1,0.2,0.2,0.4
		C52.2,26.4,52.2,26.6,52.2,26.6"/>
	<path d="M51.7,28.9c0.2,0.8,0,1.8,0.9,1.3c1-0.5,1-0.8,0.8-1.8C53.2,27,51.5,28.1,51.7,28.9 M52.7,29.2c0,0,0,0-0.1,0.1
		c0-0.2,0-0.4-0.1-0.5c0-0.1,0.1-0.1,0.1-0.1C52.8,29,52.8,29.1,52.7,29.2"/>
	<path d="M52.1,31.5c0,1,0.1,1.8,0.9,1.6c0.8-0.2,1.1-0.7,1-1.9C53.7,29.8,52,30.6,52.1,31.5 M52.9,32.3c0-0.2,0-0.6-0.1-0.8
		c0,0,0-0.1,0.1-0.1c0.1-0.1,0.1-0.1,0.2-0.1v0.1C53.2,32.1,53.2,32.2,52.9,32.3"/>
	<path d="M76,36.4c-0.2,0-0.5,0.2-0.9,0.6l-0.3,0.3c-0.5,0.5-1.8,1.8-2.1,1.9c-0.1,0-0.1,0.1-0.1,0.2c0,0.1,0.1,0.2,0.2,0.2H78
		c0.1,0,0.1,0,0.1-0.1s0-0.1,0-0.2c-0.4-0.6-1.5-2.1-1.7-2.5C76.3,36.6,76.2,36.4,76,36.4 M75.4,38.3c0.2-0.2,0.3-0.3,0.3-0.3
		l0.1-0.1c0.1,0.1,0.2,0.3,0.3,0.4L75.4,38.3z"/>
	<path d="M5.1,87.1c3.1,10.3,5.4,12.2,4.6,6.3C8.9,87.5,7.9,83,8.5,82c0.6-0.9,0.2-2.4-0.1-3.9s0.6-1.8-0.6-5.5S8,69.8,7.9,68
		c-0.1-1.9-0.7-1.8-0.5-4.1c0.2-2.3,0.3-5.6,0.3-5.6s-2-0.1-2.2,1.3C5.3,60.9,5.3,76.5,6.3,82s-1.8,0.2-2.2-6.6
		c-0.4-6.8-0.2-14.5-0.2-14.5s0.3-1.8-1.9-2.3C2,58.4,2,76.8,5.1,87.1"/>
	<path d="M14.1,82.5c0-3.8-1.4-5.5-0.8-7.8c0.6-2.3,1-3.2-0.2-5c-1.2-1.9-0.7-1.7-0.4-4.1s-0.3-5.8-0.1-7.7c0,0-1.1-0.9-1.3,0.1
		s0.3,13.9,1,19c0.7,5.1-0.6,3-1.1-1.3c-0.3-3-1.1-17.2-1.1-17.2s-1.4-1.1-1.7-0.1c0,0-0.3,17.2,2.9,23.7
		C14.7,88.7,14.1,86.3,14.1,82.5"/>
	<path d="M18.5,78.4c-0.6-2-0.6-2.4-0.4-4.3c0.2-1.8-0.6-3.2-0.9-5.7c-0.3-2.4-0.6-8.4-0.5-11.6c0,0-0.5-0.6-1.3,0.1
		c0,0,0.1,8.6,0.5,11.8c0.4,3.1-1.3-0.2-1.3-5.7c-0.1-5.4,0-6.5-1-5.5c0,0-0.3,16.6,4.3,21.9C17.8,79.4,19.1,80.5,18.5,78.4"/>
	<path d="M17.7,55.8c0,0-0.5,15.3,3.6,19.5c4.2,4.2,1,0.2,1-4.7c0-5.7-1.2-4.4-1.3-5.8c0,0-0.2-5.8-0.5-7.5
		c-0.2-1.7-1.5-2.5-1.1,0.2c0.4,2.8,1.2,10,0.2,10.1c-1,0.1-0.9-4.6-0.9-7.3C18.7,57.5,19.1,55.9,17.7,55.8"/>
	<path d="M23.7,55.2c0,0-0.7-0.6-0.5,2c0.2,2.7,0.8,5.3-0.2,5.2c-0.9-0.1-0.6-3.4-0.7-4.7c-0.2-1.3-0.4-3-0.9-2c0,0,0.1,10.3,3,14.6
		c2.8,4.3,2.8,1,1.5-1.5s-1.6-5.7-1.6-8C24.3,58.6,23.7,55.2,23.7,55.2"/>
	<path d="M26.4,65.3c1.8,2.5,1.3,0.4,0.9-2.2c-0.4-2.6-0.4-6.6-0.3-8.6c0,0-0.5-0.5-1,0c0,0,0.5,4.7,0.1,4.6
		c-0.5-0.1-0.6-1.7-0.8-3.4c-0.2-1.7-0.3-1.2-0.8-0.9C24.4,54.8,24.6,62.8,26.4,65.3"/>
	<path d="M3.2,42.4c0,0-0.5,3.3-0.7,8.1s0.1,5.6,2,5.7c2.4,0.1,2.9-1.5,3.3-5.4c0.4-4.2,0.5-6.3,0.5-6.9c0.1-0.7-1.3-2.3-1.6,0.3
		C6.4,46.8,6.6,54.8,5,54.4c-1.6-0.3-1.2-4.3-0.9-7.1s1.2-6,0.1-6.3C3.2,40.8,3.2,42.4,3.2,42.4"/>
	<path d="M9.1,44c0,0-2,11.7,0.1,11.8c3.2,0.1,2.7-3.2,3-6.9s0.7-4.7-0.1-4.7s-1,3.5-1.1,5.4s0,4.4-0.9,4.3
		c-0.9-0.1-0.8-2.8-0.5-5.1C10.2,43.6,9.9,42.9,9.1,44"/>
	<path d="M14,45.3c0,0-0.3-0.5-0.7-0.5c0,0-0.4,4.1-0.5,6.5s0.3,3.5,1.9,3.5s1.4-2.8,1.5-5.1s0.7-4.3,0-4.5c-0.7-0.2-0.7,1.5-0.8,3
		S15.2,53,14.5,53c-0.6,0-1-0.8-0.9-3.2C13.8,47.5,14,45.3,14,45.3"/>
	<path d="M59.6,55.1c0.6-0.1,0.5-0.5,0.9,0c0.5,0.5,0.5,0.6,1.1,0.4c0.6-0.1,1.3,0.2,1.6,0.5s0.8,0.3,0.7,0.6s-0.6,0.7,0.7,0.9
		c1.3,0.2,1.7,0.4,2.1,0c0.3-0.5,0.9-0.5-0.1-1c-1-0.6-1.4-0.5-2.2-1.4c-0.8-0.8-0.7-0.8-1.3-1s-1.2-0.5-2.1-0.3
		c-0.8,0.3-1.9,0.3-1.9,0.3s-0.4,0.3-0.1,0.6C59.2,55,59.1,55.2,59.6,55.1"/>
	<path d="M65.2,58.3c-0.4,0-0.7-0.3-1-0.3c0,0-0.6-0.1-0.3,0.5s0.7,0.6,1,0.5C65.3,58.8,65.6,58.3,65.2,58.3"/>
	<path d="M68.2,58.7c0,0,0.8,0,1.3-0.3c0.4-0.2,0.8,0.1,1.2,0.2c0.4,0.1,0.7,0.1,1-0.4s-0.1-0.8-0.4-1.1C71,56.7,70.4,56.8,70,57
		s-0.3,0.4-0.7,0.4C68.8,57.4,67.6,58.5,68.2,58.7"/>
	<path d="M73.2,59c0.2,0,0.7,0.1,0.9,0.1c0.2,0,0.6,0,0.2-0.6c-0.3-0.6-0.2-0.7-0.9-0.6c-0.7,0.1-0.6,0.3-0.6,0.3S73,59,73.2,59"/>
	<path d="M75.7,66.6c0.1,0.1,0.4,0.4,0.5-0.1c0.1-0.4,0.1-1.1-0.8-0.8c0,0-0.3,0.2-0.1,0.5C75.5,66.3,75.6,66.5,75.7,66.6"/>
	<path d="M24.9,47.8c-1,7.1,1.8,4.6,1.8,4.6c0.1-1.8,0.4-4.2,0.4-4.2c-0.3-0.4-0.6-0.2-0.6,0.7c-0.1,0.9-0.1,3-0.8,2.8
		c-0.7-0.2-0.1-3.9-0.4-4C25,47.5,24.9,47.8,24.9,47.8"/>
	<path d="M21.5,46.9c0,0-0.5,3.5-0.5,4.6s0.6,1.9,2,1.8c1.4-0.1,1.1-2,1.2-3.5s0.3-2.4,0.3-2.4c-0.7-0.3-0.6-0.1-0.9,1.9
		s-0.2,2.8-1.1,2.9c-1,0.1-0.4-3.7-0.3-4.6C22.2,46.7,21.5,46.9,21.5,46.9"/>
	<path d="M17.6,46c0,0-0.6,3.4-0.6,6.1c0,2.7,3,1.9,3.2-0.1c0.1-2,0.7-5.5,0.7-5.5c-1-0.8-1.1,1.3-1.3,3.1c-0.2,1.8-0.3,2.9-1.2,2.7
		c-1-0.2-0.3-5-0.3-5.9C18.2,45.7,17.6,46,17.6,46"/>
	<path d="M16.2,109.2c-0.5,0.9-0.2,1.1,0.3,1.2s0.7-1.5,0.7-1.5C17,108.3,16.6,108.3,16.2,109.2"/>
	<path d="M18.2,108.7c0,0-0.7-0.1-0.6,1s0.7,1.2,1,1s0.2-1.2,0.2-1.4C18.8,109.1,18.6,108.4,18.2,108.7"/>
	<path d="M19.7,108.5c0,0-0.1,0.9,0.3,1.4c0.4,0.6,1.1,0.9,0.9-0.3C20.6,108.4,20.4,108.1,19.7,108.5"/>
	<path d="M8.5,106.6c-0.3-0.1-0.5-0.2-0.7,0.2c0,0-0.2,0.7,0.4,0.7C8.9,107.4,8.7,106.7,8.5,106.6"/>
	<path d="M5.7,108.2L5.7,108.2c0,0.1,0,0.6,0.3,0.6c0.4,0,0.4-0.2,0.4-0.4C6.5,108.1,5.9,107.8,5.7,108.2"/>
	<path d="M6.6,111.8c0,0-0.4,0.4,0.1,0.8c0.5,0.3,0.6,0.2,0.5-0.4C7.1,111.5,6.9,111.6,6.6,111.8"/>
	<path d="M9.8,111.7c0,0,0.4,0.2,0.5,0.1c0.1-0.2-0.1-0.4-0.1-0.4S9.5,111.2,9.8,111.7"/>
	<path d="M10.3,114.4c0,0-0.2,0.6,0.3,0.7s0.6-0.5,0.4-0.7C10.8,114.2,10.3,114.3,10.3,114.4"/>
	<path d="M13,115.2c0,0,0.5,0.1,0.5,0s0.1-0.3-0.1-0.5C13.2,114.6,12.8,114.8,13,115.2"/>
	<path d="M12.5,125c0,0,1-2.3-0.4-1.9c0,0-0.7,0.5-0.5,1.6c0,0-0.7-0.3-0.2,0.7c0.5,0.9,0.8,1.8,1.7,0.9C14,125.5,12.5,125,12.5,125
		"/>
	<path d="M15.9,126.6c0,0-0.8,0.6-0.6,0.9s1.3,0.4,1.4,0C16.8,127.2,16.3,126.3,15.9,126.6"/>
	<path d="M19.4,127.2c0,0-0.9,0.3-0.5,0.7c0.4,0.5,1.3,0.5,1.3,0.4C20.3,128.3,20.7,127,19.4,127.2"/>
	<path d="M16.7,123.2c0,0-1,0.6-0.6,1s1.1-0.3,1.1-0.3S17.4,123.1,16.7,123.2"/>
	<path d="M19.9,122.2c0.7,0.3,1-0.3,1-0.3s-0.5-1.3-1.1-0.8C19.8,121.1,19.2,121.9,19.9,122.2"/>
	<path d="M24.1,126.7c0.7,0.3,1.1,0,1.1,0s0.5-0.7-1.4-1.1C23.8,125.6,23.4,126.4,24.1,126.7"/>
	<path d="M34.1,126.3c0-0.7-0.8-0.4-0.8-0.4s-0.5,0.1-0.5,0.4s0.6,0.4,0.6,0.4S34.1,127,34.1,126.3"/>
	<path d="M34.2,130.4c-0.4-0.2-0.8,0.3-0.8,0.3s-0.3,0.9,0.6,0.9c0.9,0,0.8-0.6,0.8-0.6S35,130.8,34.2,130.4"/>
	<path d="M38.9,129c0-0.5-0.6-0.8-1-0.8c0,0-0.9,0.1-1,0.8c-0.2,0.7,1.2,0.7,1.2,0.7S38.9,129.5,38.9,129"/>
	<path d="M37.8,131.8c0,0,0,0.7,0.8,0.7s0.7-0.5,0.7-0.5S38,131.2,37.8,131.8"/>
	<path d="M42.5,129.2c0.9,0,0.6-0.7,0.6-0.7s-0.3-0.4-0.8-0.3c-0.6,0-0.7,0-0.7,0.5C41.6,128.6,41.6,129.2,42.5,129.2"/>
	<path d="M34,114.6c0.5-0.1,0.1-1.7,0.1-1.7s-0.4-1-0.6-0.9c0,0-0.8,0-0.5,1.2C33.3,114.6,33.5,114.7,34,114.6"/>
	<path d="M35.9,113.9c0.3,0.5,0.6,0.5,1,0.3c0.4-0.3-0.8-2.1-0.8-2.1s-1.2-0.6-1,0C35.1,112.2,35.5,113.4,35.9,113.9"/>
	<path d="M20.9,113.5c-0.4,0-1.7,0.9-1.2,1.1c0,0,0.7,0.2,1.1-0.3C21.3,113.8,21.2,113.6,20.9,113.5"/>
	<path d="M22.9,114.5c0,0-1.5,1.5-0.9,1.8s1.1-0.5,1.3-1.1C23.5,114.5,23.2,114.2,22.9,114.5"/>
	<path d="M24.4,116.8c0.2,0.5,0.6,1.1,1-0.1s0.2-1.3-0.1-0.9C25.3,115.8,24.2,116.4,24.4,116.8"/>
	<path d="M28.1,117.3c0.3-1.4,0-1.3-0.3-0.9c0,0-1,0.8-0.7,1.2C27.3,117.9,27.9,118.7,28.1,117.3"/>
	<path d="M30.8,119.3c0.8,0.1,0.5-1.1,0.3-2c-0.2-0.8-0.4-0.9-0.6-0.9c0,0-0.4-0.1-0.4,0.9C30.1,118.4,30.1,119.2,30.8,119.3"/>
	<path d="M33.5,117c0,0-0.8,1.6,0.3,2.3c1,0.6,0.6-0.5,0.4-1.3C34,117.2,33.7,116.5,33.5,117"/>
	<path d="M36.5,116.7c0,0-0.6-0.1-0.4,0.8c0.2,0.9,0.5,1.7,1.3,1.5C38.3,118.8,37,117,36.5,116.7"/>
	<path d="M41.1,118.8c0.5-0.9-1.8-2.6-2.2-2.3c0,0-0.7,0.3,0,1.1C39.6,118.3,40.7,119.7,41.1,118.8"/>
	<path d="M43.9,118.3c0.5-0.3-0.8-1.6-0.8-1.6s-1-1.1-1.2-0.8c0,0-0.6,0.6,0.2,1.4C42.8,118.1,43.3,118.7,43.9,118.3"/>
	<path d="M28.6,120.8c0,0-1.5,2-0.6,2.4s1-1.5,1-2.2C29,120.2,28.6,120.8,28.6,120.8"/>
	<path d="M42.1,120.3c0,0,0.5,1,0.6,1.5c0.1,0.4,0.5,1.1,1,0.5c0.4-0.7,0.2-0.9-0.3-1.5C43,120.1,41.8,119.7,42.1,120.3"/>
	<path d="M11.9,38c0,0-1.5-0.3-2,1.3c-0.6,1.6-0.2,2.3,0.2,2.2c0.3-0.1,0.5-1.6,0.9-1.5c0.4,0.2-0.5,1.5,0.1,1.7s0.8-1.5,1.2-1.4
		c0.4,0.2-0.4,1.5,0.2,1.7C13.1,42.2,14,38.6,11.9,38"/>
	<path d="M16.2,39.4c0,0-1.3-0.3-1.8,1.2s-0.1,2.1,0.2,2s0.4-1.5,0.8-1.4c0.4,0.1-0.4,1.4,0.2,1.5c0.5,0.1,0.6-1.4,1-1.3
		c0.4,0.1-0.3,1.4,0.2,1.5C17.4,43.2,18.1,39.9,16.2,39.4"/>
	<path d="M7.8,40.2c0.8,0.3,2.3-3.9-0.4-4.8c0,0-1.9-0.5-2.7,1.3c-0.8,1.9-0.4,2.7,0,2.6c0.4-0.1,0.8-1.9,1.3-1.7s-0.7,1.8,0,2
		s1.1-1.8,1.7-1.5C8.2,38.4,7,40,7.8,40.2"/>
	<path d="M20,40.9c0,0-1.2-0.3-1.6,1s-0.1,1.8,0.1,1.7c0.3-0.1,0.4-1.3,0.7-1.2c0.3,0.1-0.4,1.2,0.1,1.3c0.4,0.1,0.6-1.2,1-1.1
		c0.3,0.1-0.3,1.2,0.2,1.4C21,44.2,21.7,41.4,20,40.9"/>
	<path d="M23.8,44.7c0.4,0.1,1-2.2-0.4-2.6c0,0-1-0.2-1.3,0.8c-0.4,1.1-0.1,1.5,0.1,1.4s0.3-1.1,0.6-1c0.3,0.1-0.3,1,0.1,1.1
		s0.5-1,0.8-0.9C24,43.7,23.4,44.6,23.8,44.7"/>
	<path d="M27.1,45.5c0.4,0.1,0.7-2.3-0.7-2.5c0,0-1-0.1-1.2,1s0.1,1.5,0.3,1.4c0.2-0.1,0.2-1.1,0.5-1s-0.2,1,0.2,1.1
		c0.4,0.1,0.4-1.1,0.7-1C27.2,44.5,26.7,45.5,27.1,45.5"/>
	<path d="M5.5,43.3c-0.2,1.4-1.3,9.4-0.6,9.5c0.7,0.1,0.6-3.5,0.8-5.3c0.2-1.9,0.5-4.7,0.5-4.7S5.7,41.9,5.5,43.3"/>
	<path d="M10.5,45c-0.2,1.1-1,7.4-0.5,7.5s0.5-2.8,0.6-4.2c0.1-1.5,0.4-3.7,0.4-3.7S10.7,43.9,10.5,45"/>
	<path d="M14.6,46.1c-0.1,0.9-0.7,5.9-0.1,6c0.5,0.1,0.3-2.2,0.4-3.4c0.1-1.2,0.2-2.9,0.2-2.9S14.7,45.2,14.6,46.1"/>
	<path d="M18.8,46.6c-0.1,0.7-0.7,4.5-0.2,4.5s0.4-1.7,0.5-2.5c0.1-0.9,0.3-2.2,0.3-2.2S18.9,45.9,18.8,46.6"/>
	<path d="M23.2,47.3c0,0-0.4-0.3-0.5,0.2s-0.5,3.5,0,3.5s0.3-1.3,0.3-2C23.1,48.4,23.2,47.3,23.2,47.3"/>
	<path d="M26.4,47.8c0,0-0.3-0.3-0.4,0.2c-0.1,0.4-0.4,3,0,3s0.2-1.1,0.3-1.7C26.3,48.7,26.4,47.8,26.4,47.8"/>
	<path d="M91.5,44.5V47c0,0,1.3-0.1,1.3-0.4c0-0.3,0.5,0.2,0.5,0.2S93.1,45.4,91.5,44.5"/>
	<path d="M93.4,51.6c-0.5,0-0.9,0.2-0.8-1.1c0.1-1.2,0.2-2.1-0.9-1.7v3.9c0,0,1.7,1.2,2.7,0c0,0,0.4-2.4-0.3-4c0,0-0.2-0.2-0.6,0.3
		C93.5,49,93.9,51.6,93.4,51.6"/>
	<path d="M91.6,54.5c0,0-0.2,2.9,0,2.9s1.1,0,1.1-1.8C92.6,53.8,92,54,91.6,54.5"/>
	<path d="M93.8,54.1c0,0-0.4-0.1-0.4,1.2c0,1.2-0.3,2.1,0.1,2.1s0.7-1.1,0.9-2.1C94.6,54.1,94.3,53.8,93.8,54.1"/>
	<path d="M91.9,60c0.7,0,1.7,0,1.8-1.2c0.2-1.2-1.2-0.8-2.2,0.1C91.6,59,91.2,60,91.9,60"/>
	<path d="M91.6,61.4c0,0-0.2,3.3,0,3.2c0.2-0.2,1.2-2.2,1.5-3S91.9,60.9,91.6,61.4"/>
	<path d="M91.1,82.7c0.5,1.9,0.1,1.8-0.3,1.8c-0.5,0-0.9-2.7-1.6-0.9c-0.4,1-1,2.6,0.2,2.5c1.3-0.1,4.4,0.1,3.4-2.4
		C91.8,81.2,90.6,80.7,91.1,82.7"/>
	<path d="M93.9,90.6c0,0,0.4-0.4,0.2-1.1c-0.2-0.7-2.2-0.2-2.2-0.2l-4.7,0.2c0,0-0.6,1-0.4,1.2C86.9,90.8,93.6,90.9,93.9,90.6"/>
	<path d="M89.7,94.6c0-1.8-0.4-3.4-1.8-3.3c0,0-2-0.1-2,1.2c-0.1,1.3-0.2,3.2,0.4,3.2s0.1-2.3,0.6-2.4c0.5,0,0.5,0.9,0.5,1.6
		s0.9,0.9,0.8-0.1s-0.5-1.8,0-1.6c0.5,0.1,0.7,0.2,0.6,1.2C88.6,95.4,89.7,96.5,89.7,94.6"/>
	<path d="M91.6,93.2c0.4,0,0.5,0.9,0.5,1.5s0.8,0.9,0.7-0.1c-0.1-0.9-0.5-1.6,0-1.5s0.6,0.2,0.5,1.1s0.9,1.8,0.9,0.2
		c0-1.7-0.4-3.1-1.7-3c0,0-1.8-0.1-1.9,1.1s-0.2,3,0.4,3C91.6,95.4,91.2,93.2,91.6,93.2"/>
	<path d="M44.3,114.2c0.7,0,0.4-3.5-0.5-2.9c0,0-0.4,0.3-0.4,1.1C43.4,113.3,43.6,114.2,44.3,114.2"/>
	<path d="M47.2,113.9c-0.2-1.4-0.8-2-0.9-1.5c0,0-0.2,0.8,0,1.7C46.5,115,47.4,115.2,47.2,113.9"/>
	<path d="M50.1,114.2c0.2-0.2-0.9-2.3-1.4-1.7c0,0-0.5,0.2,0.1,1.1C49.5,114.4,49.9,114.4,50.1,114.2"/>
	<path d="M53.1,118.4c-0.1-0.3-0.6-0.7-0.8-0.7c0,0-0.6,0.3-0.1,0.8C52.6,119,53.1,118.7,53.1,118.4"/>
	<path d="M55.6,118.5c0.7-0.3-0.7-1.5-1.5-1.5c0,0-0.5,0,0,0.7C54.5,118.4,54.9,118.9,55.6,118.5"/>
	<path d="M58.6,122.6c0.8,0.7,1.4,0.7,0.9-0.2c-0.4-0.8-0.8-1.4-1.1-1C58.4,121.4,57.8,122,58.6,122.6"/>
	<path d="M62.3,121.9c0.2-0.5-1.1-2.3-1.6-2.3c0,0-0.7,0.1-0.1,1.2C61.2,122,62.1,122.5,62.3,121.9"/>
	<path d="M64.3,121.3c0-0.5-1-2.5-1.1-1.9c0,0-0.4,1.3,0.2,2C64,122.1,64.3,121.8,64.3,121.3"/>
	<path d="M66.9,120.5c-0.1-0.8-0.8-2-1.1-1.7c0,0-0.6,0.3-0.1,1.2C66.3,120.9,67.1,121.3,66.9,120.5"/>
	<path d="M68.8,119.5c1.3,0-0.3-1-0.4-1.2s-0.7-0.3-0.7,0C67.7,118.3,67.5,119.5,68.8,119.5"/>
	<path d="M68.8,123.7c-0.1-0.4-0.4-0.7-0.7-0.7c0,0-0.9-0.1-0.3,0.6C68.3,124.3,68.9,124.2,68.8,123.7"/>
	<path d="M71.1,123.4c-0.5-1.2-0.9-1.8-1.3-1.5c0,0-0.4,0.5,0.2,1.3C70.6,124,71.6,124.6,71.1,123.4"/>
	<path d="M72.7,121.7c-0.2-1-1.8-3.4-1.8-2.5c0,0-0.2,0.8,0.4,1.6C71.9,121.6,72.9,122.7,72.7,121.7"/>
	<path d="M67.4,127c-0.2,0.4-0.6,1.6,0.2,1.2c0,0,1.2-0.7,1-1.1C68.4,126.8,67.7,126.6,67.4,127"/>
	<path d="M69.8,129.5c-0.7,0.2-1.3,0.8-0.9,1.2c0,0,0.4,0.7,1.2,0C70.9,130,70.4,129.4,69.8,129.5"/>
	<path d="M80.3,130.8c0,0-1.5,1.2-0.2,1.3c1.2,0.1,1.4-0.3,1.1-0.9C80.7,130.5,80.7,130.5,80.3,130.8"/>
	<path d="M88.3,131.8c-0.3,0-1.5,0.7-1,1.2c0,0,1,0.4,1.5-0.3C89.2,132,88.6,131.8,88.3,131.8"/>
	<path d="M91.4,129.4c-0.6,0.2-0.9,0.7,0,1.1c0,0,0.6,0.1,1-0.5S92,129.2,91.4,129.4"/>
	<path d="M86.2,128.9c0,0-1.2,1.6,0,1.6c1.3,0.1,0.6-1.1,0.6-1.1S86.4,128.5,86.2,128.9"/>
	<path d="M86.2,126.3c-0.6-0.5-0.9-0.3-1.2,0.1c0,0-0.8,1.4,0.2,1.4S86.9,126.8,86.2,126.3"/>
	<path d="M90.9,126c-0.2-0.5-0.3-0.7-0.8-0.5c0,0-1,0.7-0.4,1C90.4,126.7,91.1,126.5,90.9,126"/>
	<path d="M76.7,122.6c0,0-0.3,0.7,0.4,0.7c0.7,0.1,0.8-0.4,0.7-0.7C77.8,122.5,77.1,122.2,76.7,122.6"/>
	<path d="M77.8,117.9c0,0-0.2,0.9,0.6,1.2c0.8,0.2,0.5-0.5,0.5-0.7C78.8,118.1,77.8,117.4,77.8,117.9"/>
	<path d="M81.9,119.8c0,0-0.7,0.7-0.2,0.9C82.1,120.9,83,120.1,81.9,119.8"/>
	<path d="M84.8,117.8c0.7,0.1,1.1-0.7,0.2-0.9C85,117,84.1,117.7,84.8,117.8"/>
	<path d="M81.2,117.6c0,0-0.9,0.1-0.4,0.6s0.7,0.5,0.9-0.1C81.9,117.4,81.7,117.4,81.2,117.6"/>
	<path d="M82.7,114.4c0,0-0.2,0.6,0.3,0.9s0.5,0,0.6-0.3S82.7,113.9,82.7,114.4"/>
	<path d="M81.7,113c0,0,0.4,0.2,0.8-0.1C82.9,112.6,81.6,112.3,81.7,113"/>
	<path d="M89.1,109.3c0.4-0.4-0.5-0.8-0.7-0.3C88.3,109,88.7,109.7,89.1,109.3"/>
	<path d="M112.8,129.6c1-0.3,1.6-1.9-0.1-1.5c0,0-0.8,0.8-0.8,1C112,129.3,111.9,129.9,112.8,129.6"/>
	<path d="M106.7,127c0,0-0.3,1,0.1,0.9s1.2-0.3,0.7-0.8C107,126.7,106.8,126.7,106.7,127"/>
	<path d="M103.8,125.7c0,0-0.8,0.3-0.9,0.6c0,0.3,0,1,0.8,0.4C104.5,126.2,105,125.2,103.8,125.7"/>
	<path d="M100.6,124.6c0,0-1,0.3-0.7,0.7c0.3,0.4,1.1,1.1,1.3,0.3C101.4,124.8,101.2,124.2,100.6,124.6"/>
	<path d="M107.6,123.2c0,0-0.8,0.3-0.7,0.6c0.1,0.3,0.6,0.7,1,0.2C108.4,123.7,108.4,122.9,107.6,123.2"/>
	<path d="M110.1,126.5c0.6-0.2,1.5-1.7,0.2-1.5c0,0-0.5,0.2-0.7,0.7C109.3,126.2,109.5,126.7,110.1,126.5"/>
	<path d="M95.4,113.7c0,0,0,1,0.7,0.8s0.4-0.8,0.4-0.8S95.1,112.9,95.4,113.7"/>
	<path d="M95.3,118.4c-0.6-0.3-0.6-0.4-0.8-0.2c0,0-0.5,1,0.1,1C95.1,119.2,95.9,118.7,95.3,118.4"/>
	<path d="M98.1,115.4c0.1-0.4-2.1,0.5-1.2,0.9c0,0,0.7,0.4,1.1,0.2C98.3,116.3,98,115.8,98.1,115.4"/>
	<path d="M100.2,111.1c0.6,0,0.6-0.6,0.4-0.9s-1.2-0.4-1.1,0.3C99.4,110.5,99.6,111.2,100.2,111.1"/>
	<path d="M100.4,113c1.3,0.7,0.8-1.3,0.2-0.9C100.7,112,99.9,112.6,100.4,113"/>
	<path d="M102.4,111.4c1.4,0,0.6-1.4,0.1-1.1c0,0-0.6,0.5-0.7,0.6C101.8,111.1,101.3,111.4,102.4,111.4"/>
	<path d="M100.9,115.2c0,0.3,0.3,0.5,0.9,0.3s0.6-0.9-0.1-0.8C101.6,114.8,100.9,114.9,100.9,115.2"/>
	<path d="M103.9,114.4c0.3-0.1,0.2-0.7,0.2-1.1s-0.2-0.6-0.7-0.3c0,0-0.3,0.1-0.3,0.5C103.2,113.9,103.6,114.5,103.9,114.4"/>
	<path d="M115.4,107.4c0.5-0.4,0.8-1.2-0.1-1.3c0,0-0.6,0-0.6,0.6C114.8,107.4,114.9,107.9,115.4,107.4"/>
	<path d="M116.8,108c0,0,0.6,0.3,1,0.2c0.4-0.1,0.2-0.7-0.1-0.8C117.4,107.3,116.3,108,116.8,108"/>
	<path d="M119.1,105.5c1,0.2,1.2-1,0.8-0.9C119.8,104.6,118.1,105.3,119.1,105.5"/>
	<path d="M117,105.2c0.5,0,0.9-0.2,0.6-0.5s-0.8-0.8-0.8-0.5C116.7,104.3,116.5,105.2,117,105.2"/>
	<path d="M113.4,40.3c-0.1-1.1-0.3-1.3-0.4-1.2c0,0-0.2,2.9,0,3C113.3,42.2,113.5,41.4,113.4,40.3"/>
	<path d="M99.1,46.9c-0.6,0.1-0.8-0.8-0.8-1.4c0-0.6-0.6-0.9-0.8-0.2c0,0,0.1,2.5,1.3,2.4c1.5-0.1,1.9-0.9,1.3-2.8
		c0,0-0.3-0.6-0.8-0.2C98.8,45.1,99.7,46.9,99.1,46.9"/>
	<path d="M100.9,44.2c0,0-0.2,2.7,0.9,2.8c1.5,0.1,2-0.7,1.7-2.9c0,0-0.2-0.6-0.8-0.3c-0.5,0.4,0.1,2.4-0.5,2.4s-0.7-1-0.6-1.6
		C101.8,43.9,101.3,43.5,100.9,44.2"/>
	<path d="M104.5,43.4c0,0-0.3,2.8,0.8,2.8c1.4,0,1.8-0.8,1.6-3c0,0-0.2-0.7-0.7-0.3s0.1,2.4-0.5,2.5c-0.6,0-0.6-1-0.5-1.7
		C105.2,43.1,104.8,42.6,104.5,43.4"/>
	<path d="M107.8,41.9v2.4c0,0-0.2,1.6,1.5,1.7c1.7,0,1.3-2.2,1.3-3.2c0-0.9-0.1-2.4-0.6-2.3c-0.4,0.1-0.6,0.6-0.5,1.6
		c0,1,0.2,2.3-0.3,2.2c-0.5,0-0.5-0.8-0.5-1.8C108.7,41.5,107.9,40.7,107.8,41.9"/>
	<path d="M112.5,39.5c0,0-1-0.9-1,0.5s-0.4,5.3,1.9,5.5c2.3,0.1,1.9-2.8,1.9-4.7s0.4-3.8-0.4-3.3c-0.7,0.5-0.8,1.1-0.9,2.4
		c-0.1,1.3,0.3,3.5-0.4,3.6c-0.7,0.1-1.1-0.1-1-2.1C112.6,39.8,112.5,39.5,112.5,39.5"/>
	<path d="M117.5,40.9c-0.1-2.2,0-3.8-0.4-3.8c0,0-0.8-0.1-0.8,1s-0.5,5.5,1,6.1c1.5,0.7,3.5,0.3,3.5-1.3s0-5.2,0-6.2
		c0-0.9-0.9-1.4-1.1-0.1c-0.2,1.3,0.6,6.6-0.6,6.5C117.8,43.1,117.6,43.1,117.5,40.9"/>
	<path d="M118.4,37.5c0,0-0.4,3.9,0.1,4.1c0.6,0.2,0.3-2.6,0.3-3.5C118.9,37.2,118.5,36.8,118.4,37.5"/>
	<path d="M112.7,98.5c1,0.1,3.9-6.6,4.6-10.9s1-5.3,1.8-7.3s2-9.8,2-13.8s0.2-7.6,0-8.2c-0.2-0.6-0.4-0.8-1.1-0.3s-1.5,0.2-1.4,2
		s0.2,12.9-0.4,14.7c-0.6,1.8-1.2,4.5-1.7,6.4c-0.5,1.8-1.1,3.9-0.7,0.1s1.2-3.9,1.2-6.2c0.1-2.3,0.6-5,0.5-8.3
		c-0.1-3.3,0.2-7.5,0.2-7.5S116,57,116,59s0.1,12.4,0,13.8c-0.2,1.4-0.6,3.5-0.5,4.9c0.2,1.4-0.5,1.9-0.6,4.1
		c-0.1,2.3-0.7,11-1.9,13.3C111.9,97.4,111.8,98.4,112.7,98.5"/>
	<path d="M111.2,88c0.7-0.5,3.6-7.2,3.7-17.5c0.2-10.3,0.6-11.4,0.1-12.2c-0.4-0.8-1.4-1-1.2,1.1c0.2,2.1-0.4,16.9-1.1,17
		c-0.6,0.5,0.5-12.7,0.2-17.8v-0.1c0,0-0.9-2.4-1-0.6c-0.1,1.9-0.1,10-0.3,10.6c-0.2,0.6-1.1,4.1-0.8,6.5c0.3,2.5,0.5,8.7,0.2,10.4
		C110.6,87.1,110.5,88.5,111.2,88"/>
	<path d="M110.5,64.8c0.2-2.2,0.7-6.5,0.6-7.6c0,0-1.2-0.4-1.3,0.9c-0.1,0.8-0.1,4.2-0.3,5.4c-0.2,1.2-0.2,6.3-0.9,6.2
		c-0.7-0.1-0.3-2.5-0.1-4.7c0.2-2.2,1-4.4,0.4-7.5c0,0-1-1.1-1.1-0.1s0.1,3.7-0.2,4.1c-0.3,0.4-0.6,1.9-0.6,3.5
		c0.1,1.6,0.3,4.3-0.3,5.3c-0.6,1-0.4,2.3-0.6,3.6c-0.2,1.3-0.6,4.4-1.7,6.3c-1.2,1.9,1.3,2.4,3.9-4.8
		C110.9,68.3,110.4,67,110.5,64.8"/>
	<path d="M103.8,57.5c0,1.1-0.1,8.3-0.7,9.6c-0.6,1.2-0.7,3.7-1.1,4.4c-0.3,0.7-1.6,3.9-2.2,4.9s-0.5,2.2,0.6,1.4
		c1.1-0.8,4.6-5.3,5.1-9.2c0.5-3.9,1.1-6.4,1.3-7.5c0.2-1.1,0.5-3.9,0.1-4.1c-0.3-0.2-1-0.4-1,0.6c0,1.1-0.3,4.7-0.9,6.5
		c-0.6,1.8-0.6,2.5-0.7,0.2c-0.1-2.2,0.4-6.6,0.1-7.7C104.6,56.6,103.8,56.4,103.8,57.5"/>
	<path d="M100.1,56.3c0,0-0.1,1-0.1,4.1c0,3.9-2,7.8-3.1,10.3s0.4,1.8,1.3,1s2.6-3.7,3.4-5.5c0.8-1.7,1.6-9.8,1.6-9.8
		c-0.1-0.3-0.9-0.5-1.2-0.1c-0.3,0.4-0.6,0.6-0.8,0.1C101,56,100.1,56.3,100.1,56.3"/>
	<path d="M98.7,64c0.5-1.3,0.7-7.3,0.7-7.3c0-0.9-0.4-1.6-0.6,0.1c-0.1,1.7-0.6,0.9-0.9-0.5c-0.3-1.5-0.8,2.8-0.6,4.3
		c0.2,1.4-1.2,5.4-1.8,7.9C94.9,70.9,98.2,65.3,98.7,64"/>
	<path d="M99.4,49.6c-0.2,1.9,0.1,2.7-0.5,2.5s0-3.1-0.5-3.1s-0.4,1.1-0.5,1.9c-0.1,0.8-0.2,3.1,1,3.1c2,0,1.5-3.8,1.5-4.5
		C100.3,48.8,99.6,47.7,99.4,49.6"/>
	<path d="M103.4,48.4c-0.5,0-0.7,0.1-0.7,1.2c0.1,1.1,0.2,2.2-0.4,2c-0.5-0.1-0.4-1.4-0.3-2.4c0-1-0.4-1-0.4-1s-0.5-0.1-0.5,0.9
		c0,1.1-0.2,4.6,0.9,4.6c1.1,0.1,1.7-0.9,1.8-3.2C103.9,48.4,103.9,48.4,103.4,48.4"/>
	<path d="M105.6,54.7c1.9,0.2,1.5-3.1,1.6-4c0-0.8,0.2-2.7-0.2-2.8c-0.5,0-0.4,0.5-0.4,1.4s-0.1,3-0.6,3.1c-0.5,0-0.7-1-0.5-2.6
		c0.1-1.5,0.1-1.8-0.1-1.8c0,0-0.7,0-0.7,1.2C104.6,50.5,103.8,54.5,105.6,54.7"/>
	<path d="M110.9,47.6c-0.5-0.1-0.9,0-0.9,1.1s0.1,4.5-0.5,4.5s-0.8-1-0.8-2.7s0.5-2.7,0.1-2.8c0,0-0.9-0.5-1,1.2s-0.3,6.2,1,6.5
		c1.4,0.2,2.2-1.5,2.1-3.6C110.9,49.6,111.5,47.7,110.9,47.6"/>
	<path d="M112.7,47.2c0,0-0.7-0.1-0.8,1.3c-0.1,1.4,0.1,3.9,0.1,5.1c0,1.2,0.1,2.3,1.3,2.5c1.2,0.1,2-1.8,2-3.8s0.5-5.2-0.3-5.4
		c-0.8-0.1-0.6,0.6-0.5,1.4c0,0.8,0,5.8-0.9,5.7s-1-2.3-0.8-4.5C113.2,46.8,112.7,47.2,112.7,47.2"/>
	<path d="M113.7,48c0,0-0.3-0.2-0.3,1.1s-0.3,3.5,0.2,3.5c0.5,0.1,0.1-1.2,0.3-2.4C114,49.1,114,48,113.7,48"/>
	<path d="M121,46.2c-0.7-0.1-1-0.2-1,1.2c0,1.5-0.1,5.8-0.1,5.8s0.1,1.7-1,1.7c-1.2,0-1.2-0.7-1.2-2.3s0.4-5.8-0.6-6
		c0,0-0.8,0-0.8,1.4c0,1.5,0.1,5.6,0.1,6.3s0.3,2.5,2.3,2.7c2,0.3,2.5-2.6,2.6-5.3C121.2,49.1,121.7,46.3,121,46.2"/>
	<path d="M118.8,47.7c0,0-0.5-0.2-0.5,1s-0.3,5,0.2,5c0.4,0,0.5-0.2,0.5-1.3C118.9,49.5,119.3,47.8,118.8,47.7"/>
	<path d="M96.9,12.5L97.5,8c0.1-0.7-0.1-1.1-0.9-1.2l-1.1-0.1l-0.9,6.7l1,0.1C96.5,13.5,96.8,13.2,96.9,12.5 M95.3,12.9l0.3-2.5
		l0.6,0.1l0.1-0.6l-0.6-0.1l0.4-2.5h0.3c0.4,0.1,0.5,0.2,0.5,0.6l-0.6,4.6c-0.1,0.4-0.2,0.5-0.6,0.4L95.3,12.9z"/>
	<path d="M43.7,45.9c0,0-0.9,0.1-0.9-0.8v-0.9h1.8c0.7,0,1.3-0.5,1.3-1.2s-0.6-1.2-1.3-1.2h-1.8h-0.7h-0.9v0.6c0,0,0.5-0.1,0.5,0.5
		v2.6c0,0-0.1,0.4-0.6,0.4v0.5h2.5L43.7,45.9z M44,42.2c0.3,0,0.6,0.3,0.6,0.6c0,0.4-0.3,0.6-0.6,0.6h-1.2v-1.3H44V42.2z"/>
	<path d="M36.7,73.9h2.6c0,0,0.4,0.1,0.4,0.6h0.5V72h-0.4c0,0,0.1,0.9-0.8,0.9h-0.8v-1.8c0-0.7-0.6-1.3-1.2-1.3
		c-0.7,0-1.2,0.6-1.2,1.3v1.8v0.7v0.9h0.6C36.2,74.4,36.1,73.9,36.7,73.9 M36.1,71.7c0-0.4,0.3-0.6,0.6-0.6c0.4,0,0.6,0.3,0.6,0.6
		v1.2H36v-1.2H36.1z"/>
	<path d="M80.8,94.1c0,0-0.2,0.5-0.7,0.2c-0.5-0.4-2.1-1.5-2.1-1.5s-0.3-0.4,0-0.8l-0.4-0.3L76,94l-0.6,0.8c-0.5,0.7-0.4,1.5,0.2,2
		c0.4,0.3,0.9,0.3,1.4,0c0,0.3,0.2,0.7,0.5,0.9c0.6,0.4,1.4,0.2,1.8-0.4l1-1.4l0.2-0.2l0.3-0.4l0.6-0.8L80.8,94.1z M76.6,95.7
		c-0.3-0.2-0.4-0.6-0.1-1l0.7-1c0.2,0,0.3,0,0.5,0.2c0.2,0.1,0.4,0.3,0.7,0.5l-0.8,1.1C77.3,95.8,76.9,95.9,76.6,95.7 M79.3,96.5
		c-0.2,0.3-0.6,0.4-0.9,0.1c-0.3-0.2-0.4-0.6-0.1-0.9l0.7-0.9c0.4,0.3,0.8,0.6,1,0.8L79.3,96.5z"/>
	<path d="M50,41.7c-1.4,0-2.6,1.1-2.6,2.4c0,1.3,1.2,2.4,2.6,2.4c1.4,0,2.6-1.1,2.6-2.4C52.6,42.7,51.5,41.7,50,41.7 M50,45.7
		c-0.4,0-1.1-0.8-1.1-1.7s0.6-1.7,1.1-1.7c0.4,0,1.1,0.8,1.1,1.7S50.5,45.7,50,45.7"/>
	<path d="M57.1,45.9c0,0-0.9,0.1-0.9-0.8v-0.9H57l1.3,2.1c0,0,0.9,0.2,1.5-0.6l-0.2-0.3c0,0-0.6,0.4-0.8-0.1
		c-0.2-0.3-0.5-0.9-0.7-1.2c0.7,0,1.3-0.6,1.3-1.2c0-0.7-0.6-1.2-1.3-1.2h-1.8h-0.7h-0.9v0.6c0,0,0.5-0.1,0.5,0.5v2.6
		c0,0-0.1,0.4-0.6,0.4v0.5H57L57.1,45.9z M57.3,42.2c0.3,0,0.6,0.3,0.6,0.6c0,0.4-0.3,0.6-0.6,0.6h-1.2v-1.3h1.2V42.2z"/>
	<path d="M36.7,64.9h2.6c0,0,0.4,0.1,0.4,0.6h0.5V63h-0.4c0,0,0.1,0.9-0.8,0.9h-1v-0.8l2.1-1.3c0,0,0.2-0.9-0.6-1.5l-0.3,0.2
		c0,0,0.4,0.6-0.1,0.8c-0.4,0.2-0.9,0.5-1.2,0.7c0-0.7-0.6-1.3-1.2-1.3c-0.7,0-1.2,0.6-1.2,1.3v1.8v0.7v0.9h0.6
		C36.2,65.4,36,64.9,36.7,64.9 M36,62.7c0-0.4,0.3-0.6,0.6-0.6c0.4,0,0.6,0.3,0.6,0.6v1.2H36V62.7z"/>
	<path d="M60.8,104.9c0,0,0.9,0.2,0.7,1.1c-0.1,0.2-0.1,0.5-0.2,0.8l-0.8-0.2l-0.7-2.4c0,0-0.8-0.4-1.6,0.1l0.1,0.4
		c0,0,0.7-0.2,0.8,0.3c0.1,0.4,0.3,1,0.3,1.3c-0.7-0.2-1.4,0.2-1.6,0.8c-0.2,0.7,0.2,1.3,0.9,1.5l2.4,0.7l0.8,0.2l0.2-0.6
		c0,0-0.5,0-0.3-0.6s0.7-2.5,0.7-2.5s0.2-0.4,0.7-0.3l0.1-0.5l-2.4-0.7L60.8,104.9z M59.1,107.6c0.1-0.3,0.4-0.5,0.8-0.4l1.2,0.3
		c-0.1,0.5-0.3,0.9-0.4,1.2l-1.2-0.3C59.1,108.2,59,107.9,59.1,107.6"/>
	<path d="M88,47.3c0,0,0.1,0.5-0.5,0.5h-2.6c0,0-0.4-0.1-0.4-0.6H84v2.5h0.4c0,0-0.1-0.9,0.8-0.9h0.9v0.8L84,50.9
		c0,0-0.2,0.9,0.6,1.5l0.3-0.2c0,0-0.4-0.6,0.1-0.8c0.3-0.2,0.9-0.5,1.2-0.7c0,0.7,0.6,1.3,1.2,1.3c0.7,0,1.2-0.6,1.2-1.3v-1.8v-0.7
		v-0.9H88z M88.1,50c0,0.4-0.3,0.6-0.6,0.6c-0.4,0-0.6-0.3-0.6-0.6v-1.2h1.3V50H88.1z"/>
	<polygon points="69.4,45.9 68.8,45.9 70.5,43.4 73,46.3 75.2,44 76.5,45.9 75.7,45.9 75.7,46.3 78.9,46.3 78.9,45.9 78.4,45.9 
		76.3,42.8 76.3,42.7 76.3,41.8 75.3,41.8 75.3,42.5 73.6,44.3 71.5,41.8 69.2,41.8 69.2,42.5 69.8,42.5 69.8,42.6 67.6,45.9 
		67.1,45.9 67.1,46.3 69.4,46.3 	"/>
	<polygon points="82.9,45.6 82.5,45.6 82.5,42.5 82.9,42.5 82.9,41.8 80.7,41.8 80.7,42.5 81.1,42.5 81.1,45.6 80.7,45.6 80.7,46.3 
		82.9,46.3 	"/>
	<polygon points="36.3,59 39.4,59 39.4,59.3 40.1,59.3 40.1,57.2 39.4,57.2 39.4,57.5 36.3,57.5 36.3,57.2 35.6,57.2 35.6,59.3 
		36.3,59.3 	"/>
	<polygon points="36.3,50.3 40.2,47.8 36.3,44.7 36.3,43.9 35.6,43.9 35.6,46.1 36.3,46.1 36.3,45.5 38.5,47.2 36.3,48.6 36.3,48.4 
		35.6,48.4 35.6,51 36.3,51 	"/>
	<polygon points="36,56.2 37,56.2 37,55.8 36.5,55.8 36.5,54.5 39.4,54.5 39.4,55.3 40.1,55.3 40.1,52.2 39.4,52.2 39.4,53 36.5,53 
		36.5,51.8 37,51.8 37,51.4 36.5,51.4 35.6,51.4 35.6,56.2 	"/>
	<polygon points="36.3,68.8 39.4,68.8 39.4,69.2 40.1,69.2 40.1,67 39.4,67 39.4,67.4 36.3,67.4 36.3,67 35.6,67 35.6,69.2 
		36.3,69.2 	"/>
	<path d="M76.3,99.7c-0.1,0-0.2-0.1-0.3-0.2l-1.9-2C74,97.4,74,97.4,74,97.3c0,0,0.1-0.2,0.4-0.4L74,96.5l-3.4,3.2l0.6,1.2l0.4-0.4
		c-0.1-0.2,0-0.7,0-0.7c0-0.1,0-0.2,0.1-0.2l1.4-1.3l2,2.1c0.1,0.1,0.2,0.3,0.2,0.3s-0.5,0.5-0.8,0.8l0.4,0.4l2.2-2l-0.4-0.4
		C76.4,99.6,76.3,99.7,76.3,99.7"/>
	<path d="M44.2,94.2l2.3-1.5c0.1-0.1,0.2-0.1,0.2,0c0,0,0.1,0.2,0.3,0.4l0.5-0.3l-2.5-4l-1.2,0.3l0.3,0.5c0.2-0.1,0.7,0.1,0.7,0.1
		c0.1,0,0.2,0.1,0.2,0.2l1,1.6l-2.4,1.6c-0.1,0.1-0.3,0.2-0.3,0.2s-0.4-0.6-0.6-0.9l-0.5,0.3l1.6,2.5l0.5-0.3
		c-0.2-0.2-0.2-0.4-0.3-0.5C43.9,94.4,44.1,94.3,44.2,94.2"/>
	<path d="M46.6,94.1l0.4,0.5c0.2-0.1,0.3-0.2,0.4-0.2c0.1,0,0.2-0.1,0.2-0.1c0.1,0,0.3,0.3,0.4,0.3l0.8,1.1l-1.2,0.9l-1.1-1.4
		L46,95.6l1.1,1.4l-0.9,0.7l-1-1.2v-0.1c0,0,0-0.1,0-0.2c0,0,0-0.1,0.1-0.1l0.2-0.3l-0.4-0.5l-0.8,1l2.5,3.1l0.4-0.3
		C47.1,99,47,98.9,47,98.8c-0.1-0.1-0.1-0.1-0.1-0.2c0,0,0-0.1,0.1-0.1l2.4-1.9c0.1-0.1,0.1-0.1,0.2-0.1c0,0,0.1,0.1,0.3,0.4
		l0.4-0.3l-2.6-3.3L46.6,94.1z"/>
	<path d="M39.2,85l2.9-1c0.1,0,0.2,0,0.2,0s0.1,0.2,0.2,0.4l0.5-0.2l-1.3-4l-1.3,0.1l0.2,0.6c0.2,0,0.4,0,0.4,0c0.1,0,0.2,0,0.2,0
		c0.1,0,0.2,0.4,0.2,0.5l0.4,1.3l-1.4,0.5l-0.6-1.7l-0.6,0.2l0.6,1.7l-1.1,0.4l-0.5-1.4v-0.1c0,0,0-0.1,0.1-0.1l0.1-0.1l0.3-0.2
		l-0.2-0.6L37.4,82l1.3,3.8l0.5-0.2c-0.1-0.2-0.1-0.3-0.1-0.3c0-0.1,0-0.2,0-0.2C39.1,85,39.1,85,39.2,85"/>
	<path d="M37.8,80.2c0.5,0,0.9-0.6,1.2-1.5c0.1-0.3,0.1-0.6,0.2-0.9c0.1-0.4,0.2-0.7,0.3-0.8c0.1-0.1,0.3-0.2,0.4-0.2
		c0.1,0,0.2,0.1,0.3,0.2s0.1,0.3,0.2,0.6c0,0.3,0,0.8-0.1,1s-0.5,0.5-0.9,0.7l0.3,0.8c0.5-0.2,0.9-0.4,1.3-0.5
		c0.1-0.8,0.2-1.1,0.1-1.8c-0.1-1-0.3-1.4-0.7-1.9c-0.3-0.4-0.7-0.6-1.1-0.6c-0.3,0-0.6,0.2-0.8,0.5c-0.2,0.2-0.3,0.8-0.4,1.2
		c0,0.1-0.1,0.3-0.2,0.9c-0.1,0.4-0.2,0.7-0.3,0.8c0,0.1-0.1,0.1-0.2,0.1c-0.2,0-0.4-0.2-0.5-0.6c0-0.3-0.1-1.5,0-1.6
		s0.5-0.3,0.8-0.5l-0.2-0.7c-0.5,0.2-0.9,0.4-1.3,0.4c-0.1,0.7-0.2,1-0.1,1.7c0.1,0.8,0.3,1.5,0.5,1.9C37,80,37.4,80.2,37.8,80.2"/>
	<path d="M87.3,61.3C87.5,61.4,87.4,61.4,87.3,61.3c0.2,0.2,0.3,0.2,0.3,0.2s0.1,0.1,0.1,0.3v1.7l-3.3-2.9c0,0-0.5-0.6-0.5,0.4v4.5
		l1.2,0.4V65c-0.3-0.1-0.2-0.2-0.3-0.3c-0.1-0.1-0.1-0.2-0.1-0.4v-1.4l3.3,2.8c0,0,0.5,0.3,0.5-0.4v-4.5l-1.3-0.3v0.8H87.3z"/>
	<path d="M84.8,53.3c0,0,0-0.2,0-0.4H84v1.9h0.8v-0.4l0,0l0.8,0.4v2c-0.6,0.4-0.8,0.4-0.8,0.4v-0.8H84v3h0.8c0-0.2,0-0.4,0-0.4
		c0-0.1,0.1-0.1,0.2-0.2l3.6-2.1v-1.3l-3.7-2L84.8,53.3 M86.2,55.3l1,0.5l-1,0.6V55.3z"/>
	<path d="M84.8,67c0,0,0-0.2,0-0.4H84v1.9h0.8V68l0,0l0.8,0.4v2c-0.6,0.4-0.8,0.4-0.8,0.4V70H84v3.1h0.8c0-0.2,0-0.4,0-0.4
		c0-0.1,0.1-0.1,0.2-0.2l3.6-2.1V69L84.8,67C84.8,67,84.8,67,84.8,67 M86.2,68.9l1,0.5l-1,0.6V68.9z"/>
	<path d="M70.1,101.3l-0.4-0.7l-1.6,1l0.4,0.7c0.2-0.1,0.3-0.2,0.3-0.2l0,0l0.1,0.9l-1.7,1.1c-0.6-0.3-0.8-0.4-0.8-0.4l0.7-0.4
		l-0.4-0.7l-2.6,1.6l0.4,0.7c0.2-0.1,0.3-0.2,0.4-0.2s0.1,0,0.3,0.1l3.7,1.9L70,106l-0.3-4.1c0-0.1,0-0.1,0-0.2
		C69.8,101.5,69.9,101.4,70.1,101.3 M67.9,104.4l0.9-0.6l0.1,1.1L67.9,104.4z"/>
	<path d="M56.6,102.1l-0.5,0.6c0.2,0.1,0.3,0.2,0.3,0.2l0,0l-0.8,0.4l-1.6-1.2c0.1-0.7,0.1-0.9,0.1-0.9s0.6,0.5,0.7,0.5l0.4-0.6
		l-2.5-1.8l-0.4,0.6c0.2,0.1,0.3,0.2,0.3,0.3c0,0,0,0.1,0,0.3l-0.3,4.2l1.1,0.8l3.7-1.8c0.1,0,0.1,0,0.2,0c0,0,0.2,0.1,0.3,0.2
		l0.5-0.6L56.6,102.1z M53.9,104.1l0.1-1.2l0.9,0.6L53.9,104.1z"/>
	<path d="M81.6,85.6c0,0,0.1-0.2,0.1-0.4L81,84.9l-0.8,1.7l0.7,0.3c0.1-0.2,0.1-0.3,0.2-0.3l0,0l0.5,0.7L80.9,89
		c-0.7,0.1-0.9,0.1-0.9,0.1l0.3-0.7l-0.7-0.3l-1.2,2.8l0.7,0.3c0.1-0.2,0.2-0.3,0.2-0.4c0,0,0.1-0.1,0.3-0.1l4.1-0.5l0.5-1.2
		l-2.5-3.3C81.6,85.7,81.6,85.6,81.6,85.6 M82.8,88.8l-1.1,0.1l0.4-1L82.8,88.8z"/>
	<path d="M86.9,79.1c0,0.1-0.1,0.1-0.1,0.2c0,0-0.2,0-0.3-0.1l-2.7-0.7c-0.1,0-0.2-0.1-0.2-0.1s0-0.2,0.1-0.5l-0.6-0.1L82.5,80
		l0.6,0.1c0-0.2,0.1-0.2,0.1-0.3c0-0.1,0.1-0.1,0.1-0.1s0.1,0,0.2,0l1.1,0.3l-0.5,2L83,81.7c-0.1,0-0.1-0.1-0.2-0.1
		c0,0,0-0.2,0.1-0.4L82.3,81l-0.6,2.3l0.5,0.1c0.1-0.2,0.1-0.3,0.1-0.3c0-0.1,0.1-0.1,0.1-0.2c0,0,0.1,0,0.2,0l2.7,0.7
		c0.1,0,0.3,0.1,0.3,0.1s0,0.2-0.1,0.5l0.6,0.2l0.6-2.3l-0.6-0.2c0,0.2-0.1,0.2-0.1,0.3c0,0.1-0.1,0.1-0.1,0.1s-0.2,0-0.3-0.1
		L84.7,82l0.5-2l0.9,0.2c0.1,0,0.3,0.1,0.3,0.1s0,0.2-0.1,0.4l0.6,0.2l0.6-2.3L87,78.8C86.9,79,86.9,79.1,86.9,79.1"/>
</g>
</svg>
