<?xml version="1.0" encoding="UTF-8"?>
<svg id="Capa_1" data-name="Capa 1" xmlns="http://www.w3.org/2000/svg" viewBox="0 0 55.99 55.65">
  <defs>
    <style>
      .cls-1 {
        fill: #24366c;
      }
    </style>
  </defs>
  <g>
    <polygon class="cls-1" points="9.75 31.73 29.45 31.73 35.87 44.89 16.28 44.89 9.75 31.73"/>
    <polygon class="cls-1" points="10.07 24.09 12.85 29.61 31.48 30.99 35.87 44.89 33.73 30.36 10.07 24.09"/>
    <polygon class="cls-1" points="14.14 16.98 14.14 23.03 35.87 29.93 35.87 44.89 38.12 29.61 14.14 16.98"/>
    <polygon class="cls-1" points="20.56 11.89 20.56 17.72 40.16 29.5 35.98 44.47 42.4 29.72 20.56 11.89"/>
    <polygon class="cls-1" points="29.55 9.23 26.13 13.58 44.65 30.14 35.87 44.89 46.9 30.78 29.55 9.23"/>
  </g>
  <g>
    <path class="cls-1" d="M1.5,25.93c.33,0,.64-.11.9-.32.31-.25.49-.58.54-.98.03-.27-.01-.53-.12-.78l-.02-.04-.7-.08.09.14c.05.07.09.13.12.2.03.06.06.11.07.17.03.09.04.2.03.33-.03.26-.14.46-.34.61-.2.16-.43.22-.69.19-.26-.03-.48-.14-.64-.34-.16-.19-.23-.41-.2-.67.03-.23.14-.44.35-.64l.12-.11-.69-.07-.03.03c-.16.22-.26.46-.29.71-.05.46.08.86.39,1.19.25.27.57.42.92.46.06,0,.12,0,.17,0Z"/>
    <path class="cls-1" d="M2.14,20.83c.17.06.34.09.5.09.25,0,.48-.07.7-.2.33-.19.56-.47.68-.81.13-.39.1-.77-.08-1.13-.18-.36-.47-.61-.85-.74-.39-.13-.77-.1-1.13.09-.36.18-.61.47-.74.85-.13.39-.1.76.08,1.13.18.37.46.62.84.74ZM1.73,19.14c.08-.25.23-.42.46-.53.13-.06.27-.1.4-.1.1,0,.21.02.32.05.25.08.43.23.55.46.12.23.13.46.05.71-.08.23-.23.4-.46.52-.13.07-.27.1-.41.1-.1,0-.21-.02-.32-.06-.25-.08-.43-.23-.54-.46-.12-.23-.13-.46-.05-.7Z"/>
    <polygon class="cls-1" points="6.32 14.83 5.85 14.57 5.46 15.26 3.44 14.13 3.16 14.61 5.65 16 6.32 14.83"/>
    <polygon class="cls-1" points="7.76 11.88 7.18 11.41 7.84 10.6 7.42 10.26 6.76 11.07 6.38 10.76 7.06 9.93 6.64 9.59 5.61 10.86 7.82 12.64 8.86 11.38 8.44 11.04 7.76 11.88"/>
    <path class="cls-1" d="M10.78,8.9c.05,0,.1,0,.16,0,.34,0,.64-.11.91-.33.32-.26.48-.59.49-.99,0-.17-.02-.34-.09-.49-.06-.15-.16-.31-.3-.48l-.11-.13-.98.8.34.41.51-.42c.06.12.08.26.05.41-.04.19-.12.34-.26.45-.16.13-.35.19-.58.19h-.05c-.27-.01-.49-.12-.67-.34-.18-.21-.25-.43-.23-.69.02-.25.13-.46.34-.63.23-.19.5-.24.84-.16l.09.02.06-.55h-.07c-.26-.05-.49-.05-.69,0-.21.05-.4.15-.57.29-.32.26-.5.6-.53,1-.04.4.07.76.34,1.07.26.31.59.49.99.52Z"/>
    <polygon class="cls-1" points="15.68 5.93 14.27 3.47 13.79 3.74 15.19 6.2 15.68 5.93"/>
    <path class="cls-1" d="M19.76,1.55c-.37-.17-.75-.2-1.13-.07-.39.13-.67.39-.85.75-.18.36-.21.74-.08,1.11.15.43.43.72.82.88.19.08.39.12.58.12.16,0,.32-.03.48-.08.39-.14.68-.39.86-.75.18-.36.21-.74.08-1.12-.13-.38-.39-.66-.76-.84ZM19.94,3.29c-.11.23-.29.38-.54.47-.23.08-.46.06-.69-.04-.23-.11-.39-.29-.49-.55-.09-.25-.07-.48.04-.71.11-.23.29-.38.53-.47.11-.04.21-.06.31-.06.14,0,.27.03.4.09.23.11.38.29.47.54.08.25.07.48-.04.72Z"/>
    <path class="cls-1" d="M28.53,2.78c.17-.05.34-.14.49-.27.31-.26.47-.62.48-1.05,0-.43-.13-.79-.42-1.06-.14-.13-.31-.23-.48-.29-.16-.06-.39-.09-.67-.1h-.65s-.06,2.82-.06,2.82h.72c.24.01.44,0,.57-.05ZM28.65,2.1c-.09.08-.2.13-.3.17-.1.03-.23.05-.39.05h-.15s.04-1.77.04-1.77h.11c.33,0,.57.09.73.24.18.17.27.39.26.66,0,.27-.1.48-.29.65Z"/>
    <polygon class="cls-1" points="33.96 3.04 32.9 2.82 33.05 2.09 34.08 2.31 34.19 1.79 33.17 1.57 33.27 1.09 34.33 1.31 34.44 .79 32.83 .45 32.24 3.23 33.85 3.56 33.96 3.04"/>
    <path class="cls-1" d="M42.96,4.61c-.13-.24-.31-.42-.53-.55-.4-.24-.82-.28-1.25-.14-.35.12-.62.34-.81.64-.2.34-.26.71-.16,1.1.1.39.33.69.68.89.23.14.49.21.77.21h.05s.36-.6.36-.6l-.16.03c-.08.01-.16.02-.23.02-.07,0-.13,0-.19,0-.1,0-.2-.05-.32-.12-.22-.13-.36-.31-.42-.56-.06-.24-.02-.47.11-.7.14-.23.32-.37.57-.44.24-.07.47-.04.7.09.2.12.35.31.44.58l.05.15.35-.59-.02-.04Z"/>
    <polygon class="cls-1" points="46.11 6.8 45.69 6.44 43.83 8.59 44.26 8.96 46.11 6.8"/>
    <polygon class="cls-1" points="48.5 9.92 49.2 10.73 49.61 10.39 48.54 9.15 46.37 10.99 47.44 12.23 47.84 11.88 47.14 11.07 47.71 10.58 48.4 11.38 48.8 11.03 48.12 10.24 48.5 9.92"/>
    <polygon class="cls-1" points="49.07 14.48 49.34 14.96 50.89 14.1 50.06 16.8 52.8 15.28 52.52 14.8 50.98 15.65 51.82 12.95 49.07 14.48"/>
    <path class="cls-1" d="M51.89,19.51c-.18.35-.22.73-.09,1.11.08.25.22.48.43.67l.03.03.67-.21-.14-.09c-.07-.04-.13-.09-.19-.13-.05-.04-.1-.09-.13-.13-.06-.07-.12-.17-.16-.3-.08-.24-.06-.47.06-.69.12-.22.3-.37.55-.45.25-.08.5-.06.72.05.23.11.38.29.45.53.07.22.05.47-.06.73l-.07.15.66-.2v-.04c.07-.27.06-.52-.01-.76-.14-.44-.42-.76-.84-.93-.34-.14-.69-.16-1.03-.05-.38.12-.67.36-.86.71Z"/>
    <rect class="cls-1" x="52.64" y="23.91" width="2.85" height=".55" transform="translate(-2.71 7.31) rotate(-7.55)"/>
    <path class="cls-1" d="M52.83,29.42l-.02.61,3.18-1.28-3.08-1.56-.02.6.65.32-.04,1.05-.67.26ZM54.04,28.95l.02-.58.64.32-.66.26Z"/>
    <path class="cls-1" d="M54.48,33c-.32-.08-.62.06-.87.41l-.16.23c-.04.06-.08.1-.12.14-.04.03-.07.06-.11.08-.03.02-.07.03-.1.03-.04,0-.08,0-.12,0-.11-.02-.19-.08-.24-.16-.05-.08-.07-.17-.04-.28.03-.13.1-.22.21-.26.04-.02.14-.03.3-.01h.08s0-.56,0-.56h-.07c-.27-.03-.5.02-.68.15-.19.13-.31.32-.37.56-.06.26-.02.5.11.71.13.21.33.35.59.41.2.04.38.03.54-.05.16-.08.31-.21.45-.42l.17-.24c.1-.14.2-.2.3-.18.07.02.12.06.15.12.04.07.05.15.02.24-.02.07-.04.13-.09.17-.02.03-.08.07-.21.1l-.07.02.16.51.07-.02c.36-.11.58-.33.66-.66.06-.24.03-.46-.08-.66-.11-.2-.28-.33-.49-.38Z"/>
    <polygon class="cls-1" points="49.32 40.48 49.02 40.95 50.07 41.59 50.97 43.23 51.31 42.68 50.75 41.68 51.91 41.71 52.24 41.17 50.36 41.11 49.32 40.48"/>
    <polygon class="cls-1" points="44.09 46.62 44.89 47.58 44.11 48.22 43.31 47.25 42.88 47.61 44.69 49.79 45.12 49.44 44.45 48.63 45.23 47.99 45.91 48.8 46.34 48.45 44.53 46.26 44.09 46.62"/>
    <path class="cls-1" d="M40.33,49.58c-.29-.09-.58-.07-.85.08-.28.14-.46.36-.55.66-.08.26-.04.53.1.8l.85,1.59.5-.26-.8-1.49c-.1-.19-.15-.34-.13-.45.03-.16.11-.28.28-.37.16-.08.31-.09.46-.02.1.05.2.17.3.36l.8,1.49.5-.26-.85-1.59c-.14-.27-.35-.44-.61-.53Z"/>
    <polygon class="cls-1" points="35.42 51.42 35.56 52.88 34.4 51.46 34.1 53.27 33.5 51.95 32.94 52.1 34.35 55.05 34.73 52.71 36.23 54.53 35.98 51.27 35.42 51.42"/>
    <path class="cls-1" d="M29.64,53.17l-1.05.05-.32-.64-.61.03,1.56,3.03,1.3-3.17-.61.03-.27.66ZM28.84,53.74l.58-.03-.27.66-.32-.63Z"/>
    <polygon class="cls-1" points="24.27 54.12 22.65 51.8 22.16 54.87 22.71 54.96 22.99 53.23 24.61 55.55 25.11 52.47 24.55 52.38 24.27 54.12"/>
    <polygon class="cls-1" points="18.33 53.78 18.85 53.96 19.8 51.29 19.27 51.1 18.33 53.78"/>
    <path class="cls-1" d="M15.4,49.42c-.18-.03-.36-.03-.56.01-.4.09-.71.32-.92.7-.21.38-.25.76-.13,1.13.06.19.16.35.29.48.12.13.3.26.55.39l.56.31,1.39-2.48-.56-.31c-.25-.14-.45-.22-.61-.25ZM14.86,51.67c-.29-.16-.47-.34-.54-.55-.08-.24-.05-.47.08-.71.13-.24.32-.38.56-.44.06-.02.13-.02.2-.02.05,0,.1,0,.15.01.12.02.25.08.4.16l.09.05-.86,1.54-.09-.05Z"/>
    <path class="cls-1" d="M11.59,47.54l-.81-.68.21-.68-.47-.4-.95,3.27,3.14-1.44-.47-.39-.65.3ZM10.41,48.1l.2-.68.45.37-.65.3Z"/>
    <path class="cls-1" d="M7.9,42.99c-.15-.1-.32-.17-.52-.2-.4-.07-.78.03-1.12.3-.34.27-.53.6-.56,1-.01.19.01.38.08.55.06.16.18.35.35.57l.4.5,2.24-1.76-.39-.5c-.17-.22-.33-.37-.47-.46ZM6.6,44.94l-.06-.08c-.21-.25-.3-.49-.28-.71.02-.25.13-.45.35-.62.17-.13.36-.2.55-.2.05,0,.09,0,.14.01.12.02.23.06.32.12.1.07.2.17.31.3l.07.08-1.4,1.1Z"/>
    <polygon class="cls-1" points="5.14 38.43 4.66 38.67 5.16 39.62 4.49 39.97 4.01 39.04 3.53 39.29 4.02 40.21 3.58 40.44 3.08 39.49 2.6 39.74 3.36 41.18 5.89 39.87 5.14 38.43"/>
    <path class="cls-1" d="M2.66,35.24s.03-.09.05-.13c.02-.03.05-.06.08-.08.03-.02.07-.04.11-.05.11-.03.2-.02.29.02.09.05.15.12.18.22.04.13.02.24-.05.33-.02.03-.09.09-.25.16l-.08.03.29.5.06-.03c.24-.12.42-.28.51-.48.1-.2.11-.43.03-.67-.08-.25-.23-.44-.46-.56-.22-.12-.47-.14-.72-.06-.19.06-.34.17-.44.31-.1.14-.16.34-.18.59l-.03.29c-.02.26-.13.29-.16.31-.07.02-.13.01-.2-.03-.07-.04-.12-.11-.14-.2-.02-.07-.03-.14-.01-.19,0-.03.04-.1.13-.19l.05-.06-.4-.36-.05.06c-.25.28-.33.58-.23.9.07.24.21.41.4.53.13.08.26.11.39.11.08,0,.15-.01.23-.04.32-.1.5-.36.54-.79l.03-.28c0-.07.02-.13.03-.18Z"/>
  </g>
  <path class="cls-1" d="M55.12,54.05c0,.82-.65,1.47-1.5,1.47s-1.51-.65-1.51-1.47.67-1.45,1.51-1.45,1.5.65,1.5,1.45ZM52.49,54.05c0,.65.48,1.16,1.14,1.16s1.12-.51,1.12-1.15-.47-1.17-1.13-1.17-1.13.52-1.13,1.16ZM53.39,54.81h-.34v-1.46c.13-.03.32-.04.57-.04.28,0,.4.04.51.11.08.06.14.18.14.32,0,.16-.12.28-.3.34v.02c.14.05.22.16.27.35.05.22.07.31.11.36h-.37c-.04-.05-.07-.19-.11-.36-.03-.16-.12-.23-.31-.23h-.16v.59ZM53.4,53.99h.16c.19,0,.34-.06.34-.21,0-.13-.1-.22-.31-.22-.09,0-.15.01-.19.02v.42Z"/>
</svg>