<?xml version="1.0" encoding="UTF-8"?>
<svg id="uuid-f6362d66-18cb-4f7a-91bf-c44935d92763" xmlns="http://www.w3.org/2000/svg" version="1.1" viewBox="0 0 399.1 108.5">
  <!-- Generator: Adobe Illustrator 29.0.1, SVG Export Plug-In . SVG Version: 2.1.0 Build 192)  -->
  <defs>
    <style>
      .st0 {
        fill: #bbc447;
      }

      .st1 {
        fill: #eb844c;
      }

      .st2 {
        fill: #6e3f6a;
      }

      .st3 {
        fill: #40b8b3;
      }
    </style>
  </defs>
  <g>
    <path class="st2" d="M41.4,63.6v14.6h0v30H0V42.3h20.1c11.8,0,21.3,9.5,21.3,21.3Z"/>
    <path class="st3" d="M69.1,42.3h20.2c-1.4,21.9-17,35.9-41.4,35.9v-14.6c0-11.8,9.5-21.3,21.3-21.3Z"/>
    <path class="st1" d="M20.1,35.9H0V0h41.4v14.7c0,11.8-9.5,21.3-21.3,21.3Z"/>
    <path class="st0" d="M47.8,14.7V0c24.6,0,40.1,13.9,41.4,35.9h-20.2c-11.8,0-21.3-9.5-21.3-21.3Z"/>
  </g>
  <path class="st2" d="M96.4,75.2c0-18.8,13.2-33,30.8-33s15.4,3.3,20.5,8.9v-7.4h16.1v42.1c0,3.3,1.9,5.3,5.3,5.3h1.2v15.6h-4.6c-8.7,0-14.2-3.1-16.7-9.1-5.1,6.5-12.7,10.6-21.9,10.6-17.5,0-30.8-14.2-30.8-33h0ZM147.7,75.2c0-9.9-7.4-17.4-17.4-17.4s-17.3,7.5-17.3,17.4,7.4,17.4,17.3,17.4,17.4-7.5,17.4-17.4Z"/>
  <path class="st2" d="M177.7,75.2c0-18.8,14.6-33,33.9-33s29.9,10.7,32.4,25.7h-17.1c-2.1-6.1-8-10.1-15.3-10.1s-17.3,7.5-17.3,17.4,7.4,17.4,17.3,17.4,13.2-4.1,15.3-10.1h17.1c-2.5,14.9-15.6,25.7-32.4,25.7s-33.9-14.2-33.9-33Z"/>
  <path class="st2" d="M252.7,75.2c0-18.8,14.6-33,33.9-33s29.9,10.7,32.4,25.7h-17.1c-2.1-6.1-8-10.1-15.3-10.1s-17.3,7.5-17.3,17.4,7.4,17.4,17.3,17.4,13.2-4.1,15.3-10.1h17.1c-2.5,14.9-15.6,25.7-32.4,25.7s-33.9-14.2-33.9-33h0Z"/>
  <path class="st2" d="M331.8,19.3h16.1v33.4c4.9-5.8,11.9-8.9,20-8.9,14.8,0,24.6,9.6,24.6,24.5v19.1c0,3.3,2,5.3,5.3,5.3h1.4v15.6h-4.6c-12,0-18.2-5.9-18.2-17.4v-17.4c0-8.5-5.4-14.1-13.7-14.1s-14.8,5.7-14.8,14.3v34.6h-16.1V19.3h0Z"/>
</svg>