<?xml version="1.0" encoding="utf-8"?>
<!-- Generator: Adobe Illustrator 22.1.0, SVG Export Plug-In . SVG Version: 6.00 Build 0)  -->
<svg version="1.1" id="Capa_1" xmlns="http://www.w3.org/2000/svg" xmlns:xlink="http://www.w3.org/1999/xlink" x="0px" y="0px"
	 viewBox="0 0 226.9 226.9" style="enable-background:new 0 0 226.9 226.9;" xml:space="preserve">
<style type="text/css">
	.st0{fill:#222221;}
</style>
<g>
	<g>
		<path class="st0" d="M8.5,97.9l1.1-2.3c1.2,0.6,2.1,1.3,2.7,2.3c0.5,0.9,0.6,2.1,0.4,3.4c-0.2,1.6-1,2.8-2.2,3.7
			c-1.2,0.9-2.7,1.2-4.8,0.9c-1.9-0.3-3.4-1.1-4.4-2.3c-0.9-1.2-1.3-2.7-1.1-4.4c0.3-1.5,0.9-2.7,1.9-3.4c0.6-0.5,1.4-0.9,2.4-0.9
			l0.3,2.5c-0.6,0.1-1.2,0.2-1.7,0.6c-0.4,0.4-0.6,1-0.8,1.6c-0.1,0.9,0.1,1.7,0.6,2.4c0.6,0.6,1.5,1.1,3,1.4
			c1.4,0.2,2.6,0.1,3.3-0.4s1.2-1.2,1.3-2.1c0.1-0.6,0-1.2-0.4-1.7C9.9,98.7,9.3,98.2,8.5,97.9z"/>
		<path class="st0" d="M12.1,71.2c0.6,0.1,1.3,0.3,1.9,0.5c1.9,0.6,3.2,1.7,3.8,3.1c0.7,1.4,0.7,3,0.2,4.6c-0.7,1.7-1.7,2.9-3,3.6
			c-0.9,0.4-1.9,0.6-3,0.4v-2.6c0.8,0.1,1.5,0.1,2.1-0.2c0.9-0.3,1.6-0.9,1.9-1.9c0.4-1,0.3-1.8-0.2-2.7c-0.4-0.9-1.3-1.6-2.7-2
			c-0.4-0.1-0.8-0.2-1.1-0.3v-2.5H12.1z M10.3,83c0.6,0.2,1.3,0.4,1.9,0.4v-2.6c-0.4,0-0.7-0.2-1.2-0.3c-1.3-0.5-2.2-1.2-2.6-1.9
			c-0.5-0.9-0.5-1.8-0.2-2.7c0.4-0.9,0.9-1.6,1.8-2c0.6-0.2,1.3-0.2,2.2-0.1v-2.6c-1.1-0.1-2.1,0-3,0.4c-1.4,0.6-2.4,1.8-3,3.5
			c-0.3,1-0.4,1.9-0.4,2.7C5.9,78.4,6,79,6.2,79.7c0.4,0.6,0.7,1.2,1.2,1.7C8.1,82,9.1,82.5,10.3,83z"/>
		<polygon class="st0" points="25.2,63.2 15.2,56.4 16.5,54.4 24.9,60 28.3,54.9 30,56 		"/>
		<polygon class="st0" points="37.1,47 28.3,38.4 34.7,31.8 36.1,33.3 31.4,38 33.5,40 37.7,35.6 39.1,37 34.9,41.4 37.3,43.7 
			42,38.9 43.5,40.3 		"/>
		<path class="st0" d="M54.8,25.7l-1.2-1.8l4.4-3l2.7,4c-0.1,0.7-0.5,1.5-1.1,2.4c-0.5,0.9-1.3,1.7-2.1,2.2
			c-1.1,0.7-2.2,1.2-3.2,1.2c-1.2,0.1-2.2-0.1-3.1-0.6c-0.9-0.6-1.7-1.4-2.4-2.4c-0.7-1.1-1.2-2.1-1.3-3.3c-0.1-1.2,0.1-2.2,0.6-3.2
			c0.4-0.9,1-1.5,2-2.2c1.2-0.9,2.4-1.4,3.5-1.3c1.1,0,1.9,0.4,2.7,1.3l-1.7,1.7c-0.5-0.4-1.1-0.6-1.7-0.6c-0.6,0-1.2,0.1-1.7,0.6
			c-0.9,0.6-1.4,1.4-1.5,2.3c-0.2,0.9,0.1,2,0.9,3.1c0.8,1.2,1.7,1.9,2.7,2.1c0.9,0.3,1.8,0.1,2.7-0.4c0.4-0.4,0.7-0.7,1.1-1.2
			c0.3-0.4,0.6-0.9,0.7-1.4L57,24.1L54.8,25.7z"/>
		<polygon class="st0" points="72.2,21.3 67.4,10 69.7,8.9 74.5,20.3 		"/>
		<path class="st0" d="M89.8,2.5C91,2.5,92,2.7,93,3.4c1.3,0.9,2.2,2.2,2.6,4.2c0.4,1.9,0.2,3.5-0.6,4.9c-0.8,1.4-2.1,2.2-3.8,2.7
			c-0.5,0.1-0.9,0.1-1.4,0.1v-2.2c0.2,0,0.6-0.1,0.9-0.1c1-0.3,1.7-0.8,2.2-1.7s0.6-1.9,0.2-3.3c-0.3-1.4-0.8-2.3-1.5-2.9
			c-0.6-0.4-1.2-0.6-1.7-0.6L89.8,2.5L89.8,2.5z M83.9,10.3c0.5,1.9,1.4,3.3,2.7,4.1c0.9,0.6,1.9,0.9,3.2,0.9v-2.2
			c-0.6-0.1-1.2-0.2-1.7-0.6c-0.7-0.6-1.3-1.5-1.5-2.9c-0.4-1.4-0.3-2.5,0.1-3.4c0.5-0.8,1.2-1.3,2.2-1.5c0.4-0.1,0.6-0.1,0.9-0.1
			V2.5c-0.5,0-0.9,0.1-1.4,0.1c-1,0.2-1.8,0.6-2.4,1.1c-0.5,0.3-1,0.8-1.4,1.4C84.3,5.7,84,6.4,83.9,7C83.7,7.9,83.7,9,83.9,10.3z"
			/>
		<path class="st0" d="M118.3,0.3c0.9,0.1,1.5,0.1,2,0.3c0.6,0.3,1.3,0.6,1.8,1.2s0.8,1.3,1.1,2.1c0.2,0.7,0.3,1.7,0.2,2.9
			c0,1-0.1,1.9-0.5,2.7c-0.3,0.9-0.7,1.6-1.4,2.1c-0.4,0.4-1,0.7-1.7,0.9c-0.4,0.1-0.9,0.1-1.5,0.2v-2.2c0.3,0,0.4,0,0.6-0.1
			c0.4-0.1,0.6-0.2,0.9-0.4s0.5-0.6,0.6-1.2c0.2-0.6,0.4-1.3,0.4-2.2c0.1-1,0-1.7-0.1-2.2s-0.4-0.9-0.6-1.2c-0.3-0.4-0.6-0.5-1-0.6
			c-0.1,0-0.4-0.1-0.8-0.1V0.3L118.3,0.3z M113.6,0.1L113,12.5l4.7,0.1c0.2,0,0.4,0.1,0.6,0.1v-2.2c-0.3,0-0.5,0-0.9,0l-1.9-0.1
			l0.4-8.2l1.1,0.1c0.4,0,0.9,0.1,1.2,0.1V0.3c-0.1,0-0.1,0-0.2,0L113.6,0.1z"/>
		<polygon class="st0" points="134.8,14.9 137.6,2.8 146.4,5 145.9,7 139.6,5.5 138.9,8.2 144.8,9.5 144.3,11.6 138.4,10.1 
			137.6,13.4 144.3,15 143.8,17.1 		"/>
		<path class="st0" d="M167.9,23.6l1.7,1.9c-1,1-2,1.5-3.1,1.7c-1.1,0.1-2.2-0.1-3.3-0.8c-1.4-0.9-2.2-2-2.6-3.5
			c-0.3-1.5,0-3.1,1-4.8c0.9-1.7,2.3-2.8,3.7-3.3c1.4-0.4,3-0.3,4.4,0.6c1.2,0.7,2,1.7,2.4,3c0.1,0.8,0.1,1.7-0.1,2.7l-2.4-0.7
			c0.1-0.6,0.1-1.2,0-1.7c-0.2-0.6-0.6-1.1-1.2-1.4c-0.7-0.4-1.5-0.5-2.4-0.2c-0.8,0.2-1.5,1.1-2.2,2.3c-0.9,1.3-1.2,2.4-1,3.3
			c0.1,0.8,0.6,1.5,1.4,2c0.6,0.3,1.2,0.4,1.8,0.3C166.7,24.7,167.4,24.3,167.9,23.6z"/>
		<polygon class="st0" points="177.2,35.7 185.2,26.4 187,28.1 179,37.4 		"/>
		<polygon class="st0" points="187.7,45.7 197,37.6 202.8,44.6 201.3,46 197,40.9 194.9,42.6 198.9,47.4 197.3,48.7 193.4,44.1 
			190.8,46.2 195.3,51.4 193.7,52.9 		"/>
		<polygon class="st0" points="200.5,62.4 211.4,57 212.4,59.1 207.5,67.3 214.7,63.7 215.7,65.7 204.8,71.2 203.7,69 208.6,61 
			201.6,64.5 		"/>
		<path class="st0" d="M215.7,89.3l-0.1,2.5c-1.3,0-2.4-0.4-3.2-0.9c-0.9-0.6-1.5-1.7-1.9-2.9c-0.4-1.6-0.3-3.1,0.6-4.4
			c0.7-1.4,2.1-2.2,3.9-2.7c1.9-0.6,3.6-0.5,5,0.2c1.4,0.6,2.3,1.9,2.7,3.6c0.4,1.4,0.4,2.7-0.2,3.9c-0.3,0.6-1,1.3-1.8,1.8
			l-1.2-2.2c0.6-0.2,0.9-0.7,1.2-1.2c0.2-0.6,0.2-1.2,0.1-1.9c-0.2-0.8-0.7-1.4-1.4-1.8c-0.9-0.4-1.9-0.4-3.3,0
			c-1.4,0.4-2.5,1-2.9,1.7c-0.5,0.7-0.6,1.5-0.4,2.4c0.1,0.6,0.6,1.2,1.1,1.4C214.1,89.2,214.7,89.3,215.7,89.3z"/>
		<polygon class="st0" points="213.6,104.6 225.8,103.8 225.9,106.3 213.7,107 		"/>
		<path class="st0" d="M220.4,121.1l5.3,2.6l-0.3,2.6l-5,1.6v-2.4l2.4-0.7l-2.4-1V121.1L220.4,121.1z M213,130.3l7.4-2.4v-2.4
			l-2.3,0.6l0.3-3.3l2,0.9v-2.6l-6.6-3.2l-0.1,2.7l2.7,1.2l-0.4,4.9l-2.9,0.9L213,130.3z"/>
		<path class="st0" d="M214.3,141.6l-0.6,2.4c-0.8-0.1-1.4,0-1.9,0.3c-0.5,0.4-0.9,0.8-1.1,1.6c-0.2,0.7-0.3,1.4-0.1,1.8
			c0.2,0.5,0.6,0.9,0.9,1c0.3,0.1,0.5,0.1,0.8,0c0.2-0.1,0.6-0.4,0.8-0.6c0.1-0.3,0.6-0.9,1.2-1.7c0.7-1.2,1.4-1.9,1.9-2.4
			c0.9-0.5,1.8-0.6,2.7-0.2c0.6,0.1,1.1,0.5,1.5,1.1c0.4,0.5,0.6,1.1,0.7,1.8c0.1,0.8-0.1,1.6-0.3,2.5c-0.5,1.4-1.2,2.4-2.2,3
			c-0.8,0.5-1.8,0.6-2.9,0.3l0.6-2.4c0.7,0.1,1.2,0.1,1.5-0.1c0.4-0.3,0.6-0.7,0.9-1.4c0.3-0.6,0.3-1.2,0.1-1.7
			c-0.1-0.3-0.2-0.5-0.5-0.6s-0.6-0.1-0.9,0.1c-0.3,0.3-0.8,0.9-1.4,1.9c-0.6,1.1-1.2,1.8-1.7,2.3c-0.4,0.4-1,0.7-1.6,0.8
			c-0.5,0.2-1.3,0.2-2-0.1c-0.6-0.2-1.2-0.6-1.7-1.2c-0.4-0.6-0.7-1.2-0.8-2c0-0.7,0.1-1.7,0.5-2.7c0.5-1.4,1.2-2.4,2.1-3
			C211.8,141.4,212.9,141.4,214.3,141.6z"/>
		<polygon class="st0" points="198.3,167.6 202.6,170.4 210.9,170.4 209.3,172.9 203.8,172.7 206.3,177.8 204.7,180.2 201.3,172.5 
			197,169.7 		"/>
		<polygon class="st0" points="184,185.2 192.4,194.1 190.6,195.7 187.3,192.3 183.8,195.6 187.1,199.2 185.4,200.9 176.9,192 
			178.7,190.2 182.4,194.1 185.9,190.7 182.2,186.9 		"/>
		<path class="st0" d="M173,209.8l-2.1,1.2l-3.2-5.8c-0.5-0.9-0.9-1.4-1.1-1.7c-0.4-0.4-0.7-0.6-1.2-0.6c-0.5-0.1-1.1,0.1-1.7,0.4
			c-0.6,0.3-0.9,0.7-1.2,1.2c-0.1,0.4-0.2,0.8-0.1,1.2c0.1,0.4,0.5,1,1,1.9l3.2,5.8l-2.1,1.3l-3.2-5.7c-0.6-1.2-1.1-2.2-1.3-2.8
			c-0.1-0.6-0.2-1.2-0.1-1.7c0.1-0.5,0.4-1.1,0.8-1.6c0.4-0.5,1-1,1.8-1.4c1.1-0.6,1.9-0.9,2.5-1c0.6,0,1.2,0,1.7,0.2
			c0.6,0.1,1,0.5,1.3,0.9c0.5,0.5,1.1,1.4,1.7,2.5L173,209.8z"/>
		<polygon class="st0" points="147.5,208.7 150.7,220.7 147.1,221.7 142.8,214.1 142.9,222.9 139.4,223.9 136.1,212 138.4,211.4 
			140.9,220.8 140.6,210.8 142.9,210 147.8,218.8 145.3,209.4 		"/>
		<path class="st0" d="M119.7,217.1l2.2-0.1l0.8-2.9l2.6-0.2l-3.7,12.7l-1.9,0.2V223l0.4,0.8l1.3-4.7l-1.7,0.1L119.7,217.1
			L119.7,217.1z M113.2,214.9l5.8,12l0.6-0.1V223l-1.7-3.7l1.7-0.1v-2.1l-2.5,0.3l-1.3-2.7L113.2,214.9z"/>
		<polygon class="st0" points="102.4,214.2 100.8,226.5 98.4,226.2 94.6,217.3 93.5,225.5 91.2,225.2 92.8,213 95.2,213.3 99,221.9 
			100.1,213.9 		"/>
		<polygon class="st0" points="81.1,209.5 77.2,221.2 74.9,220.4 78.7,208.7 		"/>
		<path class="st0" d="M61.7,214.9l-0.9-0.5v-3l3.7-6.6l-1.5-0.9c-0.6-0.3-1.1-0.6-1.4-0.6c-0.3-0.1-0.5-0.1-0.8-0.1V201
			c0.3,0,0.5,0.1,0.9,0.1c0.6,0.1,1.2,0.4,2,0.9l4,2.3L61.7,214.9L61.7,214.9z M60.7,214.4v-3l-0.2,0.5l-1-0.6
			c-0.9-0.5-1.4-0.9-1.7-1.1c-0.4-0.4-0.6-0.6-0.6-1.1c-0.2-0.4-0.2-0.9-0.1-1.4c0.2-0.5,0.4-1.2,0.9-2.1c0.4-0.8,0.9-1.4,1.3-1.8
			c0.4-0.4,0.7-0.6,1.2-0.7c0.1,0,0.1,0,0.3,0v-2.2c-0.4,0-0.8,0-1.1,0.1c-0.9,0.2-1.6,0.6-2.2,1.3c-0.6,0.5-1.2,1.2-1.7,2.1
			c-0.6,1-0.9,1.9-1,2.7c-0.2,0.9-0.2,1.6,0.1,2.3c0.1,0.8,0.4,1.4,1,1.9c0.4,0.4,1,0.8,1.9,1.3L60.7,214.4z"/>
		<path class="st0" d="M41.7,185.6l1.2,1.2l-0.9,2.8l3.7,3.2l2.5-1.5l1.9,1.7l-8.5,4.8v-2.7l2.1-1.2l-2.1-1.8L41.7,185.6L41.7,185.6
			z M40.9,184.9l-4.2,12.6l1.9,1.7l3-1.6v-2.7l-2.1,1.2l1.6-4.6l0.5,0.4v-6.4L40.9,184.9z"/>
		<path class="st0" d="M26.3,170.3c0.5-0.1,0.9-0.1,1.3,0c0.6,0.1,1.2,0.4,1.8,0.9c0.5,0.3,1,0.8,1.6,1.6l2.7,3.8l-7.3,5.5v-3.2
			l4.2-3.2l-1.1-1.4c-0.4-0.6-0.7-1-0.9-1.2c-0.4-0.2-0.6-0.4-1-0.4c-0.3-0.1-0.7-0.1-1.2,0.1L26.3,170.3L26.3,170.3z M23.9,183.9
			l2.4-1.8v-3.2l-2.2,1.7l-0.6-0.9c-0.6-0.8-0.9-1.4-1.1-1.7c-0.2-0.4-0.3-0.8-0.2-1.2c0-0.4,0.2-0.9,0.5-1.3
			c0.4-0.4,0.8-0.9,1.7-1.5c0.7-0.6,1.4-1,1.9-1.2c0.1,0,0.1-0.1,0.1-0.1v-2.4c-0.4,0-0.8,0.1-1.2,0.3c-0.7,0.2-1.4,0.6-2.3,1.2
			c-0.9,0.6-1.6,1.4-2,2.1c-0.5,0.6-0.8,1.4-0.9,2.2c-0.1,0.7-0.1,1.4,0.2,2.2c0.2,0.4,0.6,1.2,1.2,2L23.9,183.9z"/>
		<polygon class="st0" points="21.9,157.8 10.9,163 7.2,154.7 9,153.7 11.7,159.8 14.2,158.7 11.6,153.1 13.5,152.2 16,157.8 
			19.1,156.4 16.2,150.2 18.1,149.3 		"/>
		<path class="st0" d="M11.1,139.4l-0.8-2.2c0.7-0.3,1.3-0.8,1.5-1.3c0.3-0.5,0.3-1.2,0.1-1.9c-0.1-0.7-0.4-1.3-0.9-1.7
			c-0.4-0.2-0.8-0.4-1.3-0.2c-0.3,0-0.5,0.1-0.6,0.4c-0.1,0.1-0.3,0.4-0.3,0.9c-0.1,0.3-0.1,1-0.1,2.1c0,1.4-0.1,2.4-0.5,3
			c-0.4,0.9-1.2,1.4-2.1,1.7c-0.6,0.1-1.2,0.1-1.8-0.2c-0.6-0.1-1.2-0.6-1.6-1.2c-0.4-0.6-0.8-1.3-0.9-2.3c-0.4-1.5-0.4-2.7,0.1-3.5
			c0.4-1,1.2-1.6,2.3-1.9l0.6,2.4c-0.6,0.2-0.9,0.6-1.2,0.9c-0.1,0.4-0.1,1,0,1.7s0.4,1.3,0.8,1.6s0.6,0.3,1,0.3
			c0.2-0.1,0.5-0.3,0.6-0.5c0.1-0.4,0.2-1.3,0.2-2.5s0.1-2.2,0.3-2.8c0.1-0.6,0.4-1.2,0.9-1.6c0.4-0.5,1-0.7,1.7-1
			c0.7-0.1,1.4-0.1,2,0.2c0.7,0.1,1.3,0.6,1.7,1.2c0.5,0.6,0.8,1.5,1.1,2.6c0.4,1.4,0.3,2.7-0.2,3.7C13.3,138.3,12.4,139,11.1,139.4
			z"/>
		<polygon class="st0" points="36.3,133.4 63.5,188.7 144.2,188.5 189.4,130.1 117.4,38.6 103.9,56 180.1,127 145.4,186.3 
			171.5,125.1 81.2,49.6 81.6,74.5 162.5,125 144.9,185.7 153.6,124.6 53.3,70.6 53.3,96.6 144.2,125.9 144.2,185.5 135.4,127.3 
			37.7,101.3 49.9,124 126.3,130.3 144.2,187.9 117.5,133.4 		"/>
	</g>
	<path class="st0" d="M219.1,209.5c1.3,0,2.6,0.4,3.9,1c1.2,0.7,2.2,1.7,2.9,3s1.1,2.6,1.1,4s-0.4,2.7-1,4c-0.7,1.3-1.7,2.3-3,3
		c-1.2,0.7-2.5,1.1-3.9,1.1s-2.7-0.4-3.9-1.1c-1.2-0.6-2.2-1.7-2.9-3c-0.7-1.2-1.1-2.6-1.1-4s0.4-2.7,1.1-4c0.6-1.3,1.7-2.2,3-3
		C216.5,209.8,217.8,209.5,219.1,209.5L219.1,209.5z M219.1,210.8c-1.1,0-2.2,0.3-3.2,0.9c-1,0.6-1.8,1.4-2.4,2.4
		c-0.6,1.1-0.9,2.2-0.9,3.3c0,1.2,0.3,2.3,0.9,3.3c0.6,1.1,1.4,1.9,2.4,2.4c1,0.6,2.1,0.9,3.2,0.9c1.2,0,2.2-0.4,3.2-0.9
		c1.1-0.6,1.9-1.4,2.4-2.4c0.6-1,0.9-2.2,0.9-3.3c0-1.2-0.3-2.2-0.9-3.3c-0.6-1.1-1.4-1.9-2.4-2.4
		C221.2,211.1,220.1,210.8,219.1,210.8L219.1,210.8z M215.6,221.8v-8.5h3c0.9,0,1.7,0.1,2.1,0.2c0.5,0.1,0.9,0.4,1.1,0.8
		c0.3,0.4,0.4,0.9,0.4,1.3c0,0.6-0.2,1.2-0.6,1.6c-0.5,0.5-1.1,0.8-1.8,0.8c0.3,0.1,0.6,0.3,0.7,0.5c0.4,0.3,0.8,0.9,1.2,1.7
		l1.1,1.7h-1.7l-0.8-1.3c-0.6-1.1-1-1.7-1.4-2c-0.2-0.2-0.6-0.3-1.1-0.3H217v3.6h-1.4V221.8z M217,217h1.7c0.8,0,1.4-0.1,1.7-0.4
		c0.3-0.3,0.4-0.6,0.4-1c0-0.2-0.1-0.4-0.2-0.6c-0.1-0.2-0.4-0.4-0.6-0.4c-0.3-0.1-0.7-0.1-1.4-0.1H217V217z"/>
</g>
</svg>
